<?xml version="1.0" encoding="utf-8"?>
<!-- Generator: Adobe Illustrator 19.0.0, SVG Export Plug-In . SVG Version: 6.00 Build 0)  -->
<svg version="1.1" id="Layer_1" xmlns="http://www.w3.org/2000/svg" xmlns:xlink="http://www.w3.org/1999/xlink" x="0px" y="0px"
	 viewBox="44 197 700 400" style="enable-background:new 44 197 700 400;" xml:space="preserve">
<style type="text/css">
	.st0{fill:#BABABA;}
	.st1{fill:#7E266A;}
	.st2{fill:#5D88B2;}
</style>
<g>
	<g>
		<path class="st0" d="M231.6,410.7c-1.2-3.1-4.3-4.9-7.5-4.9c-1.6,0-1.7,0-2.7,0h-28.3c-3.6,0-6.3,1.7-7.5,4.8l-13.7,41.7
			c-1.3,3.5,0.5,7.4,3.9,8.8c3.5,1.3,7.4-0.5,8.7-4l3.6-9.8c0,0,0.3-1,0.3,3.3v58.1c0,5.1,4.1,9.2,9.1,9.2c5,0,9.1-4.1,9.1-9.2
			v-37.8c0,0,0-0.3,0.3-0.3h3.4c0.3,0,0.3,0.3,0.3,0.3v37.8c0,5.1,4.1,9.2,9.1,9.2s9.1-4.1,9.1-9.2v-58c0-4.4,0.4-3,0.4-3l3.5,9.5
			c1.3,3.5,5.2,5.3,8.7,4c3.5-1.3,5.3-5.2,3.9-8.8L231.6,410.7z"/>
		<path class="st0" d="M228.3,382c0,10.7-8.7,19.3-19.5,19.3c-10.8,0-19.5-8.6-19.5-19.3c0-10.7,8.7-19.3,19.5-19.3
			C219.6,362.7,228.3,371.3,228.3,382L228.3,382z"/>
		<path class="st1" d="M399.3,365c-1.7-4.5-6.1-7-10.7-7c-2.3,0-2.5,0.1-3.8,0.1h-40.5c-5.2,0-9,2.5-10.7,6.9L314,424.7
			c-1.9,5,0.7,10.6,5.6,12.5c5,1.9,10.5-0.7,12.4-5.7l5.2-14c0,0,0.4-1.4,0.4,4.8v82.8c0,7.2,5.8,13.1,13,13.1s13-5.9,13-13.1V451
			c0,0-0.1-0.5,0.4-0.5h4.9c0.5,0,0.5,0.5,0.5,0.5v54.1c0,7.2,5.8,13.1,13,13.1s13-5.9,13-13.1v-82.8c0-6.3,0.5-4.3,0.5-4.3l5,13.6
			c1.9,5,7.4,7.6,12.4,5.7c5-1.9,7.5-7.5,5.6-12.5L399.3,365z"/>
		<path class="st1" d="M394.5,324c0,15.2-12.5,27.6-27.8,27.6c-15.4,0-27.9-12.3-27.9-27.6c0-15.2,12.5-27.6,27.9-27.6
			C382.1,296.4,394.5,308.7,394.5,324L394.5,324z"/>
		<path class="st2" d="M593,339.3c-1.9-5.2-7.1-8.1-12.5-8.1c-2.6,0-2.9,0.1-4.5,0.1h-47.4c-6.1,0-10.5,2.9-12.5,8.1l-22.9,69.7
			c-2.2,5.9,0.8,12.4,6.6,14.6c5.8,2.2,12.3-0.8,14.5-6.7l6.1-16.4c0,0,0.4-1.7,0.4,5.6v96.7c0,8.5,6.8,15.3,15.2,15.3
			s15.2-6.9,15.2-15.3v-63.2c0,0-0.1-0.6,0.5-0.6h5.7c0.6,0,0.5,0.6,0.5,0.6v63.2c0,8.5,6.8,15.3,15.2,15.3s15.2-6.9,15.2-15.3
			v-96.7c0-7.3,0.6-5,0.6-5l5.9,15.9c2.2,5.9,8.7,8.9,14.5,6.7s8.8-8.8,6.6-14.6L593,339.3z"/>
		<path class="st2" d="M587.5,291.3c0,17.8-14.6,32.2-32.5,32.2c-18,0-32.5-14.4-32.5-32.2c0-17.8,14.6-32.2,32.5-32.2
			C572.9,259.1,587.5,273.5,587.5,291.3L587.5,291.3z"/>
	</g>
</g>
</svg>
