<?xml version="1.0" encoding="utf-8"?>
<!-- Generator: Adobe Illustrator 19.0.0, SVG Export Plug-In . SVG Version: 6.00 Build 0)  -->
<svg version="1.1" id="Layer_1" xmlns="http://www.w3.org/2000/svg" xmlns:xlink="http://www.w3.org/1999/xlink" x="0px" y="0px"
	 viewBox="0 0 65 65" style="enable-background:new 0 0 65 65;" xml:space="preserve">
<style type="text/css">
	.st0{fill:#367A32;}
	.st1{fill:#FFFFFF;}
</style>
<circle id="XMLID_1_" class="st0" cx="32.4" cy="31.9" r="28.1"/>
<g id="XMLID_3_">
	<path id="XMLID_4_" class="st1" d="M27.4,38c1.3,0.8,3.1,1.4,5.1,1.4c2.9,0,4.6-1.5,4.6-3.8c0-2.1-1.2-3.2-4.2-4.4
		c-3.6-1.3-5.8-3.1-5.8-6.2c0-3.4,2.8-6,7.1-6c2.3,0,3.9,0.5,4.9,1.1l-0.8,2.3c-0.7-0.4-2.2-1-4.2-1c-3,0-4.2,1.8-4.2,3.3
		c0,2.1,1.3,3.1,4.4,4.3c3.7,1.4,5.6,3.2,5.6,6.5c0,3.4-2.5,6.3-7.7,6.3c-2.1,0-4.4-0.6-5.6-1.4L27.4,38z"/>
</g>
</svg>
