<?xml version="1.0" encoding="utf-8"?>
<!-- Generator: Adobe Illustrator 19.0.0, SVG Export Plug-In . SVG Version: 6.00 Build 0)  -->
<svg version="1.1" id="Layer_1" xmlns="http://www.w3.org/2000/svg" xmlns:xlink="http://www.w3.org/1999/xlink" x="0px" y="0px"
	 viewBox="0 0 700 400" style="enable-background:new 0 0 700 400;" xml:space="preserve">
<style type="text/css">
	.st0{fill:#6E6F72;}
	.st1{fill:#EA5051;}
	.st2{fill:#676767;}
</style>
<g>
	<path class="st0" d="M700.9,199.3H-1.4c-0.2,0-0.4-0.2-0.4-0.4c0-0.2,0.2-0.4,0.4-0.4h702.3c0.2,0,0.4,0.2,0.4,0.4
		C701.3,199.2,701.1,199.3,700.9,199.3z"/>
</g>
<g>
	<g>
		<path class="st0" d="M129.9,231c-17.7,0-32.1-14.4-32.1-32.1c0-17.7,14.4-32.1,32.1-32.1s32.1,14.4,32.1,32.1
			C162,216.6,147.6,231,129.9,231z M129.9,167.7c-17.2,0-31.3,14-31.3,31.3c0,17.2,14,31.3,31.3,31.3c17.2,0,31.3-14,31.3-31.3
			C161.1,181.7,147.1,167.7,129.9,167.7z"/>
	</g>
	<g>
		<path class="st1" d="M129.9,218.6c-10.8,0-19.7-8.8-19.7-19.7c0-10.8,8.8-19.7,19.7-19.7c10.8,0,19.7,8.8,19.7,19.7
			C149.5,209.8,140.7,218.6,129.9,218.6z M129.9,181.7c-9.5,0-17.2,7.7-17.2,17.2c0,9.5,7.7,17.2,17.2,17.2
			c9.5,0,17.2-7.7,17.2-17.2C147.1,189.4,139.4,181.7,129.9,181.7z"/>
	</g>
	<g>
		<g>
			<circle class="st1" cx="129.9" cy="198.9" r="9.2"/>
		</g>
	</g>
	<g>
		<circle class="st2" cx="129.9" cy="330.7" r="5.3"/>
	</g>
	<g>
		<rect x="129.5" y="230.6" class="st2" width="0.8" height="101.8"/>
	</g>
</g>
<g>
	<g>
		<path class="st0" d="M270.4,231.5c-17.7,0-32.1-14.4-32.1-32.1c0-17.7,14.4-32.1,32.1-32.1s32.1,14.4,32.1,32.1
			C302.5,217.1,288.1,231.5,270.4,231.5z M270.4,168.2c-17.2,0-31.3,14-31.3,31.3c0,17.2,14,31.3,31.3,31.3
			c17.2,0,31.3-14,31.3-31.3C301.7,182.2,287.7,168.2,270.4,168.2z"/>
	</g>
	<g>
		<path class="st1" d="M270.4,219.1c-10.8,0-19.7-8.8-19.7-19.7c0-10.8,8.8-19.7,19.7-19.7c10.8,0,19.7,8.8,19.7,19.7
			C290.1,210.3,281.3,219.1,270.4,219.1z M270.4,182.2c-9.5,0-17.2,7.7-17.2,17.2c0,9.5,7.7,17.2,17.2,17.2
			c9.5,0,17.2-7.7,17.2-17.2C287.6,190,279.9,182.2,270.4,182.2z"/>
	</g>
	<g>
		<g>
			<circle class="st1" cx="270.4" cy="199.4" r="9.2"/>
		</g>
	</g>
	<g>
		<g>
			<g>
				<circle class="st2" cx="270.4" cy="67.7" r="5.3"/>
			</g>
		</g>
	</g>
	<g>
		<g>
			<g>
				<rect x="270" y="66" class="st2" width="0.8" height="101.8"/>
			</g>
		</g>
	</g>
</g>
<g>
	<g>
		<path class="st0" d="M406.5,231c-17.7,0-32.1-14.4-32.1-32.1c0-17.7,14.4-32.1,32.1-32.1s32.1,14.4,32.1,32.1
			C438.6,216.6,424.2,231,406.5,231z M406.5,167.7c-17.2,0-31.3,14-31.3,31.3c0,17.2,14,31.3,31.3,31.3c17.2,0,31.3-14,31.3-31.3
			C437.7,181.7,423.7,167.7,406.5,167.7z"/>
	</g>
	<g>
		<path class="st1" d="M406.5,218.6c-10.8,0-19.7-8.8-19.7-19.7c0-10.8,8.8-19.7,19.7-19.7c10.8,0,19.7,8.8,19.7,19.7
			C426.1,209.8,417.3,218.6,406.5,218.6z M406.5,181.7c-9.5,0-17.2,7.7-17.2,17.2c0,9.5,7.7,17.2,17.2,17.2
			c9.5,0,17.2-7.7,17.2-17.2C423.7,189.4,416,181.7,406.5,181.7z"/>
	</g>
	<g>
		<g>
			<circle class="st1" cx="406.5" cy="198.9" r="9.2"/>
		</g>
	</g>
	<g>
		<g>
			<g>
				<circle class="st2" cx="406.5" cy="330.7" r="5.3"/>
			</g>
		</g>
	</g>
	<g>
		<g>
			<g>
				<rect x="406.1" y="230.6" class="st2" width="0.8" height="101.8"/>
			</g>
		</g>
	</g>
</g>
<g>
	<g>
		<path class="st0" d="M547,231.5c-17.7,0-32.1-14.4-32.1-32.1c0-17.7,14.4-32.1,32.1-32.1s32.1,14.4,32.1,32.1
			C579.1,217.1,564.7,231.5,547,231.5z M547,168.2c-17.2,0-31.3,14-31.3,31.3c0,17.2,14,31.3,31.3,31.3c17.2,0,31.3-14,31.3-31.3
			C578.3,182.2,564.3,168.2,547,168.2z"/>
	</g>
	<g>
		<path class="st1" d="M547,219.1c-10.8,0-19.7-8.8-19.7-19.7c0-10.8,8.8-19.7,19.7-19.7c10.8,0,19.7,8.8,19.7,19.7
			C566.7,210.3,557.9,219.1,547,219.1z M547,182.2c-9.5,0-17.2,7.7-17.2,17.2c0,9.5,7.7,17.2,17.2,17.2c9.5,0,17.2-7.7,17.2-17.2
			C564.2,190,556.5,182.2,547,182.2z"/>
	</g>
	<g>
		<g>
			<circle class="st1" cx="547" cy="199.4" r="9.2"/>
		</g>
	</g>
	<g>
		<circle class="st2" cx="547" cy="67.7" r="5.3"/>
	</g>
	<g>
		<rect x="546.6" y="66" class="st2" width="0.8" height="101.8"/>
	</g>
</g>
<g>
	<g>
		<path class="st2" d="M95.4,155.1v-2.5l3.2-3.1c7.6-7.2,11-11.1,11.1-15.6c0-3-1.5-5.8-5.9-5.8c-2.7,0-4.9,1.4-6.3,2.5l-1.3-2.8
			c2.1-1.7,5-3,8.4-3c6.4,0,9.1,4.4,9.1,8.6c0,5.5-4,9.9-10.3,16l-2.4,2.2v0.1h13.4v3.3H95.4z"/>
		<path class="st2" d="M138.6,139.9c0,10.1-3.8,15.7-10.3,15.7c-5.8,0-9.7-5.4-9.8-15.3c0-10,4.3-15.5,10.3-15.5
			C135.1,124.9,138.6,130.5,138.6,139.9z M122.5,140.4c0,7.7,2.4,12.1,6,12.1c4.1,0,6.1-4.8,6.1-12.4c0-7.3-1.9-12.1-6-12.1
			C125.1,128,122.5,132.3,122.5,140.4z"/>
		<path class="st2" d="M151.1,129.1L151.1,129.1l-5.3,2.8l-0.8-3.1l6.5-3.5h3.4v29.7h-3.9V129.1z"/>
		<path class="st2" d="M166.8,150.5c1.1,0.7,3.8,1.9,6.6,1.9c5.2,0,6.8-3.3,6.7-5.8c0-4.2-3.8-5.9-7.7-5.9h-2.2v-3h2.2
			c2.9,0,6.6-1.5,6.6-5c0-2.4-1.5-4.5-5.2-4.5c-2.4,0-4.7,1.1-5.9,2l-1.1-2.9c1.6-1.1,4.6-2.3,7.8-2.3c5.9,0,8.5,3.5,8.5,7.1
			c0,3.1-1.8,5.7-5.5,7v0.1c3.7,0.7,6.6,3.5,6.6,7.6c0,4.8-3.7,8.9-10.8,8.9c-3.3,0-6.3-1.1-7.7-2L166.8,150.5z"/>
	</g>
</g>
<g>
	<g>
		<path class="st2" d="M237.7,281.2v-2.5l3.2-3.1c7.6-7.2,11-11.1,11.1-15.6c0-3-1.5-5.8-5.9-5.8c-2.7,0-4.9,1.4-6.3,2.5l-1.3-2.8
			c2.1-1.7,5-3,8.4-3c6.4,0,9.1,4.4,9.1,8.6c0,5.5-4,9.9-10.3,16l-2.4,2.2v0.1h13.4v3.3H237.7z"/>
		<path class="st2" d="M280.9,266c0,10.1-3.8,15.7-10.3,15.7c-5.8,0-9.7-5.4-9.8-15.3c0-10,4.3-15.5,10.3-15.5
			C277.3,251,280.9,256.6,280.9,266z M264.7,266.5c0,7.7,2.4,12.1,6,12.1c4.1,0,6.1-4.8,6.1-12.4c0-7.3-1.9-12.1-6-12.1
			C267.3,254.1,264.7,258.4,264.7,266.5z"/>
		<path class="st2" d="M293.3,255.2L293.3,255.2l-5.3,2.8l-0.8-3.1l6.5-3.5h3.4v29.7h-3.9V255.2z"/>
		<path class="st2" d="M320.5,281.2v-8.1h-13.8v-2.7l13.3-19h4.3V270h4.2v3.2h-4.2v8.1H320.5z M320.5,270v-9.9c0-1.6,0-3.1,0.1-4.7
			h-0.1c-0.9,1.7-1.6,3-2.5,4.4l-7.3,10.1v0.1H320.5z"/>
	</g>
</g>
<g>
	<g>
		<path class="st2" d="M375.3,155.1v-2.5l3.2-3.1c7.6-7.2,11-11.1,11.1-15.6c0-3-1.5-5.8-5.9-5.8c-2.7,0-4.9,1.4-6.3,2.5l-1.3-2.8
			c2.1-1.7,5-3,8.4-3c6.4,0,9.1,4.4,9.1,8.6c0,5.5-4,9.9-10.3,16l-2.4,2.2v0.1h13.4v3.3H375.3z"/>
		<path class="st2" d="M418.5,139.9c0,10.1-3.8,15.7-10.3,15.7c-5.8,0-9.7-5.4-9.8-15.3c0-10,4.3-15.5,10.3-15.5
			C415,124.9,418.5,130.5,418.5,139.9z M402.4,140.4c0,7.7,2.4,12.1,6,12.1c4.1,0,6.1-4.8,6.1-12.4c0-7.3-1.9-12.1-6-12.1
			C404.9,128,402.4,132.3,402.4,140.4z"/>
		<path class="st2" d="M431,129.1L431,129.1l-5.3,2.8l-0.8-3.1l6.5-3.5h3.4v29.7H431V129.1z"/>
		<path class="st2" d="M463.5,128.8h-11.3l-1.1,7.6c0.7-0.1,1.3-0.2,2.4-0.2c2.3,0,4.6,0.5,6.4,1.6c2.3,1.3,4.3,3.9,4.3,7.6
			c0,5.8-4.6,10.2-11.1,10.2c-3.2,0-6-0.9-7.4-1.8l1-3.1c1.2,0.7,3.7,1.6,6.4,1.6c3.8,0,7-2.5,7-6.5c0-3.8-2.6-6.6-8.6-6.6
			c-1.7,0-3,0.2-4.1,0.3l1.9-14.3h14.2V128.8z"/>
	</g>
</g>
<g>
	<path class="st2" d="M515,281.2v-2.5l3.2-3.1c7.6-7.2,11-11.1,11.1-15.6c0-3-1.5-5.8-5.9-5.8c-2.7,0-4.9,1.4-6.3,2.5l-1.3-2.8
		c2.1-1.7,5-3,8.4-3c6.4,0,9.1,4.4,9.1,8.6c0,5.5-4,9.9-10.3,16l-2.4,2.2v0.1h13.4v3.3H515z"/>
	<path class="st2" d="M558.2,266c0,10.1-3.8,15.7-10.3,15.7c-5.8,0-9.7-5.4-9.8-15.3c0-10,4.3-15.5,10.3-15.5
		C554.6,251,558.2,256.6,558.2,266z M542,266.5c0,7.7,2.4,12.1,6,12.1c4.1,0,6.1-4.8,6.1-12.4c0-7.3-1.9-12.1-6-12.1
		C544.6,254.1,542,258.4,542,266.5z"/>
	<path class="st2" d="M570.6,255.2L570.6,255.2l-5.3,2.8l-0.8-3.1l6.5-3.5h3.4v29.7h-3.9V255.2z"/>
	<path class="st2" d="M602.3,254.3c-0.8,0-1.9,0-3,0.2c-6.3,1.1-9.7,5.7-10.3,10.6h0.1c1.4-1.9,3.9-3.4,7.2-3.4c5.3,0,9,3.8,9,9.6
		c0,5.4-3.7,10.5-9.9,10.5c-6.4,0-10.5-4.9-10.5-12.7c0-5.9,2.1-10.5,5-13.4c2.5-2.4,5.8-3.9,9.5-4.4c1.2-0.2,2.2-0.2,2.9-0.2V254.3
		z M601.2,271.5c0-4.3-2.4-6.8-6.1-6.8c-2.4,0-4.7,1.5-5.8,3.7c-0.3,0.5-0.5,1.1-0.5,1.8c0.1,4.9,2.3,8.5,6.5,8.5
		C598.9,278.6,601.2,275.8,601.2,271.5z"/>
</g>
<g>
	<path class="st0" d="M312.3,199.4h-0.8c0-22.6-18.4-41.1-41.1-41.1v-0.8C293.5,157.6,312.3,176.4,312.3,199.4z"/>
</g>
<g>
	<path class="st0" d="M129.9,241.3c-23.1,0-41.9-18.8-41.9-41.9h0.8c0,22.6,18.4,41.1,41.1,41.1V241.3z"/>
</g>
<g>
	<path class="st0" d="M588.7,199.4h-0.8c0-22.6-18.4-41.1-41.1-41.1v-0.8C570,157.6,588.7,176.4,588.7,199.4z"/>
</g>
<g>
	<path class="st0" d="M406.3,241.3c-23.1,0-41.9-18.8-41.9-41.9h0.8c0,22.6,18.4,41.1,41.1,41.1V241.3z"/>
</g>
</svg>
