<?xml version="1.0" encoding="utf-8"?>
<!-- Generator: Adobe Illustrator 19.0.0, SVG Export Plug-In . SVG Version: 6.00 Build 0)  -->
<svg version="1.1" id="Layer_1" xmlns="http://www.w3.org/2000/svg" xmlns:xlink="http://www.w3.org/1999/xlink" x="0px" y="0px"
	 viewBox="44 197 700 400" style="enable-background:new 44 197 700 400;" xml:space="preserve">
<style type="text/css">
	.st0{fill:#F3F3F3;}
	.st1{fill:#838383;}
	.st2{opacity:0.65;}
	.st3{fill:#E9E9EA;}
	.st4{fill:#7E266A;}
	.st5{fill:#5D88B2;}
</style>
<g>
	<g>
		<rect x="44" y="197" class="st0" width="700" height="400"/>
		<rect x="154.1" y="556.7" class="st1" width="2" height="27.3"/>
		<rect x="307.8" y="556.7" class="st1" width="2" height="27.3"/>
		<rect x="469.7" y="556.7" class="st1" width="2" height="27.3"/>
		<rect x="631.6" y="556.7" class="st1" width="2" height="27.3"/>
	</g>
	<g class="st2">
		<rect x="74.2" y="221.6" class="st3" width="55.8" height="327"/>
		<rect x="190.8" y="221.6" class="st3" width="55.8" height="327"/>
		<rect x="307.3" y="221.6" class="st3" width="55.8" height="327"/>
		<rect x="423.9" y="221.6" class="st3" width="55.8" height="327"/>
		<rect x="540.5" y="221.6" class="st3" width="55.8" height="327"/>
		<rect x="657" y="221.6" class="st3" width="55.8" height="327"/>
	</g>
	<g>
		<rect x="90.3" y="524.4" class="st4" width="25.5" height="25.5"/>
		<rect x="90.3" y="488" class="st4" width="25.5" height="25.5"/>
		<rect x="90.3" y="451.6" class="st4" width="25.5" height="25.5"/>
		<rect x="90.3" y="415.3" class="st4" width="25.5" height="25.5"/>
		<rect x="90.3" y="378.9" class="st4" width="25.5" height="25.5"/>
		<rect x="90.3" y="342.5" class="st4" width="25.5" height="25.5"/>
	</g>
	<g>
		<rect x="126.7" y="524.4" class="st5" width="25.5" height="25.5"/>
		<rect x="126.7" y="488" class="st5" width="25.5" height="25.5"/>
		<rect x="126.7" y="451.6" class="st5" width="25.5" height="25.5"/>
		<rect x="126.7" y="415.3" class="st5" width="25.5" height="25.5"/>
	</g>
	<g>
		<rect x="163" y="524.4" class="st4" width="25.5" height="25.5"/>
		<rect x="163" y="488" class="st4" width="25.5" height="25.5"/>
		<rect x="163" y="451.6" class="st4" width="25.5" height="25.5"/>
	</g>
	<g>
		<rect x="199.4" y="524.4" class="st5" width="25.5" height="25.5"/>
		<rect x="199.4" y="488" class="st5" width="25.5" height="25.5"/>
	</g>
	<g>
		<rect x="235.8" y="524.4" class="st4" width="25.5" height="25.5"/>
		<rect x="235.8" y="488" class="st4" width="25.5" height="25.5"/>
		<rect x="235.8" y="451.6" class="st4" width="25.5" height="25.5"/>
	</g>
	<g>
		<rect x="272.1" y="524.4" class="st5" width="25.5" height="25.5"/>
		<rect x="272.1" y="488" class="st5" width="25.5" height="25.5"/>
		<rect x="272.1" y="451.6" class="st5" width="25.5" height="25.5"/>
		<rect x="272.1" y="415.3" class="st5" width="25.5" height="25.5"/>
	</g>
	<g>
		<rect x="308.5" y="524.4" class="st4" width="25.5" height="25.5"/>
		<rect x="308.5" y="488" class="st4" width="25.5" height="25.5"/>
		<rect x="308.5" y="451.6" class="st4" width="25.5" height="25.5"/>
		<rect x="308.5" y="415.3" class="st4" width="25.5" height="25.5"/>
		<rect x="308.5" y="378.9" class="st4" width="25.5" height="25.5"/>
	</g>
	<g>
		<rect x="344.9" y="524.4" class="st5" width="25.5" height="25.5"/>
		<rect x="344.9" y="488" class="st5" width="25.5" height="25.5"/>
		<rect x="344.9" y="451.6" class="st5" width="25.5" height="25.5"/>
		<rect x="344.9" y="415.3" class="st5" width="25.5" height="25.5"/>
		<rect x="344.9" y="378.9" class="st5" width="25.5" height="25.5"/>
		<rect x="344.9" y="342.5" class="st5" width="25.5" height="25.5"/>
	</g>
	<g>
		<rect x="381.3" y="524.4" class="st4" width="25.5" height="25.5"/>
		<rect x="381.3" y="488" class="st4" width="25.5" height="25.5"/>
		<rect x="381.3" y="451.6" class="st4" width="25.5" height="25.5"/>
		<rect x="381.3" y="415.3" class="st4" width="25.5" height="25.5"/>
		<rect x="381.3" y="378.9" class="st4" width="25.5" height="25.5"/>
	</g>
	<g>
		<rect x="417.6" y="524.4" class="st5" width="25.5" height="25.5"/>
		<rect x="417.6" y="488" class="st5" width="25.5" height="25.5"/>
		<rect x="417.6" y="451.6" class="st5" width="25.5" height="25.5"/>
		<rect x="417.6" y="415.3" class="st5" width="25.5" height="25.5"/>
	</g>
	<g>
		<rect x="454" y="524.4" class="st4" width="25.5" height="25.5"/>
		<rect x="454" y="488" class="st4" width="25.5" height="25.5"/>
		<rect x="454" y="451.6" class="st4" width="25.5" height="25.5"/>
		<rect x="454" y="415.3" class="st4" width="25.5" height="25.5"/>
	</g>
	<g>
		<rect x="490.4" y="524.4" class="st5" width="25.5" height="25.5"/>
		<rect x="490.4" y="488" class="st5" width="25.5" height="25.5"/>
	</g>
	<g>
		<rect x="526.8" y="524.4" class="st4" width="25.5" height="25.5"/>
		<rect x="526.8" y="488" class="st4" width="25.5" height="25.5"/>
	</g>
	<g>
		<rect x="563.1" y="524.4" class="st5" width="25.5" height="25.5"/>
		<rect x="563.1" y="488" class="st5" width="25.5" height="25.5"/>
		<rect x="563.1" y="451.6" class="st5" width="25.5" height="25.5"/>
	</g>
	<g>
		<rect x="599.5" y="524.4" class="st4" width="25.5" height="25.5"/>
		<rect x="599.5" y="488" class="st4" width="25.5" height="25.5"/>
		<rect x="599.5" y="451.6" class="st4" width="25.5" height="25.5"/>
		<rect x="599.5" y="415.3" class="st4" width="25.5" height="25.5"/>
		<rect x="599.5" y="378.9" class="st4" width="25.5" height="25.5"/>
	</g>
	<g>
		<rect x="635.9" y="524.4" class="st5" width="25.5" height="25.5"/>
		<rect x="635.9" y="488" class="st5" width="25.5" height="25.5"/>
		<rect x="635.9" y="451.6" class="st5" width="25.5" height="25.5"/>
		<rect x="635.9" y="415.3" class="st5" width="25.5" height="25.5"/>
		<rect x="635.9" y="378.9" class="st5" width="25.5" height="25.5"/>
		<rect x="635.9" y="342.5" class="st5" width="25.5" height="25.5"/>
	</g>
	<g>
		<rect x="672.3" y="524.4" class="st4" width="25.5" height="25.5"/>
		<rect x="672.3" y="488" class="st4" width="25.5" height="25.5"/>
		<rect x="672.3" y="451.6" class="st4" width="25.5" height="25.5"/>
		<rect x="672.3" y="415.3" class="st4" width="25.5" height="25.5"/>
	</g>
</g>
</svg>
