<?xml version="1.0" encoding="utf-8"?>
<!-- Generator: Adobe Illustrator 19.0.0, SVG Export Plug-In . SVG Version: 6.00 Build 0)  -->
<svg version="1.1" id="Layer_1" xmlns="http://www.w3.org/2000/svg" xmlns:xlink="http://www.w3.org/1999/xlink" x="0px" y="0px"
	 viewBox="44 197 700 400" style="enable-background:new 44 197 700 400;" xml:space="preserve">
<style type="text/css">
	.st0{fill:#7E266A;}
	.st1{fill:#5D88B2;}
	.st2{fill:#666666;}
</style>
<g>
	<path class="st0" d="M399.1,267.1c-80.7,0-146.2,65.4-146.2,146.2c0,80.7,65.5,146.2,146.2,146.2s146.2-65.4,146.2-146.2
		C545.3,332.6,479.9,267.1,399.1,267.1z M399.1,521v0.4c-59.6,0-108-48.4-108-108s48.4-108,108-108v0.3
		c59.5,0,107.7,48.2,107.7,107.6C506.8,472.8,458.6,521,399.1,521z"/>
</g>
<g>
	<path class="st1" d="M545.3,413.4L545.3,413.4c0-80.7-65.4-146.2-146.2-146.2v38.2c59.6,0,108,48.4,108,108l0,0H545.3z"/>
	<path class="st2" d="M507.1,413.3c0,59.6-48.3,108-108,108c-59.6,0-108-48.4-108-108h-38.2c0,80.7,65.4,146.2,146.2,146.2
		c80.7,0,146.2-65.4,146.2-146.2H507.1z"/>
</g>
</svg>
