<?xml version="1.0" encoding="utf-8"?>
<!-- Generator: Adobe Illustrator 19.0.0, SVG Export Plug-In . SVG Version: 6.00 Build 0)  -->
<svg version="1.1" id="Layer_1" xmlns="http://www.w3.org/2000/svg" xmlns:xlink="http://www.w3.org/1999/xlink" x="0px" y="0px"
	 viewBox="-49 272 512 250" style="enable-background:new -49 272 512 250;" xml:space="preserve">
<style type="text/css">
	.st0{clip-path:url(#SVGID_2_);fill:#D8E2E8;}
	.st1{clip-path:url(#SVGID_4_);fill:#D8E2E8;}
	.st2{clip-path:url(#SVGID_6_);fill:#D8E2E8;}
	.st3{clip-path:url(#SVGID_8_);fill:#D8E2E8;}
	.st4{clip-path:url(#SVGID_10_);fill:#D8E2E8;}
	.st5{clip-path:url(#SVGID_12_);fill:#D8E2E8;}
	.st6{clip-path:url(#SVGID_14_);fill:#D8E2E8;}
	.st7{clip-path:url(#SVGID_16_);fill:#D8E2E8;}
	.st8{clip-path:url(#SVGID_18_);fill:#D8E2E8;}
	.st9{clip-path:url(#SVGID_20_);fill:#D8E2E8;}
	.st10{clip-path:url(#SVGID_22_);fill:#D8E2E8;}
	.st11{clip-path:url(#SVGID_24_);fill:#D8E2E8;}
	.st12{clip-path:url(#SVGID_26_);fill:#D8E2E8;}
	.st13{clip-path:url(#SVGID_28_);fill:#D8E2E8;}
	.st14{clip-path:url(#SVGID_30_);fill:#D8E2E8;}
	.st15{clip-path:url(#SVGID_32_);fill:#D8E2E8;}
	.st16{clip-path:url(#SVGID_34_);fill:#D8E2E8;}
	.st17{clip-path:url(#SVGID_36_);fill:#D8E2E8;}
	.st18{clip-path:url(#SVGID_38_);fill:#D8E2E8;}
	.st19{opacity:0.6;}
	.st20{fill:#010202;}
	.st21{clip-path:url(#SVGID_40_);}
	.st22{clip-path:url(#SVGID_42_);}
	.st23{clip-path:url(#SVGID_44_);}
	.st24{clip-path:url(#SVGID_47_);}
	.st25{clip-path:url(#SVGID_48_);}
	.st26{clip-path:url(#SVGID_50_);fill:#D9AA28;}
	.st27{clip-path:url(#SVGID_53_);}
	.st28{clip-path:url(#SVGID_54_);}
	
		.st29{opacity:0.5;clip-path:url(#SVGID_56_);fill:none;stroke:#FFFFFF;stroke-width:2;stroke-miterlimit:10;enable-background:new    ;}
	.st30{clip-path:url(#SVGID_59_);}
	.st31{clip-path:url(#SVGID_60_);}
	.st32{clip-path:url(#SVGID_62_);fill:#64676B;}
	.st33{clip-path:url(#SVGID_65_);}
	.st34{clip-path:url(#SVGID_66_);}
	
		.st35{opacity:0.5;clip-path:url(#SVGID_68_);fill:none;stroke:#FFFFFF;stroke-width:2;stroke-miterlimit:10;enable-background:new    ;}
	.st36{clip-path:url(#SVGID_71_);}
	.st37{clip-path:url(#SVGID_72_);}
	.st38{clip-path:url(#SVGID_74_);fill:#5E89B4;}
	.st39{clip-path:url(#SVGID_77_);}
	.st40{clip-path:url(#SVGID_78_);}
	
		.st41{opacity:0.5;clip-path:url(#SVGID_80_);fill:none;stroke:#FFFFFF;stroke-width:2;stroke-miterlimit:10;enable-background:new    ;}
	.st42{enable-background:new    ;}
	.st43{clip-path:url(#SVGID_83_);}
	.st44{clip-path:url(#SVGID_84_);}
	.st45{clip-path:url(#SVGID_86_);fill:#04597D;}
	.st46{clip-path:url(#SVGID_89_);}
	.st47{clip-path:url(#SVGID_90_);}
	
		.st48{opacity:0.5;clip-path:url(#SVGID_92_);fill:none;stroke:#FFFFFF;stroke-width:2;stroke-miterlimit:10;enable-background:new    ;}
	.st49{clip-path:url(#SVGID_90_);enable-background:new    ;}
	.st50{clip-path:url(#SVGID_95_);}
	.st51{clip-path:url(#SVGID_96_);}
	.st52{fill:#81286D;}
	
		.st53{opacity:0.5;clip-path:url(#SVGID_98_);fill:none;stroke:#FFFFFF;stroke-width:2;stroke-miterlimit:10;enable-background:new    ;}
	.st54{clip-path:url(#SVGID_100_);fill:#D9AA28;}
	.st55{fill:none;}
	.st56{opacity:0.25;fill:none;stroke:#D9AA28;stroke-width:10;stroke-miterlimit:10;enable-background:new    ;}
	.st57{fill:#FFFFFF;}
	.st58{font-family:'Akkurat';}
	.st59{font-size:16.799px;}
</style>
<g>
	<g>
		<defs>
			<rect id="SVGID_1_" x="39.7" y="431.5" width="350" height="0.7"/>
		</defs>
		<clipPath id="SVGID_2_">
			<use xlink:href="#SVGID_1_"  style="overflow:visible;"/>
		</clipPath>
		<rect x="36.2" y="428" class="st0" width="357" height="7.7"/>
	</g>
</g>
<g>
	<g>
		<defs>
			<rect id="SVGID_3_" x="39.7" y="402.9" width="350" height="0.7"/>
		</defs>
		<clipPath id="SVGID_4_">
			<use xlink:href="#SVGID_3_"  style="overflow:visible;"/>
		</clipPath>
		<rect x="36.2" y="399.4" class="st1" width="357" height="7.7"/>
	</g>
</g>
<g>
	<g>
		<defs>
			<rect id="SVGID_5_" x="39.7" y="489" width="350" height="0.7"/>
		</defs>
		<clipPath id="SVGID_6_">
			<use xlink:href="#SVGID_5_"  style="overflow:visible;"/>
		</clipPath>
		<rect x="36.2" y="485.5" class="st2" width="357" height="7.7"/>
	</g>
</g>
<g>
	<g>
		<defs>
			<rect id="SVGID_7_" x="39.7" y="460.3" width="350" height="0.7"/>
		</defs>
		<clipPath id="SVGID_8_">
			<use xlink:href="#SVGID_7_"  style="overflow:visible;"/>
		</clipPath>
		<rect x="36.2" y="456.8" class="st3" width="357" height="7.7"/>
	</g>
</g>
<g>
	<g>
		<defs>
			<rect id="SVGID_9_" x="39.7" y="374.2" width="350" height="0.7"/>
		</defs>
		<clipPath id="SVGID_10_">
			<use xlink:href="#SVGID_9_"  style="overflow:visible;"/>
		</clipPath>
		<rect x="36.2" y="370.7" class="st4" width="357" height="7.7"/>
	</g>
</g>
<g>
	<g>
		<defs>
			<rect id="SVGID_11_" x="39.7" y="345.5" width="350" height="0.7"/>
		</defs>
		<clipPath id="SVGID_12_">
			<use xlink:href="#SVGID_11_"  style="overflow:visible;"/>
		</clipPath>
		<rect x="36.2" y="342" class="st5" width="357" height="7.7"/>
	</g>
</g>
<g>
	<g>
		<defs>
			<rect id="SVGID_13_" x="39.7" y="316.8" width="350" height="0.7"/>
		</defs>
		<clipPath id="SVGID_14_">
			<use xlink:href="#SVGID_13_"  style="overflow:visible;"/>
		</clipPath>
		<rect x="36.2" y="313.3" class="st6" width="357" height="7.7"/>
	</g>
</g>
<g>
	<g>
		<defs>
			<rect id="SVGID_15_" x="39.7" y="288" width="350" height="0.7"/>
		</defs>
		<clipPath id="SVGID_16_">
			<use xlink:href="#SVGID_15_"  style="overflow:visible;"/>
		</clipPath>
		<rect x="36.2" y="284.5" class="st7" width="357" height="7.7"/>
	</g>
</g>
<g>
	<g>
		<defs>
			<rect id="SVGID_17_" x="378.4" y="489.7" width="0.7" height="8.4"/>
		</defs>
		<clipPath id="SVGID_18_">
			<use xlink:href="#SVGID_17_"  style="overflow:visible;"/>
		</clipPath>
		<rect x="374.9" y="486.2" class="st8" width="7.7" height="15.4"/>
	</g>
</g>
<g>
	<g>
		<defs>
			<rect id="SVGID_19_" x="148.2" y="489.7" width="0.7" height="8.4"/>
		</defs>
		<clipPath id="SVGID_20_">
			<use xlink:href="#SVGID_19_"  style="overflow:visible;"/>
		</clipPath>
		<rect x="144.7" y="486.2" class="st9" width="7.7" height="15.4"/>
	</g>
</g>
<g>
	<g>
		<defs>
			<rect id="SVGID_21_" x="345.5" y="489.7" width="0.7" height="8.4"/>
		</defs>
		<clipPath id="SVGID_22_">
			<use xlink:href="#SVGID_21_"  style="overflow:visible;"/>
		</clipPath>
		<rect x="342" y="486.2" class="st10" width="7.7" height="15.4"/>
	</g>
</g>
<g>
	<g>
		<defs>
			<rect id="SVGID_23_" x="115.3" y="489.7" width="0.7" height="8.4"/>
		</defs>
		<clipPath id="SVGID_24_">
			<use xlink:href="#SVGID_23_"  style="overflow:visible;"/>
		</clipPath>
		<rect x="111.8" y="486.2" class="st11" width="7.7" height="15.4"/>
	</g>
</g>
<g>
	<g>
		<defs>
			<rect id="SVGID_25_" x="312.6" y="489.7" width="0.7" height="8.4"/>
		</defs>
		<clipPath id="SVGID_26_">
			<use xlink:href="#SVGID_25_"  style="overflow:visible;"/>
		</clipPath>
		<rect x="309.2" y="486.2" class="st12" width="7.7" height="15.4"/>
	</g>
</g>
<g>
	<g>
		<defs>
			<rect id="SVGID_27_" x="82.4" y="489.7" width="0.7" height="8.4"/>
		</defs>
		<clipPath id="SVGID_28_">
			<use xlink:href="#SVGID_27_"  style="overflow:visible;"/>
		</clipPath>
		<rect x="78.9" y="486.2" class="st13" width="7.7" height="15.4"/>
	</g>
</g>
<g>
	<g>
		<defs>
			<rect id="SVGID_29_" x="279.8" y="489.7" width="0.7" height="8.4"/>
		</defs>
		<clipPath id="SVGID_30_">
			<use xlink:href="#SVGID_29_"  style="overflow:visible;"/>
		</clipPath>
		<rect x="276.3" y="486.2" class="st14" width="7.7" height="15.4"/>
	</g>
</g>
<g>
	<g>
		<defs>
			<rect id="SVGID_31_" x="246.9" y="489.7" width="0.7" height="8.4"/>
		</defs>
		<clipPath id="SVGID_32_">
			<use xlink:href="#SVGID_31_"  style="overflow:visible;"/>
		</clipPath>
		<rect x="243.4" y="486.2" class="st15" width="7.7" height="15.4"/>
	</g>
</g>
<g>
	<g>
		<defs>
			<rect id="SVGID_33_" x="214" y="489.7" width="0.7" height="8.4"/>
		</defs>
		<clipPath id="SVGID_34_">
			<use xlink:href="#SVGID_33_"  style="overflow:visible;"/>
		</clipPath>
		<rect x="210.5" y="486.2" class="st16" width="7.7" height="15.4"/>
	</g>
</g>
<g>
	<g>
		<defs>
			<rect id="SVGID_35_" x="181.1" y="489.7" width="0.7" height="8.4"/>
		</defs>
		<clipPath id="SVGID_36_">
			<use xlink:href="#SVGID_35_"  style="overflow:visible;"/>
		</clipPath>
		<rect x="177.6" y="486.2" class="st17" width="7.7" height="15.4"/>
	</g>
</g>
<g>
	<g>
		<defs>
			<rect id="SVGID_37_" x="49.5" y="489.7" width="0.7" height="8.4"/>
		</defs>
		<clipPath id="SVGID_38_">
			<use xlink:href="#SVGID_37_"  style="overflow:visible;"/>
		</clipPath>
		<rect x="46" y="486.2" class="st18" width="7.7" height="15.4"/>
	</g>
</g>
<g>
	<g class="st19">
		<path class="st20" d="M46.2,505.8h-1.8v4.9h-0.7v-4.9h-1.8v-0.6h4.3V505.8z"/>
		<path class="st20" d="M47.5,507.5c0.1-0.3,0.3-0.5,0.5-0.6c0.2-0.2,0.4-0.2,0.7-0.2c0.1,0,0.2,0,0.2,0c0.1,0,0.1,0,0.2,0.1
			l-0.1,0.5c0,0.1-0.1,0.1-0.1,0.1s-0.1,0-0.2,0s-0.1,0-0.2,0s-0.2,0-0.3,0.1c-0.1,0.1-0.2,0.1-0.3,0.2c-0.1,0.1-0.1,0.2-0.2,0.3
			s-0.1,0.2-0.2,0.4v2.5h-0.7V507h0.4c0.1,0,0.1,0,0.2,0s0,0.1,0.1,0.1V507.5z"/>
		<path class="st20" d="M50.5,505.5c0,0.1,0,0.1,0,0.2c0,0.1-0.1,0.1-0.1,0.2c0,0.1-0.1,0.1-0.2,0.1s-0.1,0-0.2,0s-0.1,0-0.2,0
			s-0.1-0.1-0.2-0.1c0,0-0.1-0.1-0.1-0.2c0-0.1,0-0.1,0-0.2c0-0.1,0-0.1,0-0.2c0-0.1,0.1-0.1,0.1-0.2c0,0,0.1-0.1,0.2-0.1
			s0.1,0,0.2,0s0.1,0,0.2,0s0.1,0.1,0.2,0.1s0.1,0.1,0.1,0.2C50.5,505.3,50.5,505.5,50.5,505.5z M50.4,506.8v3.9h-0.7v-3.9H50.4z"/>
		<path class="st20" d="M51.4,507.3c0.2-0.2,0.4-0.4,0.7-0.5c0.3-0.1,0.5-0.2,0.8-0.2c0.2,0,0.4,0,0.6,0.1c0.2,0.1,0.3,0.2,0.4,0.3
			s0.2,0.3,0.3,0.5c0.1,0.2,0.1,0.4,0.1,0.6v2.5H54c-0.1,0-0.1,0-0.2,0l-0.1-0.1l-0.1-0.4c-0.1,0.1-0.2,0.2-0.3,0.3
			c-0.1,0.1-0.2,0.1-0.3,0.2c-0.1,0.1-0.2,0.1-0.3,0.1c-0.1,0-0.3,0-0.4,0c-0.2,0-0.3,0-0.4-0.1c-0.1,0-0.2-0.1-0.3-0.2
			c-0.1-0.1-0.2-0.2-0.2-0.3c-0.1-0.1-0.1-0.3-0.1-0.5s0-0.3,0.1-0.4c0.1-0.1,0.2-0.3,0.4-0.4c0.2-0.1,0.4-0.2,0.7-0.3
			c0.3-0.1,0.7-0.1,1.1-0.1v-0.3c0-0.3-0.1-0.5-0.2-0.7s-0.3-0.2-0.6-0.2c-0.2,0-0.3,0-0.4,0.1c-0.1,0-0.2,0.1-0.3,0.1
			s-0.2,0.1-0.2,0.1c-0.1,0-0.1,0.1-0.2,0.1h-0.1l-0.1-0.1L51.4,507.3z M53.6,508.9c-0.3,0-0.6,0-0.8,0.1c-0.2,0-0.4,0.1-0.5,0.2
			c-0.1,0.1-0.2,0.1-0.3,0.2c-0.1,0.1-0.1,0.2-0.1,0.3c0,0.1,0,0.2,0,0.3s0.1,0.1,0.1,0.2c0.1,0,0.1,0.1,0.2,0.1s0.2,0,0.3,0
			c0.1,0,0.2,0,0.3,0s0.2-0.1,0.3-0.1c0.1,0,0.2-0.1,0.3-0.2c0.1-0.1,0.2-0.1,0.2-0.2V508.9z"/>
		<path class="st20" d="M56,505v5.7h-0.7V505H56z"/>
		<path class="st20" d="M62.5,510v0.5h-3V510h1.2v-3.8c0-0.1,0-0.2,0-0.3l-1,0.8c0,0-0.1,0-0.1,0.1h-0.1h-0.1c0,0,0,0-0.1,0
			l-0.2-0.3l1.6-1.4h0.6v5h1.2V510z"/>
	</g>
</g>
<g>
	<g class="st19">
		<path class="st20" d="M112,505.8h-1.8v4.9h-0.7v-4.9h-1.8v-0.6h4.3V505.8z"/>
		<path class="st20" d="M113.3,507.5c0.1-0.3,0.3-0.5,0.5-0.6c0.2-0.2,0.4-0.2,0.7-0.2c0.1,0,0.2,0,0.2,0c0.1,0,0.1,0,0.2,0.1
			l-0.1,0.5c0,0.1-0.1,0.1-0.1,0.1s-0.1,0-0.2,0s-0.1,0-0.2,0c-0.1,0-0.2,0-0.3,0.1c-0.1,0.1-0.2,0.1-0.3,0.2
			c-0.1,0.1-0.1,0.2-0.2,0.3c-0.1,0.1-0.1,0.2-0.2,0.4v2.5h-0.7V507h0.4c0.1,0,0.1,0,0.2,0s0,0.1,0.1,0.1L113.3,507.5z"/>
		<path class="st20" d="M116.3,505.5c0,0.1,0,0.1,0,0.2c0,0.1-0.1,0.1-0.1,0.2c0,0.1-0.1,0.1-0.2,0.1c-0.1,0-0.1,0-0.2,0
			c-0.1,0-0.1,0-0.2,0c-0.1,0-0.1-0.1-0.2-0.1c0,0-0.1-0.1-0.1-0.2c0-0.1,0-0.1,0-0.2c0-0.1,0-0.1,0-0.2c0-0.1,0.1-0.1,0.1-0.2
			c0,0,0.1-0.1,0.2-0.1s0.1,0,0.2,0c0.1,0,0.1,0,0.2,0c0.1,0,0.1,0.1,0.2,0.1s0.1,0.1,0.1,0.2C116.3,505.3,116.3,505.5,116.3,505.5z
			 M116.2,506.8v3.9h-0.7v-3.9H116.2z"/>
		<path class="st20" d="M117.2,507.3c0.2-0.2,0.4-0.4,0.7-0.5c0.3-0.1,0.5-0.2,0.8-0.2c0.2,0,0.4,0,0.6,0.1c0.2,0.1,0.3,0.2,0.4,0.3
			c0.1,0.1,0.2,0.3,0.3,0.5s0.1,0.4,0.1,0.6v2.5h-0.3c-0.1,0-0.1,0-0.2,0l-0.1-0.1l-0.1-0.4c-0.1,0.1-0.2,0.2-0.3,0.3
			c-0.1,0.1-0.2,0.1-0.3,0.2c-0.1,0.1-0.2,0.1-0.3,0.1s-0.3,0-0.4,0c-0.2,0-0.3,0-0.4-0.1c-0.1,0-0.2-0.1-0.3-0.2
			c-0.1-0.1-0.2-0.2-0.2-0.3c-0.1-0.1-0.1-0.3-0.1-0.5s0-0.3,0.1-0.4c0.1-0.1,0.2-0.3,0.4-0.4c0.2-0.1,0.4-0.2,0.7-0.3
			s0.7-0.1,1.1-0.1v-0.3c0-0.3-0.1-0.5-0.2-0.7s-0.3-0.2-0.6-0.2c-0.2,0-0.3,0-0.4,0.1c-0.1,0-0.2,0.1-0.3,0.1s-0.2,0.1-0.2,0.1
			c-0.1,0-0.1,0.1-0.2,0.1h-0.1l-0.1-0.1L117.2,507.3z M119.4,508.9c-0.3,0-0.6,0-0.8,0.1c-0.2,0-0.4,0.1-0.5,0.2
			c-0.1,0.1-0.2,0.1-0.3,0.2c-0.1,0.1-0.1,0.2-0.1,0.3c0,0.1,0,0.2,0,0.3s0.1,0.1,0.1,0.2c0.1,0,0.1,0.1,0.2,0.1c0.1,0,0.2,0,0.3,0
			s0.2,0,0.3,0s0.2-0.1,0.3-0.1s0.2-0.1,0.3-0.2c0.1-0.1,0.2-0.1,0.2-0.2V508.9z"/>
		<path class="st20" d="M121.8,505v5.7h-0.7V505H121.8z"/>
		<path class="st20" d="M128.2,510c0.1,0,0.1,0,0.2,0.1c0,0,0.1,0.1,0.1,0.2v0.4h-3.7v-0.2c0,0,0-0.1,0-0.2c0-0.1,0.1-0.1,0.1-0.1
			l1.8-1.8c0.1-0.1,0.3-0.3,0.4-0.4c0.1-0.1,0.2-0.3,0.3-0.4c0.1-0.1,0.1-0.3,0.2-0.4c0-0.1,0.1-0.3,0.1-0.5s0-0.3-0.1-0.4
			c-0.1-0.1-0.1-0.2-0.2-0.3c-0.1-0.1-0.2-0.1-0.3-0.2c-0.1-0.1-0.3-0.1-0.4-0.1c-0.1,0-0.3,0-0.4,0.1c-0.1,0-0.2,0.1-0.3,0.2
			c-0.1,0.1-0.2,0.2-0.2,0.3c-0.1,0.1-0.1,0.2-0.1,0.3c0,0.1-0.1,0.1-0.1,0.2c-0.1,0-0.1,0-0.2,0l-0.4-0.1c0-0.3,0.1-0.5,0.2-0.7
			c0.1-0.2,0.2-0.4,0.4-0.5c0.2-0.1,0.3-0.2,0.5-0.3c0.2-0.1,0.4-0.1,0.7-0.1c0.2,0,0.5,0,0.7,0.1c0.2,0.1,0.4,0.2,0.5,0.3
			s0.3,0.3,0.4,0.5c0.1,0.2,0.1,0.4,0.1,0.6s0,0.4-0.1,0.6s-0.1,0.3-0.3,0.5c-0.1,0.2-0.2,0.3-0.4,0.5s-0.3,0.3-0.4,0.5l-1.5,1.5
			c0.1,0,0.2,0,0.3-0.1c0.1,0,0.2,0,0.3,0L128.2,510L128.2,510z"/>
	</g>
</g>
<g>
	<g class="st19">
		<path class="st20" d="M177.8,505.8H176v4.9h-0.7v-4.9h-1.8v-0.6h4.3V505.8z"/>
		<path class="st20" d="M179.1,507.5c0.1-0.3,0.3-0.5,0.5-0.6c0.2-0.2,0.4-0.2,0.7-0.2c0.1,0,0.2,0,0.2,0c0.1,0,0.1,0,0.2,0.1
			l-0.1,0.5c0,0.1-0.1,0.1-0.1,0.1s-0.1,0-0.2,0s-0.1,0-0.2,0c-0.1,0-0.2,0-0.3,0.1c-0.1,0.1-0.2,0.1-0.3,0.2
			c-0.1,0.1-0.1,0.2-0.2,0.3c-0.1,0.1-0.1,0.2-0.2,0.4v2.5h-0.7V507h0.4c0.1,0,0.1,0,0.2,0s0,0.1,0.1,0.1L179.1,507.5z"/>
		<path class="st20" d="M182.1,505.5c0,0.1,0,0.1,0,0.2c0,0.1-0.1,0.1-0.1,0.2c0,0.1-0.1,0.1-0.2,0.1c-0.1,0-0.1,0-0.2,0
			c-0.1,0-0.1,0-0.2,0c-0.1,0-0.1-0.1-0.2-0.1c0,0-0.1-0.1-0.1-0.2c0-0.1,0-0.1,0-0.2c0-0.1,0-0.1,0-0.2c0-0.1,0.1-0.1,0.1-0.2
			c0,0,0.1-0.1,0.2-0.1s0.1,0,0.2,0c0.1,0,0.1,0,0.2,0c0.1,0,0.1,0.1,0.2,0.1s0.1,0.1,0.1,0.2C182.1,505.3,182.1,505.5,182.1,505.5z
			 M182,506.8v3.9h-0.7v-3.9H182z"/>
		<path class="st20" d="M183,507.3c0.2-0.2,0.4-0.4,0.7-0.5c0.3-0.1,0.5-0.2,0.8-0.2c0.2,0,0.4,0,0.6,0.1c0.2,0.1,0.3,0.2,0.4,0.3
			c0.1,0.1,0.2,0.3,0.3,0.5s0.1,0.4,0.1,0.6v2.5h-0.3c-0.1,0-0.1,0-0.2,0l-0.1-0.1l-0.1-0.4c-0.1,0.1-0.2,0.2-0.3,0.3
			c-0.1,0.1-0.2,0.1-0.3,0.2c-0.1,0.1-0.2,0.1-0.3,0.1s-0.3,0-0.4,0c-0.2,0-0.3,0-0.4-0.1c-0.1,0-0.2-0.1-0.3-0.2
			c-0.1-0.1-0.2-0.2-0.2-0.3c-0.1-0.1-0.1-0.3-0.1-0.5s0-0.3,0.1-0.4c0.1-0.1,0.2-0.3,0.4-0.4c0.2-0.1,0.4-0.2,0.7-0.3
			s0.7-0.1,1.1-0.1v-0.3c0-0.3-0.1-0.5-0.2-0.7s-0.3-0.2-0.6-0.2c-0.2,0-0.3,0-0.4,0.1c-0.1,0-0.2,0.1-0.3,0.1s-0.2,0.1-0.2,0.1
			c-0.1,0-0.1,0.1-0.2,0.1h-0.1l-0.1-0.1L183,507.3z M185.2,508.9c-0.3,0-0.6,0-0.8,0.1c-0.2,0-0.4,0.1-0.5,0.2
			c-0.1,0.1-0.2,0.1-0.3,0.2c-0.1,0.1-0.1,0.2-0.1,0.3c0,0.1,0,0.2,0,0.3s0.1,0.1,0.1,0.2c0.1,0,0.1,0.1,0.2,0.1c0.1,0,0.2,0,0.3,0
			s0.2,0,0.3,0s0.2-0.1,0.3-0.1s0.2-0.1,0.3-0.2c0.1-0.1,0.2-0.1,0.2-0.2V508.9z"/>
		<path class="st20" d="M187.6,505v5.7h-0.7V505H187.6z"/>
		<path class="st20" d="M190.7,506.5c0-0.3,0.1-0.5,0.2-0.7c0.1-0.2,0.2-0.4,0.4-0.5c0.2-0.1,0.3-0.2,0.5-0.3s0.4-0.1,0.7-0.1
			c0.2,0,0.4,0,0.6,0.1c0.2,0.1,0.4,0.2,0.5,0.3s0.3,0.3,0.3,0.4c0.1,0.2,0.1,0.4,0.1,0.6s0,0.3-0.1,0.5c0,0.1-0.1,0.3-0.2,0.4
			c-0.1,0.1-0.2,0.2-0.3,0.3s-0.3,0.1-0.4,0.2c0.4,0.1,0.6,0.3,0.8,0.5s0.3,0.5,0.3,0.8s0,0.5-0.1,0.7s-0.2,0.4-0.4,0.5
			c-0.2,0.1-0.4,0.3-0.6,0.3c-0.2,0.1-0.5,0.1-0.7,0.1c-0.3,0-0.5,0-0.8-0.1c-0.2-0.1-0.4-0.2-0.5-0.3c-0.1-0.1-0.3-0.3-0.4-0.5
			s-0.2-0.4-0.2-0.6l0.3-0.1c0.1,0,0.2,0,0.2,0c0.1,0,0.1,0.1,0.2,0.1c0,0.1,0.1,0.2,0.1,0.3c0,0.1,0.1,0.2,0.2,0.3
			c0.1,0.1,0.2,0.2,0.3,0.2c0.1,0.1,0.3,0.1,0.5,0.1s0.4,0,0.5-0.1c0.1-0.1,0.3-0.1,0.4-0.2c0.1-0.1,0.2-0.2,0.2-0.3
			s0.1-0.2,0.1-0.4c0-0.1,0-0.3-0.1-0.4c0-0.1-0.1-0.2-0.2-0.3c-0.1-0.1-0.3-0.2-0.4-0.2c-0.2-0.1-0.4-0.1-0.7-0.1v-0.5
			c0.2,0,0.4,0,0.6-0.1c0.2-0.1,0.3-0.1,0.4-0.2c0.1-0.1,0.2-0.2,0.2-0.3s0.1-0.2,0.1-0.4c0-0.2,0-0.3-0.1-0.4
			c-0.1-0.1-0.1-0.2-0.2-0.3c-0.1-0.1-0.2-0.1-0.3-0.2c-0.1,0-0.2-0.1-0.4-0.1s-0.3,0-0.4,0.1c-0.1,0-0.2,0.1-0.3,0.2
			c-0.1,0.1-0.2,0.2-0.2,0.3c-0.1,0.1-0.1,0.2-0.1,0.3c0,0.1-0.1,0.1-0.1,0.2c-0.1,0-0.1,0-0.2,0L190.7,506.5z"/>
	</g>
</g>
<g>
	<g class="st19">
		<path class="st20" d="M242.9,505.8h-1.8v4.9h-0.7v-4.9h-1.8v-0.6h4.3V505.8z"/>
		<path class="st20" d="M244.2,507.5c0.1-0.3,0.3-0.5,0.5-0.6c0.2-0.1,0.4-0.2,0.7-0.2c0.1,0,0.2,0,0.2,0c0.1,0,0.1,0,0.2,0.1v0.5
			c0,0.1-0.1,0.1-0.1,0.1s-0.1,0-0.2,0s-0.1,0-0.2,0s-0.2,0-0.3,0.1c-0.1,0-0.2,0.1-0.3,0.2c-0.1,0.1-0.1,0.2-0.2,0.3
			s-0.1,0.2-0.2,0.4v2.5h-0.8V507h0.4c0.1,0,0.1,0,0.2,0s0,0.1,0.1,0.1V507.5z"/>
		<path class="st20" d="M247.2,505.5c0,0.1,0,0.1,0,0.2c0,0.1-0.1,0.1-0.1,0.2c0,0.1-0.1,0.1-0.2,0.1s-0.1,0-0.2,0s-0.1,0-0.2,0
			s-0.1-0.1-0.2-0.1c0,0-0.1-0.1-0.1-0.2c0-0.1,0-0.1,0-0.2c0-0.1,0-0.1,0-0.2c0-0.1,0.1-0.1,0.1-0.2c0,0,0.1-0.1,0.2-0.1
			s0.1,0,0.2,0s0.1,0,0.2,0s0.1,0.1,0.2,0.1s0.1,0.1,0.1,0.2S247.2,505.5,247.2,505.5z M247.1,506.8v3.9h-0.7v-3.9H247.1z"/>
		<path class="st20" d="M248.1,507.3c0.2-0.2,0.4-0.4,0.7-0.5c0.3-0.1,0.5-0.2,0.8-0.2c0.2,0,0.4,0,0.6,0.1c0.2,0.1,0.3,0.2,0.4,0.3
			s0.2,0.3,0.3,0.5c0.1,0.2,0.1,0.4,0.1,0.6v2.5h-0.3c-0.1,0-0.1,0-0.2,0l-0.1-0.1l-0.1-0.4c-0.1,0.1-0.2,0.2-0.3,0.3
			s-0.2,0.1-0.3,0.2c-0.1,0.1-0.2,0.1-0.3,0.1c-0.1,0-0.3,0-0.4,0c-0.2,0-0.3,0-0.4-0.1c-0.1-0.1-0.2-0.1-0.3-0.2
			c-0.1-0.1-0.2-0.2-0.2-0.3c-0.1-0.1-0.1-0.3-0.1-0.5s0-0.3,0.1-0.4c0.1-0.1,0.2-0.3,0.4-0.4c0.2-0.1,0.4-0.2,0.7-0.3
			s0.7-0.1,1.1-0.1v-0.3c0-0.3-0.1-0.5-0.2-0.7s-0.3-0.2-0.6-0.2c-0.2,0-0.3,0-0.4,0.1c-0.1,0-0.2,0.1-0.3,0.1
			c-0.1,0.1-0.2,0.1-0.2,0.1c-0.1,0-0.1,0.1-0.2,0.1h-0.1l-0.1-0.1L248.1,507.3z M250.3,508.9c-0.3,0-0.6,0-0.8,0.1
			c-0.2,0-0.4,0.1-0.5,0.2c-0.1,0.1-0.2,0.1-0.3,0.2c-0.1,0.1-0.1,0.2-0.1,0.3c0,0.1,0,0.2,0.1,0.3c0,0.1,0.1,0.1,0.1,0.2
			c0.1,0,0.1,0.1,0.2,0.1s0.2,0,0.3,0c0.1,0,0.2,0,0.3,0c0.1,0,0.2-0.1,0.3-0.1c0.1,0,0.2-0.1,0.3-0.2c0.1-0.1,0.2-0.1,0.2-0.2v-0.9
			H250.3z"/>
		<path class="st20" d="M252.7,505v5.7H252V505H252.7z"/>
		<path class="st20" d="M259.5,508.7v0.4v0.1h-0.1h-0.7v1.5h-0.6v-1.5h-2.4c-0.1,0-0.1,0-0.1,0l-0.1-0.1l-0.1-0.4l2.7-3.6h0.6v3.5
			h0.8V508.7z M258.1,508.7v-2.3c0-0.1,0-0.1,0-0.2c0-0.1,0-0.2,0-0.2l-2,2.7H258.1z"/>
	</g>
</g>
<g>
	<g class="st19">
		<path class="st20" d="M308,505.8h-1.8v4.9h-0.7v-4.9h-1.8v-0.6h4.3V505.8z"/>
		<path class="st20" d="M309.3,507.5c0.1-0.3,0.3-0.5,0.5-0.6c0.2-0.1,0.4-0.2,0.7-0.2c0.1,0,0.2,0,0.2,0c0.1,0,0.1,0,0.2,0.1v0.5
			c0,0.1-0.1,0.1-0.1,0.1s-0.1,0-0.2,0s-0.1,0-0.2,0s-0.2,0-0.3,0.1c-0.1,0-0.2,0.1-0.3,0.2c-0.1,0.1-0.1,0.2-0.2,0.3
			s-0.1,0.2-0.2,0.4v2.5h-0.7V507h0.4c0.1,0,0.1,0,0.2,0s0,0.1,0.1,0.1L309.3,507.5z"/>
		<path class="st20" d="M312.3,505.5c0,0.1,0,0.1,0,0.2c0,0.1-0.1,0.1-0.1,0.2c0,0.1-0.1,0.1-0.2,0.1s-0.1,0-0.2,0s-0.1,0-0.2,0
			s-0.1-0.1-0.2-0.1c0,0-0.1-0.1-0.1-0.2c0-0.1,0-0.1,0-0.2c0-0.1,0-0.1,0-0.2c0-0.1,0.1-0.1,0.1-0.2c0,0,0.1-0.1,0.2-0.1
			s0.1,0,0.2,0s0.1,0,0.2,0s0.1,0.1,0.2,0.1s0.1,0.1,0.1,0.2S312.3,505.5,312.3,505.5z M312.2,506.8v3.9h-0.7v-3.9H312.2z"/>
		<path class="st20" d="M313.2,507.3c0.2-0.2,0.4-0.4,0.7-0.5c0.3-0.1,0.5-0.2,0.8-0.2c0.2,0,0.4,0,0.6,0.1c0.2,0.1,0.3,0.2,0.4,0.3
			s0.2,0.3,0.3,0.5c0.1,0.2,0.1,0.4,0.1,0.6v2.5h-0.3c-0.1,0-0.1,0-0.2,0l-0.1-0.1l-0.1-0.4c-0.1,0.1-0.2,0.2-0.3,0.3
			s-0.2,0.1-0.3,0.2c-0.1,0.1-0.2,0.1-0.3,0.1c-0.1,0-0.3,0-0.4,0c-0.2,0-0.3,0-0.4-0.1c-0.1-0.1-0.2-0.1-0.3-0.2
			c-0.1-0.1-0.2-0.2-0.2-0.3c-0.1-0.1-0.1-0.3-0.1-0.5s0-0.3,0.1-0.4c0.1-0.1,0.2-0.3,0.4-0.4c0.2-0.1,0.4-0.2,0.7-0.3
			s0.7-0.1,1.1-0.1v-0.3c0-0.3-0.1-0.5-0.2-0.7s-0.3-0.2-0.6-0.2c-0.2,0-0.3,0-0.4,0.1c-0.1,0-0.2,0.1-0.3,0.1
			c-0.1,0.1-0.2,0.1-0.2,0.1c-0.1,0-0.1,0.1-0.2,0.1h-0.1l-0.1-0.1L313.2,507.3z M315.4,508.9c-0.3,0-0.6,0-0.8,0.1
			c-0.2,0-0.4,0.1-0.5,0.2c-0.1,0.1-0.2,0.1-0.3,0.2c-0.1,0.1-0.1,0.2-0.1,0.3c0,0.1,0,0.2,0.1,0.3c0,0.1,0.1,0.1,0.1,0.2
			c0.1,0,0.1,0.1,0.2,0.1s0.2,0,0.3,0c0.1,0,0.2,0,0.3,0c0.1,0,0.2-0.1,0.3-0.1c0.1,0,0.2-0.1,0.3-0.2c0.1-0.1,0.2-0.1,0.2-0.2v-0.9
			H315.4z"/>
		<path class="st20" d="M317.8,505v5.7h-0.7V505H317.8z"/>
		<path class="st20" d="M321.8,507.2c0.3-0.1,0.6-0.1,0.8-0.1c0.3,0,0.5,0,0.8,0.1c0.3,0.1,0.4,0.2,0.6,0.4c0.1,0.1,0.3,0.3,0.3,0.5
			c0.1,0.2,0.1,0.4,0.1,0.7s-0.1,0.6-0.2,0.8c-0.1,0.2-0.2,0.4-0.4,0.6c-0.2,0.2-0.4,0.3-0.6,0.4c-0.2,0.1-0.5,0.1-0.8,0.1
			c-0.2,0-0.3,0-0.5,0c-0.1,0-0.3-0.1-0.4-0.1c-0.1-0.1-0.3-0.1-0.4-0.2c-0.1-0.1-0.2-0.1-0.3-0.2l0.2-0.3c0-0.1,0.1-0.1,0.2-0.1
			s0.1,0,0.2,0.1c0.1,0.1,0.1,0.1,0.2,0.1s0.2,0.1,0.3,0.1c0.1,0,0.3,0.1,0.4,0.1c0.2,0,0.4,0,0.5-0.1c0.1-0.1,0.3-0.1,0.4-0.3
			c0.1-0.2,0.2-0.3,0.3-0.4c0.1-0.2,0.1-0.3,0.1-0.5s0-0.3-0.1-0.5c0-0.1-0.1-0.3-0.2-0.4c-0.1-0.1-0.2-0.2-0.4-0.2
			s-0.3-0.1-0.5-0.1c-0.1,0-0.3,0-0.4,0c-0.2,0-0.3,0.1-0.5,0.1l-0.4-0.1l0.4-2.6h2.6v0.3c0,0.1,0,0.2-0.1,0.2
			c-0.1,0.1-0.2,0.1-0.3,0.1H322L321.8,507.2z"/>
	</g>
</g>
<g>
	<g class="st19">
		<path class="st20" d="M374.5,505.8h-1.8v4.9H372v-4.9h-1.8v-0.6h4.3V505.8z"/>
		<path class="st20" d="M375.8,507.5c0.1-0.3,0.3-0.5,0.5-0.6c0.2-0.1,0.4-0.2,0.7-0.2c0.1,0,0.2,0,0.2,0c0.1,0,0.1,0,0.2,0.1v0.5
			c0,0.1-0.1,0.1-0.1,0.1s-0.1,0-0.2,0s-0.1,0-0.2,0s-0.2,0-0.3,0.1c-0.1,0-0.2,0.1-0.3,0.2c-0.1,0.1-0.1,0.2-0.2,0.3
			s-0.1,0.2-0.2,0.4v2.5h-0.7V507h0.4c0.1,0,0.1,0,0.2,0s0,0.1,0.1,0.1L375.8,507.5z"/>
		<path class="st20" d="M378.8,505.5c0,0.1,0,0.1,0,0.2c0,0.1-0.1,0.1-0.1,0.2c0,0.1-0.1,0.1-0.2,0.1s-0.1,0-0.2,0s-0.1,0-0.2,0
			s-0.1-0.1-0.2-0.1c0,0-0.1-0.1-0.1-0.2c0-0.1,0-0.1,0-0.2c0-0.1,0-0.1,0-0.2c0-0.1,0.1-0.1,0.1-0.2c0,0,0.1-0.1,0.2-0.1
			s0.1,0,0.2,0s0.1,0,0.2,0s0.1,0.1,0.2,0.1s0.1,0.1,0.1,0.2S378.8,505.5,378.8,505.5z M378.7,506.8v3.9H378v-3.9H378.7z"/>
		<path class="st20" d="M379.7,507.3c0.2-0.2,0.4-0.4,0.7-0.5c0.3-0.1,0.5-0.2,0.8-0.2c0.2,0,0.4,0,0.6,0.1c0.2,0.1,0.3,0.2,0.4,0.3
			s0.2,0.3,0.3,0.5c0.1,0.2,0.1,0.4,0.1,0.6v2.5h-0.3c-0.1,0-0.1,0-0.2,0l-0.1-0.1l-0.1-0.4c-0.1,0.1-0.2,0.2-0.3,0.3
			s-0.2,0.1-0.3,0.2c-0.1,0.1-0.2,0.1-0.3,0.1c-0.1,0-0.3,0-0.4,0c-0.2,0-0.3,0-0.4-0.1c-0.1-0.1-0.2-0.1-0.3-0.2
			c-0.1-0.1-0.2-0.2-0.2-0.3c-0.1-0.1-0.1-0.3-0.1-0.5s0-0.3,0.1-0.4c0.1-0.1,0.2-0.3,0.4-0.4c0.2-0.1,0.4-0.2,0.7-0.3
			s0.7-0.1,1.1-0.1v-0.3c0-0.3-0.1-0.5-0.2-0.7s-0.3-0.2-0.6-0.2c-0.2,0-0.3,0-0.4,0.1c-0.1,0-0.2,0.1-0.3,0.1
			c-0.1,0.1-0.2,0.1-0.2,0.1c-0.1,0-0.1,0.1-0.2,0.1h-0.1l-0.1-0.1L379.7,507.3z M381.9,508.9c-0.3,0-0.6,0-0.8,0.1
			c-0.2,0-0.4,0.1-0.5,0.2c-0.1,0.1-0.2,0.1-0.3,0.2c-0.1,0.1-0.1,0.2-0.1,0.3c0,0.1,0,0.2,0.1,0.3c0,0.1,0.1,0.1,0.1,0.2
			c0.1,0,0.1,0.1,0.2,0.1s0.2,0,0.3,0c0.1,0,0.2,0,0.3,0c0.1,0,0.2-0.1,0.3-0.1c0.1,0,0.2-0.1,0.3-0.2c0.1-0.1,0.2-0.1,0.2-0.2v-0.9
			H381.9z"/>
		<path class="st20" d="M384.3,505v5.7h-0.7V505H384.3z"/>
		<path class="st20" d="M388.7,507.2c0,0.1-0.1,0.1-0.1,0.2c0,0.1-0.1,0.1-0.1,0.2c0.1-0.1,0.3-0.2,0.4-0.2s0.3-0.1,0.5-0.1
			s0.4,0,0.6,0.1c0.2,0.1,0.4,0.2,0.5,0.3s0.3,0.3,0.4,0.5s0.1,0.4,0.1,0.7c0,0.3,0,0.5-0.1,0.7s-0.2,0.4-0.4,0.6
			c-0.2,0.2-0.4,0.3-0.6,0.4c-0.2,0.1-0.5,0.1-0.8,0.1s-0.5,0-0.8-0.1c-0.2-0.1-0.4-0.2-0.6-0.4s-0.3-0.4-0.4-0.6s-0.1-0.5-0.1-0.8
			c0-0.2,0.1-0.5,0.2-0.8s0.3-0.6,0.5-0.9l1.4-1.9l0.1-0.1c0.1,0,0.1,0,0.2,0h0.6L388.7,507.2z M389.1,510c0.2,0,0.4,0,0.5-0.1
			c0.1-0.1,0.3-0.1,0.4-0.2c0.1-0.1,0.2-0.2,0.2-0.4c0.1-0.1,0.1-0.3,0.1-0.5s0-0.3-0.1-0.5c-0.1-0.1-0.1-0.3-0.2-0.4
			c-0.1-0.1-0.2-0.2-0.4-0.2c-0.1-0.1-0.3-0.1-0.5-0.1s-0.4,0-0.5,0.1c-0.1,0.1-0.3,0.1-0.4,0.3c-0.1,0.2-0.2,0.2-0.2,0.4
			c-0.1,0.1-0.1,0.3-0.1,0.4c0,0.2,0,0.3,0.1,0.5c0.1,0.1,0.1,0.3,0.2,0.4c0.1,0.1,0.2,0.2,0.4,0.2S388.9,510,389.1,510z"/>
	</g>
</g>
<g>
	<g>
		<g>
			<defs>
				<rect id="SVGID_39_" x="39.7" y="283.2" width="350" height="207.2"/>
			</defs>
			<clipPath id="SVGID_40_">
				<use xlink:href="#SVGID_39_"  style="overflow:visible;"/>
			</clipPath>
			<g class="st21">
				<g>
					<defs>
						<rect id="SVGID_41_" x="39.7" y="283.2" width="350" height="207.2"/>
					</defs>
					<clipPath id="SVGID_42_">
						<use xlink:href="#SVGID_41_"  style="overflow:visible;"/>
					</clipPath>
					<g class="st22">
						<g>
							<g>
								<defs>
									<rect id="SVGID_43_" x="39.7" y="283.2" width="350" height="207.2"/>
								</defs>
								<clipPath id="SVGID_44_">
									<use xlink:href="#SVGID_43_"  style="overflow:visible;"/>
								</clipPath>
								<g class="st23">
									<g>
										<defs>
											<polygon id="SVGID_45_" points="40.3,489.7 40.3,449.5 58.4,438.2 78.6,441 107.2,441 129.4,429 147,426 175.3,433.5 
												215,429 231.6,388.3 238,353.4 257,367.2 277.2,370.7 306.5,350.5 321.3,329.5 346.3,316.2 354,305.2 363.6,302.4 
												371.3,295.8 379.8,287.4 389.6,283.7 389.6,418.5 389.6,489.7 											"/>
										</defs>
										<defs>
											<rect id="SVGID_46_" x="39.7" y="283.2" width="350" height="207.2"/>
										</defs>
										<clipPath id="SVGID_47_">
											<use xlink:href="#SVGID_45_"  style="overflow:visible;"/>
										</clipPath>
										<clipPath id="SVGID_48_" class="st24">
											<use xlink:href="#SVGID_46_"  style="overflow:visible;"/>
										</clipPath>
										<g class="st25">
											<g>
												<defs>
													<rect id="SVGID_49_" x="39.7" y="283.2" width="350" height="207.2"/>
												</defs>
												<clipPath id="SVGID_50_">
													<use xlink:href="#SVGID_49_"  style="overflow:visible;"/>
												</clipPath>
												<polygon class="st26" points="40.3,489.7 40.3,449.5 58.4,438.2 78.6,441 107.2,441 129.4,429 147,426 175.3,433.5 
													215,429 231.6,388.3 238,353.4 257,367.2 277.2,370.7 306.5,350.5 321.3,329.5 346.3,316.2 354,305.2 363.6,302.4 
													371.3,295.8 379.8,287.4 389.6,283.7 389.6,418.5 389.6,489.7 												"/>
											</g>
										</g>
										<g class="st25">
											<g>
												<defs>
													<polygon id="SVGID_51_" points="40.3,489.7 40.3,449.5 58.4,438.2 78.6,441 107.2,441 129.4,429 147,426 175.3,433.5 
														215,429 231.6,388.3 238,353.4 257,367.2 277.2,370.7 306.5,350.5 321.3,329.5 346.3,316.2 354,305.2 363.6,302.4 
														371.3,295.8 379.8,287.4 389.6,283.7 389.6,418.5 389.6,489.7 													"/>
												</defs>
												<defs>
													<rect id="SVGID_52_" x="39.7" y="283.2" width="350" height="207.2"/>
												</defs>
												<clipPath id="SVGID_53_">
													<use xlink:href="#SVGID_51_"  style="overflow:visible;"/>
												</clipPath>
												<clipPath id="SVGID_54_" class="st27">
													<use xlink:href="#SVGID_52_"  style="overflow:visible;"/>
												</clipPath>
												<g class="st28">
													<g>
														<defs>
															<rect id="SVGID_55_" x="39.7" y="283.2" width="350" height="207.2"/>
														</defs>
														<clipPath id="SVGID_56_">
															<use xlink:href="#SVGID_55_"  style="overflow:visible;"/>
														</clipPath>
														<polygon class="st29" points="40.3,489.7 40.3,449.5 58.4,438.2 78.6,441 107.2,441 129.4,429 147,426 175.3,433.5 
															215,429 231.6,388.3 238,353.4 257,367.2 277.2,370.7 306.5,350.5 321.3,329.5 346.3,316.2 354,305.2 363.6,302.4 
															371.3,295.8 379.8,287.4 389.6,283.7 389.6,418.5 389.6,489.7 														"/>
													</g>
												</g>
												<g class="st28">
													<g>
														<defs>
															<polygon id="SVGID_57_" points="40.3,489.7 40.3,454.8 59.4,445.2 72.1,448.5 89.7,448.5 111.8,445.2 132.3,440.5 
																146.3,433.5 165,440.5 179.7,448.5 200,452.8 228.6,454.8 239,433.5 257.1,440.5 291.6,427 304.8,428.7 321.4,440.5 
																345.8,428.7 370.9,415.5 389.6,406.9 389.6,467.8 389.6,489.7 															"/>
														</defs>
														<defs>
															<rect id="SVGID_58_" x="39.7" y="283.2" width="350" height="207.2"/>
														</defs>
														<clipPath id="SVGID_59_">
															<use xlink:href="#SVGID_57_"  style="overflow:visible;"/>
														</clipPath>
														<clipPath id="SVGID_60_" class="st30">
															<use xlink:href="#SVGID_58_"  style="overflow:visible;"/>
														</clipPath>
														<g class="st31">
															<g>
																<defs>
																	<rect id="SVGID_61_" x="39.7" y="283.2" width="350" height="207.2"/>
																</defs>
																<clipPath id="SVGID_62_">
																	<use xlink:href="#SVGID_61_"  style="overflow:visible;"/>
																</clipPath>
																<polygon class="st32" points="40.3,489.7 40.3,454.8 59.4,445.2 72.1,448.5 89.7,448.5 111.8,445.2 132.3,440.5 
																	146.3,433.5 165,440.5 179.7,448.5 200,452.8 228.6,454.8 239,433.5 257.1,440.5 291.6,427 304.8,428.7 
																	321.4,440.5 345.8,428.7 370.9,415.5 389.6,406.9 389.6,467.8 389.6,489.7 																"/>
															</g>
														</g>
														<g class="st31">
															<g>
																<defs>
																	<polygon id="SVGID_63_" points="40.3,489.7 40.3,454.8 59.4,445.2 72.1,448.5 89.7,448.5 111.8,445.2 132.3,440.5 
																		146.3,433.5 165,440.5 179.7,448.5 200,452.8 228.6,454.8 239,433.5 257.1,440.5 291.6,427 304.8,428.7 
																		321.4,440.5 345.8,428.7 370.9,415.5 389.6,406.9 389.6,467.8 389.6,489.7 																	"/>
																</defs>
																<defs>
																	<rect id="SVGID_64_" x="39.7" y="283.2" width="350" height="207.2"/>
																</defs>
																<clipPath id="SVGID_65_">
																	<use xlink:href="#SVGID_63_"  style="overflow:visible;"/>
																</clipPath>
																<clipPath id="SVGID_66_" class="st33">
																	<use xlink:href="#SVGID_64_"  style="overflow:visible;"/>
																</clipPath>
																<g class="st34">
																	<g>
																		<defs>
																			<rect id="SVGID_67_" x="39.7" y="283.2" width="350" height="207.2"/>
																		</defs>
																		<clipPath id="SVGID_68_">
																			<use xlink:href="#SVGID_67_"  style="overflow:visible;"/>
																		</clipPath>
																		<polygon class="st35" points="40.3,489.7 40.3,454.8 59.4,445.2 72.1,448.5 89.7,448.5 111.8,445.2 132.3,440.5 
																			146.3,433.5 165,440.5 179.7,448.5 200,452.8 228.6,454.8 239,433.5 257.1,440.5 291.6,427 304.8,428.7 
																			321.4,440.5 345.8,428.7 370.9,415.5 389.6,406.9 389.6,467.8 389.6,489.7 																		"/>
																	</g>
																</g>
																<g class="st34">
																	<g>
																		<defs>
																			<polygon id="SVGID_69_" points="40.3,489.7 40.3,461.3 58.8,453.3 71.9,454.8 84.5,463.5 111.7,454.8 
																				131.7,454.8 145.7,445.4 163.3,463.5 176.1,466.8 198,458.8 215,461.3 232.8,461.3 243.8,443.7 264.6,447.7 
																				302,443.7 328,443.7 348,434.8 372.1,427.9 389.6,417 389.6,479.5 389.6,489.7 																			"/>
																		</defs>
																		<defs>
																			<rect id="SVGID_70_" x="39.7" y="283.2" width="350" height="207.2"/>
																		</defs>
																		<clipPath id="SVGID_71_">
																			<use xlink:href="#SVGID_69_"  style="overflow:visible;"/>
																		</clipPath>
																		<clipPath id="SVGID_72_" class="st36">
																			<use xlink:href="#SVGID_70_"  style="overflow:visible;"/>
																		</clipPath>
																		<g class="st37">
																			<g>
																				<defs>
																					<rect id="SVGID_73_" x="39.7" y="283.2" width="350" height="207.2"/>
																				</defs>
																				<clipPath id="SVGID_74_">
																					<use xlink:href="#SVGID_73_"  style="overflow:visible;"/>
																				</clipPath>
																				<polygon class="st38" points="40.3,489.7 40.3,461.3 58.8,453.3 71.9,454.8 84.5,463.5 111.7,454.8 
																					131.7,454.8 145.7,445.4 163.3,463.5 176.1,466.8 198,458.8 215,461.3 232.8,461.3 243.8,443.7 264.6,447.7 
																					302,443.7 328,443.7 348,434.8 372.1,427.9 389.6,417 389.6,479.5 389.6,489.7 																				"/>
																			</g>
																		</g>
																		<g class="st37">
																			<g>
																				<defs>
																					<polygon id="SVGID_75_" points="40.3,489.7 40.3,461.3 58.8,453.3 71.9,454.8 84.5,463.5 111.7,454.8 
																						131.7,454.8 145.7,445.4 163.3,463.5 176.1,466.8 198,458.8 215,461.3 232.8,461.3 243.8,443.7 264.6,447.7 
																						302,443.7 328,443.7 348,434.8 372.1,427.9 389.6,417 389.6,479.5 389.6,489.7 																					"/>
																				</defs>
																				<defs>
																					<rect id="SVGID_76_" x="39.7" y="283.2" width="350" height="207.2"/>
																				</defs>
																				<clipPath id="SVGID_77_">
																					<use xlink:href="#SVGID_75_"  style="overflow:visible;"/>
																				</clipPath>
																				<clipPath id="SVGID_78_" class="st39">
																					<use xlink:href="#SVGID_76_"  style="overflow:visible;"/>
																				</clipPath>
																				<g class="st40">
																					<g>
																						<defs>
																							<rect id="SVGID_79_" x="39.7" y="283.2" width="350" height="207.2"/>
																						</defs>
																						<clipPath id="SVGID_80_">
																							<use xlink:href="#SVGID_79_"  style="overflow:visible;"/>
																						</clipPath>
																						<polygon class="st41" points="40.3,489.7 40.3,461.3 58.8,453.3 71.9,454.8 84.5,463.5 111.7,454.8 
																							131.7,454.8 145.7,445.4 163.3,463.5 176.1,466.8 198,458.8 215,461.3 232.8,461.3 243.8,443.7 264.6,447.7 
																							302,443.7 328,443.7 348,434.8 372.1,427.9 389.6,417 389.6,479.5 389.6,489.7 																						"/>
																					</g>
																				</g>
																				<g class="st40">
																					<g class="st42">
																						<defs>
																							<polygon id="SVGID_81_" class="st42" points="40.3,489.7 40.3,462.9 59.6,457.5 71.7,457.5 84.1,466.4 
																								109.1,461.2 129.3,457.5 148.6,453.5 162.7,466.4 176.2,469.2 198.5,461.2 215,464.5 233,464.5 246,451.7 
																								266.6,450.5 295.6,450.5 309.7,446.5 330.2,448.5 346.6,450.5 358.3,448.5 372.1,441.9 389.6,430.4 
																								389.6,483.8 389.6,489.7 																							"/>
																						</defs>
																						<defs>
																							<rect id="SVGID_82_" x="39.7" y="283.2" class="st42" width="350" height="207.2"/>
																						</defs>
																						<clipPath id="SVGID_83_">
																							<use xlink:href="#SVGID_81_"  style="overflow:visible;"/>
																						</clipPath>
																						<clipPath id="SVGID_84_" class="st43">
																							<use xlink:href="#SVGID_82_"  style="overflow:visible;"/>
																						</clipPath>
																						<g class="st44">
																							<g>
																								<defs>
																									<rect id="SVGID_85_" x="39.7" y="283.2" width="350" height="207.2"/>
																								</defs>
																								<clipPath id="SVGID_86_">
																									<use xlink:href="#SVGID_85_"  style="overflow:visible;"/>
																								</clipPath>
																								<polygon class="st45" points="40.3,489.7 40.3,462.9 59.6,457.5 71.7,457.5 84.1,466.4 109.1,461.2 
																									129.3,457.5 148.6,453.5 162.7,466.4 176.2,469.2 198.5,461.2 215,464.5 233,464.5 246,451.7 266.6,450.5 
																									295.6,450.5 309.7,446.5 330.2,448.5 346.6,450.5 358.3,448.5 372.1,441.9 389.6,430.4 389.6,483.8 
																									389.6,489.7 																								"/>
																							</g>
																						</g>
																						<g class="st44">
																							<g>
																								<defs>
																									<polygon id="SVGID_87_" points="40.3,489.7 40.3,462.9 59.6,457.5 71.7,457.5 84.1,466.4 109.1,461.2 
																										129.3,457.5 148.6,453.5 162.7,466.4 176.2,469.2 198.5,461.2 215,464.5 233,464.5 246,451.7 266.6,450.5 
																										295.6,450.5 309.7,446.5 330.2,448.5 346.6,450.5 358.3,448.5 372.1,441.9 389.6,430.4 389.6,483.8 
																										389.6,489.7 																									"/>
																								</defs>
																								<defs>
																									<rect id="SVGID_88_" x="39.7" y="283.2" width="350" height="207.2"/>
																								</defs>
																								<clipPath id="SVGID_89_">
																									<use xlink:href="#SVGID_87_"  style="overflow:visible;"/>
																								</clipPath>
																								<clipPath id="SVGID_90_" class="st46">
																									<use xlink:href="#SVGID_88_"  style="overflow:visible;"/>
																								</clipPath>
																								<g class="st47">
																									<g>
																										<defs>
																											<rect id="SVGID_91_" x="39.7" y="283.2" width="350" height="207.2"/>
																										</defs>
																										<clipPath id="SVGID_92_">
																											<use xlink:href="#SVGID_91_"  style="overflow:visible;"/>
																										</clipPath>
																										<polygon class="st48" points="40.3,489.7 40.3,462.9 59.6,457.5 71.7,457.5 84.1,466.4 109.1,461.2 
																											129.3,457.5 148.6,453.5 162.7,466.4 176.2,469.2 198.5,461.2 215,464.5 233,464.5 246,451.7 
																											266.6,450.5 295.6,450.5 309.7,446.5 330.2,448.5 346.6,450.5 358.3,448.5 372.1,441.9 389.6,430.4 
																											389.6,483.8 389.6,489.7 																										"/>
																									</g>
																								</g>
																								<g class="st49">
																									<g>
																										<defs>
																											<path id="SVGID_93_" d="M40.3,489.7v-22.4l14.7-1.4l15.1,6.6l15.5,7.8l17.7-7.8l52.1-6.6l7.3,4.3
																												l13.5,2.3l23.3-9l15.4,5.1l23.9,8.1l18.5-13.2l20.5-4c0.4,0.4,15.1,0,15.1,0l18.1-3l12,7l13.8,3.7
																												l13-6.5l15.3-1.3l16.4-8.5l8.1-20.7v54.4v4.9H40.3V489.7z"/>
																										</defs>
																										<defs>
																											<rect id="SVGID_94_" x="39.7" y="283.2" width="350" height="207.2"/>
																										</defs>
																										<clipPath id="SVGID_95_">
																											<use xlink:href="#SVGID_93_"  style="overflow:visible;"/>
																										</clipPath>
																										<clipPath id="SVGID_96_" class="st50">
																											<use xlink:href="#SVGID_94_"  style="overflow:visible;"/>
																										</clipPath>
																										<g class="st51">
																											<g>
																												<path class="st52" d="M40.3,489.7v-22.4l14.7-1.4l15.1,6.6l15.5,7.8l17.7-7.8l52.1-6.6l7.3,4.3
																													l13.5,2.3l23.3-9l15.4,5.1l23.9,8.1l18.5-13.2l20.5-4c0.4,0.4,15.1,0,15.1,0l18.1-3l12,7l13.8,3.7
																													l13-6.5l15.3-1.3l16.4-8.5l8.1-20.7v54.4v4.9H40.3V489.7z"/>
																											</g>
																										</g>
																										<g class="st51">
																											<g>
																												<defs>
																													<rect id="SVGID_97_" x="39.7" y="283.2" width="350" height="207.2"/>
																												</defs>
																												<clipPath id="SVGID_98_">
																													<use xlink:href="#SVGID_97_"  style="overflow:visible;"/>
																												</clipPath>
																												<path class="st53" d="M40.3,489.7v-22.4l14.7-1.4l15.1,6.6l15.5,7.8l17.7-7.8l52.1-6.6l7.3,4.3
																													l13.5,2.3l23.3-9l15.4,5.1l23.9,8.1l18.5-13.2l20.5-4c0.4,0.4,15.1,0,15.1,0l18.1-3l12,7l13.8,3.7
																													l13-6.5l15.3-1.3l16.4-8.5l8.1-20.7v54.4v4.9H40.3V489.7z"/>
																											</g>
																										</g>
																									</g>
																								</g>
																							</g>
																						</g>
																					</g>
																					<g>
																						<g>
																							<defs>
																								<polygon id="SVGID_99_" points="223.8,347.2 223.8,342 174.1,342 174.1,363 223.8,363 223.8,357.7 
																									229,352.5 																								"/>
																							</defs>
																							<clipPath id="SVGID_100_">
																								<use xlink:href="#SVGID_99_"  style="overflow:visible;"/>
																							</clipPath>
																							<rect x="170.6" y="338.5" class="st54" width="61.9" height="28"/>
																						</g>
																					</g>
																					<circle class="st55" cx="238.5" cy="352.5" r="2.8"/>
																					<circle class="st56" cx="238.5" cy="352.5" r="2.8"/>
																					<text transform="matrix(1 0 0 1 182.4571 358.0099)" class="st57 st58 st59">67.3</text>
																				</g>
																			</g>
																		</g>
																	</g>
																</g>
															</g>
														</g>
													</g>
												</g>
											</g>
										</g>
									</g>
								</g>
							</g>
						</g>
					</g>
				</g>
			</g>
		</g>
	</g>
</g>
<rect x="39.7" y="283.2" class="st55" width="350" height="207.2"/>
<path class="st55" d="M40.3,489.7v-22.4l14.7-1.4l15.1,6.6l15.5,7.8l17.7-7.8l52.1-6.6l7.3,4.3l13.5,2.3l23.3-9l15.4,5.1l23.9,8.1
	l18.5-13.2l20.5-4c0.4,0.4,15.1,0,15.1,0l18.1-3l12,7l13.8,3.7l13-6.5l15.3-1.3l16.4-8.5l8.1-20.7v54.4v4.9H40.3V489.7z"/>
</svg>
