<?xml version="1.0" encoding="utf-8"?>
<!-- Generator: Adobe Illustrator 19.0.0, SVG Export Plug-In . SVG Version: 6.00 Build 0)  -->
<svg version="1.1" id="Layer_1" xmlns="http://www.w3.org/2000/svg" xmlns:xlink="http://www.w3.org/1999/xlink" x="0px" y="0px"
	 viewBox="0 131 512 250" style="enable-background:new 0 131 512 250;" xml:space="preserve">
<style type="text/css">
	.st0{clip-path:url(#SVGID_2_);fill:#D9AA28;}
	.st1{opacity:0.6;fill:#EAEAEA;enable-background:new    ;}
	.st2{fill:none;}
	.st3{clip-path:url(#SVGID_4_);fill:#D7D8D8;}
	.st4{clip-path:url(#SVGID_6_);fill:#D7D8D8;}
	.st5{clip-path:url(#SVGID_8_);fill:#D7D8D8;}
	.st6{clip-path:url(#SVGID_10_);fill:#D7D8D8;}
	.st7{clip-path:url(#SVGID_12_);fill:#D9AA28;}
	.st8{clip-path:url(#SVGID_14_);fill:#D7D8D8;}
	.st9{clip-path:url(#SVGID_16_);fill:#D7D8D8;}
</style>
<g>
	<g>
		<g>
			<defs>
				<polygon id="SVGID_1_" points="311,377.1 330.9,377.1 320.9,360.6 				"/>
			</defs>
			<clipPath id="SVGID_2_">
				<use xlink:href="#SVGID_1_"  style="overflow:visible;"/>
			</clipPath>
			<rect x="302.7" y="352.3" class="st0" width="36.5" height="33.2"/>
		</g>
	</g>
	<rect x="231.1" y="136.6" class="st1" width="49.8" height="215.7"/>
	<path class="st2" d="M244.4,144.9c0,0-5,0-5,5V339c0,0,0,5,5,5h23.2c0,0,5,0,5-5V149.8c0,0,0-5-5-5L244.4,144.9L244.4,144.9z"/>
	<rect x="98.4" y="136.6" class="st1" width="49.8" height="215.7"/>
	<path class="st2" d="M111.6,144.9c0,0-5,0-5,5V339c0,0,0,5,5,5h23.2c0,0,5,0,5-5V149.8c0,0,0-5-5-5L111.6,144.9L111.6,144.9z"/>
	<rect x="363.9" y="136.6" class="st1" width="49.8" height="215.7"/>
	<path class="st2" d="M377.1,144.9c0,0-5,0-5,5V339c0,0,0,5,5,5h23.2c0,0,5,0,5-5V149.8c0,0,0-5-5-5L377.1,144.9L377.1,144.9z"/>
	<rect x="32" y="136.6" class="st1" width="49.8" height="215.7"/>
	<path class="st2" d="M45.3,144.9c0,0-5,0-5,5V339c0,0,0,5,5,5h23.2c0,0,5,0,5-5V149.8c0,0,0-5-5-5L45.3,144.9L45.3,144.9z"/>
	<rect x="297.5" y="136.6" class="st1" width="49.8" height="215.7"/>
	<path class="st2" d="M310.8,144.9c0,0-5,0-5,5V339c0,0,0,5,5,5H334c0,0,5,0,5-5V149.8c0,0,0-5-5-5L310.8,144.9L310.8,144.9z"/>
	<rect x="164.7" y="136.6" class="st1" width="49.8" height="215.7"/>
	<path class="st2" d="M178,144.9c0,0-5,0-5,5V339c0,0,0,5,5,5h23.2c0,0,5,0,5-5V149.8c0,0,0-5-5-5L178,144.9L178,144.9z"/>
	<rect x="430.2" y="136.6" class="st1" width="49.8" height="215.7"/>
	<path class="st2" d="M443.5,144.9c0,0-5,0-5,5V339c0,0,0,5,5,5h23.2c0,0,5,0,5-5V149.8c0,0,0-5-5-5L443.5,144.9L443.5,144.9z"/>
	<g>
		<g>
			<defs>
				<path id="SVGID_3_" d="M244.4,283.2c0,0-5,0-5,5V339c0,0,0,5,5,5h23.2c0,0,5,0,5-5v-50.8c0,0,0-5-5-5H244.4z"/>
			</defs>
			<clipPath id="SVGID_4_">
				<use xlink:href="#SVGID_3_"  style="overflow:visible;"/>
			</clipPath>
			<rect x="231.1" y="274.9" class="st3" width="49.8" height="77.4"/>
		</g>
	</g>
	<g>
		<g>
			<defs>
				<path id="SVGID_5_" d="M111.6,222.4c0,0-5,0-5,5V339c0,0,0,5,5,5h23.2c0,0,5,0,5-5V227.3c0,0,0-5-5-5L111.6,222.4L111.6,222.4z"
					/>
			</defs>
			<clipPath id="SVGID_6_">
				<use xlink:href="#SVGID_5_"  style="overflow:visible;"/>
			</clipPath>
			<rect x="98.4" y="214.1" class="st4" width="49.8" height="138.2"/>
		</g>
	</g>
	<g>
		<g>
			<defs>
				<path id="SVGID_7_" d="M377.1,244.4c0,0-5,0-5,5V339c0,0,0,5,5,5h23.2c0,0,5,0,5-5v-89.6c0,0,0-5-5-5H377.1z"/>
			</defs>
			<clipPath id="SVGID_8_">
				<use xlink:href="#SVGID_7_"  style="overflow:visible;"/>
			</clipPath>
			<rect x="363.9" y="236.1" class="st5" width="49.8" height="116.1"/>
		</g>
	</g>
	<g>
		<g>
			<defs>
				<path id="SVGID_9_" d="M45.3,262.2c0,0-5,0-5,5V339c0,0,0,5,5,5h23.2c0,0,5,0,5-5v-71.8c0,0,0-5-5-5H45.3z"/>
			</defs>
			<clipPath id="SVGID_10_">
				<use xlink:href="#SVGID_9_"  style="overflow:visible;"/>
			</clipPath>
			<rect x="32" y="253.9" class="st6" width="49.8" height="98.4"/>
		</g>
	</g>
	<g>
		<g>
			<defs>
				<path id="SVGID_11_" d="M310.8,184.2c0,0-5,0-5,5V339c0,0,0,5,5,5H334c0,0,5,0,5-5V189.2c0,0,0-5-5-5H310.8z"/>
			</defs>
			<clipPath id="SVGID_12_">
				<use xlink:href="#SVGID_11_"  style="overflow:visible;"/>
			</clipPath>
			<rect x="297.5" y="175.9" class="st7" width="49.8" height="176.4"/>
		</g>
	</g>
	<g>
		<g>
			<defs>
				<path id="SVGID_13_" d="M178,313.6c0,0-5,0-5,5V339c0,0,0,5,5,5h23.2c0,0,5,0,5-5v-20.4c0,0,0-5-5-5H178z"/>
			</defs>
			<clipPath id="SVGID_14_">
				<use xlink:href="#SVGID_13_"  style="overflow:visible;"/>
			</clipPath>
			<rect x="164.7" y="305.3" class="st8" width="49.8" height="46.9"/>
		</g>
	</g>
	<g>
		<g>
			<defs>
				<path id="SVGID_15_" d="M443.5,303.1c0,0-5,0-5,5V339c0,0,0,5,5,5h23.2c0,0,5,0,5-5v-31c0,0,0-5-5-5h-23.2V303.1z"/>
			</defs>
			<clipPath id="SVGID_16_">
				<use xlink:href="#SVGID_15_"  style="overflow:visible;"/>
			</clipPath>
			<rect x="430.2" y="294.8" class="st9" width="49.8" height="57.5"/>
		</g>
	</g>
</g>
</svg>
