<?xml version="1.0" encoding="utf-8"?>
<!-- Generator: Adobe Illustrator 19.0.0, SVG Export Plug-In . SVG Version: 6.00 Build 0)  -->
<svg version="1.1" id="Layer_1" xmlns="http://www.w3.org/2000/svg" xmlns:xlink="http://www.w3.org/1999/xlink" x="0px" y="0px"
	 viewBox="0 123 512 250" style="enable-background:new 0 123 512 250;" xml:space="preserve">
<style type="text/css">
	.st0{fill:none;stroke:#A6A7A8;stroke-miterlimit:10;}
	.st1{fill:#FEFEFE;}
	.st2{fill-rule:evenodd;clip-rule:evenodd;fill:none;}
	.st3{clip-path:url(#SVGID_2_);fill:#81286D;}
	.st4{clip-path:url(#SVGID_4_);fill:#D7D8D8;}
	.st5{clip-path:url(#SVGID_6_);fill:#D7D8D8;}
	.st6{clip-path:url(#SVGID_8_);fill:#D7D8D8;}
	.st7{clip-path:url(#SVGID_10_);fill:#D7D8D8;}
	.st8{clip-path:url(#SVGID_12_);fill:#D7D8D8;}
	.st9{clip-path:url(#SVGID_14_);fill:#D7D8D8;}
	.st10{clip-path:url(#SVGID_16_);fill:#D7D8D8;}
	.st11{clip-path:url(#SVGID_18_);fill:#D7D8D8;}
	.st12{clip-path:url(#SVGID_20_);fill:#D7D8D8;}
	.st13{clip-path:url(#SVGID_22_);fill:#D7D8D8;}
	.st14{clip-path:url(#SVGID_24_);fill:#D7D8D8;}
	.st15{clip-path:url(#SVGID_26_);fill:#D7D8D8;}
	.st16{clip-path:url(#SVGID_28_);fill:#81286D;}
	.st17{fill:#FFFFFF;}
	.st18{clip-path:url(#SVGID_30_);fill:#A6A7A8;}
	.st19{clip-path:url(#SVGID_32_);fill:#A6A7A8;}
	.st20{clip-path:url(#SVGID_34_);fill:#A6A7A8;}
	.st21{clip-path:url(#SVGID_36_);fill:#A6A7A8;}
	.st22{clip-path:url(#SVGID_38_);fill:#A6A7A8;}
	.st23{clip-path:url(#SVGID_40_);fill:#A6A7A8;}
	.st24{clip-path:url(#SVGID_42_);fill:#A6A7A8;}
	.st25{clip-path:url(#SVGID_44_);fill:#A6A7A8;}
	.st26{clip-path:url(#SVGID_46_);fill:#A6A7A8;}
	.st27{fill:none;stroke:#81286D;stroke-miterlimit:10;}
	.st28{clip-path:url(#SVGID_48_);fill:#81286D;}
	.st29{clip-path:url(#SVGID_50_);fill:#A6A7A8;}
	.st30{clip-path:url(#SVGID_52_);fill:#A6A7A8;}
	.st31{clip-path:url(#SVGID_54_);fill:#A6A7A8;}
	.st32{clip-path:url(#SVGID_56_);fill:#81286D;}
	.st33{font-family:'Akkurat';}
	.st34{font-size:15.1856px;}
</style>
<g>
	<polyline class="st0" points="29.6,334 107,302.7 183.3,283 259.7,237.4 337.1,264 413.8,342.2 489.7,309.6 	"/>
	<rect x="250.2" y="228" class="st1" width="19" height="19"/>
	<path class="st2" d="M259.7,243.1c3.1,0,5.7-2.6,5.7-5.7s-2.6-5.7-5.7-5.7c-3.1,0-5.7,2.6-5.7,5.7S256.5,243.1,259.7,243.1"/>
	<rect x="20.5" y="324.5" class="st1" width="19" height="19"/>
	<path class="st2" d="M30,339.7c3.1,0,5.7-2.6,5.7-5.7s-2.6-5.7-5.7-5.7s-5.7,2.6-5.7,5.7S26.8,339.7,30,339.7"/>
	<rect x="97.6" y="293.2" class="st1" width="19" height="19"/>
	<path class="st2" d="M107,308.4c3.1,0,5.7-2.6,5.7-5.7s-2.6-5.7-5.7-5.7s-5.7,2.6-5.7,5.7S103.9,308.4,107,308.4"/>
	<rect x="173.9" y="273.5" class="st1" width="19" height="19"/>
	<path class="st2" d="M183.3,288.7c3.1,0,5.7-2.6,5.7-5.7c0-3.1-2.6-5.7-5.7-5.7s-5.7,2.6-5.7,5.7
		C177.7,286.1,180.2,288.7,183.3,288.7"/>
	<rect x="327.6" y="254.5" class="st1" width="19" height="19"/>
	<path class="st2" d="M337.1,269.7c3.1,0,5.7-2.6,5.7-5.7c0-3.1-2.6-5.7-5.7-5.7c-3.1,0-5.7,2.6-5.7,5.7
		C331.4,267.2,334,269.7,337.1,269.7"/>
	<rect x="404.3" y="332.7" class="st1" width="19" height="19"/>
	<path class="st2" d="M413.8,347.9c3.1,0,5.7-2.6,5.7-5.7c0-3.1-2.6-5.7-5.7-5.7c-3.1,0-5.7,2.6-5.7,5.7
		C408.1,345.4,410.7,347.9,413.8,347.9"/>
	<rect x="479" y="300.1" class="st1" width="19" height="19"/>
	<path class="st2" d="M488.5,315.3c3.1,0,5.7-2.6,5.7-5.7c0-3.1-2.6-5.7-5.7-5.7s-5.7,2.6-5.7,5.7
		C482.8,312.7,485.4,315.3,488.5,315.3"/>
	<g>
		<defs>
			<polygon id="SVGID_1_" points="265.7,215.4 261.9,212.4 265.7,209.3 269.5,212.4 			"/>
		</defs>
		<clipPath id="SVGID_2_">
			<use xlink:href="#SVGID_1_"  style="overflow:visible;"/>
		</clipPath>
		<rect x="258.1" y="205.6" class="st3" width="15.2" height="13.7"/>
	</g>
	<g>
		<defs>
			<rect id="SVGID_3_" x="29.9" y="150.1" width="0.8" height="197.4"/>
		</defs>
		<clipPath id="SVGID_4_">
			<use xlink:href="#SVGID_3_"  style="overflow:visible;"/>
		</clipPath>
		<rect x="26.1" y="146.3" class="st4" width="8.4" height="205"/>
	</g>
	<g>
		<defs>
			<rect id="SVGID_5_" x="67.9" y="150.1" width="0.8" height="197.4"/>
		</defs>
		<clipPath id="SVGID_6_">
			<use xlink:href="#SVGID_5_"  style="overflow:visible;"/>
		</clipPath>
		<rect x="64.1" y="146.3" class="st5" width="8.4" height="205"/>
	</g>
	<g>
		<defs>
			<rect id="SVGID_7_" x="143.8" y="150.1" width="0.8" height="197.4"/>
		</defs>
		<clipPath id="SVGID_8_">
			<use xlink:href="#SVGID_7_"  style="overflow:visible;"/>
		</clipPath>
		<rect x="140" y="146.3" class="st6" width="8.4" height="205"/>
	</g>
	<g>
		<defs>
			<rect id="SVGID_9_" x="219.7" y="150.1" width="0.8" height="197.4"/>
		</defs>
		<clipPath id="SVGID_10_">
			<use xlink:href="#SVGID_9_"  style="overflow:visible;"/>
		</clipPath>
		<rect x="215.9" y="146.3" class="st7" width="8.4" height="205"/>
	</g>
	<g>
		<defs>
			<rect id="SVGID_11_" x="297.2" y="150.1" width="0.8" height="197.4"/>
		</defs>
		<clipPath id="SVGID_12_">
			<use xlink:href="#SVGID_11_"  style="overflow:visible;"/>
		</clipPath>
		<rect x="293.4" y="146.3" class="st8" width="8.4" height="205"/>
	</g>
	<g>
		<defs>
			<rect id="SVGID_13_" x="373.9" y="150.1" width="0.8" height="197.4"/>
		</defs>
		<clipPath id="SVGID_14_">
			<use xlink:href="#SVGID_13_"  style="overflow:visible;"/>
		</clipPath>
		<rect x="370.1" y="146.3" class="st9" width="8.4" height="205"/>
	</g>
	<g>
		<defs>
			<rect id="SVGID_15_" x="449.8" y="150.1" width="0.8" height="197.4"/>
		</defs>
		<clipPath id="SVGID_16_">
			<use xlink:href="#SVGID_15_"  style="overflow:visible;"/>
		</clipPath>
		<rect x="446" y="146.3" class="st10" width="8.4" height="205"/>
	</g>
	<g>
		<defs>
			<rect id="SVGID_17_" x="106.6" y="150.1" width="0.8" height="197.4"/>
		</defs>
		<clipPath id="SVGID_18_">
			<use xlink:href="#SVGID_17_"  style="overflow:visible;"/>
		</clipPath>
		<rect x="102.8" y="146.3" class="st11" width="8.4" height="205"/>
	</g>
	<g>
		<defs>
			<rect id="SVGID_19_" x="183.3" y="150.1" width="0.8" height="197.4"/>
		</defs>
		<clipPath id="SVGID_20_">
			<use xlink:href="#SVGID_19_"  style="overflow:visible;"/>
		</clipPath>
		<rect x="179.5" y="146.3" class="st12" width="8.4" height="205"/>
	</g>
	<g>
		<defs>
			<rect id="SVGID_21_" x="336.6" y="150.1" width="0.8" height="197.4"/>
		</defs>
		<clipPath id="SVGID_22_">
			<use xlink:href="#SVGID_21_"  style="overflow:visible;"/>
		</clipPath>
		<rect x="332.8" y="146.3" class="st13" width="8.4" height="205"/>
	</g>
	<g>
		<defs>
			<rect id="SVGID_23_" x="413.3" y="150.1" width="0.8" height="197.4"/>
		</defs>
		<clipPath id="SVGID_24_">
			<use xlink:href="#SVGID_23_"  style="overflow:visible;"/>
		</clipPath>
		<rect x="409.5" y="146.3" class="st14" width="8.4" height="205"/>
	</g>
	<g>
		<defs>
			<rect id="SVGID_25_" x="487.7" y="150.1" width="0.8" height="197.4"/>
		</defs>
		<clipPath id="SVGID_26_">
			<use xlink:href="#SVGID_25_"  style="overflow:visible;"/>
		</clipPath>
		<rect x="483.9" y="146.3" class="st15" width="8.4" height="205"/>
	</g>
	<g>
		<defs>
			<rect id="SVGID_27_" x="259.2" y="150.1" width="0.8" height="197.4"/>
		</defs>
		<clipPath id="SVGID_28_">
			<use xlink:href="#SVGID_27_"  style="overflow:visible;"/>
		</clipPath>
		<rect x="255.4" y="146.3" class="st16" width="8.4" height="205"/>
	</g>
	<rect x="20.5" y="324.5" class="st17" width="19" height="19"/>
	<path class="st2" d="M30,339.7c3.1,0,5.7-2.6,5.7-5.7s-2.6-5.7-5.7-5.7s-5.7,2.6-5.7,5.7S26.8,339.7,30,339.7z"/>
	<path class="st0" d="M30,339.7c3.1,0,5.7-2.6,5.7-5.7c0-3.1-2.6-5.7-5.7-5.7c-3.1,0-5.7,2.6-5.7,5.7
		C24.3,337.1,26.8,339.7,30,339.7z"/>
	<g>
		<defs>
			<circle id="SVGID_29_" cx="30" cy="334" r="1.9"/>
		</defs>
		<clipPath id="SVGID_30_">
			<use xlink:href="#SVGID_29_"  style="overflow:visible;"/>
		</clipPath>
		<rect x="24.3" y="328.3" class="st18" width="11.4" height="11.4"/>
	</g>
	<rect x="58.4" y="309.3" class="st17" width="19" height="19"/>
	<path class="st2" d="M67.9,324.5c3.1,0,5.7-2.6,5.7-5.7c0-3.1-2.6-5.7-5.7-5.7s-5.7,2.6-5.7,5.7C62.2,321.9,64.8,324.5,67.9,324.5z
		"/>
	<path class="st0" d="M67.9,324.5c3.1,0,5.7-2.6,5.7-5.7c0-3.1-2.6-5.7-5.7-5.7c-3.1,0-5.7,2.6-5.7,5.7
		C62.2,321.9,64.8,324.5,67.9,324.5z"/>
	<g>
		<defs>
			<circle id="SVGID_31_" cx="67.9" cy="318.8" r="1.9"/>
		</defs>
		<clipPath id="SVGID_32_">
			<use xlink:href="#SVGID_31_"  style="overflow:visible;"/>
		</clipPath>
		<rect x="62.2" y="313.1" class="st19" width="11.4" height="11.4"/>
	</g>
	<rect x="134.4" y="283.5" class="st17" width="19" height="19"/>
	<path class="st2" d="M143.9,298.7c3.1,0,5.7-2.6,5.7-5.7c0-3.1-2.6-5.7-5.7-5.7s-5.7,2.6-5.7,5.7
		C138.2,296.1,140.7,298.7,143.9,298.7z"/>
	<path class="st0" d="M143.9,298.7c3.1,0,5.7-2.6,5.7-5.7c0-3.1-2.6-5.7-5.7-5.7c-3.1,0-5.7,2.6-5.7,5.7
		C138.2,296.1,140.7,298.7,143.9,298.7z"/>
	<g>
		<defs>
			<circle id="SVGID_33_" cx="143.9" cy="293" r="1.9"/>
		</defs>
		<clipPath id="SVGID_34_">
			<use xlink:href="#SVGID_33_"  style="overflow:visible;"/>
		</clipPath>
		<rect x="138.2" y="287.3" class="st20" width="11.4" height="11.4"/>
	</g>
	<rect x="210.3" y="251.6" class="st17" width="19" height="19"/>
	<path class="st2" d="M219.8,266.8c3.1,0,5.7-2.6,5.7-5.7c0-3.1-2.6-5.7-5.7-5.7s-5.7,2.6-5.7,5.7
		C214.1,264.2,216.7,266.8,219.8,266.8z"/>
	<path class="st0" d="M219.8,266.8c3.1,0,5.7-2.6,5.7-5.7c0-3.1-2.6-5.7-5.7-5.7c-3.1,0-5.7,2.6-5.7,5.7
		C214.1,264.2,216.7,266.8,219.8,266.8z"/>
	<g>
		<defs>
			<circle id="SVGID_35_" cx="219.8" cy="261.1" r="1.9"/>
		</defs>
		<clipPath id="SVGID_36_">
			<use xlink:href="#SVGID_35_"  style="overflow:visible;"/>
		</clipPath>
		<rect x="214.1" y="255.4" class="st21" width="11.4" height="11.4"/>
	</g>
	<rect x="287.8" y="241" class="st17" width="19" height="19"/>
	<path class="st2" d="M297.2,256.2c3.1,0,5.7-2.6,5.7-5.7c0-3.1-2.6-5.7-5.7-5.7s-5.7,2.6-5.7,5.7
		C291.5,253.6,294.1,256.2,297.2,256.2z"/>
	<path class="st0" d="M297.2,256.2c3.1,0,5.7-2.6,5.7-5.7c0-3.1-2.6-5.7-5.7-5.7c-3.1,0-5.7,2.6-5.7,5.7
		C291.5,253.6,294.1,256.2,297.2,256.2z"/>
	<g>
		<defs>
			<circle id="SVGID_37_" cx="297.2" cy="250.5" r="1.9"/>
		</defs>
		<clipPath id="SVGID_38_">
			<use xlink:href="#SVGID_37_"  style="overflow:visible;"/>
		</clipPath>
		<rect x="291.5" y="244.8" class="st22" width="11.4" height="11.4"/>
	</g>
	<rect x="364.4" y="291.9" class="st17" width="19" height="19"/>
	<path class="st2" d="M373.9,307c3.1,0,5.7-2.6,5.7-5.7s-2.6-5.7-5.7-5.7s-5.7,2.6-5.7,5.7S370.8,307,373.9,307z"/>
	<path class="st0" d="M373.9,307c3.1,0,5.7-2.6,5.7-5.7c0-3.1-2.6-5.7-5.7-5.7c-3.1,0-5.7,2.6-5.7,5.7
		C368.2,304.5,370.8,307,373.9,307z"/>
	<g>
		<defs>
			<circle id="SVGID_39_" cx="373.9" cy="301.3" r="1.9"/>
		</defs>
		<clipPath id="SVGID_40_">
			<use xlink:href="#SVGID_39_"  style="overflow:visible;"/>
		</clipPath>
		<rect x="368.2" y="295.7" class="st23" width="11.4" height="11.4"/>
	</g>
	<rect x="440.4" y="316.9" class="st17" width="19" height="19"/>
	<path class="st2" d="M449.9,332.1c3.1,0,5.7-2.6,5.7-5.7c0-3.1-2.6-5.7-5.7-5.7s-5.7,2.6-5.7,5.7
		C444.2,329.5,446.7,332.1,449.9,332.1z"/>
	<path class="st0" d="M449.9,332.1c3.1,0,5.7-2.6,5.7-5.7c0-3.1-2.6-5.7-5.7-5.7c-3.1,0-5.7,2.6-5.7,5.7
		C444.2,329.5,446.7,332.1,449.9,332.1z"/>
	<g>
		<defs>
			<circle id="SVGID_41_" cx="449.9" cy="326.4" r="1.9"/>
		</defs>
		<clipPath id="SVGID_42_">
			<use xlink:href="#SVGID_41_"  style="overflow:visible;"/>
		</clipPath>
		<rect x="444.2" y="320.7" class="st24" width="11.4" height="11.4"/>
	</g>
	<rect x="97.6" y="293.2" class="st17" width="19" height="19"/>
	<path class="st2" d="M107,308.4c3.1,0,5.7-2.6,5.7-5.7s-2.6-5.7-5.7-5.7s-5.7,2.6-5.7,5.7S103.9,308.4,107,308.4z"/>
	<path class="st0" d="M107,308.4c3.1,0,5.7-2.6,5.7-5.7c0-3.1-2.6-5.7-5.7-5.7c-3.1,0-5.7,2.6-5.7,5.7
		C101.3,305.9,103.9,308.4,107,308.4z"/>
	<g>
		<defs>
			<path id="SVGID_43_" d="M107,304.6c1,0,1.9-0.8,1.9-1.9c0-1-0.8-1.9-1.9-1.9s-1.9,0.8-1.9,1.9C105.1,303.8,106,304.6,107,304.6"
				/>
		</defs>
		<clipPath id="SVGID_44_">
			<use xlink:href="#SVGID_43_"  style="overflow:visible;"/>
		</clipPath>
		<rect x="101.3" y="297" class="st25" width="11.4" height="11.4"/>
	</g>
	<rect x="173.9" y="273.5" class="st17" width="19" height="19"/>
	<path class="st2" d="M183.3,288.7c3.1,0,5.7-2.6,5.7-5.7c0-3.1-2.6-5.7-5.7-5.7s-5.7,2.6-5.7,5.7
		C177.7,286.1,180.2,288.7,183.3,288.7z"/>
	<path class="st0" d="M183.3,288.7c3.1,0,5.7-2.6,5.7-5.7c0-3.1-2.6-5.7-5.7-5.7c-3.1,0-5.7,2.6-5.7,5.7
		C177.7,286.1,180.2,288.7,183.3,288.7z"/>
	<g>
		<defs>
			<path id="SVGID_45_" d="M183.3,284.9c1,0,1.9-0.8,1.9-1.9c0-1-0.8-1.9-1.9-1.9c-1,0-1.9,0.8-1.9,1.9
				C181.5,284,182.3,284.9,183.3,284.9"/>
		</defs>
		<clipPath id="SVGID_46_">
			<use xlink:href="#SVGID_45_"  style="overflow:visible;"/>
		</clipPath>
		<rect x="177.7" y="277.3" class="st26" width="11.4" height="11.4"/>
	</g>
	<rect x="250.2" y="228" class="st17" width="19" height="19"/>
	<path class="st2" d="M259.7,243.1c3.1,0,5.7-2.6,5.7-5.7s-2.6-5.7-5.7-5.7c-3.1,0-5.7,2.6-5.7,5.7S256.5,243.1,259.7,243.1z"/>
	<path class="st27" d="M259.7,243.1c3.1,0,5.7-2.6,5.7-5.7c0-3.1-2.6-5.7-5.7-5.7c-3.1,0-5.7,2.6-5.7,5.7
		C254,240.6,256.5,243.1,259.7,243.1z"/>
	<g>
		<defs>
			<path id="SVGID_47_" d="M259.7,240.1c1.5,0,2.7-1.2,2.7-2.7c0-1.5-1.2-2.7-2.7-2.7c-1.5,0-2.7,1.2-2.7,2.7
				C257,238.9,258.2,240.1,259.7,240.1"/>
		</defs>
		<clipPath id="SVGID_48_">
			<use xlink:href="#SVGID_47_"  style="overflow:visible;"/>
		</clipPath>
		<rect x="253.2" y="231" class="st28" width="12.9" height="12.9"/>
	</g>
	<rect x="327.6" y="254.5" class="st17" width="19" height="19"/>
	<path class="st2" d="M337.1,269.7c3.1,0,5.7-2.6,5.7-5.7c0-3.1-2.6-5.7-5.7-5.7c-3.1,0-5.7,2.6-5.7,5.7
		C331.4,267.2,334,269.7,337.1,269.7z"/>
	<path class="st0" d="M337.1,269.7c3.1,0,5.7-2.6,5.7-5.7c0-3.1-2.6-5.7-5.7-5.7c-3.1,0-5.7,2.6-5.7,5.7
		C331.4,267.2,334,269.7,337.1,269.7z"/>
	<g>
		<defs>
			<path id="SVGID_49_" d="M337.1,265.9c1,0,1.9-0.8,1.9-1.9s-0.8-1.9-1.9-1.9c-1,0-1.9,0.8-1.9,1.9S336.1,265.9,337.1,265.9"/>
		</defs>
		<clipPath id="SVGID_50_">
			<use xlink:href="#SVGID_49_"  style="overflow:visible;"/>
		</clipPath>
		<rect x="331.4" y="258.3" class="st29" width="11.4" height="11.4"/>
	</g>
	<rect x="404.3" y="332.7" class="st17" width="19" height="19"/>
	<path class="st2" d="M413.8,347.9c3.1,0,5.7-2.6,5.7-5.7c0-3.1-2.6-5.7-5.7-5.7c-3.1,0-5.7,2.6-5.7,5.7
		C408.1,345.4,410.7,347.9,413.8,347.9z"/>
	<path class="st0" d="M413.8,347.9c3.1,0,5.7-2.6,5.7-5.7c0-3.1-2.6-5.7-5.7-5.7c-3.1,0-5.7,2.6-5.7,5.7
		C408.1,345.4,410.7,347.9,413.8,347.9z"/>
	<g>
		<defs>
			<path id="SVGID_51_" d="M413.8,344.1c1,0,1.9-0.8,1.9-1.9s-0.8-1.9-1.9-1.9s-1.9,0.8-1.9,1.9S412.7,344.1,413.8,344.1"/>
		</defs>
		<clipPath id="SVGID_52_">
			<use xlink:href="#SVGID_51_"  style="overflow:visible;"/>
		</clipPath>
		<rect x="408.1" y="336.5" class="st30" width="11.4" height="11.4"/>
	</g>
	<rect x="479" y="300.1" class="st17" width="19" height="19"/>
	<path class="st2" d="M488.5,315.3c3.1,0,5.7-2.6,5.7-5.7c0-3.1-2.6-5.7-5.7-5.7s-5.7,2.6-5.7,5.7
		C482.8,312.7,485.4,315.3,488.5,315.3z"/>
	<path class="st0" d="M488.5,315.3c3.1,0,5.7-2.6,5.7-5.7c0-3.1-2.6-5.7-5.7-5.7c-3.1,0-5.7,2.6-5.7,5.7
		C482.8,312.7,485.4,315.3,488.5,315.3z"/>
	<g>
		<defs>
			<path id="SVGID_53_" d="M488.5,311.5c1,0,1.9-0.8,1.9-1.9c0-1-0.8-1.9-1.9-1.9s-1.9,0.8-1.9,1.9
				C486.6,310.6,487.5,311.5,488.5,311.5"/>
		</defs>
		<clipPath id="SVGID_54_">
			<use xlink:href="#SVGID_53_"  style="overflow:visible;"/>
		</clipPath>
		<rect x="482.8" y="303.9" class="st31" width="11.4" height="11.4"/>
	</g>
	<g>
		<defs>
			<rect id="SVGID_55_" x="265.7" y="201" width="45.6" height="22.8"/>
		</defs>
		<clipPath id="SVGID_56_">
			<use xlink:href="#SVGID_55_"  style="overflow:visible;"/>
		</clipPath>
		<rect x="261.9" y="197.2" class="st32" width="53.1" height="30.4"/>
	</g>
	<text transform="matrix(1 0 0 1 275.9024 217.6992)" class="st17 st33 st34">9.2</text>
</g>
</svg>
