<?xml version="1.0" encoding="utf-8"?>
<!-- Generator: Adobe Illustrator 19.0.0, SVG Export Plug-In . SVG Version: 6.00 Build 0)  -->
<svg version="1.1" id="Layer_1" xmlns="http://www.w3.org/2000/svg" xmlns:xlink="http://www.w3.org/1999/xlink" x="0px" y="0px"
	 viewBox="44 197 700 400" style="enable-background:new 44 197 700 400;" xml:space="preserve">
<style type="text/css">
	.st0{fill:#BABABA;}
	.st1{fill:#7E266A;}
	.st2{fill:none;stroke:#CDCCCC;stroke-width:1.44;stroke-linecap:round;stroke-linejoin:round;stroke-miterlimit:22.9256;}
</style>
<g>
	<path class="st0" d="M384.2,258.6c50.2,0,94.3,26.1,119.5,65.5l-119.5,76.2l-15-140.9C374.3,258.9,379.2,258.6,384.2,258.6z"/>
	<path class="st1" d="M503.7,324.1l-119.5,76.2l-14.8-141c-22.5,2.5-43.3,9.9-61.4,21.5c-39.3,25.2-65.5,69.3-65.5,119.5
		c0,39.1,15.9,74.6,41.5,100.2l0,0c25.6,25.6,61.1,41.5,100.2,41.5c78.3,0,141.7-63.4,141.7-141.7
		C525.9,372.3,517.7,346.1,503.7,324.1z"/>
	<path class="st2" d="M281.7,389.1"/>
</g>
</svg>
