<?xml version="1.0" encoding="utf-8"?>
<!-- Generator: Adobe Illustrator 19.0.0, SVG Export Plug-In . SVG Version: 6.00 Build 0)  -->
<svg version="1.1" id="Layer_1" xmlns="http://www.w3.org/2000/svg" xmlns:xlink="http://www.w3.org/1999/xlink" x="0px" y="0px"
	 viewBox="0 0 728 156" style="enable-background:new 0 0 728 156;" xml:space="preserve">
<style type="text/css">
	.st0{display:none;fill:#34792B;}
	.st1{fill-rule:evenodd;clip-rule:evenodd;fill:#FFFFFF;}
</style>
<rect id="XMLID_35_" class="st0" width="728" height="156"/>
<path id="XMLID_41_" class="st1" d="M81.9,136.6c13.2,0,25.4-4.3,35.2-11.6l-8.8-8.8c-12.7,10.1-27.3,15.4-40.8,15.4
	c-3.8,0-7.6-0.4-11.1-1.3c0,0-0.1,0-0.1,0c-0.1,0-0.2,0.1-0.2,0.2c0,0.1,0.1,0.2,0.1,0.2C64,134.5,72.7,136.6,81.9,136.6z
	 M27.9,101.9c0.1,0.1,0.2,0.2,0.3,0.1c0.1-0.1,0.2-0.2,0.1-0.3c-4.1-18.1,3-40.5,20.2-57.7c14-14,31.5-21.3,47.4-21.3
	c3.6,0,7.1,0.4,10.4,1.1c0.1,0,0.3-0.1,0.3-0.2c0-0.1-0.1-0.2-0.2-0.3c-7.5-3.4-15.8-5.3-24.6-5.3c-32.8,0-59.3,26.5-59.3,59.2
	C22.5,86.1,24.4,94.5,27.9,101.9z M120.9,103.8l8.8,8.8c7.3-9.8,11.6-22,11.6-35.2c0-9.1-2.1-17.8-5.8-25.5c0-0.1-0.1-0.1-0.2-0.1
	c-0.1,0-0.3,0.1-0.3,0.2c0,0,0,0.1,0,0.1C138.9,68,133.9,87.5,120.9,103.8z M112.5,46.6c6.6,6.6,6.4,16.1,5.8,21.3
	c-1,7.9-4.6,16.1-10,23.3H83.1l12.5,12.5c-8.8,6.6-18.9,10.3-28.1,10.3c-4.8,0-11.6-1.1-16.6-6.1c-6.6-6.6-6.4-16.1-5.8-21.3
	c1.4-10.4,7.1-21.4,15.8-30c10.1-10.1,23.2-16.1,34.8-16.1C97.9,40.5,106.4,40.5,112.5,46.6z M695.7,64.9h2.4v6.8h1.6v-6.8h2.4v-1.3
	h-6.3V64.9z M709.6,63.6l-2.2,5.6l-2.3-5.6h-2v8.2h1.5v-5.5l2.2,5.3l0,0.1h1.1l2.2-5.4v5.4h1.6v-8.2H709.6z M626.2,104.9h3V73.6h-3
	V104.9z M625.8,65.7h3.8v-3.7h-3.8V65.7z M410.1,65.7h3.8v-3.7h-3.8V65.7z M410.5,104.9h3V73.6h-3V104.9z M653.9,102.8
	c-7.2,0-12.9-6-12.9-13.6v-0.1c0-7.5,5.5-13.4,12.7-13.4c4.7,0,7.7,2.4,10.4,5.1l2.2-2.2c-3-3.1-6.6-5.8-12.5-5.8
	c-9,0-16,7.6-16,16.4v0.1c0,8.8,7,16.3,16,16.3c5.7,0,9.5-2.5,12.7-6.1l-2-2C661.8,100.5,658.3,102.8,653.9,102.8z M584.7,87.5
	c-4.5-1.3-8.7-2.6-8.7-6.1v-0.1c0-3.1,2.8-5.5,7.1-5.5c3.1,0,6.3,1.1,9.1,2.8l2.2-2.2c-3.1-2.1-7.4-3.4-11.1-3.4
	c-6.1,0-10.3,3.6-10.3,8.7v0.1c0,5.6,5.6,7.1,10.8,8.6c4.4,1.2,8.3,2.6,8.3,6.3v0.1c0,3.6-3.3,6-7.6,6c-3.9,0-7.6-1.4-10.9-3.9
	l-2.1,2.1c3.3,2.7,8.3,4.5,12.9,4.5c6,0,10.8-3.6,10.8-9.1v-0.1C595.1,90.7,589.8,88.9,584.7,87.5z M685.4,87.5
	c-4.5-1.3-8.7-2.6-8.7-6.1v-0.1c0-3.1,2.8-5.5,7.1-5.5c3.1,0,6.3,1.1,9.1,2.8l2.2-2.2C692,74.3,687.7,73,684,73
	c-6.1,0-10.3,3.6-10.3,8.7v0.1c0,5.6,5.7,7.1,10.8,8.6c4.4,1.2,8.3,2.6,8.3,6.3v0.1c0,3.6-3.3,6-7.6,6c-3.9,0-7.5-1.4-10.9-3.9
	l-2.1,2.1c3.3,2.7,8.3,4.5,12.9,4.5c6,0,10.8-3.6,10.8-9.1v-0.1C695.8,90.7,690.5,88.9,685.4,87.5z M486.6,87.8
	c0,7.1-6.5,11.9-13,11.9c-6.5,0-12.1-4.9-12.1-12v-0.1c0-7.3,5.5-11.9,12.1-11.9c6.5,0,13,4.7,13,11.9V87.8z M486.4,79.9
	c-2.6-3.7-6.8-7-13.1-7c-7.6,0-15.1,5.8-15.1,14.9v0.1c0,9,7.5,14.7,15.1,14.7c6.2,0,10.4-3.4,13.1-7.2v4.5c0,8-5.1,12.2-12.3,12.2
	c-4.5,0-8.6-1.4-12.3-4.1l-2.2,2.2c4.3,3.2,9.2,4.8,14.4,4.8c8.9,0,15.4-5.3,15.4-14.8V73.6h-3V79.9z M617.1,76.3l-2.8-2.8h-8.2v-10
	h-3v33.3c0,5.9,3.9,8.6,8.8,8.6c2,0,3.5-0.4,5.1-1.1v-2.8c-1.8,0.8-3.1,1.1-4.6,1.1c-3.6,0-6.3-1.6-6.3-6.1V76.3H617.1z M563.3,89.4
	c0,7.4-5.4,13.4-12.8,13.4c-7.3,0-12.9-6-12.9-13.6v-0.1c0-7.4,5.3-13.4,12.8-13.4c7.3,0,12.9,6,12.9,13.6V89.4z M550.5,72.9
	c-9.3,0-16.2,7.6-16.2,16.4v0.1c0,8.8,6.8,16.3,16.1,16.3c9.3,0,16.2-7.6,16.2-16.4v-0.1C566.5,80.3,559.7,72.9,550.5,72.9z
	 M514.7,72.9c-5.7,0-9.2,2.9-11.3,6.6v-5.8h-3v31.3h3V86.8c0-6.5,4.7-11.2,10.9-11.2c6.3,0,10,4.2,10,10.7v18.6h3V85.7
	C527.3,78.3,522.6,72.9,514.7,72.9z M446.4,93.2c0,5.7-5.5,9.6-11.9,9.6c-4.8,0-9.1-2.6-9.1-7.2v-0.1c0-4.4,3.7-7.3,10.3-7.3
	c4.5,0,8,0.7,10.6,1.4V93.2z M436.1,73.1c-4.3,0-7.7,1.1-11.1,2.7l1.1,2.6c2.9-1.5,6-2.5,9.8-2.5c6.5,0,10.3,3.3,10.3,9.6v1.4
	c-3-0.8-6-1.4-10.4-1.4c-8.1,0-13.7,3.7-13.7,10.2v0.1c0,6.5,6.3,9.8,12.1,9.8c6,0,9.8-2.9,12-6v5.2h3V85.4
	C449.3,77.3,444.2,73.1,436.1,73.1z M397.4,83.5c0,10.3-7.6,18.4-19.6,18.4h-11.1V64.9h11.1c12,0,19.6,8.4,19.6,18.5V83.5z
	 M377.9,61.9h-14.3v43h14.3c13.5,0,22.9-9.4,22.9-21.5v-0.1C400.7,71.2,391.4,61.9,377.9,61.9z M270.9,85.3c0.8-5,4.1-8.5,8.7-8.5
	c5,0,7.9,3.7,8.5,8.5H270.9z M279.7,70.5c-9.7,0-16.6,7.9-16.6,17.7c0,10.5,7.6,17.6,17.4,17.6c6.1,0,10.4-2.4,13.6-6.1l-4.3-4.3
	l0,0c-2.7,2.6-5.4,4-9.2,4c-5,0-8.9-3.1-9.8-8.6h24.9c0.1-0.8,0.1-1.4,0.1-2.1C296,79,290.5,70.5,279.7,70.5z M315.9,85.1
	c-4-1.3-7.6-2.3-7.6-4.7v-0.1c0-2,1.7-3.4,4.8-3.4c2.4,0,5.2,0.9,8,2.3l4.6-4.6c-3.6-2.4-8.2-3.8-12.5-3.8
	c-6.7,0-12.1,3.9-12.1,10.3v0.1c0,6.5,5.6,8.5,10.6,9.9c4,1.2,7.6,2.1,7.6,4.7v0.1c0,2.2-1.9,3.7-5.3,3.7c-3.1,0-6.7-1.2-10.1-3.4
	l-4.5,4.5l0,0c4.2,3.3,9.6,5.1,14.4,5.1c7.1,0,12.6-3.5,12.6-10.6v-0.1C326.5,88.8,320.9,86.6,315.9,85.1z M209.4,91.1h-11.3
	l6.2,5.3c-2.1,1.3-4.8,2.2-7.7,2.2c-8.9,0-15.3-7.2-15.3-16c0-8.8,6.2-15.9,15.2-15.9c8.9,0,15.3,7.2,15.3,16
	C211.7,85.8,211,88.8,209.4,91.1z M220,82.6c0-12.7-9.6-23.1-23.4-23.1C182.8,59.4,173,70,173,82.7c0,12.7,9.6,23.1,23.4,23.1
	c5.3,0,9.9-1.6,13.7-4.2l3.9,3.5h11.7l-10.3-8.7C218.4,92.5,220,87.7,220,82.6z M350.8,77.9l-6.7-6.7h-4.4v-9.3h-7.8v33.8
	c0,7.4,4,9.9,9.8,9.9c2.9,0,5.1-0.6,7-1.7v-6.3c-1.5,0.8-3.1,1.2-4.8,1.2c-2.6,0-4.2-1.2-4.2-4.2V77.9H350.8z M249.7,90.3
	c0,5.3-3.1,8.4-7.6,8.4c-4.6,0-7.3-3-7.3-8.3V71.2H227v21.5c0,7.9,4.4,13,12.1,13c5.3,0,8.4-2.8,10.6-6v5.3h7.8V71.2h-7.8V90.3z"/>
</svg>
