<?xml version="1.0" encoding="utf-8"?>
<!-- Generator: Adobe Illustrator 19.0.0, SVG Export Plug-In . SVG Version: 6.00 Build 0)  -->
<svg version="1.1" id="Layer_1" xmlns="http://www.w3.org/2000/svg" xmlns:xlink="http://www.w3.org/1999/xlink" x="0px" y="0px"
	 viewBox="44 47 700 700" style="enable-background:new 44 47 700 700;" xml:space="preserve">
<style type="text/css">
	.st0{fill:#7E266A;}
	.st1{fill:#666666;}
	.st2{fill:#5D88B2;}
	.st3{fill:none;stroke:#5D88B2;stroke-miterlimit:10;}
	.st4{fill:none;stroke:#7E266A;stroke-miterlimit:10;}
	.st5{fill:none;stroke:#666666;stroke-miterlimit:10;}
	.st6{enable-background:new    ;}
	.st7{fill:#FFFFFF;}
</style>
<g>
	<g>
		<g>
			<path class="st0" d="M277.3,438.2V264.4c96,0,173.9,77.9,173.9,173.9l0,0H277.3z"/>
		</g>
	</g>
	<g>
		<g>
			<path class="st1" d="M277.3,438.2l-165.4-53.8c23.8-73,88.6-120,165.4-120V438.2z"/>
		</g>
	</g>
	<g>
		<g>
			<path class="st2" d="M277.3,438.2h173.9c0,96-77.9,173.9-173.9,173.9s-173.9-77.9-173.9-173.9c0-19.2,2.5-35.4,8.5-53.7
				L277.3,438.2z"/>
		</g>
	</g>
</g>
<polyline class="st3" points="386.5,552.2 487.2,584.4 576.1,584.4 "/>
<polyline class="st4" points="403.8,328.7 435.2,307.5 533.6,307.5 "/>
<polyline class="st5" points="187.4,318.2 167.8,264.4 227.6,215.5 "/>
<g class="st6">
	<path class="st2" d="M616.9,583.3c0,0.9,0,1.8-0.1,2.7c-0.1,0.9-0.2,1.7-0.4,2.6c-0.2,0.8-0.5,1.6-0.9,2.3c-0.4,0.7-0.9,1.4-1.6,2
		c-0.8,0.8-1.8,1.5-2.9,1.9c-1.1,0.4-2.2,0.6-3.4,0.6c-1.2,0-2.3-0.2-3.4-0.6c-1.1-0.4-2.1-1-2.9-1.9c-0.6-0.6-1.2-1.3-1.6-2
		c-0.4-0.7-0.7-1.5-0.9-2.3c-0.2-0.8-0.4-1.7-0.4-2.6c-0.1-0.9-0.1-1.8-0.1-2.7c0-0.9,0-1.8,0.1-2.7c0.1-0.9,0.2-1.7,0.4-2.6
		s0.5-1.6,0.9-2.3s0.9-1.4,1.6-2c0.8-0.8,1.8-1.5,2.9-1.9c1.1-0.4,2.2-0.6,3.4-0.6c1.2,0,2.3,0.2,3.4,0.6c1.1,0.4,2.1,1,2.9,1.9
		c0.6,0.6,1.2,1.3,1.6,2c0.4,0.7,0.7,1.5,0.9,2.3c0.2,0.8,0.4,1.7,0.4,2.6C616.9,581.5,616.9,582.4,616.9,583.3z M613.9,583.3
		c0-0.6,0-1.3,0-1.9c0-0.7-0.1-1.4-0.2-2c-0.1-0.7-0.3-1.3-0.6-1.9c-0.3-0.6-0.6-1.2-1.1-1.7c-0.6-0.6-1.2-1-2-1.3
		c-0.7-0.3-1.5-0.4-2.3-0.4c-0.8,0-1.6,0.1-2.3,0.4c-0.7,0.3-1.4,0.7-2,1.3c-0.5,0.5-0.9,1-1.1,1.7c-0.3,0.6-0.5,1.3-0.6,1.9
		c-0.1,0.7-0.2,1.4-0.2,2c0,0.7,0,1.3,0,1.9c0,0.6,0,1.3,0,1.9c0,0.7,0.1,1.4,0.2,2s0.3,1.3,0.6,1.9c0.3,0.6,0.6,1.2,1.1,1.7
		c0.6,0.6,1.2,1,2,1.3c0.7,0.3,1.5,0.4,2.3,0.4c0.8,0,1.6-0.1,2.3-0.4c0.7-0.3,1.4-0.7,2-1.3c0.5-0.5,0.9-1.1,1.1-1.7
		c0.3-0.6,0.5-1.3,0.6-1.9s0.2-1.3,0.2-2C613.8,584.6,613.9,584,613.9,583.3z"/>
	<path class="st2" d="M636.5,586.7c0,1.5-0.2,2.8-0.6,4c-0.4,1.2-1.1,2.3-1.9,3.1c-0.6,0.5-1.2,0.9-2,1.2c-0.8,0.3-1.6,0.5-2.6,0.5
		c-0.5,0-0.9-0.1-1.4-0.2c-0.5-0.1-0.9-0.3-1.4-0.5c-0.4-0.2-0.8-0.4-1.2-0.7c-0.4-0.3-0.7-0.6-0.9-1v9.1h-2.8v-23.9h2.5l0.2,2.2
		c0.5-0.8,1.2-1.5,2.1-1.9c0.9-0.5,1.9-0.7,2.8-0.7c1,0,1.9,0.2,2.7,0.5c0.8,0.3,1.4,0.8,2,1.3c0.8,0.8,1.4,1.8,1.8,3
		C636.3,584,636.5,585.3,636.5,586.7z M633.7,586.7c0-0.8-0.1-1.5-0.2-2.3c-0.1-0.8-0.4-1.4-0.7-2.1c-0.4-0.6-0.8-1.1-1.5-1.5
		c-0.6-0.4-1.4-0.6-2.3-0.6c-0.6,0-1.1,0.1-1.6,0.3c-0.4,0.2-0.8,0.5-1.1,0.8c-0.7,0.6-1.2,1.4-1.5,2.3c-0.3,0.9-0.4,1.9-0.4,3
		c0,1.1,0.1,2.1,0.4,3c0.3,0.9,0.7,1.7,1.5,2.3c0.3,0.3,0.7,0.6,1.1,0.8c0.4,0.2,1,0.3,1.6,0.3c0.9,0,1.7-0.2,2.3-0.6
		c0.6-0.4,1.1-0.9,1.5-1.5c0.4-0.6,0.6-1.3,0.7-2.1C633.6,588.2,633.7,587.5,633.7,586.7z"/>
	<path class="st2" d="M654.8,587.6H643c0,0.8,0.1,1.5,0.4,2.3c0.3,0.8,0.7,1.4,1.2,1.9c0.8,0.8,1.8,1.2,3.1,1.2
		c0.7,0,1.3-0.1,1.8-0.3c0.5-0.2,1-0.5,1.3-0.8c0.2-0.2,0.4-0.5,0.6-0.8c0.2-0.3,0.3-0.6,0.4-1.1h2.7c-0.1,0.8-0.4,1.6-0.9,2.3
		c-0.5,0.7-1,1.3-1.7,1.8c-0.6,0.4-1.3,0.7-2,0.9c-0.7,0.2-1.5,0.3-2.3,0.3c-1.2,0-2.3-0.2-3.2-0.7c-0.9-0.5-1.7-1.1-2.4-1.8
		c-0.7-0.8-1.2-1.8-1.6-2.8c-0.3-1.1-0.5-2.2-0.5-3.4c0-1,0.1-2,0.3-2.9c0.2-0.9,0.5-1.7,1-2.5c0.6-1,1.4-1.8,2.5-2.5
		c1.1-0.7,2.3-1,3.8-1c1.1,0,2,0.2,2.9,0.6c0.8,0.4,1.6,0.9,2.2,1.6c0.7,0.7,1.2,1.6,1.6,2.7c0.4,1,0.6,2.1,0.5,3.2L654.8,587.6z
		 M652,585.2c0-0.6-0.1-1.3-0.3-1.8c-0.2-0.6-0.4-1.1-0.8-1.6c-0.4-0.5-0.8-0.8-1.4-1.1c-0.6-0.3-1.2-0.4-1.9-0.4
		c-0.7,0-1.4,0.1-2,0.4c-0.6,0.3-1,0.7-1.4,1.1c-0.4,0.5-0.7,1-0.9,1.6c-0.2,0.6-0.3,1.2-0.3,1.8H652z"/>
	<path class="st2" d="M670.3,595v-10.6c0-1.3-0.3-2.2-0.8-2.9c-0.6-0.7-1.5-1.1-2.8-1.1c-0.8,0-1.5,0.2-2.1,0.7
		c-0.6,0.5-1.1,1.1-1.5,1.9c-0.3,0.6-0.5,1.3-0.5,2.1c-0.1,0.8-0.1,1.5-0.1,2.1v7.8h-2.8v-16.7h2.4l0.2,2.5c0.2-0.5,0.5-0.9,0.9-1.3
		c0.4-0.4,0.8-0.7,1.3-0.9c0.5-0.3,0.9-0.4,1.5-0.6c0.5-0.1,1-0.2,1.5-0.2c1.9,0,3.4,0.5,4.3,1.6c1,1.1,1.5,2.6,1.5,4.5v11H670.3z"
		/>
	<path class="st2" d="M692.4,587.6h-11.8c0,0.8,0.1,1.5,0.4,2.3c0.3,0.8,0.7,1.4,1.2,1.9c0.8,0.8,1.8,1.2,3.1,1.2
		c0.7,0,1.3-0.1,1.8-0.3s1-0.5,1.3-0.8c0.2-0.2,0.4-0.5,0.6-0.8c0.2-0.3,0.3-0.6,0.4-1.1h2.7c-0.1,0.8-0.4,1.6-0.9,2.3
		c-0.5,0.7-1,1.3-1.7,1.8c-0.6,0.4-1.3,0.7-2,0.9c-0.7,0.2-1.5,0.3-2.3,0.3c-1.2,0-2.3-0.2-3.2-0.7c-0.9-0.5-1.7-1.1-2.4-1.8
		c-0.7-0.8-1.2-1.8-1.6-2.8c-0.3-1.1-0.5-2.2-0.5-3.4c0-1,0.1-2,0.3-2.9c0.2-0.9,0.5-1.7,1-2.5c0.6-1,1.4-1.8,2.5-2.5
		c1.1-0.7,2.3-1,3.8-1c1.1,0,2,0.2,2.9,0.6c0.8,0.4,1.6,0.9,2.2,1.6c0.7,0.7,1.2,1.6,1.6,2.7c0.4,1,0.6,2.1,0.5,3.2L692.4,587.6z
		 M689.5,585.2c0-0.6-0.1-1.3-0.3-1.8c-0.2-0.6-0.4-1.1-0.8-1.6c-0.4-0.5-0.8-0.8-1.4-1.1c-0.6-0.3-1.2-0.4-1.9-0.4
		c-0.7,0-1.4,0.1-2,0.4c-0.6,0.3-1,0.7-1.4,1.1c-0.4,0.5-0.7,1-0.9,1.6c-0.2,0.6-0.3,1.2-0.3,1.8H689.5z"/>
	<path class="st2" d="M708.2,595l-0.2-2.2c-0.5,0.8-1.2,1.5-2.1,1.9c-0.9,0.5-1.9,0.7-2.8,0.7c-1,0-1.9-0.2-2.7-0.5
		c-0.8-0.3-1.4-0.8-2-1.3c-0.8-0.8-1.4-1.8-1.8-3c-0.4-1.2-0.6-2.5-0.6-3.9c0-1.5,0.2-2.8,0.6-4c0.4-1.2,1.1-2.3,1.9-3.1
		c0.6-0.5,1.2-0.9,2-1.2c0.8-0.3,1.6-0.5,2.6-0.5c0.5,0,0.9,0.1,1.4,0.2c0.5,0.1,0.9,0.3,1.4,0.5s0.8,0.4,1.2,0.7
		c0.4,0.3,0.7,0.6,0.9,1v-9.1h2.8V595H708.2z M708,586.7c0-1.1-0.1-2.1-0.4-3c-0.3-0.9-0.7-1.7-1.5-2.3c-0.3-0.3-0.7-0.6-1.1-0.8
		c-0.4-0.2-1-0.3-1.6-0.3c-0.9,0-1.7,0.2-2.3,0.6c-0.6,0.4-1.1,0.9-1.5,1.5c-0.4,0.6-0.6,1.3-0.7,2.1c-0.1,0.8-0.2,1.5-0.2,2.3
		c0,0.8,0.1,1.5,0.2,2.3c0.1,0.8,0.4,1.4,0.7,2.1c0.4,0.6,0.8,1.1,1.5,1.5c0.6,0.4,1.4,0.6,2.3,0.6c0.6,0,1.1-0.1,1.6-0.3
		c0.4-0.2,0.8-0.5,1.1-0.8c0.7-0.6,1.2-1.4,1.5-2.3C707.9,588.7,708,587.7,708,586.7z"/>
</g>
<g class="st6">
	<path class="st0" d="M565,312.9c0,0.9-0.2,1.8-0.5,2.5c-0.3,0.7-0.8,1.3-1.3,1.9c-0.7,0.7-1.5,1.2-2.6,1.6c-1,0.4-2.2,0.5-3.3,0.5
		h-9.4V296h9.4c1.1,0,2.2,0.2,3.2,0.5c1,0.4,1.9,0.9,2.5,1.6c0.5,0.5,0.8,1.1,1.1,1.7s0.4,1.4,0.4,2.2c0,1.1-0.3,2.2-0.9,3.1
		s-1.4,1.7-2.5,2.1c0.6,0.2,1.1,0.5,1.6,0.9c0.5,0.4,0.9,0.8,1.2,1.3c0.3,0.5,0.6,1,0.8,1.6C564.9,311.7,565,312.3,565,312.9z
		 M561.5,302.3c0-0.6-0.1-1.2-0.3-1.6c-0.2-0.5-0.5-0.8-0.9-1.1c-0.4-0.3-0.8-0.5-1.3-0.7c-0.5-0.2-1-0.2-1.6-0.2h-6.5v7.4h6.6
		c1.2,0,2.2-0.3,3-0.9C561.1,304.6,561.5,303.6,561.5,302.3z M562,312.7c0-0.7-0.1-1.2-0.4-1.8c-0.2-0.5-0.6-0.9-1-1.3
		c-0.4-0.4-0.9-0.6-1.5-0.8c-0.6-0.2-1.2-0.3-1.8-0.3h-6.6v8.2h6.6c0.6,0,1.2-0.1,1.8-0.2c0.6-0.2,1.1-0.4,1.5-0.7
		c0.4-0.3,0.7-0.7,1-1.3C561.9,314,562,313.4,562,312.7z"/>
	<path class="st0" d="M583.3,311.1c0,1.3-0.2,2.6-0.5,3.7c-0.3,1.2-1,2.2-1.9,3.1c-0.6,0.6-1.3,1.1-2.2,1.4
		c-0.8,0.4-1.8,0.5-2.9,0.5c-1.1,0-2-0.2-2.9-0.5c-0.8-0.4-1.6-0.8-2.2-1.4c-0.9-0.9-1.6-1.9-1.9-3.1c-0.3-1.2-0.5-2.4-0.5-3.7
		c0-1.3,0.2-2.6,0.5-3.7c0.3-1.2,1-2.2,1.9-3.1c0.6-0.6,1.3-1.1,2.2-1.4c0.8-0.4,1.8-0.5,2.9-0.5c1.1,0,2,0.2,2.9,0.5
		c0.8,0.4,1.6,0.8,2.2,1.4c0.9,0.9,1.6,1.9,1.9,3.1C583.2,308.5,583.3,309.7,583.3,311.1z M580.4,311.1c0-1-0.1-1.9-0.3-2.9
		c-0.2-0.9-0.6-1.7-1.2-2.3c-0.4-0.4-0.8-0.6-1.3-0.9c-0.5-0.2-1.1-0.3-1.7-0.3c-0.7,0-1.2,0.1-1.7,0.3c-0.5,0.2-0.9,0.5-1.3,0.9
		c-0.6,0.6-1,1.4-1.2,2.3c-0.2,0.9-0.3,1.9-0.3,2.9c0,1,0.1,1.9,0.3,2.9c0.2,0.9,0.6,1.7,1.2,2.3c0.4,0.4,0.8,0.6,1.3,0.9
		c0.5,0.2,1.1,0.3,1.7,0.3c0.7,0,1.2-0.1,1.7-0.3c0.5-0.2,0.9-0.5,1.3-0.9c0.6-0.6,1-1.4,1.2-2.3C580.3,313,580.4,312.1,580.4,311.1
		z"/>
	<path class="st0" d="M598.8,319.4l-0.2-2.5c-0.4,1-1.1,1.7-2.1,2.2c-0.9,0.5-1.9,0.7-2.9,0.7c-1.9,0-3.3-0.5-4.3-1.6
		c-0.9-1.1-1.4-2.6-1.4-4.5v-11h2.8v10.6c0,1.3,0.3,2.2,0.8,2.9c0.5,0.7,1.5,1.1,2.8,1.1c0.6,0,1.1-0.1,1.5-0.3
		c0.5-0.2,0.9-0.5,1.2-0.9c0.5-0.6,0.9-1.2,1.1-2.1c0.2-0.8,0.3-1.7,0.3-2.5v-8.7h2.8v16.7H598.8z"/>
	<path class="st0" d="M618.1,319.4v-10.6c0-1.3-0.3-2.2-0.8-2.9c-0.6-0.7-1.5-1.1-2.8-1.1c-0.8,0-1.5,0.2-2.1,0.7
		c-0.6,0.5-1.1,1.1-1.5,1.9c-0.3,0.6-0.5,1.3-0.5,2.1c-0.1,0.8-0.1,1.5-0.1,2.1v7.8h-2.8v-16.7h2.4l0.2,2.5c0.2-0.5,0.5-0.9,0.9-1.3
		c0.4-0.4,0.8-0.7,1.3-0.9c0.5-0.3,0.9-0.4,1.5-0.6c0.5-0.1,1-0.2,1.5-0.2c1.9,0,3.4,0.5,4.3,1.6c1,1.1,1.5,2.6,1.5,4.5v11H618.1z"
		/>
	<path class="st0" d="M639.7,313.8c-0.1,0.9-0.3,1.7-0.6,2.4c-0.3,0.7-0.8,1.3-1.4,1.8c-0.6,0.6-1.3,1-2.1,1.3
		c-0.8,0.3-1.7,0.5-2.7,0.5c-1.5,0-2.8-0.3-3.8-0.9s-1.8-1.3-2.4-2.2c-0.4-0.7-0.8-1.5-1-2.4c-0.2-0.9-0.4-2-0.4-3.3
		c0-1.3,0.1-2.3,0.4-3.3c0.2-0.9,0.6-1.7,1-2.4c0.6-0.9,1.4-1.6,2.4-2.2s2.2-0.9,3.7-0.9c1,0,1.9,0.2,2.7,0.5
		c0.8,0.3,1.5,0.7,2.1,1.3c0.6,0.6,1,1.2,1.4,1.9c0.3,0.7,0.5,1.5,0.6,2.4h-2.8c-0.1-0.6-0.2-1.1-0.4-1.5c-0.2-0.4-0.5-0.8-0.8-1.1
		c-0.3-0.3-0.7-0.6-1.2-0.7c-0.5-0.2-1-0.3-1.5-0.3c-0.6,0-1.2,0.1-1.7,0.3s-0.9,0.5-1.3,0.8c-0.7,0.6-1.1,1.3-1.3,2.3
		c-0.2,0.9-0.3,1.9-0.3,3c0,1,0.1,2,0.3,3c0.2,0.9,0.7,1.7,1.3,2.3c0.4,0.3,0.8,0.6,1.3,0.8c0.5,0.2,1,0.3,1.7,0.3
		c0.6,0,1.1-0.1,1.6-0.3c0.5-0.2,0.9-0.5,1.2-0.8c0.3-0.3,0.6-0.7,0.7-1.1c0.2-0.4,0.3-0.9,0.4-1.4H639.7z"/>
	<path class="st0" d="M657.8,312h-11.8c0,0.8,0.1,1.5,0.4,2.3c0.3,0.8,0.7,1.4,1.2,1.9c0.8,0.8,1.8,1.2,3.1,1.2
		c0.7,0,1.3-0.1,1.8-0.3s1-0.5,1.3-0.8c0.2-0.2,0.4-0.5,0.6-0.8c0.2-0.3,0.3-0.6,0.4-1.1h2.7c-0.1,0.8-0.4,1.6-0.9,2.3
		c-0.5,0.7-1,1.3-1.7,1.8c-0.6,0.4-1.3,0.7-2,0.9c-0.7,0.2-1.5,0.3-2.3,0.3c-1.2,0-2.3-0.2-3.2-0.7c-0.9-0.5-1.7-1.1-2.4-1.8
		c-0.7-0.8-1.2-1.8-1.6-2.8c-0.3-1.1-0.5-2.2-0.5-3.4c0-1,0.1-2,0.3-2.9c0.2-0.9,0.5-1.7,1-2.5c0.6-1,1.4-1.8,2.5-2.5
		c1.1-0.7,2.3-1,3.8-1c1.1,0,2,0.2,2.9,0.6c0.8,0.4,1.6,0.9,2.2,1.6c0.7,0.7,1.2,1.6,1.6,2.7c0.4,1,0.6,2.1,0.5,3.2L657.8,312z
		 M654.9,309.6c0-0.6-0.1-1.3-0.3-1.8c-0.2-0.6-0.4-1.1-0.8-1.6c-0.4-0.5-0.8-0.8-1.4-1.1c-0.6-0.3-1.2-0.4-1.9-0.4
		c-0.7,0-1.4,0.1-2,0.4c-0.6,0.3-1,0.7-1.4,1.1c-0.4,0.5-0.7,1-0.9,1.6c-0.2,0.6-0.3,1.2-0.3,1.8H654.9z"/>
	<path class="st0" d="M673.6,319.4l-0.2-2.2c-0.5,0.8-1.2,1.5-2.1,1.9c-0.9,0.5-1.9,0.7-2.8,0.7c-1,0-1.9-0.2-2.7-0.5
		c-0.8-0.3-1.4-0.8-2-1.3c-0.8-0.8-1.4-1.8-1.8-3c-0.4-1.2-0.6-2.5-0.6-3.9c0-1.5,0.2-2.8,0.6-4c0.4-1.2,1.1-2.3,1.9-3.1
		c0.6-0.5,1.2-0.9,2-1.2c0.8-0.3,1.6-0.5,2.6-0.5c0.5,0,0.9,0.1,1.4,0.2c0.5,0.1,0.9,0.3,1.4,0.5s0.8,0.4,1.2,0.7
		c0.4,0.3,0.7,0.6,0.9,1v-9.1h2.8v23.9H673.6z M673.4,311.1c0-1.1-0.1-2.1-0.4-3c-0.3-0.9-0.7-1.7-1.5-2.3c-0.3-0.3-0.7-0.6-1.1-0.8
		c-0.4-0.2-1-0.3-1.6-0.3c-0.9,0-1.7,0.2-2.3,0.6c-0.6,0.4-1.1,0.9-1.5,1.5c-0.4,0.6-0.6,1.3-0.7,2.1c-0.1,0.8-0.2,1.5-0.2,2.3
		c0,0.8,0.1,1.5,0.2,2.3c0.1,0.8,0.4,1.4,0.7,2.1c0.4,0.6,0.8,1.1,1.5,1.5c0.6,0.4,1.4,0.6,2.3,0.6c0.6,0,1.1-0.1,1.6-0.3
		c0.4-0.2,0.8-0.5,1.1-0.8c0.7-0.6,1.2-1.4,1.5-2.3C673.3,313.1,673.4,312.1,673.4,311.1z"/>
</g>
<g class="st6">
	<path class="st1" d="M170.2,197.2c0,1.5-0.2,2.7-0.6,3.9c-0.4,1.1-1,2.1-1.7,2.8c-0.7,0.8-1.6,1.3-2.7,1.7c-1,0.4-2.2,0.6-3.6,0.6
		c-1.3,0-2.5-0.2-3.6-0.6c-1-0.4-1.9-1-2.7-1.7c-0.7-0.8-1.3-1.7-1.7-2.8c-0.4-1.1-0.6-2.4-0.6-3.9v-14.8h2.9v14.9
		c0,0.9,0.1,1.8,0.3,2.5c0.2,0.8,0.5,1.4,1,2c0.4,0.5,1,1,1.7,1.3c0.7,0.3,1.6,0.4,2.6,0.4c1,0,1.9-0.1,2.6-0.4
		c0.7-0.3,1.3-0.7,1.7-1.3c0.4-0.5,0.8-1.2,1-2c0.2-0.8,0.3-1.6,0.3-2.5v-14.9h2.9V197.2z"/>
	<path class="st1" d="M186.6,205.8v-10.6c0-1.3-0.3-2.2-0.8-2.9c-0.6-0.7-1.5-1.1-2.8-1.1c-0.8,0-1.5,0.2-2.1,0.7
		c-0.6,0.5-1.1,1.1-1.5,1.9c-0.3,0.6-0.5,1.3-0.5,2.1c-0.1,0.8-0.1,1.5-0.1,2.1v7.8h-2.8V189h2.4l0.2,2.5c0.2-0.5,0.5-0.9,0.9-1.3
		c0.4-0.4,0.8-0.7,1.3-0.9c0.5-0.3,0.9-0.4,1.5-0.6c0.5-0.1,1-0.2,1.5-0.2c1.9,0,3.4,0.5,4.3,1.6c1,1.1,1.5,2.6,1.5,4.5v11H186.6z"
		/>
	<path class="st1" d="M207.7,200.9c0,0.7-0.1,1.4-0.4,1.9c-0.2,0.6-0.6,1.1-1,1.5c-0.6,0.7-1.4,1.1-2.4,1.4c-0.9,0.3-2,0.4-3.1,0.4
		c-1.1,0-2-0.1-3-0.4c-0.9-0.3-1.7-0.8-2.4-1.5c-0.5-0.5-0.9-1.1-1.2-1.8c-0.3-0.7-0.4-1.4-0.4-2.1h2.8c0,0.6,0.2,1.1,0.4,1.5
		c0.2,0.4,0.6,0.8,1,1.1c0.4,0.3,0.8,0.5,1.4,0.6c0.6,0.1,1.1,0.2,1.6,0.2c0.6,0,1.1-0.1,1.6-0.2c0.5-0.1,1-0.4,1.4-0.7
		c0.2-0.2,0.4-0.4,0.6-0.8c0.2-0.3,0.2-0.7,0.2-1.1c0-0.6-0.2-1.2-0.7-1.6c-0.4-0.4-1.1-0.7-1.9-0.8c-0.2,0-0.4-0.1-0.7-0.1
		c-0.3,0-0.6-0.1-1-0.1c-0.4,0-0.7-0.1-1.1-0.1c-0.4,0-0.7-0.1-1-0.1c-1.3-0.2-2.3-0.7-3-1.4c-0.7-0.8-1.1-1.8-1.1-3.1
		c0-0.6,0.1-1.3,0.4-1.8c0.3-0.6,0.6-1.1,1-1.4c0.6-0.6,1.2-1,2.1-1.4c0.8-0.3,1.8-0.5,2.8-0.5c1.1,0,2.1,0.2,3.1,0.5
		c0.9,0.4,1.7,0.9,2.2,1.6c0.4,0.4,0.7,0.9,0.9,1.4c0.2,0.5,0.3,1.1,0.3,1.8h-2.8c0-0.4-0.1-0.8-0.3-1.2c-0.2-0.4-0.4-0.7-0.6-0.9
		c-0.7-0.6-1.6-0.9-2.7-0.9c-0.3,0-0.6,0-0.9,0c-0.3,0-0.6,0.1-1,0.3c-0.5,0.2-0.9,0.5-1.2,0.9c-0.3,0.4-0.4,0.8-0.4,1.3
		c0,0.7,0.2,1.2,0.6,1.5c0.4,0.3,0.9,0.5,1.7,0.6c0.5,0.1,1,0.1,1.7,0.2c0.7,0.1,1.4,0.2,2.3,0.3c1.2,0.2,2.2,0.7,3,1.5
		C207.2,198.6,207.7,199.6,207.7,200.9z"/>
	<path class="st1" d="M223.1,205.8l-0.2-2.5c-0.4,1-1.1,1.7-2.1,2.2c-0.9,0.5-1.9,0.7-2.9,0.7c-1.9,0-3.3-0.5-4.3-1.6
		c-0.9-1.1-1.4-2.6-1.4-4.5v-11h2.8v10.6c0,1.3,0.3,2.2,0.8,2.9c0.5,0.7,1.5,1.1,2.8,1.1c0.6,0,1.1-0.1,1.5-0.3
		c0.5-0.2,0.9-0.5,1.2-0.9c0.5-0.6,0.9-1.2,1.1-2.1c0.2-0.8,0.3-1.7,0.3-2.5V189h2.8v16.7H223.1z"/>
	<path class="st1" d="M246.5,197.4c0,1.4-0.2,2.7-0.6,3.9c-0.4,1.2-1,2.2-1.8,3c-0.6,0.6-1.2,1-2,1.3c-0.8,0.3-1.7,0.5-2.7,0.5
		c-0.9,0-1.9-0.2-2.8-0.7c-0.9-0.5-1.7-1.1-2.1-1.9l-0.2,2.2h-2.5v-23.9h2.8v9.1c0.2-0.4,0.5-0.7,0.9-1c0.4-0.3,0.8-0.5,1.2-0.7
		c0.4-0.2,0.9-0.4,1.4-0.5c0.5-0.1,0.9-0.2,1.4-0.2c1,0,1.9,0.2,2.6,0.5c0.8,0.3,1.4,0.7,2,1.2c0.8,0.8,1.5,1.8,1.9,3.1
		C246.3,194.6,246.5,196,246.5,197.4z M243.6,197.4c0-0.8-0.1-1.5-0.2-2.3c-0.1-0.8-0.4-1.4-0.7-2.1c-0.4-0.6-0.8-1.1-1.5-1.5
		c-0.6-0.4-1.4-0.6-2.3-0.6c-0.6,0-1.1,0.1-1.6,0.3c-0.4,0.2-0.8,0.5-1.1,0.8c-0.7,0.6-1.2,1.4-1.5,2.3c-0.3,0.9-0.4,1.9-0.4,3
		c0,1.1,0.1,2.1,0.4,3c0.3,0.9,0.7,1.7,1.5,2.3c0.3,0.3,0.7,0.6,1.1,0.8c0.4,0.2,1,0.3,1.6,0.3c0.9,0,1.7-0.2,2.3-0.6
		c0.6-0.4,1.1-0.9,1.5-1.5c0.4-0.6,0.6-1.3,0.7-2.1C243.6,198.9,243.6,198.2,243.6,197.4z"/>
	<path class="st1" d="M264.4,200.1c-0.1,0.9-0.3,1.7-0.6,2.4c-0.3,0.7-0.8,1.3-1.4,1.8c-0.6,0.6-1.3,1-2.1,1.3
		c-0.8,0.3-1.7,0.5-2.7,0.5c-1.5,0-2.8-0.3-3.7-0.9c-1-0.6-1.8-1.3-2.4-2.2c-0.4-0.7-0.8-1.5-1-2.4c-0.2-0.9-0.4-2-0.4-3.3
		c0-1.3,0.1-2.3,0.4-3.3c0.2-0.9,0.6-1.7,1-2.4c0.6-0.9,1.4-1.6,2.4-2.2c1-0.6,2.2-0.9,3.7-0.9c1,0,1.9,0.2,2.7,0.5
		c0.8,0.3,1.5,0.7,2.1,1.3c0.6,0.6,1,1.2,1.4,1.9c0.3,0.7,0.5,1.5,0.6,2.4h-2.8c-0.1-0.6-0.2-1.1-0.4-1.5c-0.2-0.4-0.5-0.8-0.8-1.1
		c-0.3-0.3-0.7-0.6-1.2-0.7c-0.5-0.2-1-0.3-1.5-0.3c-0.6,0-1.2,0.1-1.7,0.3c-0.5,0.2-0.9,0.5-1.3,0.8c-0.7,0.6-1.1,1.3-1.3,2.3
		c-0.2,0.9-0.3,1.9-0.3,3c0,1,0.1,2,0.3,3c0.2,0.9,0.7,1.7,1.3,2.3c0.4,0.3,0.8,0.6,1.3,0.8c0.5,0.2,1,0.3,1.7,0.3
		c0.6,0,1.1-0.1,1.6-0.3c0.5-0.2,0.9-0.5,1.2-0.8c0.3-0.3,0.6-0.7,0.7-1.1c0.2-0.4,0.3-0.9,0.4-1.4H264.4z"/>
	<path class="st1" d="M278,191.8c-0.2,0-0.5-0.1-0.8-0.1c-0.3,0-0.5,0-0.8,0c-0.7,0-1.3,0.1-1.8,0.4c-0.5,0.3-1,0.6-1.4,0.9
		c-0.3,0.3-0.6,0.7-0.8,1.1c-0.2,0.4-0.4,0.9-0.5,1.4c-0.1,0.5-0.2,1-0.2,1.5c0,0.5,0,1,0,1.4v7.4h-2.8V189h2.5l0.2,2.9
		c0.4-1,1.1-1.8,2-2.3c0.9-0.5,1.9-0.7,3-0.7c0.5,0,0.9,0,1.3,0.1V191.8z"/>
	<path class="st1" d="M281.4,185.2v-3.3h3.3v3.3H281.4z M281.6,205.8V189h2.9v16.7H281.6z"/>
	<path class="st1" d="M305.5,197.4c0,1.4-0.2,2.7-0.6,3.9c-0.4,1.2-1,2.2-1.8,3c-0.6,0.6-1.2,1-2,1.3c-0.8,0.3-1.7,0.5-2.7,0.5
		c-0.9,0-1.9-0.2-2.8-0.7c-0.9-0.5-1.7-1.1-2.1-1.9l-0.2,2.2h-2.5v-23.9h2.8v9.1c0.2-0.4,0.5-0.7,0.9-1c0.4-0.3,0.8-0.5,1.2-0.7
		c0.4-0.2,0.9-0.4,1.4-0.5c0.5-0.1,0.9-0.2,1.4-0.2c1,0,1.9,0.2,2.6,0.5c0.8,0.3,1.4,0.7,2,1.2c0.8,0.8,1.5,1.8,1.9,3.1
		C305.2,194.6,305.5,196,305.5,197.4z M302.6,197.4c0-0.8-0.1-1.5-0.2-2.3c-0.1-0.8-0.4-1.4-0.7-2.1s-0.8-1.1-1.5-1.5
		c-0.6-0.4-1.4-0.6-2.3-0.6c-0.6,0-1.1,0.1-1.6,0.3s-0.8,0.5-1.1,0.8c-0.7,0.6-1.2,1.4-1.5,2.3c-0.3,0.9-0.4,1.9-0.4,3
		c0,1.1,0.1,2.1,0.4,3c0.3,0.9,0.7,1.7,1.5,2.3c0.3,0.3,0.7,0.6,1.1,0.8c0.4,0.2,1,0.3,1.6,0.3c0.9,0,1.7-0.2,2.3-0.6
		c0.6-0.4,1.1-0.9,1.5-1.5c0.4-0.6,0.6-1.3,0.7-2.1C302.5,198.9,302.6,198.2,302.6,197.4z"/>
	<path class="st1" d="M323.8,198.3h-11.8c0,0.8,0.1,1.5,0.4,2.3c0.3,0.8,0.7,1.4,1.2,1.9c0.8,0.8,1.8,1.2,3.1,1.2
		c0.7,0,1.3-0.1,1.8-0.3c0.5-0.2,1-0.5,1.3-0.8c0.2-0.2,0.4-0.5,0.6-0.8c0.2-0.3,0.3-0.6,0.4-1.1h2.7c-0.1,0.8-0.4,1.6-0.9,2.3
		c-0.5,0.7-1,1.3-1.7,1.8c-0.6,0.4-1.3,0.7-2,0.9c-0.7,0.2-1.5,0.3-2.3,0.3c-1.2,0-2.3-0.2-3.2-0.7c-0.9-0.5-1.7-1.1-2.4-1.8
		c-0.7-0.8-1.2-1.8-1.6-2.8c-0.3-1.1-0.5-2.2-0.5-3.4c0-1,0.1-2,0.3-2.9c0.2-0.9,0.5-1.7,1-2.5c0.6-1,1.4-1.8,2.5-2.5
		c1.1-0.7,2.3-1,3.8-1c1.1,0,2,0.2,2.9,0.6c0.8,0.4,1.6,0.9,2.2,1.6c0.7,0.7,1.2,1.6,1.6,2.7c0.4,1,0.6,2.1,0.5,3.2L323.8,198.3z
		 M320.9,195.9c0-0.6-0.1-1.3-0.3-1.8c-0.2-0.6-0.4-1.1-0.8-1.6c-0.4-0.5-0.8-0.8-1.4-1.1c-0.6-0.3-1.2-0.4-1.9-0.4
		c-0.7,0-1.4,0.1-2,0.4c-0.6,0.3-1,0.7-1.4,1.1c-0.4,0.5-0.7,1-0.9,1.6s-0.3,1.2-0.3,1.8H320.9z"/>
	<path class="st1" d="M339.6,205.8l-0.2-2.2c-0.5,0.8-1.2,1.5-2.1,1.9c-0.9,0.5-1.9,0.7-2.8,0.7c-1,0-1.9-0.2-2.7-0.5
		c-0.8-0.3-1.4-0.8-2-1.3c-0.8-0.8-1.4-1.8-1.8-3c-0.4-1.2-0.6-2.5-0.6-3.9c0-1.5,0.2-2.8,0.6-4c0.4-1.2,1.1-2.3,1.9-3.1
		c0.6-0.5,1.2-0.9,2-1.2c0.8-0.3,1.6-0.5,2.6-0.5c0.5,0,0.9,0.1,1.4,0.2c0.5,0.1,0.9,0.3,1.4,0.5c0.4,0.2,0.8,0.4,1.2,0.7
		c0.4,0.3,0.7,0.6,0.9,1v-9.1h2.8v23.9H339.6z M339.4,197.4c0-1.1-0.1-2.1-0.4-3c-0.3-0.9-0.7-1.7-1.5-2.3c-0.3-0.3-0.7-0.6-1.1-0.8
		c-0.4-0.2-1-0.3-1.6-0.3c-0.9,0-1.7,0.2-2.3,0.6c-0.6,0.4-1.1,0.9-1.5,1.5s-0.6,1.3-0.7,2.1c-0.1,0.8-0.2,1.5-0.2,2.3
		c0,0.8,0.1,1.5,0.2,2.3c0.1,0.8,0.4,1.4,0.7,2.1c0.4,0.6,0.8,1.1,1.5,1.5c0.6,0.4,1.4,0.6,2.3,0.6c0.6,0,1.1-0.1,1.6-0.3
		c0.4-0.2,0.8-0.5,1.1-0.8c0.7-0.6,1.2-1.4,1.5-2.3C339.3,199.4,339.4,198.5,339.4,197.4z"/>
</g>
<g>
	<path class="st7" d="M270.8,515.7H263l-0.8,5.3c0.5-0.1,0.9-0.1,1.7-0.1c1.6,0,3.1,0.3,4.4,1.1c1.6,0.9,2.9,2.7,2.9,5.3
		c0,4-3.2,7-7.6,7c-2.2,0-4.1-0.6-5.1-1.3l0.7-2.1c0.8,0.5,2.5,1.1,4.4,1.1c2.6,0,4.8-1.7,4.8-4.4c0-2.6-1.8-4.5-5.9-4.5
		c-1.2,0-2.1,0.1-2.8,0.2l1.3-9.8h9.8V515.7z"/>
	<path class="st7" d="M287,515.7h-7.8l-0.8,5.3c0.5-0.1,0.9-0.1,1.7-0.1c1.6,0,3.1,0.3,4.4,1.1c1.6,0.9,2.9,2.7,2.9,5.3
		c0,4-3.2,7-7.6,7c-2.2,0-4.1-0.6-5.1-1.3l0.7-2.1c0.8,0.5,2.5,1.1,4.4,1.1c2.6,0,4.8-1.7,4.8-4.4c0-2.6-1.8-4.5-5.9-4.5
		c-1.2,0-2.1,0.1-2.8,0.2l1.3-9.8h9.8V515.7z"/>
	<path class="st7" d="M300.1,519.2c0,4.3-2.3,6.5-4.9,6.5c-2.5,0-4.8-2-4.8-6.2c0-4.1,2.2-6.4,4.9-6.4
		C298.3,513.1,300.1,515.3,300.1,519.2z M292.7,519.4c-0.1,2.6,0.9,4.6,2.6,4.6c1.8,0,2.6-2,2.6-4.7c0-2.5-0.7-4.6-2.6-4.6
		C293.6,514.7,292.7,516.8,292.7,519.4z M295,534.2l12-21.1h1.8l-12,21.1H295z M313.5,527.6c0,4.3-2.3,6.5-4.9,6.5
		c-2.5,0-4.8-2-4.8-6.1c0-4.1,2.2-6.4,4.9-6.4C311.6,521.5,313.5,523.7,313.5,527.6z M306,527.8c0,2.6,1,4.6,2.7,4.6
		c1.8,0,2.6-2,2.6-4.7c0-2.5-0.7-4.6-2.6-4.6C306.9,523.2,306,525.2,306,527.8z"/>
</g>
<g>
	<path class="st7" d="M184.1,363.9v-1.7l2.2-2.1c5.2-5,7.6-7.6,7.6-10.7c0-2.1-1-4-4.1-4c-1.9,0-3.4,0.9-4.3,1.7l-0.9-2
		c1.4-1.2,3.4-2.1,5.8-2.1c4.4,0,6.3,3,6.3,5.9c0,3.8-2.7,6.8-7.1,11l-1.6,1.5v0.1h9.2v2.3H184.1z"/>
	<path class="st7" d="M213.9,353.5c0,7-2.6,10.8-7.1,10.8c-4,0-6.7-3.7-6.8-10.5c0-6.9,3-10.6,7.1-10.6
		C211.4,343.1,213.9,347,213.9,353.5z M202.7,353.8c0,5.3,1.6,8.3,4.2,8.3c2.8,0,4.2-3.3,4.2-8.5c0-5-1.3-8.3-4.2-8.3
		C204.5,345.3,202.7,348.2,202.7,353.8z"/>
	<path class="st7" d="M225.6,349.2c0,4.3-2.3,6.5-4.9,6.5c-2.5,0-4.8-2-4.8-6.2c0-4.1,2.2-6.4,4.9-6.4
		C223.7,343.1,225.6,345.3,225.6,349.2z M218.1,349.4c-0.1,2.6,0.9,4.6,2.6,4.6c1.8,0,2.6-2,2.6-4.7c0-2.5-0.7-4.6-2.6-4.6
		C219,344.8,218.1,346.9,218.1,349.4z M220.5,364.3l12-21.1h1.8l-12,21.1H220.5z M238.9,357.7c0,4.3-2.3,6.5-4.9,6.5
		c-2.5,0-4.8-2-4.8-6.1c0-4.1,2.2-6.4,4.9-6.4C237.1,351.6,238.9,353.8,238.9,357.7z M231.4,357.9c0,2.6,1,4.6,2.7,4.6
		c1.8,0,2.6-2,2.6-4.7c0-2.5-0.7-4.6-2.6-4.6C232.4,353.3,231.4,355.3,231.4,357.9z"/>
</g>
<g>
	<path class="st7" d="M328.6,363.9v-1.7l2.2-2.1c5.2-5,7.6-7.6,7.6-10.7c0-2.1-1-4-4.1-4c-1.9,0-3.4,0.9-4.3,1.7l-0.9-2
		c1.4-1.2,3.4-2.1,5.8-2.1c4.4,0,6.3,3,6.3,5.9c0,3.8-2.7,6.8-7.1,11l-1.6,1.5v0.1h9.2v2.3H328.6z"/>
	<path class="st7" d="M357,345.8h-7.8l-0.8,5.3c0.5-0.1,0.9-0.1,1.7-0.1c1.6,0,3.1,0.3,4.4,1.1c1.6,0.9,2.9,2.7,2.9,5.3
		c0,4-3.2,7-7.6,7c-2.2,0-4.1-0.6-5.1-1.3l0.7-2.1c0.8,0.5,2.5,1.1,4.4,1.1c2.6,0,4.8-1.7,4.8-4.4c0-2.6-1.8-4.5-5.9-4.5
		c-1.2,0-2.1,0.1-2.8,0.2l1.3-9.8h9.8V345.8z"/>
	<path class="st7" d="M370.2,349.2c0,4.3-2.3,6.5-4.9,6.5c-2.5,0-4.8-2-4.8-6.2c0-4.1,2.2-6.4,4.9-6.4
		C368.3,343.1,370.2,345.3,370.2,349.2z M362.7,349.4c-0.1,2.6,0.9,4.6,2.6,4.6c1.8,0,2.6-2,2.6-4.7c0-2.5-0.7-4.6-2.6-4.6
		C363.6,344.8,362.7,346.9,362.7,349.4z M365.1,364.3l12-21.1h1.8l-12,21.1H365.1z M383.5,357.7c0,4.3-2.3,6.5-4.9,6.5
		c-2.5,0-4.8-2-4.8-6.1c0-4.1,2.2-6.4,4.9-6.4C381.6,351.6,383.5,353.8,383.5,357.7z M376,357.9c0,2.6,1,4.6,2.7,4.6
		c1.8,0,2.6-2,2.6-4.7c0-2.5-0.7-4.6-2.6-4.6C376.9,353.3,376,355.3,376,357.9z"/>
</g>
</svg>
