<?xml version="1.0" encoding="utf-8"?>
<!-- Generator: Adobe Illustrator 19.0.0, SVG Export Plug-In . SVG Version: 6.00 Build 0)  -->
<svg version="1.1" id="Layer_1" xmlns="http://www.w3.org/2000/svg" xmlns:xlink="http://www.w3.org/1999/xlink" x="0px" y="0px"
	 viewBox="44 197 700 400" style="enable-background:new 44 197 700 400;" xml:space="preserve">
<style type="text/css">
	.st0{fill:#7E266A;}
	.st1{fill:#666666;}
	.st2{fill:#5D88B2;}
	.st3{fill:none;stroke:#5D88B2;stroke-miterlimit:10;}
	.st4{fill:none;stroke:#7E266A;stroke-miterlimit:10;}
	.st5{fill:none;stroke:#666666;stroke-miterlimit:10;}
	.st6{enable-background:new    ;}
	.st7{fill:#FFFFFF;}
</style>
<g>
	<g>
		<g>
			<path class="st0" d="M313,428V317.5c61,0,110.5,49.5,110.5,110.5l0,0H313z"/>
		</g>
	</g>
	<g>
		<g>
			<path class="st1" d="M313,428l-105.1-34.2c15.1-46.4,56.3-76.3,105.1-76.3V428z"/>
		</g>
	</g>
	<g>
		<g>
			<path class="st2" d="M313,428h110.5c0,61-49.5,110.5-110.5,110.5S202.5,489,202.5,428c0-12.2,1.6-22.5,5.4-34.1L313,428z"/>
		</g>
	</g>
</g>
<polyline class="st3" points="382.4,500.4 446.4,520.9 502.9,520.9 "/>
<polyline class="st4" points="393.4,358.4 413.4,344.9 475.9,344.9 "/>
<polyline class="st5" points="255.9,351.7 243.4,317.5 281.4,286.4 "/>
<g class="st6">
	<path class="st2" d="M528.9,520.2c0,0.6,0,1.2-0.1,1.7c0,0.6-0.1,1.1-0.3,1.6c-0.1,0.5-0.3,1-0.6,1.5c-0.3,0.5-0.6,0.9-1,1.3
		c-0.5,0.5-1.1,0.9-1.8,1.2c-0.7,0.3-1.4,0.4-2.2,0.4c-0.8,0-1.5-0.1-2.2-0.4c-0.7-0.3-1.3-0.7-1.8-1.2c-0.4-0.4-0.7-0.8-1-1.3
		c-0.3-0.5-0.4-1-0.6-1.5c-0.1-0.5-0.2-1.1-0.3-1.6c0-0.6-0.1-1.1-0.1-1.7c0-0.6,0-1.2,0.1-1.7c0-0.6,0.1-1.1,0.3-1.6s0.3-1,0.6-1.5
		s0.6-0.9,1-1.3c0.5-0.5,1.1-0.9,1.8-1.2s1.4-0.4,2.2-0.4c0.8,0,1.5,0.1,2.2,0.4c0.7,0.3,1.3,0.7,1.8,1.2c0.4,0.4,0.7,0.8,1,1.3
		c0.3,0.5,0.4,1,0.6,1.5c0.1,0.5,0.2,1.1,0.3,1.6C528.8,519.1,528.9,519.6,528.9,520.2z M526.9,520.2c0-0.4,0-0.8,0-1.2
		c0-0.4-0.1-0.9-0.2-1.3c-0.1-0.4-0.2-0.8-0.4-1.2c-0.2-0.4-0.4-0.8-0.7-1.1c-0.4-0.4-0.8-0.6-1.3-0.8c-0.5-0.2-1-0.3-1.5-0.3
		c-0.5,0-1,0.1-1.5,0.3c-0.5,0.2-0.9,0.5-1.2,0.8c-0.3,0.3-0.5,0.7-0.7,1.1c-0.2,0.4-0.3,0.8-0.4,1.2c-0.1,0.4-0.1,0.9-0.2,1.3
		c0,0.4,0,0.8,0,1.2c0,0.4,0,0.8,0,1.2c0,0.4,0.1,0.9,0.2,1.3s0.2,0.8,0.4,1.2s0.4,0.7,0.7,1.1c0.4,0.4,0.8,0.6,1.2,0.8
		c0.5,0.2,1,0.3,1.5,0.3c0.5,0,1-0.1,1.5-0.3c0.5-0.2,0.9-0.5,1.3-0.8c0.3-0.3,0.5-0.7,0.7-1.1s0.3-0.8,0.4-1.2s0.1-0.9,0.2-1.3
		C526.9,521,526.9,520.6,526.9,520.2z"/>
	<path class="st2" d="M541.3,522.3c0,0.9-0.1,1.8-0.4,2.6c-0.3,0.8-0.7,1.4-1.2,2c-0.3,0.3-0.8,0.6-1.2,0.8c-0.5,0.2-1,0.3-1.7,0.3
		c-0.3,0-0.6,0-0.9-0.1c-0.3-0.1-0.6-0.2-0.9-0.3c-0.3-0.1-0.5-0.3-0.8-0.5c-0.2-0.2-0.4-0.4-0.6-0.6v5.8h-1.8V517h1.6l0.1,1.4
		c0.3-0.5,0.8-0.9,1.4-1.2c0.6-0.3,1.2-0.4,1.8-0.4c0.7,0,1.2,0.1,1.7,0.3s0.9,0.5,1.3,0.9c0.5,0.5,0.9,1.2,1.1,1.9
		C541.2,520.6,541.3,521.5,541.3,522.3z M539.5,522.4c0-0.5,0-1-0.1-1.5c-0.1-0.5-0.2-0.9-0.5-1.3c-0.2-0.4-0.5-0.7-0.9-0.9
		s-0.9-0.4-1.5-0.4c-0.4,0-0.7,0.1-1,0.2c-0.3,0.1-0.5,0.3-0.7,0.5c-0.4,0.4-0.8,0.9-0.9,1.5c-0.2,0.6-0.3,1.2-0.3,1.9
		s0.1,1.3,0.3,1.9c0.2,0.6,0.5,1.1,0.9,1.5c0.2,0.2,0.5,0.4,0.7,0.5c0.3,0.1,0.6,0.2,1,0.2c0.6,0,1.1-0.1,1.5-0.4
		c0.4-0.2,0.7-0.6,0.9-0.9c0.2-0.4,0.4-0.8,0.5-1.3C539.5,523.3,539.5,522.8,539.5,522.4z"/>
	<path class="st2" d="M553,522.9h-7.5c0,0.5,0.1,1,0.3,1.5c0.2,0.5,0.4,0.9,0.8,1.2c0.5,0.5,1.2,0.8,2,0.8c0.4,0,0.8-0.1,1.1-0.2
		s0.6-0.3,0.8-0.5c0.2-0.2,0.3-0.3,0.4-0.5c0.1-0.2,0.2-0.4,0.3-0.7h1.7c-0.1,0.5-0.3,1-0.5,1.5s-0.7,0.8-1.1,1.1
		c-0.4,0.3-0.8,0.4-1.3,0.6c-0.5,0.1-0.9,0.2-1.4,0.2c-0.8,0-1.4-0.1-2-0.4c-0.6-0.3-1.1-0.7-1.5-1.2c-0.4-0.5-0.8-1.1-1-1.8
		c-0.2-0.7-0.3-1.4-0.3-2.2c0-0.6,0.1-1.2,0.2-1.8c0.1-0.6,0.3-1.1,0.6-1.6c0.4-0.6,0.9-1.2,1.6-1.6c0.7-0.4,1.5-0.6,2.4-0.6
		c0.7,0,1.3,0.1,1.8,0.4s1,0.6,1.4,1c0.4,0.5,0.8,1,1,1.7c0.2,0.7,0.3,1.3,0.3,2L553,522.9z M551.2,521.4c0-0.4-0.1-0.8-0.2-1.2
		s-0.3-0.7-0.5-1c-0.2-0.3-0.5-0.5-0.9-0.7c-0.3-0.2-0.8-0.3-1.2-0.3c-0.5,0-0.9,0.1-1.3,0.3c-0.4,0.2-0.7,0.4-0.9,0.7
		c-0.2,0.3-0.4,0.6-0.5,1s-0.2,0.8-0.2,1.1H551.2z"/>
	<path class="st2" d="M562.8,527.7v-6.7c0-0.8-0.2-1.4-0.5-1.9c-0.4-0.4-1-0.7-1.8-0.7c-0.5,0-1,0.2-1.4,0.5
		c-0.4,0.3-0.7,0.7-0.9,1.2c-0.2,0.4-0.3,0.8-0.3,1.3s-0.1,1-0.1,1.4v4.9H556V517h1.6l0.1,1.6c0.1-0.3,0.3-0.6,0.6-0.8
		c0.2-0.2,0.5-0.4,0.8-0.6c0.3-0.2,0.6-0.3,0.9-0.4s0.6-0.1,0.9-0.1c1.2,0,2.1,0.3,2.8,1c0.6,0.7,0.9,1.6,0.9,2.9v7H562.8z"/>
	<path class="st2" d="M576.8,522.9h-7.5c0,0.5,0.1,1,0.3,1.5c0.2,0.5,0.4,0.9,0.8,1.2c0.5,0.5,1.2,0.8,2,0.8c0.4,0,0.8-0.1,1.1-0.2
		s0.6-0.3,0.8-0.5c0.2-0.2,0.3-0.3,0.4-0.5c0.1-0.2,0.2-0.4,0.3-0.7h1.7c-0.1,0.5-0.3,1-0.5,1.5s-0.7,0.8-1.1,1.1
		c-0.4,0.3-0.8,0.4-1.3,0.6c-0.5,0.1-0.9,0.2-1.4,0.2c-0.8,0-1.4-0.1-2-0.4c-0.6-0.3-1.1-0.7-1.5-1.2c-0.4-0.5-0.8-1.1-1-1.8
		c-0.2-0.7-0.3-1.4-0.3-2.2c0-0.6,0.1-1.2,0.2-1.8c0.1-0.6,0.3-1.1,0.6-1.6c0.4-0.6,0.9-1.2,1.6-1.6c0.7-0.4,1.5-0.6,2.4-0.6
		c0.7,0,1.3,0.1,1.8,0.4s1,0.6,1.4,1c0.4,0.5,0.8,1,1,1.7c0.2,0.7,0.3,1.3,0.3,2L576.8,522.9z M575,521.4c0-0.4-0.1-0.8-0.2-1.2
		c-0.1-0.4-0.3-0.7-0.5-1c-0.2-0.3-0.5-0.5-0.9-0.7c-0.4-0.2-0.8-0.3-1.2-0.3c-0.5,0-0.9,0.1-1.3,0.3c-0.4,0.2-0.7,0.4-0.9,0.7
		s-0.4,0.6-0.5,1s-0.2,0.8-0.2,1.1H575z"/>
	<path class="st2" d="M586.9,527.7l-0.1-1.4c-0.3,0.5-0.8,0.9-1.4,1.2c-0.6,0.3-1.2,0.4-1.8,0.4c-0.7,0-1.2-0.1-1.7-0.3
		c-0.5-0.2-0.9-0.5-1.3-0.9c-0.5-0.5-0.9-1.2-1.1-1.9c-0.3-0.8-0.4-1.6-0.4-2.5c0-0.9,0.1-1.8,0.4-2.6c0.3-0.8,0.7-1.4,1.2-2
		c0.3-0.3,0.8-0.6,1.2-0.8c0.5-0.2,1-0.3,1.7-0.3c0.3,0,0.6,0,0.9,0.1c0.3,0.1,0.6,0.2,0.9,0.3s0.5,0.3,0.8,0.5
		c0.2,0.2,0.4,0.4,0.6,0.6v-5.8h1.8v15.2H586.9z M586.8,522.3c0-0.7-0.1-1.3-0.3-1.9c-0.2-0.6-0.5-1.1-0.9-1.5
		c-0.2-0.2-0.5-0.4-0.7-0.5c-0.3-0.1-0.6-0.2-1-0.2c-0.6,0-1.1,0.1-1.5,0.4c-0.4,0.2-0.7,0.6-0.9,0.9c-0.2,0.4-0.4,0.8-0.5,1.3
		c-0.1,0.5-0.1,1-0.1,1.5c0,0.5,0,1,0.1,1.5c0.1,0.5,0.2,0.9,0.5,1.3c0.2,0.4,0.5,0.7,0.9,0.9c0.4,0.2,0.9,0.4,1.5,0.4
		c0.4,0,0.7-0.1,1-0.2c0.3-0.1,0.5-0.3,0.7-0.5c0.4-0.4,0.8-0.9,0.9-1.5C586.7,523.6,586.8,523,586.8,522.3z"/>
</g>
<g class="st6">
	<path class="st0" d="M495.9,348.3c0,0.6-0.1,1.1-0.3,1.6c-0.2,0.5-0.5,0.9-0.8,1.2c-0.4,0.4-1,0.8-1.6,1s-1.4,0.3-2.1,0.3h-6v-14.9
		h5.9c0.7,0,1.4,0.1,2,0.3c0.7,0.2,1.2,0.6,1.6,1c0.3,0.3,0.5,0.7,0.7,1.1s0.3,0.9,0.3,1.4c0,0.7-0.2,1.4-0.5,2s-0.9,1.1-1.6,1.3
		c0.4,0.1,0.7,0.3,1,0.6c0.3,0.2,0.6,0.5,0.8,0.8c0.2,0.3,0.4,0.7,0.5,1C495.8,347.6,495.9,347.9,495.9,348.3z M493.6,341.6
		c0-0.4-0.1-0.7-0.2-1c-0.1-0.3-0.3-0.5-0.6-0.7c-0.2-0.2-0.5-0.3-0.9-0.4c-0.3-0.1-0.7-0.1-1-0.1h-4.1v4.7h4.2
		c0.8,0,1.4-0.2,1.9-0.5C493.4,343,493.6,342.4,493.6,341.6z M494,348.2c0-0.4-0.1-0.8-0.2-1.1c-0.2-0.3-0.4-0.6-0.6-0.8
		c-0.3-0.2-0.6-0.4-0.9-0.5c-0.4-0.1-0.7-0.2-1.1-0.2h-4.2v5.2h4.2c0.4,0,0.8-0.1,1.2-0.2c0.4-0.1,0.7-0.3,0.9-0.5
		c0.3-0.2,0.5-0.5,0.6-0.8C493.9,349,494,348.6,494,348.2z"/>
	<path class="st0" d="M507.5,347.2c0,0.8-0.1,1.6-0.3,2.4c-0.2,0.7-0.6,1.4-1.2,2c-0.4,0.4-0.9,0.7-1.4,0.9
		c-0.5,0.2-1.1,0.3-1.8,0.3s-1.3-0.1-1.8-0.3c-0.5-0.2-1-0.5-1.4-0.9c-0.6-0.6-1-1.2-1.2-2c-0.2-0.7-0.3-1.5-0.3-2.4
		c0-0.8,0.1-1.6,0.3-2.4s0.6-1.4,1.2-2c0.4-0.4,0.9-0.7,1.4-0.9c0.5-0.2,1.1-0.3,1.8-0.3s1.3,0.1,1.8,0.3c0.5,0.2,1,0.5,1.4,0.9
		c0.6,0.6,1,1.2,1.2,2S507.5,346.3,507.5,347.2z M505.7,347.2c0-0.6-0.1-1.2-0.2-1.8c-0.1-0.6-0.4-1.1-0.8-1.5
		c-0.2-0.2-0.5-0.4-0.8-0.5c-0.3-0.1-0.7-0.2-1.1-0.2s-0.8,0.1-1.1,0.2c-0.3,0.1-0.6,0.3-0.8,0.5c-0.4,0.4-0.6,0.9-0.8,1.5
		s-0.2,1.2-0.2,1.8c0,0.6,0.1,1.2,0.2,1.8s0.4,1.1,0.8,1.5c0.2,0.2,0.5,0.4,0.8,0.5c0.3,0.1,0.7,0.2,1.1,0.2s0.8-0.1,1.1-0.2
		c0.3-0.1,0.6-0.3,0.8-0.5c0.4-0.4,0.6-0.9,0.8-1.5C505.6,348.4,505.7,347.8,505.7,347.2z"/>
	<path class="st0" d="M517.4,352.5l-0.1-1.6c-0.3,0.6-0.7,1.1-1.3,1.4c-0.6,0.3-1.2,0.5-1.8,0.5c-1.2,0-2.1-0.3-2.7-1
		c-0.6-0.7-0.9-1.6-0.9-2.9v-7h1.8v6.7c0,0.8,0.2,1.4,0.5,1.9c0.3,0.4,0.9,0.7,1.8,0.7c0.4,0,0.7-0.1,1-0.2c0.3-0.1,0.5-0.3,0.8-0.6
		c0.3-0.3,0.6-0.8,0.7-1.3c0.1-0.5,0.2-1.1,0.2-1.6v-5.5h1.8v10.6H517.4z"/>
	<path class="st0" d="M529.6,352.5v-6.7c0-0.8-0.2-1.4-0.5-1.9c-0.4-0.4-1-0.7-1.8-0.7c-0.5,0-1,0.2-1.4,0.5
		c-0.4,0.3-0.7,0.7-0.9,1.2c-0.2,0.4-0.3,0.8-0.3,1.3s-0.1,1-0.1,1.4v4.9h-1.8v-10.6h1.6l0.1,1.6c0.1-0.3,0.3-0.6,0.6-0.8
		c0.2-0.2,0.5-0.4,0.8-0.6c0.3-0.2,0.6-0.3,0.9-0.4s0.6-0.1,0.9-0.1c1.2,0,2.1,0.3,2.8,1c0.6,0.7,0.9,1.6,0.9,2.9v7H529.6z"/>
	<path class="st0" d="M543.4,348.9c0,0.6-0.2,1.1-0.4,1.5c-0.2,0.4-0.5,0.8-0.9,1.2c-0.4,0.4-0.8,0.6-1.3,0.9
		c-0.5,0.2-1.1,0.3-1.7,0.3c-1,0-1.8-0.2-2.4-0.6s-1.1-0.9-1.5-1.4c-0.3-0.4-0.5-0.9-0.7-1.5s-0.2-1.3-0.2-2.1
		c0-0.8,0.1-1.5,0.2-2.1c0.2-0.6,0.4-1.1,0.7-1.5c0.4-0.6,0.9-1,1.5-1.4s1.4-0.6,2.4-0.6c0.6,0,1.2,0.1,1.7,0.3
		c0.5,0.2,0.9,0.5,1.3,0.8c0.4,0.3,0.7,0.7,0.9,1.2c0.2,0.4,0.3,1,0.4,1.5h-1.8c0-0.4-0.1-0.7-0.3-1c-0.1-0.3-0.3-0.5-0.5-0.7
		c-0.2-0.2-0.5-0.4-0.8-0.5c-0.3-0.1-0.6-0.2-1-0.2c-0.4,0-0.8,0.1-1,0.2s-0.6,0.3-0.8,0.5c-0.4,0.4-0.7,0.8-0.9,1.4
		c-0.1,0.6-0.2,1.2-0.2,1.9c0,0.7,0.1,1.3,0.2,1.9c0.1,0.6,0.4,1.1,0.9,1.4c0.2,0.2,0.5,0.4,0.8,0.5s0.6,0.2,1,0.2
		c0.4,0,0.7-0.1,1-0.2c0.3-0.1,0.6-0.3,0.8-0.5c0.2-0.2,0.4-0.4,0.5-0.7c0.1-0.3,0.2-0.6,0.2-0.9H543.4z"/>
	<path class="st0" d="M554.8,347.8h-7.5c0,0.5,0.1,1,0.3,1.5c0.2,0.5,0.4,0.9,0.8,1.2c0.5,0.5,1.2,0.8,2,0.8c0.4,0,0.8-0.1,1.1-0.2
		s0.6-0.3,0.8-0.5c0.2-0.2,0.3-0.3,0.4-0.5c0.1-0.2,0.2-0.4,0.3-0.7h1.7c-0.1,0.5-0.3,1-0.5,1.5s-0.7,0.8-1.1,1.1
		c-0.4,0.3-0.8,0.4-1.3,0.6c-0.5,0.1-0.9,0.2-1.4,0.2c-0.8,0-1.4-0.1-2-0.4c-0.6-0.3-1.1-0.7-1.5-1.2c-0.4-0.5-0.8-1.1-1-1.8
		c-0.2-0.7-0.3-1.4-0.3-2.2c0-0.6,0.1-1.2,0.2-1.8c0.1-0.6,0.3-1.1,0.6-1.6c0.4-0.6,0.9-1.2,1.6-1.6c0.7-0.4,1.5-0.6,2.4-0.6
		c0.7,0,1.3,0.1,1.8,0.4s1,0.6,1.4,1c0.4,0.5,0.8,1,1,1.7c0.2,0.7,0.3,1.3,0.3,2L554.8,347.8z M553,346.2c0-0.4-0.1-0.8-0.2-1.2
		c-0.1-0.4-0.3-0.7-0.5-1c-0.2-0.3-0.5-0.5-0.9-0.7c-0.4-0.2-0.8-0.3-1.2-0.3c-0.5,0-0.9,0.1-1.3,0.3c-0.4,0.2-0.7,0.4-0.9,0.7
		s-0.4,0.6-0.5,1s-0.2,0.8-0.2,1.1H553z"/>
	<path class="st0" d="M564.9,352.5l-0.1-1.4c-0.3,0.5-0.8,0.9-1.4,1.2c-0.6,0.3-1.2,0.4-1.8,0.4c-0.7,0-1.2-0.1-1.7-0.3
		c-0.5-0.2-0.9-0.5-1.3-0.9c-0.5-0.5-0.9-1.2-1.1-1.9c-0.3-0.8-0.4-1.6-0.4-2.5c0-0.9,0.1-1.8,0.4-2.6c0.3-0.8,0.7-1.4,1.2-2
		c0.3-0.3,0.8-0.6,1.2-0.8c0.5-0.2,1-0.3,1.7-0.3c0.3,0,0.6,0,0.9,0.1c0.3,0.1,0.6,0.2,0.9,0.3s0.5,0.3,0.8,0.5
		c0.2,0.2,0.4,0.4,0.6,0.6v-5.8h1.8v15.2H564.9z M564.8,347.2c0-0.7-0.1-1.3-0.3-1.9c-0.2-0.6-0.5-1.1-0.9-1.5
		c-0.2-0.2-0.5-0.4-0.7-0.5c-0.3-0.1-0.6-0.2-1-0.2c-0.6,0-1.1,0.1-1.5,0.4c-0.4,0.2-0.7,0.6-0.9,0.9c-0.2,0.4-0.4,0.8-0.5,1.3
		c-0.1,0.5-0.1,1-0.1,1.5c0,0.5,0,1,0.1,1.5c0.1,0.5,0.2,0.9,0.5,1.3c0.2,0.4,0.5,0.7,0.9,0.9c0.4,0.2,0.9,0.4,1.5,0.4
		c0.4,0,0.7-0.1,1-0.2c0.3-0.1,0.5-0.3,0.7-0.5c0.4-0.4,0.8-0.9,0.9-1.5C564.7,348.5,564.8,347.8,564.8,347.2z"/>
</g>
<g class="st6">
	<path class="st1" d="M245,274.8c0,0.9-0.1,1.7-0.4,2.5s-0.6,1.3-1.1,1.8c-0.5,0.5-1,0.8-1.7,1.1c-0.7,0.3-1.4,0.4-2.3,0.4
		c-0.8,0-1.6-0.1-2.3-0.4c-0.7-0.3-1.2-0.6-1.7-1.1c-0.5-0.5-0.8-1.1-1.1-1.8s-0.4-1.5-0.4-2.5v-9.4h1.9v9.5c0,0.6,0.1,1.1,0.2,1.6
		c0.1,0.5,0.3,0.9,0.6,1.2c0.3,0.3,0.6,0.6,1.1,0.8c0.5,0.2,1,0.3,1.6,0.3c0.6,0,1.2-0.1,1.6-0.3c0.5-0.2,0.8-0.5,1.1-0.8
		c0.3-0.3,0.5-0.8,0.6-1.2c0.1-0.5,0.2-1,0.2-1.6v-9.5h1.9V274.8z"/>
	<path class="st1" d="M255.4,280.2v-6.7c0-0.8-0.2-1.4-0.5-1.9c-0.4-0.4-1-0.7-1.8-0.7c-0.5,0-1,0.2-1.4,0.5
		c-0.4,0.3-0.7,0.7-0.9,1.2c-0.2,0.4-0.3,0.8-0.3,1.3c0,0.5-0.1,1-0.1,1.4v4.9h-1.8v-10.6h1.6l0.1,1.6c0.1-0.3,0.3-0.6,0.6-0.8
		c0.2-0.2,0.5-0.4,0.8-0.6c0.3-0.2,0.6-0.3,0.9-0.4c0.3-0.1,0.6-0.1,0.9-0.1c1.2,0,2.1,0.3,2.8,1c0.6,0.7,0.9,1.6,0.9,2.9v7H255.4z"
		/>
	<path class="st1" d="M268.8,277.1c0,0.5-0.1,0.9-0.2,1.2c-0.2,0.4-0.4,0.7-0.6,0.9c-0.4,0.4-0.9,0.7-1.5,0.9
		c-0.6,0.2-1.3,0.3-2,0.3c-0.7,0-1.3-0.1-1.9-0.3c-0.6-0.2-1.1-0.5-1.6-0.9c-0.3-0.3-0.6-0.7-0.8-1.1c-0.2-0.4-0.3-0.9-0.3-1.3h1.8
		c0,0.4,0.1,0.7,0.3,1c0.2,0.3,0.4,0.5,0.6,0.7c0.2,0.2,0.5,0.3,0.9,0.4c0.3,0.1,0.7,0.1,1,0.1c0.4,0,0.7,0,1-0.1
		c0.3-0.1,0.6-0.2,0.9-0.5c0.2-0.1,0.3-0.3,0.4-0.5c0.1-0.2,0.1-0.4,0.1-0.7c0-0.4-0.1-0.7-0.4-1c-0.3-0.3-0.7-0.4-1.2-0.5
		c-0.1,0-0.3,0-0.5-0.1c-0.2,0-0.4-0.1-0.6-0.1c-0.2,0-0.5-0.1-0.7-0.1c-0.2,0-0.4-0.1-0.6-0.1c-0.8-0.1-1.4-0.4-1.9-0.9
		c-0.5-0.5-0.7-1.1-0.7-1.9c0-0.4,0.1-0.8,0.3-1.2c0.2-0.4,0.4-0.7,0.6-0.9c0.3-0.4,0.8-0.7,1.3-0.9s1.1-0.3,1.8-0.3
		c0.7,0,1.4,0.1,2,0.3c0.6,0.2,1.1,0.6,1.4,1c0.2,0.3,0.4,0.6,0.6,0.9c0.1,0.3,0.2,0.7,0.2,1.1h-1.8c0-0.3-0.1-0.5-0.2-0.8
		c-0.1-0.2-0.3-0.4-0.4-0.6c-0.4-0.4-1-0.6-1.7-0.6c-0.2,0-0.4,0-0.6,0c-0.2,0-0.4,0.1-0.7,0.2c-0.3,0.1-0.6,0.3-0.8,0.6
		c-0.2,0.3-0.3,0.5-0.3,0.8c0,0.4,0.1,0.8,0.4,1c0.3,0.2,0.6,0.3,1.1,0.4c0.3,0,0.7,0.1,1.1,0.1c0.4,0,0.9,0.1,1.5,0.2
		c0.8,0.1,1.4,0.4,1.9,1C268.5,275.7,268.8,276.3,268.8,277.1z"/>
	<path class="st1" d="M278.6,280.2l-0.1-1.6c-0.3,0.6-0.7,1.1-1.3,1.4c-0.6,0.3-1.2,0.5-1.8,0.5c-1.2,0-2.1-0.3-2.7-1
		c-0.6-0.7-0.9-1.6-0.9-2.9v-7h1.8v6.7c0,0.8,0.2,1.4,0.5,1.9c0.3,0.4,0.9,0.7,1.8,0.7c0.4,0,0.7-0.1,1-0.2c0.3-0.1,0.5-0.3,0.8-0.6
		c0.3-0.3,0.6-0.8,0.7-1.3c0.1-0.5,0.2-1.1,0.2-1.6v-5.5h1.8v10.6H278.6z"/>
	<path class="st1" d="M293.4,274.9c0,0.9-0.1,1.7-0.4,2.5c-0.3,0.8-0.6,1.4-1.1,1.9c-0.4,0.4-0.8,0.6-1.3,0.9
		c-0.5,0.2-1.1,0.3-1.7,0.3c-0.6,0-1.2-0.1-1.8-0.4c-0.6-0.3-1.1-0.7-1.4-1.2l-0.1,1.4H284v-15.2h1.8v5.8c0.1-0.2,0.3-0.5,0.6-0.6
		c0.2-0.2,0.5-0.3,0.8-0.5c0.3-0.1,0.6-0.2,0.9-0.3c0.3-0.1,0.6-0.1,0.9-0.1c0.6,0,1.2,0.1,1.7,0.3c0.5,0.2,0.9,0.5,1.2,0.8
		c0.5,0.5,0.9,1.2,1.2,2S293.4,274,293.4,274.9z M291.6,274.9c0-0.5,0-1-0.1-1.5c-0.1-0.5-0.2-0.9-0.5-1.3s-0.5-0.7-0.9-0.9
		c-0.4-0.2-0.9-0.4-1.5-0.4c-0.4,0-0.7,0.1-1,0.2s-0.5,0.3-0.7,0.5c-0.4,0.4-0.8,0.9-0.9,1.5c-0.2,0.6-0.3,1.2-0.3,1.9
		c0,0.7,0.1,1.3,0.3,1.9c0.2,0.6,0.5,1.1,0.9,1.5c0.2,0.2,0.5,0.4,0.7,0.5s0.6,0.2,1,0.2c0.6,0,1.1-0.1,1.5-0.4
		c0.4-0.2,0.7-0.6,0.9-0.9c0.2-0.4,0.4-0.8,0.5-1.3C291.6,275.9,291.6,275.4,291.6,274.9z"/>
	<path class="st1" d="M304.8,276.7c0,0.6-0.2,1.1-0.4,1.5c-0.2,0.4-0.5,0.8-0.9,1.2c-0.4,0.4-0.8,0.6-1.3,0.9
		c-0.5,0.2-1.1,0.3-1.7,0.3c-1,0-1.8-0.2-2.4-0.6c-0.6-0.4-1.1-0.9-1.5-1.4c-0.3-0.4-0.5-0.9-0.7-1.5c-0.2-0.6-0.2-1.3-0.2-2.1
		c0-0.8,0.1-1.5,0.2-2.1c0.2-0.6,0.4-1.1,0.7-1.5c0.4-0.6,0.9-1,1.5-1.4c0.6-0.4,1.4-0.6,2.4-0.6c0.6,0,1.2,0.1,1.7,0.3
		c0.5,0.2,0.9,0.5,1.3,0.8c0.4,0.3,0.7,0.7,0.9,1.2c0.2,0.4,0.3,1,0.4,1.5h-1.8c0-0.4-0.1-0.7-0.3-1c-0.1-0.3-0.3-0.5-0.5-0.7
		c-0.2-0.2-0.5-0.4-0.8-0.5c-0.3-0.1-0.6-0.2-1-0.2c-0.4,0-0.8,0.1-1,0.2s-0.6,0.3-0.8,0.5c-0.4,0.4-0.7,0.8-0.9,1.4
		c-0.1,0.6-0.2,1.2-0.2,1.9c0,0.7,0.1,1.3,0.2,1.9s0.4,1.1,0.9,1.4c0.2,0.2,0.5,0.4,0.8,0.5s0.6,0.2,1,0.2c0.4,0,0.7-0.1,1-0.2
		s0.6-0.3,0.8-0.5c0.2-0.2,0.4-0.4,0.5-0.7c0.1-0.3,0.2-0.6,0.2-0.9H304.8z"/>
	<path class="st1" d="M313.5,271.4c-0.2,0-0.3,0-0.5-0.1c-0.2,0-0.3,0-0.5,0c-0.4,0-0.8,0.1-1.1,0.2c-0.3,0.2-0.6,0.4-0.9,0.6
		c-0.2,0.2-0.4,0.5-0.5,0.7c-0.1,0.3-0.2,0.6-0.3,0.9c-0.1,0.3-0.1,0.6-0.1,0.9c0,0.3,0,0.6,0,0.9v4.7h-1.8v-10.6h1.6l0.1,1.9
		c0.3-0.7,0.7-1.1,1.3-1.5c0.6-0.3,1.2-0.5,1.9-0.5c0.3,0,0.6,0,0.8,0.1V271.4z"/>
	<path class="st1" d="M315.6,267.2v-2.1h2.1v2.1H315.6z M315.8,280.2v-10.6h1.8v10.6H315.8z"/>
	<path class="st1" d="M330.9,274.9c0,0.9-0.1,1.7-0.4,2.5c-0.3,0.8-0.6,1.4-1.1,1.9c-0.4,0.4-0.8,0.6-1.3,0.9
		c-0.5,0.2-1.1,0.3-1.7,0.3c-0.6,0-1.2-0.1-1.8-0.4c-0.6-0.3-1.1-0.7-1.4-1.2l-0.1,1.4h-1.6v-15.2h1.8v5.8c0.1-0.2,0.3-0.5,0.6-0.6
		c0.2-0.2,0.5-0.3,0.8-0.5c0.3-0.1,0.6-0.2,0.9-0.3c0.3-0.1,0.6-0.1,0.9-0.1c0.6,0,1.2,0.1,1.7,0.3c0.5,0.2,0.9,0.5,1.2,0.8
		c0.5,0.5,0.9,1.2,1.2,2S330.9,274,330.9,274.9z M329.1,274.9c0-0.5,0-1-0.1-1.5c-0.1-0.5-0.2-0.9-0.5-1.3s-0.5-0.7-0.9-0.9
		c-0.4-0.2-0.9-0.4-1.5-0.4c-0.4,0-0.7,0.1-1,0.2s-0.5,0.3-0.7,0.5c-0.4,0.4-0.8,0.9-0.9,1.5c-0.2,0.6-0.3,1.2-0.3,1.9
		c0,0.7,0.1,1.3,0.3,1.9c0.2,0.6,0.5,1.1,0.9,1.5c0.2,0.2,0.5,0.4,0.7,0.5s0.6,0.2,1,0.2c0.6,0,1.1-0.1,1.5-0.4
		c0.4-0.2,0.7-0.6,0.9-0.9c0.2-0.4,0.4-0.8,0.5-1.3C329,275.9,329.1,275.4,329.1,274.9z"/>
	<path class="st1" d="M342.5,275.5H335c0,0.5,0.1,1,0.3,1.5c0.2,0.5,0.4,0.9,0.8,1.2c0.5,0.5,1.2,0.8,2,0.8c0.4,0,0.8-0.1,1.1-0.2
		s0.6-0.3,0.8-0.5c0.2-0.2,0.3-0.3,0.4-0.5c0.1-0.2,0.2-0.4,0.3-0.7h1.7c-0.1,0.5-0.3,1-0.5,1.5s-0.7,0.8-1.1,1.1
		c-0.4,0.3-0.8,0.4-1.3,0.6c-0.5,0.1-0.9,0.2-1.4,0.2c-0.8,0-1.4-0.1-2-0.4c-0.6-0.3-1.1-0.7-1.5-1.2c-0.4-0.5-0.8-1.1-1-1.8
		c-0.2-0.7-0.3-1.4-0.3-2.2c0-0.6,0.1-1.2,0.2-1.8c0.1-0.6,0.3-1.1,0.6-1.6c0.4-0.6,0.9-1.2,1.6-1.6c0.7-0.4,1.5-0.6,2.4-0.6
		c0.7,0,1.3,0.1,1.8,0.4s1,0.6,1.4,1c0.4,0.5,0.8,1,1,1.7c0.2,0.7,0.3,1.3,0.3,2L342.5,275.5z M340.7,274c0-0.4-0.1-0.8-0.2-1.2
		c-0.1-0.4-0.3-0.7-0.5-1c-0.2-0.3-0.5-0.5-0.9-0.7c-0.4-0.2-0.8-0.3-1.2-0.3s-0.9,0.1-1.3,0.3c-0.4,0.2-0.7,0.4-0.9,0.7
		c-0.2,0.3-0.4,0.6-0.5,1s-0.2,0.8-0.2,1.1H340.7z"/>
	<path class="st1" d="M352.6,280.2l-0.1-1.4c-0.3,0.5-0.8,0.9-1.4,1.2c-0.6,0.3-1.2,0.4-1.8,0.4c-0.7,0-1.2-0.1-1.7-0.3
		c-0.5-0.2-0.9-0.5-1.3-0.9c-0.5-0.5-0.9-1.2-1.1-1.9c-0.3-0.8-0.4-1.6-0.4-2.5c0-0.9,0.1-1.8,0.4-2.6s0.7-1.4,1.2-2
		c0.3-0.3,0.8-0.6,1.2-0.8c0.5-0.2,1-0.3,1.7-0.3c0.3,0,0.6,0,0.9,0.1c0.3,0.1,0.6,0.2,0.9,0.3c0.3,0.1,0.5,0.3,0.8,0.5
		c0.2,0.2,0.4,0.4,0.6,0.6v-5.8h1.8v15.2H352.6z M352.5,274.9c0-0.7-0.1-1.3-0.3-1.9c-0.2-0.6-0.5-1.1-0.9-1.5
		c-0.2-0.2-0.5-0.4-0.7-0.5s-0.6-0.2-1-0.2c-0.6,0-1.1,0.1-1.5,0.4c-0.4,0.2-0.7,0.6-0.9,0.9s-0.4,0.8-0.5,1.3
		c-0.1,0.5-0.1,1-0.1,1.5c0,0.5,0,1,0.1,1.5c0.1,0.5,0.2,0.9,0.5,1.3c0.2,0.4,0.5,0.7,0.9,0.9c0.4,0.2,0.9,0.4,1.5,0.4
		c0.4,0,0.7-0.1,1-0.2s0.5-0.3,0.7-0.5c0.4-0.4,0.8-0.9,0.9-1.5C352.4,276.2,352.5,275.6,352.5,274.9z"/>
</g>
<g>
	<path class="st7" d="M308.9,477.3h-5l-0.5,3.3c0.3,0,0.6-0.1,1.1-0.1c1,0,2,0.2,2.8,0.7c1,0.6,1.9,1.7,1.9,3.3c0,2.5-2,4.4-4.8,4.4
		c-1.4,0-2.6-0.4-3.2-0.8l0.4-1.3c0.5,0.3,1.6,0.7,2.8,0.7c1.7,0,3.1-1.1,3.1-2.8c0-1.7-1.1-2.9-3.7-2.9c-0.7,0-1.3,0.1-1.8,0.1
		l0.8-6.2h6.2V477.3z"/>
	<path class="st7" d="M319.2,477.3h-5l-0.5,3.3c0.3,0,0.6-0.1,1.1-0.1c1,0,2,0.2,2.8,0.7c1,0.6,1.9,1.7,1.9,3.3c0,2.5-2,4.4-4.8,4.4
		c-1.4,0-2.6-0.4-3.2-0.8l0.4-1.3c0.5,0.3,1.6,0.7,2.8,0.7c1.7,0,3.1-1.1,3.1-2.8c0-1.7-1.1-2.9-3.7-2.9c-0.7,0-1.3,0.1-1.8,0.1
		l0.8-6.2h6.2V477.3z"/>
	<path class="st7" d="M327.5,479.4c0,2.7-1.4,4.1-3.1,4.1c-1.6,0-3-1.3-3-3.9c0-2.6,1.4-4.1,3.1-4.1
		C326.3,475.6,327.5,477,327.5,479.4z M322.8,479.6c0,1.7,0.6,2.9,1.7,2.9c1.2,0,1.7-1.2,1.7-3c0-1.6-0.5-2.9-1.7-2.9
		C323.4,476.6,322.8,477.9,322.8,479.6z M324.3,489l7.6-13.4h1.1l-7.6,13.4H324.3z M336,484.8c0,2.7-1.4,4.1-3.1,4.1
		c-1.6,0-3-1.3-3-3.9c0-2.6,1.4-4.1,3.1-4.1C334.8,480.9,336,482.3,336,484.8z M331.2,484.9c0,1.7,0.6,2.9,1.7,2.9
		c1.2,0,1.7-1.2,1.7-3c0-1.6-0.5-2.9-1.7-2.9C331.8,482,331.2,483.3,331.2,484.9z"/>
</g>
<g>
	<path class="st7" d="M253.8,380.8v-1.1l1.4-1.3c3.3-3.2,4.8-4.8,4.8-6.8c0-1.3-0.6-2.5-2.6-2.5c-1.2,0-2.2,0.6-2.8,1.1l-0.6-1.2
		c0.9-0.8,2.2-1.3,3.7-1.3c2.8,0,4,1.9,4,3.8c0,2.4-1.7,4.3-4.5,7l-1,1v0h5.8v1.5H253.8z"/>
	<path class="st7" d="M272.7,374.1c0,4.4-1.6,6.9-4.5,6.9c-2.5,0-4.3-2.4-4.3-6.7c0-4.4,1.9-6.8,4.5-6.8
		C271.1,367.6,272.7,370,272.7,374.1z M265.6,374.3c0,3.4,1,5.3,2.6,5.3c1.8,0,2.7-2.1,2.7-5.4c0-3.2-0.8-5.3-2.6-5.3
		C266.7,368.9,265.6,370.8,265.6,374.3z"/>
	<path class="st7" d="M280.2,371.4c0,2.7-1.4,4.1-3.1,4.1c-1.6,0-3-1.3-3-3.9c0-2.6,1.4-4.1,3.1-4.1
		C279,367.6,280.2,369,280.2,371.4z M275.4,371.6c0,1.7,0.6,2.9,1.7,2.9c1.2,0,1.7-1.2,1.7-3c0-1.6-0.5-2.9-1.7-2.9
		C276,368.6,275.4,369.9,275.4,371.6z M276.9,381l7.6-13.4h1.1L278,381H276.9z M288.6,376.8c0,2.7-1.4,4.1-3.1,4.1
		c-1.6,0-3-1.3-3-3.9c0-2.6,1.4-4.1,3.1-4.1C287.4,372.9,288.6,374.3,288.6,376.8z M283.9,376.9c0,1.7,0.6,2.9,1.7,2.9
		c1.2,0,1.7-1.2,1.7-3c0-1.6-0.5-2.9-1.7-2.9C284.5,374,283.9,375.3,283.9,376.9z"/>
</g>
<g>
	<path class="st7" d="M345.6,380.8v-1.1l1.4-1.3c3.3-3.2,4.8-4.8,4.8-6.8c0-1.3-0.6-2.5-2.6-2.5c-1.2,0-2.2,0.6-2.8,1.1l-0.6-1.2
		c0.9-0.8,2.2-1.3,3.7-1.3c2.8,0,4,1.9,4,3.8c0,2.4-1.7,4.3-4.5,7l-1,1v0h5.8v1.5H345.6z"/>
	<path class="st7" d="M363.7,369.3h-5l-0.5,3.3c0.3,0,0.6-0.1,1.1-0.1c1,0,2,0.2,2.8,0.7c1,0.6,1.9,1.7,1.9,3.3c0,2.5-2,4.4-4.8,4.4
		c-1.4,0-2.6-0.4-3.2-0.8l0.4-1.3c0.5,0.3,1.6,0.7,2.8,0.7c1.7,0,3.1-1.1,3.1-2.8c0-1.7-1.1-2.9-3.7-2.9c-0.7,0-1.3,0.1-1.8,0.1
		l0.8-6.2h6.2V369.3z"/>
	<path class="st7" d="M372,371.4c0,2.7-1.4,4.1-3.1,4.1c-1.6,0-3-1.3-3-3.9c0-2.6,1.4-4.1,3.1-4.1C370.8,367.6,372,369,372,371.4z
		 M367.3,371.6c0,1.7,0.6,2.9,1.7,2.9c1.2,0,1.7-1.2,1.7-3c0-1.6-0.5-2.9-1.7-2.9C367.8,368.6,367.3,369.9,367.3,371.6z M368.8,381
		l7.6-13.4h1.1l-7.6,13.4H368.8z M380.5,376.8c0,2.7-1.4,4.1-3.1,4.1c-1.6,0-3-1.3-3-3.9c0-2.6,1.4-4.1,3.1-4.1
		C379.3,372.9,380.5,374.3,380.5,376.8z M375.7,376.9c0,1.7,0.6,2.9,1.7,2.9c1.2,0,1.7-1.2,1.7-3c0-1.6-0.5-2.9-1.7-2.9
		C376.3,374,375.7,375.3,375.7,376.9z"/>
</g>
</svg>
