<?xml version="1.0" encoding="utf-8"?>
<!-- Generator: Adobe Illustrator 19.0.0, SVG Export Plug-In . SVG Version: 6.00 Build 0)  -->
<svg version="1.1" id="Layer_1" xmlns="http://www.w3.org/2000/svg" xmlns:xlink="http://www.w3.org/1999/xlink" x="0px" y="0px"
	 viewBox="0 0 700 400" style="enable-background:new 0 0 700 400;" xml:space="preserve">
<style type="text/css">
	.st0{fill:#9B9B9B;}
	.st1{fill:#666666;}
	.st2{fill:#EA5050;}
</style>
<g>
	<rect x="179.2" y="224.2" class="st0" width="341.3" height="30.4"/>
	<circle class="st1" cx="248.9" cy="60.3" r="20.9"/>
	<path class="st1" d="M275.6,96.3c0-5.5-4.4-9.8-9.8-9.8H232c-5.6,0-10,4.5-10,10v65.5h16.2v50.5h21.8v-50.5h15.5V96.3z"/>
	<circle class="st1" cx="454.8" cy="60.3" r="20.9"/>
	<path class="st1" d="M481.5,96.3c0-5.5-4.4-9.8-9.8-9.8h-33.8c-5.6,0-10,4.5-10,10v65.5h16.2v50.5H466v-50.5h15.5V96.3z"/>
	<path class="st0" d="M303.3,343.4l14-105.9c0.7-5,2.7-9.8,6-13.6c9.5-11,31.2-28.6,54.4,3c1.8,2.3,2.9,5,3.3,7.9l15.8,108.7H303.3z
		"/>
	<rect x="293.7" y="343.4" class="st1" width="112.2" height="17.7"/>
	<circle class="st2" cx="350.1" cy="240.1" r="10.9"/>
</g>
</svg>
