<?xml version="1.0" encoding="utf-8"?>
<!-- Generator: Adobe Illustrator 19.0.0, SVG Export Plug-In . SVG Version: 6.00 Build 0)  -->
<svg version="1.1" id="Layer_1" xmlns="http://www.w3.org/2000/svg" xmlns:xlink="http://www.w3.org/1999/xlink" x="0px" y="0px"
	 viewBox="0 0 512 512" style="enable-background:new 0 0 512 512;" xml:space="preserve">
<style type="text/css">
	.st0{fill-rule:evenodd;clip-rule:evenodd;fill:#545453;}
</style>
<path id="XMLID_785_" class="st0" d="M209.6,305.4c-54.9,0-98.7-43.9-98.7-98.7s43.9-98.7,98.7-98.7s98.7,43.9,98.7,98.7
	S264.5,305.4,209.6,305.4z M341.3,305.4h-17.6l-6.6-6.6c21.9-24.1,35.1-57.1,35.1-92.2c0-79-63.6-142.6-142.6-142.6
	S67,127.6,67,206.6s63.6,142.6,142.6,142.6c35.1,0,68-13.2,92.2-35.1l6.6,6.6v17.6L418.1,448l32.9-32.9L341.3,305.4z"/>
</svg>
