<?xml version="1.0" encoding="utf-8"?>
<!-- Generator: Adobe Illustrator 19.0.0, SVG Export Plug-In . SVG Version: 6.00 Build 0)  -->
<svg version="1.1" id="Layer_1" xmlns="http://www.w3.org/2000/svg" xmlns:xlink="http://www.w3.org/1999/xlink" x="0px" y="0px"
	 viewBox="44 197 700 400" style="enable-background:new 44 197 700 400;" xml:space="preserve">
<style type="text/css">
	.st0{fill:#F3F3F3;}
	.st1{opacity:0.65;}
	.st2{fill:#E9E9EA;}
	.st3{fill:none;stroke:#7E266A;stroke-miterlimit:10;}
	.st4{fill:none;stroke:#5D88B2;stroke-miterlimit:10;}
	.st5{fill:#9F9F9F;}
	.st6{fill:#6C6C6C;}
	.st7{font-family:'OpenSans-Light';}
	.st8{font-size:14.8166px;}
</style>
<g>
	<g>
		<g>
			<rect x="71.1" y="214.9" class="st0" width="645.7" height="330.1"/>
		</g>
	</g>
	<g class="st1">
		<rect x="71.6" y="214.9" class="st2" width="56.3" height="330.1"/>
		<rect x="189.3" y="214.9" class="st2" width="56.3" height="330.1"/>
		<rect x="307" y="214.9" class="st2" width="56.3" height="330.1"/>
		<rect x="424.7" y="214.9" class="st2" width="56.3" height="330.1"/>
		<rect x="542.4" y="214.9" class="st2" width="56.3" height="330.1"/>
		<rect x="660" y="214.9" class="st2" width="56.3" height="330.1"/>
	</g>
	<polyline class="st3" points="71.3,368.8 84,368.8 91.9,376.8 118.7,376.8 118.7,372.8 129.7,372.8 136.2,379.2 145.5,388.6 
		171.6,388.6 174.1,388.6 189,388.6 200.1,388.6 200.1,376 213.8,389.8 228.5,389.8 237.1,381.2 256,381.2 264.7,372.5 278.1,372.5 
		290.2,384.6 295.6,379.1 305.6,379.1 314.1,370.6 329.2,370.6 329.2,355.3 343.1,355.3 354.9,343.6 379.3,343.6 385.4,337.4 
		391.7,343.7 406,358 413.5,350.5 424.6,350.5 433.5,359.4 433.5,379.9 452,379.9 462.8,369.1 471.5,377.7 482.8,366.4 515.6,366.4 
		532,366.4 547.4,366.4 558.7,377.7 573.7,392.7 585.5,380.9 597.2,392.6 613.4,392.6 622.1,383.8 657,418.7 674.5,418.7 
		683.6,409.6 695.6,421.7 695.6,327.4 708.6,314.4 716.7,314.4 	"/>
	<polyline class="st4" points="71.1,342.3 80.1,342.3 83.7,342.3 91.3,349.9 100.5,340.7 106.7,346.9 114.6,354.8 125.6,354.8 
		131.7,348.8 144.1,348.8 150.3,355 163.4,368.1 183.5,368.1 183.5,388.6 209.3,414.5 232.2,437.3 273.8,437.3 288.4,422.7 
		296.2,422.7 306,412.9 315,412.9 326,401.8 339.5,401.8 349.7,412 372.3,389.3 388.1,405.1 409.6,405.1 415.5,399.2 423.1,406.8 
		442.2,387.6 456.7,402.2 465.2,393.6 488.4,393.6 515.6,366.4 535.7,386.5 558.7,363.5 570.7,363.5 575.9,368.7 588,356.7 
		595.7,364.4 609.4,378.1 609.4,412.4 624.7,427.7 650.2,427.7 650.2,373.4 668.3,355.3 668.3,330 690,308.4 697.2,308.4 710.5,295 
		716.7,295 	"/>
	<rect x="71.1" y="544.9" class="st2" width="645.7" height="34.2"/>
	<g>
		<rect x="100.3" y="557.3" class="st5" width="9.4" height="9.4"/>
		<rect x="244.8" y="557.3" class="st5" width="9.4" height="9.4"/>
		<rect x="389.3" y="557.3" class="st5" width="9.4" height="9.4"/>
		<rect x="533.8" y="557.3" class="st5" width="9.4" height="9.4"/>
		<rect x="678.3" y="557.3" class="st5" width="9.4" height="9.4"/>
	</g>
	<g>
		<text transform="matrix(1 0 0 1 119.2865 567.2004)" class="st6 st7 st8">Lorem</text>
	</g>
	<g>
		<text transform="matrix(1 0 0 1 264.9022 567.2004)" class="st6 st7 st8">Lorem</text>
	</g>
	<g>
		<text transform="matrix(1 0 0 1 409.4114 567.2004)" class="st6 st7 st8">Lorem</text>
	</g>
	<g>
		<text transform="matrix(1 0 0 1 554.884 567.2004)" class="st6 st7 st8">Lorem</text>
	</g>
</g>
</svg>
