<?xml version="1.0" encoding="utf-8"?>
<!-- Generator: Adobe Illustrator 19.0.0, SVG Export Plug-In . SVG Version: 6.00 Build 0)  -->
<svg version="1.1" id="Layer_1" xmlns="http://www.w3.org/2000/svg" xmlns:xlink="http://www.w3.org/1999/xlink" x="0px" y="0px"
	 viewBox="44 197 700 400" style="enable-background:new 44 197 700 400;" xml:space="preserve">
<style type="text/css">
	.st0{fill:#D6D6D6;}
	.st1{fill:#676767;}
	.st2{fill:#EA5151;}
	.st3{fill:#FFFFFF;}
</style>
<rect x="105.3" y="230.4" class="st0" width="2" height="328.6"/>
<rect x="106.3" y="443.4" class="st1" width="570.4" height="46.2"/>
<rect x="106.3" y="497.2" class="st2" width="418" height="46.2"/>
<rect x="106.3" y="333.9" class="st1" width="500.4" height="46.2"/>
<rect x="106.3" y="387.8" class="st2" width="308" height="46.2"/>
<rect x="106.3" y="278.8" class="st2" width="198" height="46.2"/>
<g>
	<path class="st3" d="M167.2,312.1h-3.7l-5.9-10.3h-0.1c0.1,1.8,0.2,3.1,0.2,3.9v6.4h-2.6v-13.6h3.6l5.9,10.2h0.1
		c-0.1-1.8-0.1-3-0.1-3.7v-6.5h2.6V312.1z"/>
	<path class="st3" d="M178.5,312.1h-7.8v-13.6h7.8v2.4h-4.9v3h4.6v2.4h-4.6v3.5h4.9V312.1z"/>
	<path class="st3" d="M194.5,312.1h-3.3l-1.8-7.1c-0.1-0.3-0.2-0.8-0.3-1.6c-0.2-0.8-0.3-1.3-0.3-1.6c0,0.3-0.1,0.9-0.3,1.6
		c-0.1,0.7-0.3,1.3-0.3,1.6l-1.8,7.1H183l-3.5-13.6h2.8l1.7,7.4c0.3,1.4,0.5,2.6,0.7,3.6c0-0.4,0.1-0.9,0.3-1.6
		c0.1-0.7,0.3-1.3,0.4-1.7l2-7.6h2.7l2,7.6c0.1,0.3,0.2,0.9,0.3,1.6c0.1,0.7,0.2,1.3,0.3,1.8c0.1-0.5,0.2-1.1,0.3-1.8
		c0.1-0.7,0.3-1.3,0.4-1.7l1.7-7.4h2.8L194.5,312.1z"/>
	<path class="st3" d="M208.8,304.1l2.8-5.6h3.1l-4.5,8.3v5.3h-2.9v-5.2l-4.5-8.4h3.1L208.8,304.1z"/>
	<path class="st3" d="M228.8,305.3c0,2.2-0.6,4-1.7,5.2c-1.1,1.2-2.7,1.8-4.8,1.8s-3.7-0.6-4.8-1.8c-1.1-1.2-1.7-2.9-1.7-5.2
		c0-2.3,0.6-4,1.7-5.2c1.1-1.2,2.7-1.8,4.8-1.8s3.7,0.6,4.8,1.8C228.2,301.3,228.8,303,228.8,305.3z M218.9,305.3
		c0,1.5,0.3,2.7,0.9,3.4c0.6,0.8,1.4,1.2,2.6,1.2c2.3,0,3.4-1.5,3.4-4.6s-1.1-4.6-3.4-4.6c-1.1,0-2,0.4-2.6,1.2
		C219.2,302.6,218.9,303.8,218.9,305.3z"/>
	<path class="st3" d="M234.5,306.9v5.2h-2.9v-13.6h4c1.8,0,3.2,0.3,4.1,1c0.9,0.7,1.3,1.7,1.3,3.1c0,0.8-0.2,1.5-0.7,2.1
		c-0.4,0.6-1.1,1.1-1.9,1.5c2,3,3.4,5,4,5.9h-3.2l-3.2-5.2H234.5z M234.5,304.5h0.9c0.9,0,1.6-0.2,2-0.5c0.4-0.3,0.7-0.8,0.7-1.4
		c0-0.6-0.2-1.1-0.7-1.4c-0.4-0.3-1.1-0.4-2.1-0.4h-0.9v3.7H234.5z"/>
	<path class="st3" d="M255,312.1h-3.3l-3.6-5.7l-1.2,0.9v4.8H244v-13.6h2.9v6.2l1.1-1.6l3.7-4.6h3.2l-4.7,6L255,312.1z"/>
</g>
<g>
	<path class="st3" d="M160.4,358.1h5.4v7c-0.9,0.3-1.7,0.5-2.5,0.6s-1.6,0.2-2.4,0.2c-2,0-3.6-0.6-4.7-1.8c-1.1-1.2-1.6-2.9-1.6-5.2
		c0-2.2,0.6-3.9,1.9-5.1c1.3-1.2,3-1.8,5.2-1.8c1.4,0,2.7,0.3,4,0.8l-1,2.3c-1-0.5-2-0.7-3.1-0.7c-1.2,0-2.2,0.4-3,1.3
		c-0.7,0.8-1.1,2-1.1,3.4c0,1.5,0.3,2.6,0.9,3.4c0.6,0.8,1.5,1.2,2.6,1.2c0.6,0,1.2-0.1,1.8-0.2v-2.8h-2.6v-2.6H160.4z"/>
	<path class="st3" d="M176.8,365.7H169v-13.5h7.8v2.4h-4.9v3h4.6v2.3h-4.6v3.5h4.9V365.7z"/>
	<path class="st3" d="M191.9,358.9c0,2.2-0.6,4-1.7,5.2c-1.1,1.2-2.7,1.8-4.8,1.8s-3.7-0.6-4.8-1.8c-1.1-1.2-1.6-2.9-1.6-5.2
		s0.6-4,1.7-5.2c1.1-1.2,2.7-1.8,4.8-1.8s3.7,0.6,4.8,1.8C191.4,355,191.9,356.7,191.9,358.9z M182,358.9c0,1.5,0.3,2.7,0.9,3.4
		c0.6,0.8,1.4,1.2,2.6,1.2c2.3,0,3.4-1.5,3.4-4.6s-1.1-4.6-3.4-4.6c-1.1,0-2,0.4-2.6,1.2C182.3,356.3,182,357.4,182,358.9z"/>
	<path class="st3" d="M197.6,360.5v5.2h-2.9v-13.5h4c1.8,0,3.2,0.3,4.1,1c0.9,0.7,1.3,1.7,1.3,3.1c0,0.8-0.2,1.5-0.7,2.1
		c-0.4,0.6-1.1,1.1-1.9,1.5c2,3,3.4,5,4,5.9h-3.2l-3.2-5.2h-1.5V360.5z M197.6,358.2h0.9c0.9,0,1.6-0.2,2-0.5
		c0.4-0.3,0.6-0.8,0.6-1.4c0-0.6-0.2-1.1-0.7-1.4c-0.4-0.3-1.1-0.4-2.1-0.4h-0.9v3.7H197.6z"/>
	<path class="st3" d="M212.4,358.1h5.4v7c-0.9,0.3-1.7,0.5-2.5,0.6s-1.6,0.2-2.4,0.2c-2,0-3.6-0.6-4.7-1.8c-1.1-1.2-1.6-2.9-1.6-5.2
		c0-2.2,0.6-3.9,1.9-5.1c1.3-1.2,3-1.8,5.2-1.8c1.4,0,2.7,0.3,4,0.8l-1,2.3c-1-0.5-2-0.7-3.1-0.7c-1.2,0-2.2,0.4-3,1.3
		c-0.7,0.8-1.1,2-1.1,3.4c0,1.5,0.3,2.6,0.9,3.4c0.6,0.8,1.5,1.2,2.6,1.2c0.6,0,1.2-0.1,1.8-0.2v-2.8h-2.6v-2.6H212.4z"/>
	<path class="st3" d="M221,365.7v-13.5h2.9v13.6L221,365.7L221,365.7z"/>
	<path class="st3" d="M235.6,365.7l-1-3.2h-4.9l-1,3.2h-3.1l4.8-13.6h3.5l4.8,13.6H235.6z M234,360.1c-0.9-2.9-1.4-4.6-1.5-5
		c-0.1-0.4-0.2-0.7-0.2-0.9c-0.2,0.8-0.8,2.7-1.8,5.9H234z"/>
</g>
<g>
	<path class="st3" d="M163.5,419.7l-1-3.2h-4.9l-1,3.2h-3.1l4.8-13.6h3.5l4.8,13.6H163.5z M161.8,414.1c-0.9-2.9-1.4-4.6-1.5-5
		c-0.1-0.4-0.2-0.7-0.2-0.9c-0.2,0.8-0.8,2.8-1.8,5.9H161.8z"/>
	<path class="st3" d="M168.3,419.7v-13.6h2.9v11.2h5.5v2.4H168.3z"/>
	<path class="st3" d="M187.4,419.7l-1-3.2h-4.9l-1,3.2h-3.1l4.8-13.6h3.5l4.8,13.6H187.4z M185.7,414.1c-0.9-2.9-1.4-4.6-1.5-5
		c-0.1-0.4-0.2-0.7-0.2-0.9c-0.2,0.8-0.8,2.8-1.8,5.9H185.7z"/>
	<path class="st3" d="M192.2,406.1h4.2c1.9,0,3.3,0.3,4.2,0.8s1.3,1.4,1.3,2.6c0,0.8-0.2,1.5-0.6,2c-0.4,0.5-0.9,0.8-1.5,0.9v0.1
		c0.9,0.2,1.5,0.6,1.9,1.1s0.6,1.2,0.6,2.1c0,1.2-0.4,2.2-1.3,2.9c-0.9,0.7-2.1,1-3.6,1h-5.1L192.2,406.1L192.2,406.1z M195,411.5
		h1.7c0.8,0,1.3-0.1,1.7-0.4c0.3-0.2,0.5-0.6,0.5-1.2c0-0.5-0.2-0.9-0.6-1.1c-0.4-0.2-1-0.3-1.8-0.3H195V411.5z M195,413.8v3.5h1.9
		c0.8,0,1.4-0.2,1.8-0.5c0.4-0.3,0.6-0.8,0.6-1.4c0-1.1-0.8-1.7-2.4-1.7L195,413.8L195,413.8z"/>
	<path class="st3" d="M213.2,419.7l-1-3.2h-4.9l-1,3.2h-3.1l4.8-13.6h3.5l4.8,13.6H213.2z M211.6,414.1c-0.9-2.9-1.4-4.6-1.5-5
		c-0.1-0.4-0.2-0.7-0.2-0.9c-0.2,0.8-0.8,2.8-1.8,5.9H211.6z"/>
	<path class="st3" d="M223.8,419.7l-3.3-10.6h-0.1c0.1,2.2,0.2,3.6,0.2,4.3v6.3H218v-13.6h3.9l3.2,10.4h0.1l3.4-10.4h3.9v13.6h-2.7
		v-6.4c0-0.3,0-0.7,0-1c0-0.4,0.1-1.4,0.1-3.2h-0.1l-3.5,10.6C226.3,419.7,223.8,419.7,223.8,419.7z"/>
	<path class="st3" d="M244.3,419.7l-1-3.2h-4.9l-1,3.2h-3.1l4.8-13.6h3.5l4.8,13.6H244.3z M242.6,414.1c-0.9-2.9-1.4-4.6-1.5-5
		c-0.1-0.4-0.2-0.7-0.2-0.9c-0.2,0.8-0.8,2.8-1.8,5.9H242.6z"/>
</g>
<g>
	<path class="st3" d="M161,465.3c-1.1,0-1.9,0.4-2.5,1.2c-0.6,0.8-0.9,1.9-0.9,3.4c0,3,1.1,4.5,3.4,4.5c1,0,2.1-0.2,3.5-0.7v2.4
		c-1.1,0.5-2.4,0.7-3.7,0.7c-2,0-3.5-0.6-4.5-1.8s-1.6-2.9-1.6-5.2c0-1.4,0.3-2.6,0.8-3.7c0.5-1.1,1.3-1.9,2.2-2.4
		c1-0.6,2.1-0.8,3.4-0.8c1.3,0,2.6,0.3,4,1l-0.9,2.3c-0.5-0.2-1-0.5-1.5-0.6C162,465.4,161.5,465.3,161,465.3z"/>
	<path class="st3" d="M175.6,476.7l-1-3.2h-4.9l-1,3.2h-3.1l4.8-13.6h3.5l4.8,13.6H175.6z M173.9,471.1c-0.9-2.9-1.4-4.6-1.5-5
		c-0.1-0.4-0.2-0.7-0.2-0.9c-0.2,0.8-0.8,2.8-1.8,5.9H173.9z"/>
	<path class="st3" d="M186.2,476.7l-3.3-10.6h-0.1c0.1,2.2,0.2,3.6,0.2,4.3v6.3h-2.6v-13.6h3.9l3.2,10.4h0.1l3.4-10.4h3.9v13.6h-2.7
		v-6.4c0-0.3,0-0.7,0-1c0-0.4,0.1-1.4,0.1-3.2h-0.1l-3.5,10.6H186.2L186.2,476.7z"/>
	<path class="st3" d="M198.3,463.1h4.2c1.9,0,3.3,0.3,4.2,0.8s1.3,1.4,1.3,2.6c0,0.8-0.2,1.5-0.6,2c-0.4,0.5-0.9,0.8-1.5,0.9v0.1
		c0.9,0.2,1.5,0.6,1.9,1.1s0.6,1.2,0.6,2.1c0,1.2-0.4,2.2-1.3,2.9c-0.9,0.7-2.1,1-3.6,1h-5.1L198.3,463.1L198.3,463.1z M201.2,468.5
		h1.7c0.8,0,1.3-0.1,1.7-0.4c0.3-0.2,0.5-0.6,0.5-1.2c0-0.5-0.2-0.9-0.6-1.1c-0.4-0.2-1-0.3-1.8-0.3h-1.5L201.2,468.5L201.2,468.5z
		 M201.2,470.8v3.5h1.9c0.8,0,1.4-0.2,1.8-0.5c0.4-0.3,0.6-0.8,0.6-1.4c0-1.1-0.8-1.7-2.4-1.7L201.2,470.8L201.2,470.8z"/>
	<path class="st3" d="M214,471.5v5.2h-2.9v-13.6h4c1.8,0,3.2,0.3,4.1,1c0.9,0.7,1.3,1.7,1.3,3.1c0,0.8-0.2,1.5-0.7,2.1
		c-0.4,0.6-1.1,1.1-1.9,1.5c2,3,3.4,5,4,5.9h-3.2l-3.2-5.2H214z M214,469.2h0.9c0.9,0,1.6-0.2,2-0.5c0.4-0.3,0.7-0.8,0.7-1.4
		c0-0.6-0.2-1.1-0.7-1.4s-1.1-0.4-2.1-0.4H214V469.2z"/>
	<path class="st3" d="M223.6,476.7v-13.6h2.9v13.6H223.6z"/>
	<path class="st3" d="M241.2,469.8c0,2.2-0.6,3.9-1.9,5.1c-1.3,1.2-3.1,1.8-5.5,1.8H230v-13.6h4.3c2.2,0,3.9,0.6,5.2,1.8
		S241.2,467.7,241.2,469.8z M238.2,469.9c0-2.9-1.3-4.4-3.9-4.4h-1.5v8.8h1.2C236.8,474.3,238.2,472.8,238.2,469.9z"/>
	<path class="st3" d="M249.1,469.1h5.4v7c-0.9,0.3-1.7,0.5-2.5,0.6c-0.8,0.1-1.6,0.2-2.4,0.2c-2,0-3.6-0.6-4.7-1.8
		c-1.1-1.2-1.6-2.9-1.6-5.2c0-2.2,0.6-3.9,1.9-5.1s3-1.8,5.2-1.8c1.4,0,2.7,0.3,4,0.8l-1,2.3c-1-0.5-2-0.7-3.1-0.7
		c-1.2,0-2.2,0.4-3,1.3c-0.7,0.8-1.1,2-1.1,3.4c0,1.5,0.3,2.6,0.9,3.4s1.5,1.2,2.6,1.2c0.6,0,1.2-0.1,1.8-0.2v-2.8h-2.6v-2.6H249.1z
		"/>
	<path class="st3" d="M265.6,476.7h-7.8v-13.6h7.8v2.4h-4.9v3h4.6v2.4h-4.6v3.5h4.9V476.7z"/>
</g>
<g>
	<path class="st3" d="M155.2,516.5h4.2c1.9,0,3.3,0.3,4.2,0.8s1.3,1.4,1.3,2.6c0,0.8-0.2,1.5-0.6,2c-0.4,0.5-0.9,0.8-1.5,0.9v0.1
		c0.9,0.2,1.5,0.6,1.9,1.1s0.6,1.2,0.6,2.1c0,1.2-0.4,2.2-1.3,2.9c-0.9,0.7-2.1,1-3.6,1h-5.1L155.2,516.5L155.2,516.5z M158.1,521.8
		h1.7c0.8,0,1.3-0.1,1.7-0.4c0.3-0.2,0.5-0.6,0.5-1.2c0-0.5-0.2-0.9-0.6-1.1c-0.4-0.2-1-0.3-1.8-0.3h-1.5L158.1,521.8L158.1,521.8z
		 M158.1,524.1v3.5h1.9c0.8,0,1.4-0.2,1.8-0.5c0.4-0.3,0.6-0.8,0.6-1.4c0-1.1-0.8-1.7-2.4-1.7L158.1,524.1L158.1,524.1z"/>
	<path class="st3" d="M180.3,523.2c0,2.2-0.6,4-1.7,5.2c-1.1,1.2-2.7,1.8-4.8,1.8s-3.7-0.6-4.8-1.8c-1.1-1.2-1.7-2.9-1.7-5.2
		s0.6-4,1.7-5.2c1.1-1.2,2.7-1.8,4.8-1.8s3.7,0.6,4.8,1.8C179.7,519.3,180.3,521,180.3,523.2z M170.4,523.2c0,1.5,0.3,2.7,0.9,3.4
		c0.6,0.8,1.4,1.2,2.6,1.2c2.3,0,3.4-1.5,3.4-4.6c0-3.1-1.1-4.6-3.4-4.6c-1.1,0-2,0.4-2.6,1.2C170.7,520.6,170.4,521.7,170.4,523.2z
		"/>
	<path class="st3" d="M191.1,526.3c0,1.2-0.4,2.2-1.3,2.9c-0.9,0.7-2.1,1.1-3.7,1.1c-1.4,0-2.7-0.3-3.8-0.8v-2.7
		c0.9,0.4,1.7,0.7,2.3,0.9c0.6,0.2,1.2,0.3,1.7,0.3c0.6,0,1.1-0.1,1.5-0.4c0.3-0.2,0.5-0.6,0.5-1.1c0-0.3-0.1-0.5-0.2-0.7
		s-0.4-0.4-0.7-0.6c-0.3-0.2-0.9-0.5-1.8-0.9c-0.8-0.4-1.5-0.8-1.9-1.1c-0.4-0.4-0.7-0.8-1-1.3c-0.2-0.5-0.4-1-0.4-1.7
		c0-1.2,0.4-2.1,1.2-2.8s1.9-1,3.4-1c0.7,0,1.4,0.1,2,0.3c0.6,0.2,1.3,0.4,2,0.7l-0.9,2.2c-0.7-0.3-1.3-0.5-1.8-0.6
		c-0.5-0.1-0.9-0.2-1.4-0.2s-1,0.1-1.3,0.4c-0.3,0.3-0.4,0.6-0.4,1c0,0.3,0.1,0.5,0.2,0.7c0.1,0.2,0.3,0.4,0.6,0.5
		c0.3,0.2,0.9,0.5,1.8,1c1.3,0.6,2.1,1.2,2.6,1.8C190.9,524.6,191.1,525.4,191.1,526.3z"/>
	<path class="st3" d="M198.8,530h-2.9v-11.1h-3.7v-2.4h10.2v2.4h-3.7L198.8,530L198.8,530z"/>
	<path class="st3" d="M216.9,523.2c0,2.2-0.6,4-1.7,5.2c-1.1,1.2-2.7,1.8-4.8,1.8s-3.7-0.6-4.8-1.8c-1.1-1.2-1.7-2.9-1.7-5.2
		s0.6-4,1.7-5.2c1.1-1.2,2.7-1.8,4.8-1.8s3.7,0.6,4.8,1.8C216.3,519.3,216.9,521,216.9,523.2z M207,523.2c0,1.5,0.3,2.7,0.9,3.4
		c0.6,0.8,1.4,1.2,2.6,1.2c2.3,0,3.4-1.5,3.4-4.6c0-3.1-1.1-4.6-3.4-4.6c-1.1,0-2,0.4-2.6,1.2C207.3,520.6,207,521.7,207,523.2z"/>
	<path class="st3" d="M231.7,530H228l-5.9-10.3H222c0.1,1.8,0.2,3.1,0.2,3.9v6.4h-2.6v-13.6h3.6l5.9,10.2h0.1
		c-0.1-1.8-0.1-3-0.1-3.7v-6.4h2.6V530z"/>
</g>
<g>
	<path class="st1" d="M704.2,476.7h-2.9v-7.8v-1.3v-1.4c-0.5,0.5-0.8,0.8-1,0.9l-1.6,1.3l-1.4-1.7l4.4-3.5h2.4L704.2,476.7
		L704.2,476.7z"/>
	<path class="st1" d="M717.7,473.9h-1.6v2.8h-2.8v-2.8h-5.8v-2l5.9-8.8h2.6v8.5h1.6L717.7,473.9L717.7,473.9z M713.3,471.7v-2.3
		c0-0.4,0-0.9,0-1.7c0-0.7,0.1-1.2,0.1-1.3h-0.1c-0.2,0.5-0.5,1-0.8,1.5l-2.5,3.8H713.3z"/>
	<path class="st1" d="M727.7,466.2c0,0.8-0.3,1.6-0.8,2.2s-1.2,1-2.2,1.2v0.1c1.1,0.1,1.9,0.5,2.5,1s0.8,1.2,0.8,2.1
		c0,1.3-0.5,2.3-1.4,3c-0.9,0.7-2.3,1.1-4.1,1.1c-1.5,0-2.8-0.2-3.9-0.7v-2.4c0.5,0.3,1.1,0.5,1.7,0.6s1.3,0.3,1.9,0.3
		c0.9,0,1.6-0.2,2.1-0.5c0.5-0.3,0.7-0.8,0.7-1.5c0-0.6-0.3-1.1-0.8-1.4s-1.3-0.4-2.5-0.4h-1v-2.2h1c1.1,0,1.8-0.1,2.3-0.4
		s0.7-0.7,0.7-1.4c0-1-0.6-1.5-1.9-1.5c-0.4,0-0.9,0.1-1.4,0.2c-0.5,0.1-1,0.4-1.5,0.8l-1.3-2c1.2-0.9,2.7-1.3,4.4-1.3
		c1.4,0,2.5,0.3,3.3,0.9C727.3,464.4,727.7,465.2,727.7,466.2z"/>
	<path class="st1" d="M734.6,468c1.3,0,2.4,0.4,3.1,1.1c0.8,0.7,1.2,1.7,1.2,3c0,1.5-0.5,2.7-1.4,3.5s-2.3,1.2-4,1.2
		c-1.5,0-2.7-0.2-3.7-0.7v-2.5c0.5,0.3,1.1,0.5,1.7,0.6s1.3,0.2,1.8,0.2c1.8,0,2.6-0.7,2.6-2.2c0-1.4-0.9-2.1-2.7-2.1
		c-0.3,0-0.7,0-1.1,0.1c-0.4,0.1-0.7,0.1-1,0.2l-1.1-0.6l0.5-6.9h7.4v2.4h-4.8l-0.3,2.7l0.3-0.1C733.5,468.1,734,468,734.6,468z"/>
</g>
<g>
	<path class="st1" d="M446.4,404.6c1.3,0,2.3,0.3,3.1,0.9c0.8,0.6,1.2,1.4,1.2,2.4c0,0.7-0.2,1.3-0.6,1.9c-0.4,0.5-1,1-1.9,1.5
		c1,0.5,1.7,1.1,2.2,1.7c0.4,0.6,0.7,1.2,0.7,1.9c0,1.1-0.4,2-1.3,2.7c-0.9,0.7-2,1-3.4,1c-1.5,0-2.7-0.3-3.5-0.9s-1.3-1.5-1.3-2.7
		c0-0.8,0.2-1.5,0.6-2.1s1.1-1.1,2-1.6c-0.8-0.5-1.3-1-1.7-1.6c-0.4-0.6-0.5-1.2-0.5-1.8c0-1,0.4-1.8,1.2-2.4
		C444.1,404.9,445.1,404.6,446.4,404.6z M444.3,414.7c0,0.5,0.2,0.9,0.6,1.2s0.9,0.4,1.5,0.4c0.7,0,1.2-0.2,1.6-0.5
		c0.4-0.3,0.5-0.7,0.5-1.2c0-0.4-0.2-0.8-0.5-1.2s-0.9-0.7-1.7-1.2C445,413,444.3,413.8,444.3,414.7z M446.4,406.7
		c-0.5,0-0.9,0.1-1.2,0.4c-0.3,0.3-0.5,0.6-0.5,1s0.1,0.7,0.4,1c0.2,0.3,0.7,0.6,1.3,0.9c0.6-0.3,1-0.6,1.3-0.9
		c0.2-0.3,0.4-0.6,0.4-1s-0.2-0.8-0.5-1C447.3,406.8,446.9,406.7,446.4,406.7z"/>
	<path class="st1" d="M457.3,404.6c1.3,0,2.3,0.3,3.1,0.9c0.8,0.6,1.2,1.4,1.2,2.4c0,0.7-0.2,1.3-0.6,1.9c-0.4,0.5-1,1-1.9,1.5
		c1,0.5,1.7,1.1,2.2,1.7c0.4,0.6,0.7,1.2,0.7,1.9c0,1.1-0.4,2-1.3,2.7c-0.9,0.7-2,1-3.4,1c-1.5,0-2.7-0.3-3.5-0.9s-1.3-1.5-1.3-2.7
		c0-0.8,0.2-1.5,0.6-2.1s1.1-1.1,2-1.6c-0.8-0.5-1.3-1-1.7-1.6c-0.4-0.6-0.5-1.2-0.5-1.8c0-1,0.4-1.8,1.2-2.4
		C454.9,404.9,456,404.6,457.3,404.6z M455.2,414.7c0,0.5,0.2,0.9,0.6,1.2s0.9,0.4,1.5,0.4c0.7,0,1.2-0.2,1.6-0.5
		c0.4-0.3,0.5-0.7,0.5-1.2c0-0.4-0.2-0.8-0.5-1.2s-0.9-0.7-1.7-1.2C455.8,413,455.2,413.8,455.2,414.7z M457.3,406.7
		c-0.5,0-0.9,0.1-1.2,0.4c-0.3,0.3-0.5,0.6-0.5,1s0.1,0.7,0.4,1c0.2,0.3,0.7,0.6,1.3,0.9c0.6-0.3,1-0.6,1.3-0.9
		c0.2-0.3,0.4-0.6,0.4-1s-0.2-0.8-0.5-1C458.1,406.8,457.7,406.7,457.3,406.7z"/>
	<path class="st1" d="M468.4,409.7c1.3,0,2.4,0.4,3.1,1.1c0.8,0.7,1.2,1.7,1.2,3c0,1.5-0.5,2.7-1.4,3.5c-0.9,0.8-2.3,1.2-4,1.2
		c-1.5,0-2.7-0.2-3.7-0.7v-2.5c0.5,0.3,1.1,0.5,1.7,0.6s1.3,0.2,1.8,0.2c1.8,0,2.6-0.7,2.6-2.2c0-1.4-0.9-2.1-2.7-2.1
		c-0.3,0-0.7,0-1.1,0.1s-0.7,0.1-1,0.2l-1.1-0.6l0.5-6.9h7.4v2.4h-4.8l-0.3,2.7l0.3-0.1C467.4,409.7,467.8,409.7,468.4,409.7z"/>
</g>
<g>
	<path class="st1" d="M338.2,307h-1.6v2.8h-2.8V307H328v-2l5.9-8.8h2.6v8.5h1.6v2.3H338.2z M333.8,304.8v-2.3c0-0.4,0-0.9,0-1.7
		c0-0.7,0.1-1.2,0.1-1.3h-0.1c-0.2,0.5-0.5,1-0.8,1.5l-2.5,3.8H333.8z"/>
	<path class="st1" d="M348.8,309.8h-9.5v-2l3.4-3.4c1-1,1.7-1.7,2-2.1s0.5-0.8,0.7-1.1c0.1-0.3,0.2-0.7,0.2-1.1c0-0.5-0.2-1-0.5-1.2
		s-0.7-0.4-1.2-0.4s-1,0.1-1.5,0.4c-0.5,0.2-1,0.6-1.5,1l-1.6-1.8c0.7-0.6,1.2-1,1.7-1.2c0.4-0.2,0.9-0.4,1.4-0.5s1.1-0.2,1.7-0.2
		c0.8,0,1.6,0.2,2.2,0.5c0.6,0.3,1.2,0.7,1.5,1.3c0.4,0.6,0.5,1.2,0.5,1.9c0,0.6-0.1,1.2-0.3,1.8c-0.2,0.5-0.6,1.1-1,1.7
		s-1.3,1.4-2.4,2.5l-1.7,1.6v0.1h5.9L348.8,309.8L348.8,309.8z"/>
	<path class="st1" d="M350,304.1c0-2.7,0.6-4.7,1.7-6c1.1-1.3,2.8-2,5.1-2c0.8,0,1.4,0,1.8,0.1v2.3c-0.6-0.1-1.1-0.2-1.6-0.2
		c-1,0-1.8,0.1-2.4,0.4c-0.6,0.3-1.1,0.7-1.4,1.3s-0.5,1.4-0.5,2.5h0.1c0.6-1.1,1.6-1.6,2.9-1.6c1.2,0,2.2,0.4,2.8,1.1
		c0.7,0.8,1,1.8,1,3.2c0,1.4-0.4,2.6-1.2,3.4c-0.8,0.8-1.9,1.3-3.4,1.3c-1,0-1.9-0.2-2.6-0.7s-1.3-1.1-1.7-2S350,305.3,350,304.1z
		 M354.9,307.7c0.6,0,1.1-0.2,1.4-0.6c0.3-0.4,0.5-1,0.5-1.8c0-0.7-0.2-1.2-0.5-1.6c-0.3-0.4-0.8-0.6-1.4-0.6s-1.1,0.2-1.5,0.6
		c-0.4,0.4-0.6,0.8-0.6,1.3c0,0.7,0.2,1.4,0.6,1.9C353.8,307.5,354.3,307.7,354.9,307.7z"/>
</g>
<g>
	<path class="st1" d="M640.2,363.5h-2.9v-7.8v-1.3V353c-0.5,0.5-0.8,0.8-1,0.9l-1.6,1.3l-1.4-1.7l4.4-3.5h2.4L640.2,363.5
		L640.2,363.5z"/>
	<path class="st1" d="M653.4,363.5h-9.5v-2l3.4-3.4c1-1,1.7-1.7,2-2.1c0.3-0.4,0.5-0.8,0.7-1.1c0.1-0.3,0.2-0.7,0.2-1.1
		c0-0.5-0.2-1-0.5-1.2c-0.3-0.2-0.7-0.4-1.2-0.4s-1,0.1-1.5,0.4c-0.5,0.2-1,0.6-1.5,1l-1.6-1.8c0.7-0.6,1.2-1,1.7-1.2
		c0.4-0.2,0.9-0.4,1.4-0.5c0.5-0.1,1.1-0.2,1.7-0.2c0.8,0,1.6,0.2,2.2,0.5c0.6,0.3,1.2,0.7,1.5,1.3c0.4,0.6,0.5,1.2,0.5,1.9
		c0,0.6-0.1,1.2-0.3,1.8c-0.2,0.5-0.6,1.1-1,1.7c-0.4,0.6-1.3,1.4-2.4,2.5l-1.7,1.6v0.1h5.9L653.4,363.5L653.4,363.5z"/>
	<path class="st1" d="M664.2,356.7c0,2.4-0.4,4.1-1.2,5.3c-0.8,1.1-2,1.7-3.6,1.7s-2.7-0.6-3.5-1.8c-0.8-1.2-1.2-2.9-1.2-5.2
		c0-2.4,0.4-4.2,1.2-5.3s2-1.7,3.6-1.7s2.7,0.6,3.5,1.8C663.8,352.7,664.2,354.4,664.2,356.7z M657.6,356.7c0,1.7,0.1,2.9,0.4,3.6
		c0.3,0.7,0.8,1.1,1.5,1.1s1.2-0.4,1.4-1.1c0.3-0.7,0.4-1.9,0.4-3.6c0-1.7-0.2-2.9-0.5-3.6c-0.3-0.7-0.8-1.1-1.4-1.1
		c-0.7,0-1.2,0.4-1.4,1.1C657.8,353.8,657.6,355.1,657.6,356.7z"/>
	<path class="st1" d="M675,356.7c0,2.4-0.4,4.1-1.2,5.3c-0.8,1.1-2,1.7-3.6,1.7s-2.7-0.6-3.5-1.8c-0.8-1.2-1.2-2.9-1.2-5.2
		c0-2.4,0.4-4.2,1.2-5.3s2-1.7,3.6-1.7s2.7,0.6,3.5,1.8C674.6,352.7,675,354.4,675,356.7z M668.4,356.7c0,1.7,0.1,2.9,0.4,3.6
		c0.3,0.7,0.8,1.1,1.5,1.1s1.2-0.4,1.4-1.1c0.3-0.7,0.4-1.9,0.4-3.6c0-1.7-0.2-2.9-0.5-3.6c-0.3-0.7-0.8-1.1-1.4-1.1
		c-0.7,0-1.2,0.4-1.4,1.1C668.6,353.8,668.4,355.1,668.4,356.7z"/>
</g>
<g>
	<path class="st1" d="M549.2,522.3c0,2.7-0.6,4.7-1.7,6c-1.1,1.3-2.8,2-5.1,2c-0.8,0-1.4,0-1.8-0.1v-2.3c0.5,0.1,1.1,0.2,1.6,0.2
		c1,0,1.7-0.1,2.4-0.4c0.6-0.3,1.1-0.7,1.4-1.3c0.3-0.6,0.5-1.4,0.6-2.5h-0.1c-0.4,0.6-0.8,1-1.2,1.2c-0.5,0.2-1.1,0.4-1.8,0.4
		c-1.2,0-2.1-0.4-2.8-1.1c-0.7-0.8-1-1.8-1-3.2c0-1.5,0.4-2.6,1.2-3.4s2-1.3,3.4-1.3c1,0,1.9,0.2,2.6,0.7c0.8,0.5,1.3,1.2,1.7,2
		C549,520,549.2,521,549.2,522.3z M544.3,518.6c-0.6,0-1.1,0.2-1.4,0.6c-0.3,0.4-0.5,1-0.5,1.8c0,0.7,0.2,1.2,0.5,1.6
		c0.3,0.4,0.8,0.6,1.4,0.6c0.6,0,1.1-0.2,1.5-0.6c0.4-0.4,0.6-0.8,0.6-1.3c0-0.7-0.2-1.4-0.6-1.9S544.9,518.6,544.3,518.6z"/>
	<path class="st1" d="M552,530l5-11.1h-6.7v-2.4h9.7v1.8l-5.1,11.7H552z"/>
	<path class="st1" d="M571.2,527.2h-1.6v2.8h-2.8v-2.8H561v-2l5.9-8.8h2.6v8.5h1.6v2.3H571.2z M566.8,525v-2.3c0-0.4,0-0.9,0-1.7
		c0-0.7,0.1-1.2,0.1-1.3h-0.1c-0.2,0.5-0.5,1-0.8,1.5l-2.5,3.8H566.8z"/>
</g>
</svg>
