<?xml version="1.0" encoding="utf-8"?>
<!-- Generator: Adobe Illustrator 19.0.0, SVG Export Plug-In . SVG Version: 6.00 Build 0)  -->
<svg version="1.1" id="Layer_1" xmlns="http://www.w3.org/2000/svg" xmlns:xlink="http://www.w3.org/1999/xlink" x="0px" y="0px"
	 viewBox="244 -244 1562.5 1000" style="enable-background:new 244 -244 1562.5 1000;" xml:space="preserve">
<style type="text/css">
	.st0{fill-rule:evenodd;clip-rule:evenodd;fill:#CCCCCC;}
	.st1{opacity:0.74;fill-rule:evenodd;clip-rule:evenodd;fill:#A8D0B4;}
	.st2{fill-rule:evenodd;clip-rule:evenodd;fill:#82C494;}
	.st3{fill-rule:evenodd;clip-rule:evenodd;fill:#EAEAEA;}
</style>
<g id="Layer_1_1_">
</g>
<g id="New_Hampshire">
</g>
<g id="Vermont">
</g>
<g id="New_York">
</g>
<g id="Massachusetts">
</g>
<g id="Rhode_Island_1_">
</g>
<g id="Delaware">
</g>
<g id="Connecticut">
</g>
<g id="Pennsylvania">
</g>
<g id="New_Jersey">
</g>
<g id="Maryland">
</g>
<g id="West_Virginia">
</g>
<g id="Kentucky">
</g>
<g id="Ohio">
</g>
<g id="Michigan">
</g>
<g id="Indiana">
</g>
<g id="Illinois">
</g>
<g id="Wisconsin">
</g>
<g id="Iowa">
</g>
<g id="Minnesota">
</g>
<g id="Missouri">
</g>
<g id="Arkansas">
</g>
<g id="North_Dakota">
</g>
<g id="South_Dakota">
</g>
<g id="Nebraska">
</g>
<g id="Kansas">
</g>
<g id="Oklahoma">
</g>
<g id="Montana">
</g>
<g id="Wyoming">
</g>
<g id="Colorado">
</g>
<g id="New_Mexico">
</g>
<g id="Arizona">
</g>
<g id="Nevada">
</g>
<g id="Utah">
</g>
<g id="Idaho">
</g>
<g id="California">
</g>
<g id="Oregon">
</g>
<g id="Washington">
</g>
<g id="Alaska">
</g>
<g id="Hawaii">
</g>
<g id="Maine">
</g>
<g id="Virginia">
</g>
<g id="Tennessee">
</g>
<g id="North_Carolina">
</g>
<g id="South_Carolina">
</g>
<g id="Georgia">
</g>
<g id="Alabama">
</g>
<g id="Mississippi">
</g>
<g id="Florida">
</g>
<g id="Louisiana">
</g>
<g id="Texas">
</g>
<g>
	<line class="st0" x1="1150.1" y1="104.4" x2="1149.3" y2="104"/>
	<line class="st0" x1="1149.3" y1="104" x2="1148.6" y2="104.4"/>
	<line class="st0" x1="900.6" y1="52" x2="901.4" y2="52.4"/>
	<line class="st0" x1="901.4" y1="52.4" x2="902.1" y2="52"/>
	<line class="st0" x1="1203.5" y1="75.3" x2="1203.9" y2="76"/>
	<line class="st0" x1="1132.6" y1="198.9" x2="1131.9" y2="198.6"/>
	<line class="st0" x1="1131.9" y1="198.6" x2="1131.1" y2="198.9"/>
	<line class="st0" x1="885.4" y1="259.3" x2="885.7" y2="258.6"/>
	<line class="st0" x1="885.7" y1="258.6" x2="885.4" y2="257.8"/>
	<path class="st0" d="M903.6,224.4c1.2-0.2,1.3,0.7,2.2,0.7C906,226.5,902.4,226.2,903.6,224.4z"/>
	<line class="st0" x1="294.9" y1="-33" x2="295.3" y2="-33.8"/>
	<path class="st0" d="M293.5-33.8c0.5,0,1.2,0,1.8,0"/>
	<line class="st0" x1="295.3" y1="-33.8" x2="294.9" y2="-34.5"/>
	<line class="st0" x1="882.8" y1="-4.7" x2="883.2" y2="-4"/>
	<line class="st0" x1="878.8" y1="1.9" x2="878.1" y2="1.5"/>
	<line class="st0" x1="912.3" y1="31.7" x2="912.3" y2="31"/>
	<path class="st0" d="M911.2,32.8c0.5-0.7,0.7-1.3,1.1-1.8"/>
	<line class="st0" x1="912.3" y1="31" x2="911.5" y2="31"/>
	<line class="st0" x1="927.5" y1="47.7" x2="927.5" y2="48.4"/>
	<path class="st0" d="M927.5,48.4c0.3-0.5,0.3-1.2,0.4-1.8"/>
	<line class="st0" x1="927.5" y1="48.4" x2="928.3" y2="48.4"/>
	<line class="st0" x1="1142.8" y1="154.6" x2="1142.1" y2="154.2"/>
	<line class="st0" x1="1142.1" y1="154.2" x2="1141.3" y2="154.6"/>
	<line class="st0" x1="878.1" y1="268" x2="878.1" y2="267.3"/>
	<line class="st0" x1="876.3" y1="268.4" x2="876.6" y2="268"/>
	<line class="st0" x1="876.6" y1="268" x2="876.3" y2="268.4"/>
	<line class="st0" x1="878.1" y1="267.3" x2="877.4" y2="267.3"/>
	<line class="st0" x1="1109.7" y1="187.7" x2="1109.3" y2="187.3"/>
	<line class="st0" x1="1121.7" y1="200.4" x2="1122.1" y2="201.1"/>
	<line class="st0" x1="1122.1" y1="201.1" x2="1122.4" y2="201.8"/>
	<line class="st0" x1="1122.4" y1="209.8" x2="1122.4" y2="209.1"/>
	<line class="st0" x1="998.1" y1="244" x2="998.4" y2="243.3"/>
	<path class="st0" d="M1012.6,227.3c0.5-0.5,1.2-1.2,1.8-1.8"/>
	<path class="st0" d="M1013.3,227.3c2,2.9,0.2,0,1.5-1.5"/>
	<line class="st0" x1="1014.8" y1="225.8" x2="1014.4" y2="225.5"/>
	<line class="st0" x1="1012.6" y1="227.3" x2="1013.3" y2="227.3"/>
	<path class="st0" d="M1122.1,150.6"/>
	<line class="st0" x1="1113.7" y1="174.9" x2="1113" y2="174.6"/>
	<line class="st0" x1="1113" y1="174.6" x2="1112.2" y2="174.9"/>
	<path class="st0" d="M1122.1,150.6"/>
	<line class="st0" x1="1062.8" y1="335.6" x2="1062.1" y2="335.6"/>
	<path class="st0" d="M1065.7,337.4c-1-1.2-2.2-1.4-3.6-1.8"/>
	<line class="st0" x1="1062.1" y1="335.6" x2="1062.1" y2="336.4"/>
	<line class="st0" x1="937" y1="403.3" x2="936.3" y2="402.9"/>
	<line class="st0" x1="922.5" y1="221.5" x2="922.1" y2="221.1"/>
	<path class="st0" d="M922.1,222.6c0-0.5,0-1,0-1.5"/>
	<line class="st0" x1="922.1" y1="221.1" x2="921.7" y2="221.5"/>
	<path class="st0" d="M1162.4,60c-3.1-3.2-1.2-8.3-2.2-14.5c-0.2-1.4-1.5-3.3-1.5-4.4c0.1-4.4,3.1-9.4,2.9-13.8
		c0-1.4-0.6-3.2-1.5-4.4c0.2-2,2.6-2.4,3.6-3.6c1.2-1.4,1.5-2.9,2.9-4.4c-2.4-5.4-3-12.7-0.7-18.9c1.8,0.1,2.3,1.4,2.9-0.7
		c3.7,8.7,6.2,18.5,9.5,28.4c0.5,1.5,0.9,3.5,1.5,5.1c0.4,1.2,1.8,2.5,2.2,3.6c0.5,1.6,0,3.6,0.7,5.1c2.2,4.4,7.9,5.9,6.5,11.6
		c-4.3,0.3-5.2,4-7.3,6.5C1175.1,56.7,1169.1,58.8,1162.4,60z"/>
	<path class="st0" d="M1161,60.8c-5-0.2-8.1,1.6-12.4,2.2c-1.4-7.4-2-19.2-7.3-20.4c1.1-3.8-2.4-6.9-2.9-10.2
		c-0.2-1.3,0.7-3.2,0.7-4.4c0-1-0.5-3.5-0.7-4.4c-0.4-1.3-1.7-2.4-2.2-3.6c-0.3-0.8,0.2-2,0-2.9c-0.4-2.1-1.7-3.9-1.5-5.8
		c9.4-2.7,18.7-5.5,29.1-7.3c1,2.2-0.3,2.6,0,5.8c0.6,2.3,1.5,2.5,1.5,4.4c-0.1,3.6-4.6,5.3-5.8,8c2.8,6.4-1.4,13-1.5,18.9
		c0,2.7,2.1,7.6,2.2,11.6C1160.3,55.6,1159,57.9,1161,60.8z"/>
	<path class="st0" d="M1153,107.1c0.4,1.6-0.7,3.8-2.4,3.8c-3.1,2.7-3.3-7-3.5-4.4c-7.7-1.8-14.1-4.8-21.1-7.3
		c-1.9-1.1-1.5-4.9-2.9-6.5c-0.9-1-2-0.5-3.6-1.5c-1-0.6-1.7-2.1-2.2-2.2c-1.6-0.3-6,1.4-9.5,2.2c-3,0.7-6.7,1.6-9.5,2.2
		c-17.5,3.9-40.4,8.8-58.2,10.9c0.9-1.1-0.9-2.4-0.7-3.6c0.3-2.1,1.9-2.3,3.6-4.4c1.2-1.4,2-3.2,2.9-4.4c1.1-1.4,2.7-2.3,3.6-3.6
		c0.5-0.6,0.2-0.9,0.7-1.5c0.3-0.4,1.5-1.8,2.2-2.9c0.4-3-2.1-3.2-1.5-6.5c-1.3-0.8-3.3-1.1-3.6-2.9c-0.7-3,4-3.1,6.5-4.4
		c2.2-1.1,8.3-3.7,13.8-2.9c1.7,0.2,2.8,1.4,4.4,1.5c3.3-1.1,5.8-2.9,10.9-2.2c2.6-2,4.7-4.5,6.5-7.3c1.1-1.1,2.8-1.5,4.4-2.2
		c0.3-3.2-0.5-5.3-1.5-7.3c-0.2-2.6,2.2-2.7,2.2-5.1c-3,2-1.9-3.5-4.4,0c-1.5-3.3,4.7-6.6,6.5-9.5c-0.7-2.4,0.6-3.7,1.5-5.1
		c0.7-1.1,1.3-2.2,2.2-3.6c2.6-4.5,7-9,12.4-10.2c6.3-1.4,14.8-2.4,20.4-5.1c1.7,1,0.3,2.2,0.7,3.6c0.3,0.9,1.2,1.2,1.5,2.2
		c0.2,0.9-0.3,2,0,2.9c0.9,2.5,2.9,4,2.9,8c0,1.7-1,2.7-0.7,4.4c0.6,3.8,3.9,7.6,2.9,12.4c1.9,1.9,1-1.9,2.9,0
		c2,4.4,2.7,10.1,3.6,16.7c0.1,0.8,1.6,1.3,1.5,2.2c-0.8,3.6-1.3,9.8-0.7,15.3c0.1,1.4,1.1,2.2,1.5,3.6c0.9,3.9,0.9,9.3,2.2,13.8
		c1.3,4.9,1.8,4.6-1.5,8L1153,107.1z"/>
	<path class="st0" d="M1172.4,101.5c-0.1-0.7,2.4-1.6,2.4-1.6c2.4,0.4,2.3-1.9,5.8-1.3c-1.9,1-2.5,3.9-5.1,4.2
		C1175.5,102.8,1172.5,102.3,1172.4,101.5z"/>
	<path class="st0" d="M1173,103.7l-0.5,0.7c0.2,2.3-2.2,1.2-4.2,2.2c-0.4,0.2-0.4,1.3-0.7,1.5c-1,0.6-2.6,0.2-3.6,0.7
		c-0.9,0.5-1.4,1.8-2.2,2.2c-2,1.1-4.2,1.8-6.5,2.9c-2,0.9-3.7,3.4-6.5,2.2c-0.2-4.8,5.4-3.8,5.8-8c3.6-0.3,6.5-1.2,8-3.6
		c3.5,0.1,6.5-3.1,8.5-4.4c-0.2,1.3-3.7,3.9-0.4,3.3L1173,103.7z"/>
	<path class="st0" d="M1203.9,76c-0.1,1.9-1.1,2.8-2.9,2.9c0.5-2.2-1.3-2.1-0.7-4.4c-2.7,1.4-4.1,4.2-5.8,6.5
		c-2.6-0.1-2.9-2.4-2.9-5.1c-0.7,0.5-1.1,1.3-1.5,2.2c-2.2-1.2-3.1-3.7-4.4-5.8c-13.6,1.2-23.2,6.4-37.1,7.3c0.4-6.5,0.8-8.7,0.7-16
		c9-1.8,21.9-4.5,30.5-6.5c2.6-0.6,5.7-3.3,6.5-6.5c0.8,0.1,1.3-0.2,1.5-0.7c2.2,1.6,2.6,6.6,6.5,4.4c-2.7,1.9-4.3,4.9-5.8,8
		c0.1,0.6,0.7,0.7,0.7,1.5c1.2,2.2,2.6,0.8,5.1,0.7c1,1.7,3.6,1.7,2.9,5.1c3.3,0.6,3.2,4.6,6.5,5.1"/>
	<path class="st0" d="M1203.5,75.3c2.5,0.5,6.8-1.3,8.7-3.8l-1.2-1l-1.9,1.5l-0.2,1c0,0-2.9,1.2-3.9,0.7c-1-0.5-1.1,0.8-1.1,0.8
		L1203.5,75.3"/>
	<path class="st0" d="M1203.1,81.9c0.1,1.6-0.6,2.3-2.2,2.2C1201.7,83.4,1201.2,81.4,1203.1,81.9z"/>
	<path class="st0" d="M1185,73.1c1.4,2.5,1.7,4.2,0.7,6.5c1.3,1.7,1.8,4.1,1.5,7.3c-1.6,0.8-3.2,1.7-4.4,2.9
		c-0.6-3.5-2.5-10.1-3.6-15.3C1180.8,73.9,1182.7,73.3,1185,73.1z"/>
	<path class="st0" d="M1129.7,174.2c-0.6-10.7-7.7-21.3-6.5-32c2.1,0.6,1.9-1,3.6-0.7c0.4,2.1-1.4,3.2-1.5,5.1
		c-0.1,3.4,2.7,6.4,5.1,8c0.4,2.8,1,4.2,2.9,6.5c1.8,2.2,1.9,3.8,5.8,3.6c-0.2,1.7-1.1,2.7-0.7,5.1c0.1,1.2,3.5-1.2,2.9,2.2
		C1137.1,172.4,1134.1,174,1129.7,174.2z"/>
	<path class="st0" d="M1150.1,81.1c9.4-2,18.5-4.3,27.6-6.5c1.2,5.1,3.4,9.2,3.6,15.3c-4.4-0.6-6.2,5.2-9.5,1.5
		c-0.1,2,1.2,1.5,0,2.9c-3.6,0.7-6.8,1-9.5,2.9c-0.8,0.5-0.8,1.6-1.5,2.2c-0.4,0.4-1.7-0.3-2.2,0c-0.6,0.5-0.2,1.6-0.7,2.2
		c-0.5,0.5-1.7,0.3-2.2,0.7c-0.9,0.9-1.5,2.6-2.9,2.9c-0.8,0.1-1.3-0.2-1.5-0.7c-0.6-2.3,2.4-1,2.2-2.9
		C1152.5,94.7,1150.4,88.8,1150.1,81.1z"/>
	<path class="st0" d="M1131.1,101.5c-2.1,3.2-2.3,8.3-5.1,10.9c-0.3,2.3,1.5,1.2,1.5,3.6c0,1-1.6,2.3-1.5,2.9c0.4,2.1,1.3,3,2.9,4.4
		c0.5,0.4,0.3,1,0.7,1.5c0.7,0.7,1.3,0.9,2.2,1.5c1.3,0.8,2.8,3.2,5.1,3.6c-0.3,2.4-2.2,3.2-3.6,4.4c-1.3,1.4-1.6,3.7-2.9,5.1
		c-1.2,0-1.9,0.5-2.2,1.5c-1.5,0-2.9,0-4.4,0c-1.4,1-2.2,2.7-2.9,4.4c-27.6,5.8-55.8,11.1-83.6,16.7c-2.5-9.7-5.1-26.3-7.3-39.3
		c-0.8-4.9-2.8-10.7-2.2-13.1c0.3-1.1,1-1.9,2.2-2.9c0.6-0.5,1.5-0.2,2.2-0.7c1.4-1,4-4.7,6.5-5.1c0.2,1.7,1.1,2.7,0.7,5.1
		c16.6-2.5,35.8-6.4,53.8-10.2c1.7-0.4,2.8-1.1,4.4-1.5c3-0.6,6.8-0.7,10.2-1.5c3.6-0.8,6.4-2.6,8.7-2.2c2.1,0.3,3,3.3,5.1,2.2
		C1123.7,96.8,1124.7,101.9,1131.1,101.5z"/>
	<path class="st0" d="M1141.3,154.6c0-0.2,0-0.5,0-0.7c-1.5,0.4-4.8-0.9-5.1,0.7c-3.3-3-12.6-5-7.3-13.1c2.1-0.2,2-1,4.4-2.2
		c-0.6-3.3,1.7-3.6,2.2-5.8c1.2-0.2,1.3,0.7,2.2,0.7c-1.6-1.5,0.1-2.4,0.7-3.6c0.1-1.9-1.9-0.8-2.9-2.2c-1.7-2.3,0.9-1.3-1.5-2.2
		c-0.3-0.1-1.8-0.4-2.2-0.7c-0.7-0.5-0.2-1.5-0.7-2.2c-1-1.4-3.1-1.1-3.6-2.9c0.1-3.1,2.8-5.1,0-7.3c0.2-2.2,2.2-3.4,2.9-5.1
		c0.8-1.9-0.2-4,1.5-5.1c0.8,0.1,0.4,0.7,0,0.7c2.4,0.4,2.7-0.2,5.8,0.7c-0.1,0,2,0.6,2.2,0.7c0.2,0.1-0.2,1.4,0,1.5
		c0.4,0.1,1.3-0.9,2.2-0.7c0.7,0.1,3.6,1.9,5.1,2.2c0.7,6.5-4.5,7.2-2.9,14.5c2.3,0.4,2.6-1.3,5.1-0.7c1.9,2.6,0.1,6.5,0,9.5
		c-0.1,2.9,1.4,5.9-0.7,7.3c0.9,0.3,1.8,0.5,0.7,2.9c-0.2,0.3-1.7,1-2.2,2.2c-1,2.2,0,5.1-2.9,5.8c0.6,3,0.1,2.5,0,5.8
		c-0.6-0.1-0.7-0.7-1.5-0.7"/>
	<path class="st0" d="M1102.8,169.1C1104.5,166.8,1105.7,171.7,1102.8,169.1L1102.8,169.1z"/>
	<path class="st0" d="M1112.2,174.9c-0.7,0-0.6-0.9-0.7-1.5c-2.6,6.1,5.8,7.3,8,10.9c-2,0.5-9-0.2-9.5-3.6c-0.9,0.1-0.6,1.3-0.7,2.2
		c-1.8-0.6-2.3-2.5-3.6-3.6c-1.9-0.2-2.4,1-2.2,2.9c-3.8-3.6,2.6-8.2,2.2-13.1c-0.8-2.6-2.9-0.4-4.4-0.7c-1.5-0.3-2.1-1.7-3.6-2.2
		c-1.2-0.4-2.6,1.1-3.6,0c0.5-3.7-1.5-4.8-5.1-4.4c-1-2.1-3-2.5-3.2-5.5c-0.8-0.6-3.2-1-4.4-1.1c-1.2-0.1-2.9-0.7-3.4,0.2
		c-0.5,1-2.3,0.7-2.9,1.5c-0.6,0.7-1.8,3.3-2.9,3c-1.1-0.2-3-1.6-3.5-1.5c-0.5,0.1-0.7,0.4-1.2,1.5c-0.5,1.1-1.6,2.9-2.9,3
		c-1.3,0.1-2.1,0.5-2.4,1.3c-0.4,0.8-1,2.4-1.8,3.2c-0.8,0.7-2.2,1.1-2.8,2.8l-1.9-11.1l32.6-6.1c4.5-0.9,11.9-2.5,17.5-3.6
		c3.8-0.8,10.5-3,16-3.6c-0.6,2.1,1,1.9,0.7,3.6l0.1,0.5c2.5,8.2,4.3,17.9,7.2,25.7c3.3-0.8,9-3.6,11.6-0.7c-1.4,2.7-3,5.2-3.6,8.7
		c-3.3,0.4-4.5,2.8-8,2.9c0.4-1.1,1.1-1.8,1.5-2.9c-0.2-0.7-3.2-1.9-2.9-0.7c-2.2,0.3,0.7-1.8,0.7-2.2c0-0.8-2.7-1.6-1.5-3.6
		c-1.3-0.4-0.9,1.9-1.5,2.2c-0.3,0.2-1.9-2.9-2.2,0.7c-1.3-0.7-2.1-1.8-3.6-2.2c-0.5-2.2,1.3-2.1,0.7-4.4c2.3,0.8,1.9,0.3,3.6-0.7
		c0.1-1.6-2.6-0.3-3.6-0.7c0.1-2.2-2.8-4.5,0-5.1c-0.1-1.3-2.5-0.4-2.9-1.5c-0.5-1.1,1.6-2.5,0.7-4.4c-0.3-0.7-1.5-0.9-1.5,0
		c-0.5-4.5-0.6-5.8,5.1-7.3c-2.3-1-2.7-1.5-1.3-3.6l-0.1-0.7c-1.1-1.2-2.8,0.2-4.4,0.7c-0.3,1.8,1.3,1.6,0.7,3.6
		c-1.2,0.3-1.4-0.6-1.5-1.5c-2.2,1.4-1.2,3.1-3.6,2.9c-0.1,2,1.2,1.5,0,2.9c-0.6-0.4-1.2-0.8-2.2-0.7c0.8,0.9,0.6,1.5-0.7,1.5
		c-0.3,2.3,1.8,2,2.9,2.9c-1.3,4.3,1.1,8.3,1.5,13.1"/>
	<path class="st0" d="M1058.4,169.8c2.9-0.7,3.6-3.7,5.1-5.8c2.3,0.1,4.5-1,5.1-4.4c1.4,0.3,1.8,1.6,3.6,1.5
		c2.1-0.1,2.4-2.6,3.6-3.6c1-0.9,3.2,0,2.9-2.2c1.4,1.3,4.4,0.5,5.8,1.5c0.2,0.2-0.2,1.2,0,1.5c0.2,0.2,1.3-0.2,1.5,0
		c0.4,0.7,0.4,1.7,0.7,2.2c0.9,1.4,1.3,2.3,0.7,5.1c-4.1-0.2-6.9-5-10.2-3.6c-1.8,2.4-0.8,5.6-1.5,8c-0.1,0.4-1.4,1.2-1.5,1.5
		c-0.2,0.6,0.3,1.7,0,2.2c-0.8,1.2-4.6,0.4-3.6,4.4c-7.1-1-3.5,8.6-7.3,10.9c-3.2,0.4-3.8-4.4-6.5-2.2c-1.6,1.6-0.3,3.3-0.7,5.1
		c-0.4,1.6-2.3,3.5-2.9,5.1c-0.4,1.1,0.4,2.6,0,3.6c-0.9,2.7-3.7,4.3-4.4,8c-0.4,2,1,4.4,0,6.5c-4-0.1-4.6,3.1-8.7,2.9
		c-1,0.5-1.4,1.6-1.5,2.9c-2.7-0.3-5.5,3.2-8,0.7c-1.6,1-2.4,2.9-4.4,3.6c-3.5-1.2-6.9-2.3-7.3-6.5c-5.2,0-7-3.1-10.2-7.3
		c-1.6-2.1-4.1-4.9-4.4-5.8c-0.5-1.8,1.2-4.2,0-5.8c5,1.1,2.9-4.9,6.5-5.1c-1.6-2.7-0.6-8.1,0.7-10.2c2.3-0.3,2.1,1.8,2.9,2.9
		c3.4-2.3,0.9-6.4,2.2-9.5c0.7-1.7,4.6-1.4,2.9-4.4c1.2,0.1,2.8-0.4,2.9,0.7c1.8-0.9,2.9-2.7,4.4-4.4c1-1.2,3.1-2.8,3.6-4.4
		c0.4-1,0.3-2.9,0.5-4c0.2-1.6-0.2-5.1,0.2-6.8c2.5-9.2-0.6-12.6,0.6-13.6c1,4.4,2.8,18,3.8,21.5c6.7-0.6,12.1-2.4,18.9-2.9
		c0.9,3.9,1.4,8.3,2.2,12.4c0.6-0.3,1.3-0.6,1.5-1.5V169.8z"/>
	<path class="st1" d="M885.4,257.8c2.5-6.6-3.4-12.9,2.9-15.3c3.5,0.3,6.6,4.3,10.2,2.2c0.7-3.6-2.4-3.4-1.5-7.3
		c2.5-0.4,3.9-1.9,6.5-2.2c1.4-2.6-0.9-2.6-0.7-5.8c0.8-1.4,5.3-2.9,3.6-4.4c1.3-0.8,3.5-0.7,4.4,0.7c2.7-0.9,1-1.9,3.6-2.9
		c2.8,0.4,5.4,0.9,6.5,2.9c2.1-1,2.1-4.2,4.4-5.1c1.8,0.8,4.1,1.2,5.1,2.9c1.8-1.8,1.7-5.6,3.6-7.3c2.2-2.3,1.2,2.5,4.4,1.5
		c0.9,2,3.8,0,5.1,0c0.4-1.5-0.9-4.8,0.7-5.1c-0.1-2.3,2.9-1.4,3.6-2.9c-0.5-3.9,2.5-4.3,3.6-6.5c0.3-1.8-1.3-1.6-0.7-3.6
		c1.1-2,3.4,0.8,3.6,0.7c2.5-0.4,3-4.1,7.3-3.6c0.2-3.1-1.1-4.7-1.5-7.3c0.8-1.5,2.3,0.1,3.6,0c1.5-0.1,2.3-1.2,3.6-0.7
		c3.1,1,3.7,4.8,5.8,6.5c4.1-0.4,6.9,0.3,8.7,2.2c2.3,0.6,2.2-1.1,3.6-1.5c3.1-0.2,3,2.4,5.8,0.7c2.4-0.3,2.9-2.4,4.4-3.6
		c1.9,2.5,4.4,4.3,7.3,5.8c0,2.3,1.7,4.7,0,6.5c4.2,4.5,6.6,10.8,12.4,13.8c1.3-0.2,1.5,0.7,0.7,0.7c-2.1,5.6-8.7,7.1-11.6,13.1
		c-1.2,2.4-1.3,2.9-3.6,5.1c-0.9,0.9-2,2.8-2.2,2.9c-0.5,0.4-2.6,0.2-3.6,0.7c-0.3,0.2-0.5,1.3-0.7,1.5c-0.4,0.2-1.1-0.2-1.5,0
		c-1.5,0.8-3.1,2.6-4.4,2.9c-2,0.6-7.2,0.2-10.9,0.7c-1.5,0.2-6.4,1.3-8.7,1.5c-3,0.2-5.8-0.3-8.7,0c-3.9,0.4-8.9,1.8-14.5,2.2
		c-2.9,0.2-5.8-0.2-8.7,0c-10.9,0.8-21.9,4.2-31.3,2.2c-0.6,2.5,1.1,2.8,0.7,5.1c-7.3,0.2-13.5,1.6-21.1,1.5"/>
	<path class="st1" d="M1032.3,139.3c-1.1,0.9-2.1,1.8-2.9,2.9c4,2.1,1.3,8.8,0.7,16c-0.2,2.3,0.3,4.7,0,5.8c-1.4,4.4-5.6,6-6.5,8.7
		c-1.6-1.2-3.9,0.2-4.4-0.7c-1.2,0.2,0.5,1.9-0.7,3.6c-0.2,0.3-2.1,0.5-2.2,0.7c-0.7,1.4,1,4.3-1.5,4.4c-0.4,2.3,2.5,1.9,0.7,3.6
		c-2,0.5-1.5-1.4-2.9-1.5c-1.9,1.3-3.6,3.2-3.6,6.5c0,1.4,1.1,2.4,0.7,3.6c-0.4,1.4-0.9,1.1-1.5,2.2c-0.4,0.8-0.1,2.3-0.7,2.9
		c-0.6,0.7-1.7-1-2.2-0.7c-0.1,0,1.3,1.5,0,1.5c-3.4-0.2-2.5-2.7-6.5-3.6c-0.3-1.4-1.6-1.8-1.5-3.6c-2.8,0.6-4.4,2.4-5.8,4.4
		c-2.6,0.4-3.5-0.8-5.1-1.5c-1.9,0.3-2.2,2.2-4.4,2.2c-1.9-2.2-4.3-3.7-8-2.2c-1-2.1-3.5-2.8-3.6-5.8c-3.9-1.4-7.2-0.6-10.2-1.5
		c-1.4-21.1-4.9-40.1-6.5-61.1c6.2-0.4,11.7-1.2,16.7-2.2c1.8-0.4,4-1.5,5.8-1.5c0.1,0-0.1,1.4,0,1.5c-0.1-0.1,2.2-0.9,2.9-0.7
		c2.4,0.5,5,2.4,7.3,2.9c-0.3,1-1.3,1.1-1.5,2.2c2.3-0.3,5.2-0.1,3.6-0.7c2-1.8,3.6,0.9,5.8,0.7c3.3-0.2,5.5-3,8-4.4
		c4,1.7,6.4-1,8.7-3.6c1.1-1.3,1.7-2.6,2.9-3.6c2-1.8,4.7-2.5,6.5-3.6c2.3-1.4,3.8-3.5,6.5-3.6
		C1028.2,120.1,1030.1,129.8,1032.3,139.3z"/>
	<path class="st0" d="M903.4,47.6l2.4-1.9c0,0.8-1.9,3.6-0.2,3.6c-0.3,0.9-2.4,1.6-2.9,2.2c-0.5,1.9-2.2,4.3-2.8,4.2
		c-0.6-0.5-0.7-1.3-0.5-2c0.2-0.7,0.5-2.4,1.1-2.7L903.4,47.6z"/>
	<path class="st0" d="M985.2,104.1c0.9,0.8,2-3.9,2.2-5.2c-0.4-0.9-1.4,0-2,0.5C984.8,100,984.4,103.5,985.2,104.1z"/>
	<path class="st0" d="M988.5,101.6c0.9-1.4,2.6,1,3.8,2.1c-0.5,2.7-8,5.6-6.4,2.8C986.8,104.8,987.5,103.1,988.5,101.6z"/>
	<path class="st0" d="M877.3,3.7l1.6-1.8c1.6-1.8,3.6-3.2,4.4-5.8v-1.5c-4.5,1.1-8.1,3.1-8.7,8c2.3,0.8,2.3-0.2,2.9-1.5
		c0,0.2,0,0.5,0,0.7L877.3,3.7z"/>
	<path class="st0" d="M911.5,31c-0.1-0.6-0.7-0.7-0.7-1.5c-4.2-0.8-3.2,3.6-6.5,3.6c0-1.2,0-2.4,0-3.6c-2.3,1.1-2.2,4.3-3.6,6.5
		c-1.9,3-3.9,8.8-5.8,13.1c-2.5-0.4-1.1-3.5-0.7-5.1c0.5-1.2-3.4-1.2-2.9,0c-0.8-4.4,1.8-10.7-5.8-10.2c0.2-1.7-0.1-2.8-0.7-3.6
		c-2.1,1-4.4-1.3-6.5-1.5c-1.9-0.1-4.3,1-7.3,0c-0.4-0.1-1.2-1.4-1.5-1.5c-4.8-1.5-12.5-2.1-18.9-3.6c-0.3-2.6-1.7-4.1-4.4-4.4
		c0.6-2.1,3.5-1.8,5.1-2.9c1.8-1.2,2.4-3.4,4.4-4.4c6.6,1,7.7-3.5,12.4-4.4c1-1.9,2.5-3.4,3.6-5.1c4.5,0.4,4.2,5.5,5.1,9.5
		c2.3,0.4,0.3-3.6,2.9-2.9c0.1,0.6-0.3,0.7-0.7,0.7c2.2,0.9,2.9-2,5.1-2.2c5.1-0.4,8.9,5,10.9,8.7c5.6-0.6,7.7-0.5,12.4,0.7
		c2.3,0.4,2.1-2.1,2.9-2.9c0.5-0.5,2-0.6,2.9-1.5c1.7-1.5,1.2-1.9,5.1-2.9c2-0.5,4.2,0.1,7.3-0.7c2.8-0.7,4.9-3.6,8-2.9
		c-0.2,2.6,0.1,4.7,0.7,6.5c3.6,0.9,6.9-1.9,8,0.7c1.5-0.2,1.9-1.5,2.9-2.2c2.1,0.5,3.1,2.3,2.9,5.1c1.6,2.3,5,2.8,5.8,5.8
		c-4-0.2-8.7,0.5-11.6-0.7c-1.9,0.1-1.4,2.4-1.5,4.4c-2.1,0-2.7-1.7-3.6-2.9c-3.4-0.2-6.7-1.9-9.5-0.7c-1.8,0.6-2.2,2.7-3.6,3.6
		c-3.7,0.4-6.7-0.3-8.7,1.5c-1.4,1.2-0.8,3.1-2.9,4.4"/>
	<path class="st0" d="M928.3,48.4c0,1.7,0,3.4,0,5.1c0.4,2.1,1-1,2.2-0.7c0,0,0.2,1.2,0.7,0.7c1-0.8,2-2.7,2.2-4.4
		c0.2-1.7-1.3-4.2-0.7-5.8c1-2.8,2.4-4.3,5.8-4.4c1-3.2-2.8-1.5-2.2-4.4c0.3-3.1,3-3.8,4.4-5.8c1.8-0.6,2.3,1.7,4.4,2.2
		c2.8,0.7,6.7-0.6,7.3,2.9c6.5,0.6,11.5,2.5,14.5,6.5c0.1,2.1-2.2,1.7-2.2,3.6c0.6,2.1,2.7,2.7,3.6,4.4c0.2,4.5,2.5,10.9-2.2,13.1
		c0.6,2.7-0.9,3.5-0.7,5.8c-1.5,0.7-2.9,1.5-4.4,2.2c-0.7,6,0.2,8.7,5.1,9.5c1.7-3.1,5.2-4.5,5.1-9.5c3.4-0.5,4-3.8,8-3.6
		c6.4,5,5.3,17.5,10.9,23.3c-1.4,2-0.4,6.4-0.7,9.5c-2.4,0.9-0.6-2.4-2.9-1.5c-2.2,1.4-3.4,3.9-2.9,8c-1.4,0.7-2.5,1.8-3.6,2.9
		c1.2,7.1-3.4,8.3-3.6,13.8c-7.2,0.5-14.4,3.3-21.8,3.6c-2.1,0.1-4.4-0.7-6.5-0.7c-6.3,0.1-13.7,2.1-20.4,2.9
		c-2.5,0.3-5.4-0.2-8,0.7c-2.4,0.5-1.1-1.4,0-1.5c1.2-2,1.6-3.8,2.9-7.3c1.3-3.6,3.4-9.5,2.9-16c-0.3-4.5-2.8-8-2.2-11.6
		c-2.8-1-2.9-2.8-4.4-5.8c-0.4-0.7-1.3-1.2-1.5-2.2c-0.3-1.8,1.3-2.4,1.5-4.4c0.2-2.3-0.9-4.1-2.2-5.8c1.1-3.5,4.2-6.2,3.6-12.4
		c-0.1-1.2-0.8-2.3-0.7-2.9c0.4-2.4,3.2-3.4,2.2-5.8c2.5-1.2,4.7-2.6,5.8-5.1"/>
	<path class="st0" d="M859.6-9c0,1.3,6.9-2,8-2.2c1.1-0.3,4.4-3.6,4.4-4.8c0-1.1-3.6,2.8-4.7,3.7C866.1-11.5,859.6-10.4,859.6-9z"/>
	<path class="st1" d="M921.7,221.5c-1,0.1-1.1,1.5-2.2,1.5c-1.5,0-1.8-1.3-2.9-1.5c-1.2-0.2-4.9,0.6-5.1,0.7c-0.2,0.1,0.2,2.2,0,2.2
		c-0.9,0.1-0.3-1.1-0.7-1.5c-1.1-0.8-4.9,2.1-6.5,0.7c-0.4-3.3,1.3-4.5,0.7-8c1.5-0.4,1.4-2.2,2.9-0.7c-1.2-3.3,3.2-6.9,3.6-10.9
		c0.6,0.1,0.7,0.7,1.5,0.7c-0.9-1.2-0.8-4.4-1.5-6.5c-0.1-0.3-1.7-2-1.5-2.2c1.4-1.1-1.1,0.2-1.5-1.5c1.1-1.6-0.1-5.4,2.2-5.8
		c-2.6-18-3.5-37.7-5.8-56c-2.1,0.6,3.4,0.5,3.6,0.7c0,0-0.8,1.5-0.7,1.5c-0.2,0,2.7-1.2,4.4-2.2c1.3-0.8,2.1-2.1,3.6-2.9
		c0.9-0.5,1.4,0.8,1.5,0.7c0.8-0.2,0.4-0.8,0-0.7c5.1-1.4,11.9-1.3,18.2-2.2c3.6-0.5,10.6-1.5,16-2.2c0.8,0.9,0,2.3,0,2.2
		c0.3,0.9,1.3,1.2,1.5,2.2c0.3,1.4-0.1,3,0,4.4c0.5,5.9,2.1,12.7,2.9,19.6c0.6,5.7,0.8,11.7,1.5,17.5c0.6,5.1,2,10.3,2.2,14.5
		c0.1,2.4-1.1,3.5,0,5.8c-3.6-2.5,2.4,3.7-1.5,1.5c0.7,2.4,1.6,0.1,2.9,1.5c0.3,1.2-2.7,2.4-2.9,0.7c-1-2,0.1,1.9-0.7,2.2
		c-0.5,0.2-1.8-0.5-1.5-0.7c-0.8,0.7,0.8,1.9-0.7,2.2c-0.9,0.1-1-1.3-1.5-1.5c-1-0.3-2.9,2.5-2.9,0c-2.6,1.4-0.2,3.3-0.7,6.5
		c-4,0.2-2.1,8.2-6.5,5.8c-0.6,2.3-0.5,5.4-1.5,7.3c-2.1,1.3-3.4-1.5-2.9-1.5c-0.7,0-0.8,2-2.2,1.5c0-2.2-1.3-3.1-2.9-3.6
		c-2.5-0.9-0.5,2.7,0,1.5c-0.4,0.9-1.7,0.8-2.2,1.5c-0.8,1-0.5,3.1-0.7,3.6c-0.2,0.3-2.4,0.3-0.7,0.7c-0.6,1.7-3.4-0.4-3.6-1.5
		c-1.9-0.8-2.5,3.1-3.6,0.7c-1.1,0.3,0.6,1.3-0.7,1.5"/>
	<path class="st0" d="M902.8,234.6c-3.5,0.1-5.5,1.8-7.3,3.6c-0.1,2.7,3.4,4.3,1.5,6.5c-4.9-2.6-12.2-4.7-13.8,2.2
		c-1.9,0.1-4.4-2.5-5.1-4.4c-0.4-1,0.8-2.2,0.7-3.6c-0.1-2.7-2.6-4.3-1.5-6.5c-2.9-0.8-4-4.2-6.5-5.8c-0.4-0.3-1.9,0.3-2.2,0
		c-0.2-0.2,0.2-1.3,0-1.5c-0.7-0.5-2.5-0.2-3.6-0.7c-0.3-0.2-0.5-1.3-0.7-1.5c-4.4-2-5.5-5.5-2.2-10.9c0.8-1.3,0.5-4.1,1.5-7.3
		c-1.3-1.3-3.7-3-5.8-2.9c-1.8,0-2.6,1.6-4.4,1.5c-1-2.4-0.7-5.5-2.2-8c-1.5-2.6-3.7-2.6-5.8-4.4c-0.6-0.5-0.9-1.6-1.5-2.2
		c-0.7-0.7-4.4-3.3-5.1-4.4c-0.7-1.2-0.9-4.2-1.5-5.8c-0.6-2-1.5-3.3-1.5-5.1c0.1-3.8,3.1-2.8,1.5-8c0.8-2.1,3.3-2.5,5.1-3.6
		c-0.7-4.3,2-5.3,2.9-8c-0.4-4.6-4.6-4.6-2.9-9.5c4.3-1,7.9-2.7,11.6-4.4c0.7-5.4,4.5-7.5,3.6-12.4c-0.5-2.5-1.7-3.2-3.6-4.4
		c-1.4-0.9-1.3-2.7-2.9-4.4c-1.2-1.3-3.1,0-2.2-2.2c17,0,31.9-2,48-2.9c-0.7,3.7,0.7,5.5,2.2,8c0.3,0.4,1.4,1.2,1.5,1.5
		c0.2,0.6-0.3,1.6,0,2.2c1.1,2.3,3,4.7,3.6,7.3c0.8,3.3,0.3,7.7,0.7,11.6c1,10.9,2.7,23.5,3.6,33.4c0.3,2.9,0.8,6.2,0.7,8.7
		c-0.1,1.9-1.1,2.1-1.5,3.6c-0.2,0.9,0.7,0.4,0.7,0.7c0.1,0.4-0.8,1.8-0.7,2.9c0.3,2.5,3,5,2.9,8.7c0,1.4-0.7,1.7-1.5,3.6
		c-1.1,2.7-1,3.1-2.2,5.1c-0.7,1.1-1.9,3.9-3.6,4.4c1.2,2.8-0.5,5.2-0.7,8c-0.1,0.9,0.8,2.4,0.7,3.6
		C903.4,229.1,901,231.3,902.8,234.6z"/>
	<path class="st0" d="M889.7,36c1.1,3.2,0,4.3,0,8c0.2,1,1.8,0.6,2.9,0.7c-1,4.1,1.9,4.4,1.5,8c-0.6,0.6-1.6,0.8-2.9,0.7
		c0.1,4.5-4.1,6.8-2.2,10.9c1.8,0.7,2.1-0.8,2.9-1.5c2.1-1.8,2.8-5.2,5.8-7.3c4.7,1.7,0.4,5.4,0,8.7c-0.4,3.4-0.6,5.3,0.7,8
		c-2,0.4-2,2.8-2.9,4.4c-0.8,2.3,0.8,4.6,0.7,6.5c-0.1,2.6-1.9,5.5-2.2,8.7c-0.2,2,0.5,5.2,0.7,6.5c0.1,0.8-0.7,1.5-0.7,1.5
		c0.2,0.9,1,2.1,1.5,2.9c1.2,2.4,1.9,4.9,1.5,10.2c-16.5,0.4-31.2,2.8-48,2.9c-2.3,0.7-1-2.4-2.2-2.9c-2.6-0.1-4.2-1.1-6.5-1.5
		c-0.1-4.1-4.3-9.2-0.7-12.4c-0.3-2-2.2-2.1-2.9-3.6c-1.2-2.7-0.4-6.8-1.5-9.5c-0.9-2.1-2.1-4.1-3.6-5.1c-0.8-0.6-3.1-0.4-4.4-1.5
		c-2.3-1.8-3.4-5.3-5.8-7.3c-0.4-0.3-2.5-0.7-3.6-1.5c-0.8-0.5-1.6-1.9-2.2-2.2c-1.3-0.6-3.2,0-4.4-0.7c-1.5-0.9-1.3-3.3-3.6-2.9
		c1.8-5.1-1.3-11.8,2.2-16c-0.8-2.3-2-4.3-4.4-5.1c-1.1-1.6,0.7-1.4,1.5-2.9c0.4-0.9,0.2-3,0.7-3.6c0.3-0.3,1.8-0.5,2.2-0.7
		c1.2-0.8,3.2-2.7,5.1-3.6c0.5-5.6-0.7-9.5-0.7-14.5c1.6,0.1,2.3-0.6,2.2-2.2c6.3,4.5,14.9-4.2,21.1-5.8c1.4,2.1-1.6,4.8-1.5,8
		c6.7-1.5,12.8,1.6,15.3,6.5c4.3,0.5,7.4,0.7,11.6,1.5c1,0.2,2.9,0.5,3.6,0.7c2,0.6,3.8,2.5,5.8,2.9c3.2,0.7,7.1-0.3,10.9,0.7
		c0.3,1.4,2.1,1.3,1.5,3.6C886.9,34.5,888.1,35.5,889.7,36z"/>
	<path class="st0" d="M743.4,112.7c1.5-0.9,2-5.1,2-7.7c0-2.7-2.2-1.7-1.5-2.9c0.7-1.2-1.2-4.1-0.2-4.6c1-0.5,1-0.5,1-0.5
		s82.2-1.2,90.4-3.2c0,0-0.2,2.9,1.6,3.6c3.3-0.4,0.1,3.2,0,5.1c-0.1,3.3,2.4,6,2.9,9.5c2.5,0.2,3.5,1.8,6.5,1.5
		c0.9,1.7-0.1,1.4,0.7,3.6c0.4,1.1,3.7,1.8,4.4,3.6c0.1,0.3-1.1,1.1-0.7,1.5c0.4,0.4,1.7,0.4,2.2,0.7c0.5,0.4,0.9,1,1.5,1.5
		c3.2,2.6,3.7,4.6,0.7,9.5c-1.4,1,0.2,5.1-2.2,5.1c-1.3,2.2-2.3-2-2.9,0c1.8,2.8-5.1,3.1-8,3.6c0.4,1.9-2.2,4.5,0,5.8
		c0.7,1.7,2.9,1.9,2.2,5.1c0.8,2.7-2.7,1.2-2.2,3.6c0.5,2.2-0.7,2.6-0.7,4.4c-1.3-0.1-1.5,0.9-2.4,1.2c0,0-2.5,1.9-2.3,4.6
		c0.2,2.6-4.5-4.6-6.9-5.1c-0.6-0.1-6.3,1.3-8,1.5c-18.5,2-43.3,2.1-62.5,2.2c0.7-1.5-1.8-2.1-2.2-3.6c-0.2-0.9,0.8-3.1,0.7-4.4
		c-0.1-1.9-1.1-4.6-1.5-7.3c-0.1-0.5,0.8-0.8,0.7-1.5c0,0-0.7-1-0.7-1.5c-0.4-2.9,0.1-2.2-1.5-3.6c-1.1-1.1,0.2-1.2-0.7-2.2
		c0.4,0.4-1.8,0.5-1.5-0.7c0.7-9.2-5.4-11.6-5.1-20.4c-1.8-1.3-4.1-4.5-1.5-4.4c-1.3-0.6-2.8,0.2-2.9-2.2c0-1.3,0.6-1.5,0.7-0.7"/>
	<path class="st0" d="M817,13.5c-0.9-1-0.3-1.1,0-2.2c-2.9,0.9,0.2,1.5,0,3.6c-2.1,0.1-0.9,3.5-3.6,2.9c-0.5,5.5,0.7,11.8,0,15.3
		c-2.5,1.6-5.5,1.9-7.3,4.4c-0.4,0.5-0.1,2.5-0.7,3.6c-0.3,0.6-1.9,0.7-1.5,2.2c0.3,2.6,3.1,2.7,4.4,4.4c0.4,2.1-1.1,2.9-1.5,5.1
		c-0.4,3.1,0.9,6.2,0.7,8.7c-0.1,1.1-1.7,1.6-1.5,2.2c0.3,0.9,1.2,2.6,0,2.2c0.3,1.2,1-0.5,2.2,0c0.2,0.1-0.2,1.3,0,1.5
		c0.2,0.2,1.3-0.2,1.5,0c0.4,0.5,0.2,2.3,0,2.2c0.2,0.1,1-0.7,1.5-0.7c0.8,0,0.4,0.8,0,0.7c1.8,0.3,1.5-0.1,3.6,0
		c1,2.5-0.5,1.1,1.5,2.2c0.9,0.5,3.3,1.9,5.1,2.2c1,2.6,3.1,4.1,4.4,6.5c1.5,0.9,4.1,0.8,5.1,1.5c3.5,2.3,3.2,7,4.4,10.9
		c-28.6,2.1-58.5,3-89.4,2.9c-2.1-11.4,3.4-36.8-1.5-44.4c-0.1-0.2-1.4-0.6-1.5-0.7c-0.1-0.3,1.1-1.1,0.7-1.5c0,0-2.1,1.2-2.9,0.7
		c-0.6-0.3,0-4-2.2-3.6c0.6-1.1,1.4-0.9,2.9-2.9c0.2-0.3,1.4-1.3,1.5-1.5c0.2-0.4-0.3-1.9,0-2.2c0,0,1.9,1,2.2,0
		c0.2-0.7-1.2,0.2-1.5-0.7c-0.7-2.6,0.1-6.5-0.7-10.2c-0.5-2.3-2.5-3.4-2.9-7.3c-0.3-3.2-0.5-6.6-0.7-9.5c-0.1-1.1,0.7-2.9,0.7-2.9
		c-0.1-1.5-1.3-3.1-1.5-4.4c-0.6-3.8-0.2-7.3,0-10.2c-0.7-1-1.2,0.3-2.2-1.5c-0.4-5.1-2.9-9.9-2.2-17.5c0.3-3,0.2-6.2-1.5-9.5
		c9.1-2,26,0.5,32.7-1.5c1.4-1.1-0.1-4.5,0-8c1.2,0,2.4,0,3.6,0c0.8-0.7,0,3.2,0,2.9c0.1,0.9,0.8,0.3,0.7,0c0.7,2.1,1.7,4.4,2.2,6.5
		c0.2,0.9,0.5,4.4,0.7,3.6c-1,2.9-1.9-0.9-3.6,0.7c0.6,0.6,1.3,0.6,2.2,0.7c-0.1,0,0.3,1.2,0.7,0.7c1.6-2,2.2,0.2,4.4,0.7
		c0.4,0.1,1.3-0.8,2.2-0.7c-0.2,0,5.6,1.1,6.5,1.5c0.3,0.1,1.2-0.2,1.5,0c0.8,0.8,0,2,1.5,2.2c1.1,0.1,4.7-0.1,4.4,0
		c2.2-0.8,1.3-2.6,3.6-2.9c1.9-0.2,4.6,0,6.5,0.7c0.5,0.2,2.8,1.4,2.9,1.5c0.8,0.7-0.3,3.9,2.2,2.2c0.3,2.6,2.3,3.5,3.6,5.1
		c2.4-0.1,0.5-4.3,3.6-3.6c1.3,0.2,0.9,2.1,2.2,2.9c1.1,0.6,4.7-0.4,3.6,2.9c2.6,1.3,7.3-0.1,8.7,0.7c-0.1-1.4,2.4-3,4.4-4.4
		c2.7-0.5,1.6,2.8,3.6,2.9c3.3-0.8,6.2-1.1,9.5-0.7c1.6,0.2,3.8,3.2,6.5,1.5c-0.3,1.9-2.8,3.6-4.4,2.2c-1.6,0.4,0.9,1.1-0.7,2.2
		c-3.8,1.3-8.3,1.9-10.2,5.1c-0.9,0.6-1.6-1.1-2.2-0.7c-0.1,0,0.8,1.1,0.7,1.5c0,0.1-2.4,1.6-2.9,2.2c-1,1.1-1.7,3.2-3.6,2.9
		c0.8,2.7-1.7,2.9-2.9,4.4c-0.2,0.3-0.4,1.9-0.7,2.2c-0.9,0.7-1.9-0.3-2.2,0c-0.2,0.2,0.9,1,0.7,1.5c-0.1,0.1-2.9,1.5-3.6,2.2
		C820.4,10.8,819.6,13.3,817,13.5z"/>
	<path class="st0" d="M876.6,268c1.2,6.6-9.3,5.1-12.4,5.1c0.2-3.9,4.4-3.9,5.1-7.3c-1-1.1-1.2-3.7-2.2-4.4
		c-2-1.3-19.5,1.1-26.2,1.5c-18.8,1-43.7,1.7-59.6,2.2c-0.3-21.3-0.5-42.7-1.5-63.3c-1.1-1.3-3.1-1.7-4.4-2.9c0.2-4.4-4.2-4-4.4-8
		c1.1-1.3,1.8-3,3.6-3.6c0.7-5.2-3.3-3.8-5.8-4.4c0.2-1.8-2.1-1.2-2.9-2.2c-1-1.2-1.3-3.6-2.2-5.1c-1.7-2.9-5.1-5.2-5.1-8.7
		c13.7,0,30.2,0.2,45.1-0.7c2.9-0.2,8.3-0.4,13.1-0.7c4.6-0.3,9.4-2.2,12.4-1.5c3,0.7,4.3,4,6.5,5.1c-1.5,5.1-0.3,11.3,2.2,15.3
		c0.8,1.4,2.3,2.3,3.6,3.6c0.5,0.5,1.7,0.9,2.2,1.5c0.5,0.6,0.1,1.7,0.7,2.2c0.7,0.6,2.9,0.9,3.6,1.5c1.2,0.9,0.8,2.1,2.2,2.2
		c1,3.1,0.9,7.4,2.9,9.5c2.6,0.4,2.1-2.2,4.4-2.2c1.6,0.9,3.3,1.5,5.1,2.2c-0.4,6.4-6.1,11.8-2.2,16.7c1.2,1.5,2.1,2.5,3.6,3.6
		c1,0.7,3.7,0.6,3.6,2.9c2.6-0.9,4.3,1.6,5.8,2.9c0.5,0.4,1.9,1,2.2,1.5c0.4,0.6,0.2,2.3,0.7,3.6c0.4,0.9,2.5,2.1,1.5,4.4
		c0,0-1.4,0.9-1.5,0.7c0.7,2.8,3.5,4.1,3.6,6.5c1.8,1.3,3.5-0.8,5.1,1.5c-0.9,0.8,0.2,1.8,0,2.9c-0.2,1.1-1.1,1.5-1.5,2.9
		c-0.2,0.8,1.3,1.3,0,2.9c0.3-0.3-1.8-0.2-2.2,0c-1.5,0.8-2.3,3.8-2.9,0c-1.8,1.7-1,3.2-0.7,5.8c-2.5,0.4-0.9,1.2-1.5,2.2
		C876.3,266.5,875.4,267.8,876.6,268"/>
	<path class="st0" d="M867.9,286.2c-0.4,3.1,1.3,4.1,1.5,6.5c-0.6,2.4-2,3.8-4.4,4.4c0.6,1.3,2.3,2.1,0.7,3.6
		c-1.4,1.2-0.9-0.1-2.9,0c0.2,2.1-0.2,2.5-1.5,1.5c-0.6,3.4-0.6,7.2,0,8.7c-0.8,2.4-4.4,1.9-4.4,5.1c-1.4,1.2-0.9-0.1-2.9,0
		c0.4,2,1.1,3.8,1.5,5.8c-2.6-0.4-3.2,1.2-4.4,2.2c0.3,1.4,2.1-1.2,1.5,2.2c-0.8,1.4-1,3.3-2.9,3.6c-0.5,1.6,2.1,2.3-0.7,2.2
		c-0.7,1.3,1.4,1.8,1.5,2.2c0,0.4-1.4,1.7-1.5,1.5c0.9,3,2.5,1.6,2.9,3.6c0.1,0.8,0.7,2.1,0.7,2.2c0.1,1.7-1.2,1-1.5,2.2
		c-0.1,0.5,1.3,1.7,0.7,2.9c-9.9-0.4-19.8,1.7-30.5,1.5c-1.5,0-3.6-0.8-5.1-0.7c-1.5,0.1-2.8,1.2-4.4,1.5c-5.6,0.8-11.4-0.8-16.7,0
		c0-4.1,0-8.2,0-12.4c-0.8,0.1-1.3-0.2-1.5-0.7c-1.3-0.8-2.6,0-3.6,0c-0.1,0,0.1-1.4,0-1.5c-0.8-0.8-1,2.2-2.9,1.5
		c-2.5-15.2,0-32.4-1.5-48c-0.7-7.8-3.6-14.9-3.6-21.8c23.8-0.2,49.5-1.3,73.4-2.9c4.5-0.3,11.3-3.1,12.4,2.9
		c0.1,2.2-2.1,3.7-3.6,2.2c2,1.8-2.7,4-0.7,5.8c3.9,2.7,6.4-1,12.4,0c0.8,1.5-1.3,1.1-1.5,1.5c-0.3,0.6,0.6,1.7,0.7,1.5
		c-1,1.7-1.8,1.6-3.6,2.9c1.1,3.3-0.3,3.4-2.2,5.1L867.9,286.2z"/>
	<path class="st1" d="M731.9-33.8c0.4,2,0.5,3.4,0.7,5.1c0.3,2.4-0.2,4.3,0,8.7c0,0.6,0.9,1.1,0.7,2.2c-0.3,1.8,0.4,6.2,1.5,9.5
		c0.8,2.6,2.5,4.7,2.9,7.3c0.2,1.4-0.7,2.6-0.7,2.9c0,1.2,1.3,5.4,1.5,8c0.1,1.5-0.8,1.9-0.7,2.9c0,0.4,0.3,5.6,0.7,8
		c0.2,1.2,0.2,3,0.7,4.4c0.3,0.9,1.9,2,2.2,2.9c0.8,2.9,0.3,5.8,1.5,8.7c-41.6,1.9-84.3-1.5-124.3-3.6c2.3-23.7,2.5-49.4,5.8-72
		C658.4-35.4,696.8-36.2,731.9-33.8z"/>
	<path class="st1" d="M743,118.8c-3.9-4.6-9.8-5.4-12.5-7.9c-2.2,0.9-5.2,0.3-8,0.7c-2.1,0.4-3,0.6-4.4,1.5
		c-1.2-0.7-3.4-1.2-5.1-2.2c-1.4-0.9-2.5-2.6-3.6-2.9c-3.1-0.8-7,0.1-10.2,0c-26.9-1.2-60.4-2-85.8-4.4c0.5-24.5,3.7-46.2,5.1-69.8
		c39.5,3.1,80.7,4.6,123.6,4.4c0.4,4.5-3.8,4.4-4.4,8c1.2,1.2,1.6,3.3,2.9,4.4c0.9,1.2,3.5,0.9,3.6,2.9c0.4,13.4-0.9,28.5,0.7,40.7
		c0.3,3.6-2.2,0.4-2.9,2.2c-0.4,1.7,1.5,2.2,1.5,3.6c0,1.3-0.9,1.5,0,3.6c0.5,1.1,0.8,4.8,0,7.3c-0.4,1.1-2.5,3.4-0.8,5L743,118.8z"
		/>
	<path class="st2" d="M764.7,180c-39.7,2.1-81.1-0.3-120-1.5c-0.6-8.8,1.1-15.4,0.7-24c-11.2-1.7-24.5-1.2-35.6-2.9
		c1.5-15.5,1.7-32.3,3.6-47.3c21.4,2.8,50,2.4,73.4,4.4c6.8,0.6,14.6-1.2,20.4,0c3,0.6,5.6,3,8.7,4.4c0.7,0.3,1.3,0.7,1.5,1.5
		c2.1,0.7,2.2-1.8,3.6-2.2c1.9-0.5,6.5,1,8.7-0.7c2,0.2,1.1,2,2.9,2.9c1.5,0.7,3.8,0,5.1,0.7c1.4,0.8,2.5,2.8,3.6,3.6
		c1.4,1.1,2.5,2,4.4,2.2c-1.5,1.7,1.4,3.9,1.5,5.1c0.1,1.4-0.7,2.9,1.5,5.1c0.6,0.6,0.8,1.9,1.5,3.6c0.8,1.9,2.1,3.6,1.5,8
		c0,2.1,2.2,2.1,2.9,3.6c0.7,1.1-0.1,2.9,0,3.6c0.4,1.7,1.3,1.6,1.5,2.9c0.2,1.6-0.8,1.9-0.7,2.9c0,0.2,0.7,1.3,0.7,2.2
		c0,1.1,0.1,0.9,0,2.2c-0.3,3.6,1.3,7.2,2.9,10.2c0.2,0.4,0.4,1.6,0.7,2.2C760.5,174.3,764.5,176.6,764.7,180z"/>
	<path class="st1" d="M771.9,187.3c-0.4,0.6-1,2.2-1.5,3.6c-0.4,1.3,0.3,3.4-1.5,3.6c0.6,2.1,1.1-1.7,2.9-0.7
		c-0.1,1.6,0.6,2.3,2.2,2.2c-0.8,4.9,4,4.3,5.1,7.3c0.1,16.6,1.2,32.2,0.7,49.4c-46.2,2.1-93.5-0.3-138.9-1.5
		c1-24.2,1.9-48.5,3.6-72c23.4,2.3,49.4,0.9,74.2,2.9c7.7,0.6,16.6,0.3,24,0c8.6-0.4,16.5-2,21.8-0.7c2.7,0.6,2.4,0.8,4.4,2.9
		c2.1,2.1,3.3-2.5,3.6,0.7c1.2-0.3,1.4,0.6,1.5,1.5C770.4,185.5,772.5,186.2,771.9,187.3z"/>
	<path class="st1" d="M771.2,326.9c-2.3-0.6-1,2.4-2.9,2.2c-2.3,0.3-2.8-1-4.4-1.5c-3.3,0.1-5,3.7-7.3,0.7c-2.4,1.4-4.9,2.8-7.3,4.4
		c-2.3-0.9-4-2.3-5.8-3.6c-1.7-1.8-1.4,1.1-3.6,0.7c-0.2-1.7-2.3-1.6-2.9-2.9c-1.3,1.8-4.2,2.1-3.6,5.8c-2.3-0.5-0.9-1.9-0.7-3.6
		c-2.1-0.2-3.7,0.2-4.4,1.5c-1.7-1.2-2.8-3.1-5.1-3.6c-2.4-2-2.1,3.3-5.8,2.2c1.2-4.4-4.4-1.9-2.9-6.5c-3-0.1-6.1-0.3-7.3,1.5
		c-5.1-1.6-10-3.4-14.5-3.6c1-4.2-2.7-3.6-2.9-6.5c-1.5,3.2-2.4,1.5-4.4,1.5c-0.5,0-0.9,0.7-0.7,0.7c-3.1-0.5-4.3-4.5-7.3-5.1
		c0.2-15.1,0.8-29.7,1.5-44.4c-4.4-4.2-11.6-1.6-18.2-2.2c-11.1-0.9-28-2.2-39.8-2.7c0.7-4.7,0.7-7.1,1.3-10.4
		c51,2.8,104.3,3.3,158.5,2.9c-1.2,13.8,3.4,25.2,4.4,37.8c1,13.4-0.7,26.8,0,42.2C779.2,332.9,776,329.1,771.2,326.9z"/>
	<path class="st1" d="M432.4-64.3c10.2,0.9,23,4.1,33.4,5.8c17.3,2.9,35.6,6,53.8,8.7c21.9,3.2,45.2,5.9,67.6,8
		c7.5,0.7,15,1.7,22.5,2.2c4.5,0.3,9,0.1,13.1,0.7c-3,30.9-3.8,64.1-7.3,94.5c-30.6-2.6-61.9-5.2-92.3-9.5
		c-8.5-1.2-17.1-3.2-25.5-2.9c-2,2.1-1.9,6.3-2.2,10.2c-3,0.1-1.5-4.4-3.6-5.1c-4-0.8-2.3,4-5.8,3.6c-3-0.9-6.3-2.1-9.5-2.2
		c-1.6,0-2.3,1.3-3.6,1.5c-1.4,0.1-2.7-0.7-4.4-0.7c-2.3,0-3.1,0.8-5.1,1.5c-0.8-3.8,0-11-5.8-11.6c-1.6-1.6,0.6-2.5,0-5.1
		c-0.3-2.1-2.2-3.4-2.9-5.8c-1.1-3.4-0.1-8-2.2-10.9c-2.8-0.5-4,2.6-5.8,2.9c-2.5,0.5-2.1-0.1-5.1-1.5c-1-2.1,1.5-2.2,1.5-3.6
		c0-0.3-0.5-1.1-0.7-0.7c1-1.8,1.9-1,2.9-2.9c-1.6-7.2,2.7-11.5,4.4-17.5c0-2.4-4.1-0.7-5.1-2.2c1.9-2-0.4-0.3-1.5-1.5
		c-0.5-0.5-0.3-1.6-0.7-2.2c-1.1-1.5-1.1-0.4-0.7-2.2c0.1-0.5-1.2-1.7-1.5-2.2c-1-1.9-2.4-4.7-3.6-6.5c-0.8-1.2-1.9-1.7-2.9-2.9
		c-0.5-0.6-0.2-1.5-0.7-2.2c-0.6-0.8-1.6-1.5-1.5-2.9c0.1-1.2,0.9-1.6,0.7-2.9c-0.5-4.1-2.7-6.4-4.4-9.5
		C429.7-49,431.4-56.2,432.4-64.3z"/>
	<path class="st1" d="M615.6,56.4c-3.2,31-4.1,64.3-7.3,95.3c-43-3.1-84.6-7.5-124.3-13.8c3.6-21.9,6.7-46.4,10.2-70.5
		c0.5-3.6,1.6-7.2,2.2-10.9c0.6-4.5-0.3-9.4,2.9-12.4c4.6,0.4,15.4,1.8,23.3,2.9c25,3.4,53.1,6.7,79.3,8.7
		C606.4,56,611,56.6,615.6,56.4z"/>
	<path class="st1" d="M520.3,144.4c40.6,4.5,81.8,8.3,124.3,10.9c-2.1,31.6-2.9,64.5-5.1,96c-44.5-2.9-88.4-6.8-131.6-11.6
		c-0.1-3.7,0.2-7.8,0.7-11.6c3.3-26,7.2-55.3,10.9-81.4C519.6,145.5,519.5,144.5,520.3,144.4z"/>
	<path class="st1" d="M619.2,263.6c-1.1,8.9-0.9,18.5-1.5,27.6c-1.1,18-2.3,36-3.6,53.8c-0.6,8.7-1,17.3-2.9,25.4
		c-24.1-1.6-47.7-3.7-71.3-5.8c-2.5,0.9,1.9,4.7,0,5.1c-10.3-1.3-21.4-1.9-31.3-3.6c-2.1,2.5-1.1,8.1-2.9,10.9
		c-4.7-1.1-10.9-0.8-15.3-2.2c5.4-45,11.6-89.3,16.7-134.5c37.2,4,73.9,8.6,113.4,10.2L619.2,263.6z"/>
	<path class="st1" d="M379.3,329.1c0.2-1.7,2.5-1.4,2.2-3.6c0.7-0.7,3.4,0.9,4.4,0c0.1-0.1,1.2-3.4,1.5,0c1.1-0.6,0-3.9,0.7-4.4
		c0.4-0.3,2.2,0.7,2.2,0.7c-0.2-1-2.1-2.2-2.9-2.9c-0.9-0.8-1.3-1.8-2.9-2.2c1-3.2,0.1-4.9,0.7-7.3c0.2-1.8,3.3,1,3.6,0.7
		c0.4-0.3-1.5-1.5-1.5-1.5c-0.2-0.9,3.2-5.1,3.6-6.5c0.6-2.1-0.1-4.5,0.7-5.8c2.6-4.1,5.9-2.7,8.7-7.3c-0.1-2.1-1.5-2.8-3.6-4.4
		c-0.2-7.5-5.8-13.1-0.7-18.2c-0.2-8,0.2-16.5,0.7-21.8c3.3-1.1,3.1,0.6,6.5,0.7c1.2,0.5-0.2,3.6,2.2,2.9c1.9,1.9,2.3-1.5,3.6-2.9
		c1.1-1.1,1.5-2,2.2-5.8c0.7-3.6,1.5-9.8,2.2-13.8c10.1,1.7,20,4.2,30.5,5.8c1.2,0.2,2.5-0.2,3.6,0c17.3,2.8,39,6.1,58.9,8.7
		c-6.2,44.5-11.1,90.2-17.5,134.5c-13.6-1.4-26.1-3.9-40-5.1c-0.6-0.3-0.7-1.8,0-1.5c-1.2-0.5-6.7-0.6-5.1-3.6
		c-1.5,1.7-3.3-0.6-5.1-1.5c-1.5-0.8-4.5-1.6-5.1-2.2c-0.1-0.2,1.1-1.3,0.7-1.5c-0.7-0.4-0.6,0.7-0.7,0.7c-0.9,0.2-0.4-0.6-0.7-0.7
		c-3.5-1.3-7.1-3.3-10.2-5.1c-2.6-1.5-5.1-2.9-7.3-5.1c-0.4-0.4-1.6,0.3-1.5-0.7c0,0.2,1.2-0.4,0.7-0.7c0,0-2.9,1.4-3.6,0
		c0-0.1,1-1.4,0.7-1.5c-0.7-0.3-1.7,0.8-3.6,0c-1.4-0.5-2.3-2.1-3.6-2.9c-0.8-0.5-1.5-0.3-2.2-0.7c-2.3-1.4-6.6-3.6-9.5-5.8
		c-0.5-0.3-1.6,0.2-1.5-0.7c0,0.2,1.2-0.4,0.7-0.7c-0.7-0.4-0.6,0.7-0.7,0.7c-0.6,0.1-4.5-2.9-5.8-3.6
		C383.7,331.5,381.2,330.9,379.3,329.1z"/>
	<path class="st1" d="M406.9,247.6c-2.9,0.2-2-3.4-4.4-3.6c-2.2,0.1-4.1-1.7-5.8,0c-1.9,0.4-1.4,2.1-1.5,3.6c0,1.2,0.1,1.7,0,2.9
		c-0.2,2.6-0.5,5.3-0.7,8c-0.2,2.4,1.2,4.4,0.7,6.5c-0.4,1.8-3.3,2.1-2.2,4.4c-15.3-21.4-32.7-47.7-49.4-72c-2.6-3.8-6-7.9-8.7-12.4
		c-1.1-1.7-2-3.4-3.6-5.8c-0.3-0.5-1.2-1-1.5-1.5c-0.3-0.6-0.3-1.5-0.7-2.2c-0.7-1.1-2.1-1.8-2.9-2.9c-0.5-0.7-0.3-1.5-0.7-2.2
		c-1.4-2.2-4.4-5.5-6.5-8.7c-3.5-5.2-5.1-6-3.6-12.4c0.3-1.3,1.2-2.4,1.5-3.6c0.8-3.2,0.8-6.8,1.5-9.5c4.1-17.1,9.3-34.5,13.1-51.6
		C364.5,93,399,100,433.8,106.6c-5.4,28.7-10.1,59.3-16,88c-1.9,9.1-2.7,18.7-4.4,27.6c-0.8,4.4-2.1,8.7-2.9,13.1
		C409.8,239.5,409.9,244.1,406.9,247.6z"/>
	<path class="st1" d="M434.5,106.6c17.2,2.7,33.5,6.2,51.6,8c-0.8,8.6-2,16.9-3.6,24.7c12.7,0.9,23.8,3.4,36.4,4.4
		c-4.5,31.4-7.9,63.9-12.4,95.3c-32.2-3.4-62.5-8.8-93.1-13.8C420.6,185.7,427.8,146.4,434.5,106.6z"/>
	<path class="st2" d="M383.9,96.2c1.1-7.7,2.8-13.1,4.2-19.7c1.4-6.9,2.2-14,3.6-20.5c0.5-2.2,2.1-4,2.9-5.9c0.7-1.8,0.6-4.3,1-6.2
		c-0.7-1.5-3.5-1.1-3.4-3.4c-0.1-7.5,4.8-8.5,8.9-11.7c-1.3-2.3,0.6-3.3,1.5-4.8c0.8-1.4,2-4.5,2.9-5.8c2.1-3.1,4.7-4.1,4.6-6.8
		c-0.1-1.9-1.8-3.5-2.9-5.1c-1.1-1.5-1.6-1.7-2.5-3.9l0.7-1.5c-0.8-1.8,0.1-2.1-0.6-4.8c-0.2-0.8-0.3-3.3-0.2-4.1
		c0,0.1,0.7-0.7,0.9-1.3c0.8-2.2-0.1-5.6,0.3-7.6c1.4-7.6,4.5-15.1,5.6-23.8c0.6-5.4,2.5-8.4,2.9-12.4c0.1-1.2,0.6-3.5,0.7-3.6
		c0.2-0.4,1-4.5,1-4.4c0.7-3.8,0.4-3.8,1.7-6.3l13.3,2.9c-0.9,8.3-2.1,14.6-3.9,22.1c1.7,3.1,3.3,5.4,3.8,9.7c0.2,1.3-0.6,1.7-0.7,3
		c-0.1,1.5,0.8,2.2,1.5,3c0.5,0.7,0.3,1.7,0.7,2.3c1,1.2,2.1,1.7,2.9,3c1.3,1.9,2.6,4.8,3.6,6.8c0.3,0.5,1.6,1.8,1.5,2.3
		c-0.4,1.9-0.4,0.7,0.7,2.3c0.4,0.6,0.3,1.7,0.7,2.3c1,1.2,3.7,0.4,1.8,2.4c1,1.5,4.8-1.1,4.8,1.4c-1.6,6.2-5.7,9.2-4.1,16.6
		c-1,2-1.9,1.2-2.9,3c0.2-0.4-0.2,1.6-0.2,1.8c0,1.5-0.7,1.7,0.2,3.9c3,1.4,3.6,1.7,6.1,1.2c1.8-0.4,2-2.9,4.8-2.4
		c2,2.9,0.5,6.6,1.7,10.4c0.8,2.5,2.4,3.4,2.7,5.6c0.6,2.7-1.2,4,0.5,5.6c7.2,0.8,4.8,5.8,6.1,11.9c2-0.7,2.8-1.2,5.1-1.2
		c1.6,0,2.5,0.6,3.9,0.5c1.4-0.1,3.5-1.7,5.1-1.7c3.1,0.1,5.9,1,9,1.9c3.5,0.4,1.8-4,5.8-3.2c2.2,0.7,0.1,5.5,3.2,5.3l-8.8,59.1
		L383.9,96.2z"/>
	<path class="st2" d="M262.2,177.1c2.9,0.7,2.7,4.5,5.8,5.1c0.1-0.9,0.1-2.9-0.7-6.5c-0.5-2-2-4.9-2.2-8c1.5-0.4,2.2-0.1,3.6,0
		c0.7,0.1,1.1,0.9,2.2,0.7c0.6-0.1,3.2-0.7,4.4,1.5c2.2,0.5,2.6-0.7,4.4-0.7c1.1,1.1,1.3,3.1,2.9,3.6c1.2-4.2-5.3-3.4-3.6-5.8
		c-3.3,2.7-6.3-2.2-8.7,0c-2.4-0.7-2.3-4-5.8-3.6c-2.2,0.7-1.4,4.4-2.2,6.5c-1.4-1-3.1-2.8-4.4-4.4c-1.1-1.4-3.3-2.4-2.2-4.4
		c0.8,0.2,0.5,1.4,1.5,1.5c-0.3-3.3-0.8-6.3-2.2-9.5c-0.4-0.9-1-0.8-1.5-1.5c-0.4-0.5-1.9-2.7-2.2-3.6c-0.2-0.6,0.3-1.6,0-2.2
		c-1.1-2.2-3.3-4.4-3.6-6.5c-0.1-1,1.4-2.9,1.5-5.1c0.1-2.2-0.9-3.9-0.7-5.1c0.7-3.9,3.7-5,2.9-10.9c-0.3-2.7-1.6-6.1-2.9-8.7
		c-0.8-1.5-2.8-3.2-2.9-5.1c-0.4-4.9,2.6-9.4,7.3-10.9c-2.1-1.3,1.1-2.5,1.5-3.6c0.3-1-0.5-3.1,0-4.4c0.8-2,2.9-3,3.6-5.1
		c1.5-4.1-0.9-10,1.5-14.5c23.8,5.8,45.9,13.3,70.5,18.2c-1.9,12.3-5.2,24-8,35.6c-2.8,11.7-5.7,23.3-8.7,34.9
		c14.5,22.1,30.4,43.4,45.1,65.4c0.9,1.3,1.3,3,2.2,4.4c0.7,1.1,2.2,1.9,2.9,2.9c0.9,1.3,1.3,3,2.2,4.4c0.7,1.1,2.2,1.9,2.9,2.9
		c0.9,1.3,1.3,3.2,2.2,4.4c0.8,1.1,2.2,1.8,2.9,2.9c0.9,1.3,1.4,3.1,2.2,4.4c0.3,0.5,1.2,1,1.5,1.5c4.6,7.3,10.1,16.1,16,23.3
		c-2.3,4.5,4.1,9.1,2.2,13.1c0.7,2.2,3.5,2.3,3.6,5.1c-0.6,2.7-3.8,2.5-5.1,3.6c-1.2,1-2.8,2.7-3.6,4.4c-0.9,1.9-0.3,5.8-1.5,8
		c-0.2,0.4-1.1,0.9-1.5,1.5c-0.7,1-1.5,2.2-3.6,2.9c0.2,3.3,0.7,4-0.7,6.5c-0.1,2.5,3.2,1.6,3.6,3.6c0.8,3-1.5,2.8-1.5,5.1
		c-14.9-1.3-34.6-3.6-51.6-5.1c-0.7-1,0.7-3,0.7-2.9c-0.4-2.4-2-0.7-2.2-2.2c-0.2-2.1,1.1-5.4,0.7-8.7c-1.1-9-8.6-12.3-12.4-19.6
		c-2.1-0.8-3-0.8-5.1,0c0.4-3.3-0.4-5.4-0.7-8c-5.7-1.6-9-1.6-12.4-5.1c-0.9-1-0.8-2.5-1.5-3.6c-2-3.5-4.7-6-9.5-5.8
		c-2-3-6.3-3.2-10.2-3.6c-1.5-0.2-1.9-3.7-4.4-3.6c2.2-3.1,1.5-9.1,3.6-12.4c-0.1-2.8-2.9-2.9-4.4-4.4c0.3-1.4,1.6-1.8,1.5-3.6
		c-0.3-2.3-2.5-3.3-3.6-5.1c-0.3-0.5,0.3-1.6,0-2.2c-0.2-0.5-2.4-1.7-2.9-2.9c-1-2.3-0.5-4.9-1.5-7.3c-0.3-0.8-1.7-1.2-2.2-2.2
		c-0.5-1.1-0.3-2.2-0.7-2.9c-1.9-3.3-3.3-5.1-2.2-10.9c2.6,0.4,2.1-2.2,4.4-2.2c0.2-2.6-0.1-4.7-0.7-6.5c-0.3-1.6-3.9,0-4.4-1.5
		c-1.1-2.3-3.1-3.7-3.6-6.5c-0.3-1.4,1.3-2.1,1.5-3.6c0.1-1.5-1.8-4.5-0.7-5.1"/>
	<line class="st0" x1="260.7" y1="177.1" x2="261.5" y2="177.5"/>
	<path class="st0" d="M261.5,177.5c-0.1-1.1,0.1-2.3,0.7-3.3"/>
	<line class="st0" x1="261.5" y1="177.5" x2="262.2" y2="177.1"/>
	<path class="st1" d="M258.6,63.7c-1.8-4.7-0.3-11.1,2.2-13.8c-3.4-6.9,3.2-9.8,3.6-15.3c1.6,2.8,2.9-4.3,3.6,0
		c2.7-2.4-0.7-3.2,0.7-5.8c1.7-0.4,1.2-3.2,4.4-2.2c0.5-2.2-1.3-2.1-0.7-4.4c3.1-3.4,2.8-10.3,6.5-13.1c-0.7-7.9,6.4-13.9,7.3-22.5
		c1.1-0.8,1.8-0.8,2.9,0c-0.2-1-1.4-1.1-1.5-2.2c0-1.3,1.1-1.4,1.5-2.9c0.3-1.2-0.2-2.7,0-3.6c0.7-2.7,2.2-5,2.2-8
		c2.4-0.9,0.6,2.4,2.9,1.5c1.9-2.1,6-0.2,5.8,2.2c3.6-0.7,4.9,0.9,6.5,2.2c-0.5,0.9,0.7,1.2,0.7,1.5c1.4,6.6-3,8.9,2.2,12.4
		c0.9,0.6,2,0.2,2.9,0.7c0.6,0.4,0.4,1.3,1.5,1.5c1.4,0.2,3.7,0.3,5.1,0c1.5-0.3,2-1.5,3.6-1.5c4.2,0,7.5,1.6,10.2,4.4
		c2.8,1.4,5.7-0.3,8.7,0c1.4,0.2,2.9,1.4,4.4,1.5c5.1,0.1,10.2-1.5,15.3-1.5c1.7,0,4.1,0.6,5.8,0.7c1.8,0.1,3.5-0.2,5.1,0
		c5.2,0.6,10.3,2.6,15.3,3.6c5.3,1.1,10.3,2.2,16,2.9c0.9,2.2,1.9,3.6,2.9,5.1c1.1,1.6,2.9,2.5,2.9,4.4c0.1,2.6-3,5-5.1,8
		c-0.9,1.3-1.4,3-2.2,4.4c-0.9,1.5-3.5,2.1-2.2,4.4c-4.1,3.2-8.9,5.7-8.7,13.1c-0.1,2.3,2.9,1.4,3.6,2.9c-0.4,1.8-0.2,3.8-0.9,5.6
		c-0.8,1.9-2.4,3.6-2.9,5.8c-1.4,6.5-2.2,13.5-3.6,20.4c-1.3,6.6-3.3,13.2-4.4,19.6c-34.4-6.4-68.2-15.8-100.2-24.5
		c-1-0.3-1.8-0.6-2.2-0.7C273,67.8,265.3,67.3,258.6,63.7z"/>
	<path class="st0" d="M325.5-67.2c1.6-0.4,1,1.4,2.2,1.5C327.4-63.9,324.8-65.7,325.5-67.2z"/>
	<path class="st0" d="M323.3-63.6c1.8,0.3,0,2.8-1.5,2.2C322.1-62.4,323.1-62.5,323.3-63.6z"/>
	<path class="st1" d="M294.9-34.5c0.5-2.7-2-4.3,1.5-4.4c-0.5-0.7-1.7-0.8-1.5-2.2c2-0.1,1.5,1.2,2.9,0c1.5-2.3-2.9-2.3-0.7-2.9
		c-0.1-1.4-2.7,1.1-3.6-0.7c-0.2-3.3,4-2.3,5.8-3.6c-2.2-0.7-3-2.9-5.1-3.6c1.2-3.1-0.6-6.7,0-10.9c0.2-1.7,1.1-5.8,0-8.7
		c-0.3-0.9-1.3-1.2-1.5-2.2c-0.3-1.7-0.2-4.3,0-5.8c0-0.1,1.3,1,1.5,0.7c0,0-0.8-1.6-0.7-2.2c0.2-1.1,3.6-2.6,0.7-2.2
		c0.2-2,1.2,0.6,2.2,1.5c1.8,1.7,3.5,1.6,2.2,4.4c0.7-0.5,0.8-1.7,2.2-1.5c0.2,3,3.3,2.4,6.5,3.6c0.3,0.1,0.5,1.3,0.7,1.5
		c1,0.5,3.2,0.1,4.4,0.7c1,0.5,1.8,2.4,4.4,0.7c-1,3.2,4.2,2.3,2.2,4.4c1,0,1.9,0,2.9,0c0,1.5,0,2.9,0,4.4c-3-1.6-2.7,1.5-4.4,0
		c-1.9,0.2,1,1.3,0,2.9c-1,0.7-6.1,3.5-6.5,5.1c-0.4,1.2,2.8,1.9,0.7,2.9c1.4-1,4.2-0.7,5.8-1.5c-2.1,1.6-3.1,4.2-6.5,4.4
		c1.5,0.9,1,3.8,2.9,4.4c0.7-0.5,1.1-1.3,1.5-2.2c0,1.1,1.8,1.3,0.7,2.9c2.5-1.1,2.7-3.3,4.4-4.4c0.6-0.4,0.7,0.7,0.7,0.7
		c1.4-0.2,2.8-2.4,4.4-2.9c-0.6-1.4,0.7-3,0.7-4.4c0-0.7-0.6-2.6-0.7-2.2c0.3-0.9,1.1-0.1,1.5-0.7c0.4-0.7-0.4-2.2,0-2.9
		c0.6-1,2.6-1.3,2.9-2.9c1.3,0.7,2.8,1.6,1.5,2.9c2.7-1.4-1.6-3.5-2.2-6.5c-0.4-2.1,2-4.8-0.7-6.5c1.1-1.9,2.7-5.6,2.2-8.7
		c-0.2-1-1.2-0.1-1.5-0.7c-0.2-0.3,1.1-2.2,0-0.7c-1.2-0.5-0.5-1.7,0.7-1.5c0-1.4-1.7-0.1-1.5,0c-1.8-0.9,0.8-3-0.7-1.5
		c-1.2-3.4,1.9-0.8,2.9-0.7c2.2,0.2,6.1,0.7,8.7,1.5c2.6,0.7,5.1,2.3,7.3,2.9c1.1,0.3,2.5-0.2,3.6,0c2.3,0.5,4.3,2.5,5.8,2.9
		c0.4,0.1,1.8-0.9,2.9-0.7c1.7,0.2,3.4,1.7,5.1,2.2c1.1,0.3,2.5-0.3,3.6,0c1.6,0.4,3.5,1.9,5.1,2.2c4.4,0.8,8.2,1.9,12.4,2.9
		c4.4,1,8.7,1.2,13.1,2.2c0.9,0.2,2.2,1.3,2.9,1.5c5.3,1.2,10.6,1.1,15.3,2.9c-1.3,2.5-0.8,4.2-1.5,8c0-0.1-0.5,2.5-0.7,2.9
		c-0.1,0.2-1.4,0.6-1.5,0.7c-0.1,0.4,0.8,1.8,0.7,2.9c-0.4,3.9-2.3,7-2.9,12.4c-1.1,8.6-4.4,17.9-5.8,25.5c-0.4,2,0,3.7-0.7,5.8
		c-0.2,0.6-1.5,2.3-1.5,2.2c-0.1,0.8,1.2,1.4,1.5,2.2c0.7,2.7-0.8,4,0,5.8c-5.4,0.9-10.6-1.8-16-2.9c-3.2-0.7-7.3-0.4-10.2-1.5
		c-0.2-0.1-0.6-1.4-0.7-1.5c-0.4-0.1-1.3,0.8-2.2,0.7c-1.3-0.1-3.1-1.3-4.4-1.5c-2.4-0.3-2.8,0.4-5.1,0c-1.1-0.2-5.9-0.7-5.8-0.7
		c-0.5,0.1-0.7,1.5-0.7,1.5c-1.2,0.1-2.7-0.8-4.4-0.7c-1.5,0.1-8.1,1.8-9.5,1.5c-0.5-0.1-0.8-2.1-2.2-1.5c1.2-1.4-0.1-0.9,0-2.9
		c-0.9,0.2-0.7,1.4,0,1.5c-0.1,1.5-1.6,0-1.5,0c-0.6,0.1-1.2,1.4-1.5,1.5c-2.1,0.3-4.3-0.2-7.3,0c0.5-2-1.4-1.5-1.5-2.9
		c-4.2,0.1-6-2.3-9.5-2.2c-0.8,0-1.7,1.3-2.2,1.5c-1.1,0.3-1.1-0.7-1.5-0.7c-1.9-0.1-2.9,1.6-3.6,1.5c-1.6-0.2-4-3.2-6.5-3.6
		c-0.3-4.5,1-7.3,0-10.9c-0.1-0.4-0.2-1.9,0-1.5c-0.5-1.1-0.6,0.1-0.7,0c-3.1-1.6-1.3-4.8-5.8-2.9c1.4-1.5-0.3-1,0-0.7
		c-0.7-0.5-0.8-2.5-2.2-2.9c-0.5-0.2-1.8,0.3-2.2,0c-0.5-0.4-0.4-2.3-2.2-1.5"/>
	<path class="st0" d="M319.6-58.5c-0.4,1.9,0.3,2.6,2.2,2.2c0.9,3.1-2.4,1.9-2.9,3.6c-1-1.4-2-2.8-5.1-2.2c-0.2-2.8,3.9-2.2,2.2-2.9
		c1.1-1.6,2.1,0.8,2.9-1.5"/>
	<line class="st0" x1="318.9" y1="-59.2" x2="318.9" y2="-58.5"/>
	<path class="st0" d="M318.9-58.5c0.5-0.2,0.8-0.6,1.1-1.1"/>
	<line class="st0" x1="318.9" y1="-58.5" x2="319.6" y2="-58.5"/>
	<path class="st0" d="M430.3,591.1c2.3-0.1,2.5,1.9,2.9,3.6C432,593.8,430.4,593.3,430.3,591.1z"/>
	<line class="st0" x1="440.5" y1="601.3" x2="441.2" y2="601.3"/>
	<line class="st0" x1="439.8" y1="599.9" x2="439.8" y2="600.6"/>
	<path class="st0" d="M439.8,600.6c-0.6-0.4-1.2-0.8-2.2-0.7c-0.5-1.2,3.4-1.2,2.9,0"/>
	<line class="st0" x1="440.5" y1="599.9" x2="439.8" y2="599.9"/>
	<path class="st0" d="M439.8,599.9c0.7,0.3,1,0.9,1.5,1.5"/>
	<line class="st0" x1="441.2" y1="601.3" x2="441.2" y2="600.6"/>
	<path class="st0" d="M1243.1-14.1c1.4-0.3,1.1,3.3-0.7,2.2c0-0.5,0-1,0-1.5C1243-13.3,1243.1-13.7,1243.1-14.1z"/>
	<path class="st0" d="M1221.3,1.1c2.7,0.6,0.8,3.2-1.5,2.9C1220.2,3,1220.9,2.2,1221.3,1.1z"/>
	<path class="st0" d="M1169.5-5.6c0.1-1.2,2-0.3,2.9-0.7c1.7-0.8,0.9-3.5,3.6-2.9c-0.4-1.5-1.8-2.1-1.5-4.4c0.6-2.3,1.8-4,3.6-5.1
		c-1.9-2,0.8-2.7,0.7-4.4c-0.1-2.9-2.4-5.1-2.2-8c0,0.1,0.4-2.9,0.7-3.6c0.3-0.6,1.4-0.4,1.5-1.5c0.2-2.3-0.9-4.9-0.7-7.3
		c0.2-2.1,1.5-3.1,2.2-5.1c0.5-1.4,0.2-3.4,0.7-5.1c0.4-1.4,1-2.5,1.5-3.6c0.4-1,1.1-2.6,1.5-3.6c0.4-1,0.5-3.3,2.2-2.9
		c1.9-0.6,0.9,1.3,1.5,2.2c0.8,1.3,2.3,1.5,2.9,2.9c3.9-1.4,6.5-4.1,9.5-6.5c1.3,0.2,3.4,0,5.1,0.7c0.6,0.3,0.9,1.8,1.5,2.2
		c0.6,0.4,2.4,0.2,2.9,0.7c0.5,0.6,1.3,3.9,2.2,6.5c1.6,4.8,2.9,10.1,5.1,16c0.7,1.8,2.1,4.5,2.2,8c1.3,1.6,4.3,1.5,7.3,1.5
		c0,4.9,2.2,7.5,4.4,10.2c0.7-0.7,1.5-1.4,2.2-2.2c1.7,0.5,1.9,2.4,3.6,2.9c0,1.4-2,0.9-1.5,2.9c0.5,1.4,2.4,3.2,2.9,0.7
		c1.7,1.5-2,6.8-4.4,4.4c-1,2.4-2.3,4.5-4.4,5.8c-0.8-0.2-0.5-1.4-1.5-1.5c-2,0.2-0.8,3-0.7,2.9c-0.6,1.2-3.3,0.4-2.2,2.9
		c-1.3-0.7-3.6-0.3-4.4-1.5c-1.2,2-1.6,3.8-3.6,1.5c0,1.9,0,3.9,0,5.8c-4.5,1.3-2.2-4.1-4.4-5.1c-2.1-1.4-1,2.1-1.5,2.9
		c-0.1,0.2-1.4-0.2-1.5,0c-0.4,1.2,0.7,2.2,0.7,3.6c0,2.5-1.5,5-0.7,8c-1.5,1.4-6.2-0.4-5.1,3.6c-0.8,2.4-0.8-2-0.7-2.9
		c-2.2,1-4.1,4.5-5.1,0.7c-1.9,2.3,0.7,4.6-0.7,7.3c-1,0.5-0.4-2.1-0.7-2.2c-0.6-0.1-3.1,1.5-3.6,3.6c-0.3,1.2,0.2,3.2,0,4.4
		c-0.2,1.2-1.4,1.7-1.5,2.2c-0.3,1.3,1,1.6,0.7,2.9c-0.3,1.1-1.9,2-2.2,2.9c-0.8,2.5,0.3,5.1-0.7,5.8c-1.9,0.2-2.4-1-2.2-2.9
		c-2.5,0-3.2-1.7-4.4-2.9c0.6-4.3-2.4-8-3.6-11.6c-0.8-2.6-0.8-4.5-1.5-7.3c0-0.2-0.7,0-0.7-0.7c0-0.3,0.6-1,0.7-0.7
		c-0.3-0.9-1.8-1.4-2.2-2.2c-0.3-0.7-0.7-2.8-0.7-2.9C1173.8,6.3,1172.2,0,1169.5-5.6z"/>
	<path class="st0" d="M998.4,243.3c-1,0.3-2,0.6-2.9,1.1l2.5-0.4c3.1,0.5,5-0.5,6.5-0.7c7.9-1.2,19-2.1,23.3-4.4
		c-0.3,0.1-0.9-0.6,0-0.7c0,0,1.3,1.4,2.2,1.5c2.7,0.3,7.5-0.4,10.2-0.7c10.9-1.5,20.8-4.5,31.3-5.8c3.2-0.4,4.1-1.1,5.8-1.5
		c5.1-1,8.3-0.7,12.4-1.5c9-1.7,18.7-4.3,26.2-5.8c2.2-0.4,4.9-0.2,6.5-0.7c0.5-0.2,0.6-1.3,1.5-1.5c-0.1,0,0.8,0.8,1.5,0.7
		c1.3-0.1,2.3-1.1,3.6-1.5c2.2-0.6,3,0,4.4-1.5c-0.2,0.2-1-0.3-0.7-0.7c0.3-0.6,1.2,0.2,1.5-0.7c0.1-0.6-0.6-2.5-0.7-2.9
		c0.1,0.5-0.7,0.9-0.7,0.7c-0.2-1.4,1.4-1.7,0-2.9c-2.7-0.6-3.9,1.3-5.1,0c-0.1,3,2.5,2.2,2.9,2.9c-1.5,1.5-3.2-1-5.1-1.5
		c-1.1,0.6-1.1,2.3-2.9,2.2c-0.6-2.3-0.6-1.5,0.7-2.9c-2.2-1.8-3.9,1.4-5.1-1.5c0.7,0,0.9-0.6,1.5-0.7c-1.8,1.8,1.1,1.3,1.5,0.7
		c-1.1-0.6-2.3-1.1-2.2-2.9c-2,0-4.4,0.1-5.8,0c0.7,0-1.9-0.3-1.5,0c-0.1-0.1,0.1-1.4,0-1.5c-1.5-0.3-3.2,0.9-5.1-0.7
		c2.2-1,6.2-1.7,7.3,0c0.1-0.9-0.1-2.1,0.7-2.2c0.8,1.3,2.2,3,4.4,2.7l2.5,1.7c1.5,1.3,2.5,2.5,4.7,1.5c1.1-2.9-2.1-3.4-3.6-3.3
		l-2.1-1.2l-1.6-0.6c-1.4-2.3-4.5-2.8-5.8-5.1c1.5,1.5,1.4-0.3,2.9-0.7c0.7,2.8,2.7,2.2,3.6,2.9c-0.4-0.3-0.8,0.3-0.7,0.7
		c0.3,1.7,2.7-1.3,2.9,1.5c1.5-1.5-0.3-1.4-0.7-2.9c0.7,0,0.9-0.6,1.5-0.7l-0.7-1.5c0-0.9-0.9-1-0.7-2.2c-1,0-1.9,0-2.9,0
		c-0.3-2.5-2.2-2-3.6-2.9c-1.8-1.2-3.9-4.2-5.1-5.1c0.3,0.2-1.3,0.8,0-0.7c-3.1-0.3-0.9,2-2.2,2.2c-1.5-1.5,0.3-1.4,0.7-2.9
		c-1.3-0.4-3-0.4-3.6-1.5c1-0.9,2.7-0.9,3.6,0l0.8-0.4h0.6c0.2,1.7,2.5,1.4,2.2,3.6c2.5-1.7,1.7,0.9,2.9,0.7c2.3-0.4,1,1.6,4.4,3.6
		c-1-0.6,2.6,0.6,2.9,0.7c0.3-3-0.7-4.7-1.5-6.5c-4.4,1.1-4.7-6.5-10.3-3.5l-1.3,0.5c-0.2-1.7-2.5-0.9-2.2-3.2
		c-2.7,0.9-5.7,3.6-7.3,0c1.4-1.8,0.5-5.8,1.5-8c1.5,1.5,1.4-0.3,2.9-0.7c0-1.7-1.3-2.1-0.7-4.4c-2.2-1.9-3.6,1.2-4.4,0
		c0.8-0.2,1.1-0.8,1.5-1.5c-2.7-0.4-6.7-0.1-7.3-4.4c-0.3,1.1-0.9,0.1,0-0.7c-3.7,1.3,0-0.5-2.9-0.7c-1.4,1.2-1.2,4.2-2.9,5.1
		c0-1.9-1.9-0.9-2.9-1.5c0.3,0.2,1.1-0.5,0.7-0.7c-0.8-0.6-4.1-1.3-6.5-2.9c-1.3,1.9,0.1,4.7-0.7,7.3c-0.1,0.2-1.3,0.5-1.5,0.7
		c-0.5,0.8-0.4,3.3-0.7,3.6c-0.6,0.8-2.3,0.7-2.9,1.5c-1.4,1.8-0.8,5.1-4.4,3.6c0.1,2,1.4,2.5-0.7,1.5c0.4,4.3-0.8,6.9-2.9,8.7
		c-3.6,0.7-4.9-0.9-6.5-2.2c-0.2,1.7,0.1,2.8,0.7,3.6c-3.5,0-2.9,7.9-2.9,8c-0.1,0.2-1.4-0.2-1.5,0c-0.4,0.7,0.2,2.1,0,2.9
		c-0.3,1.2-1.2,2.3-1.5,2.9c0.6-1.6-1.4,1.3-1.5,1.5c-0.3,0.8-0.7,1.1-0.7,2.2c0,2.7,1.3,2.1,1.5,3.6c0,0-1.4-0.1-1.5,0
		c-0.6,0.9,0.6,2.6,1.5,3.6c-1.6-1.7-3.4,0.7-5.1,1.5c-0.6,0.3-1.6-0.3-2.2,0c-1.4,0.7-2,3.6-4.4,2.2c-1,3.4-3,3.1-4.4,3.6
		c-2,0.8-3.8,1-5.8,0c-0.2,2-2.3,2.1-2.9,3.6c-0.8-1.5-2.4-0.7-3.6-0.7c-2.1-0.1-0.2-0.9-0.7-1.5c0.2,0.2-4.3-0.9-4.4-3.6
		c-3.2-0.3-1.9,3.9-4.4,4.4l-1.5,1.5c-2.5,0.9-3.4,3.4-5.8,4.4c0,1,0.3,1.6,0.7,2.2c-4.3,0.5-2.8,5.7-5.1,6.5c0-0.7,0.6-0.9,0.7-1.5
		c-2.8,0.4-2.6,3.7-5.1,4.4L998.4,243.3l-0.4-0.7"/>
	<path class="st0" d="M1131.1,198.9c-0.1-2.9,1.1-7,2.9-8.7c0.2-1.5-0.1-2.3-1.5-2.2c0.6-1.8,2.5-2.3,3.6-3.6
		c3.9,1.1-2.4,6.9,0,10.2c-1.3,1.4-2.6,2.8-3.6,4.4"/>
	<path class="st1" d="M877.4,267.3c2.2,0.1,0.6-2.8,0.7-2.9c0.1-0.1,1.4,0.2,1.5,0c0.4-1.1-1.3-2.5,0.7-3.6
		c9.4-0.2,18.1-1.3,26.9-2.2c-0.4-1.1,0.8-3.8-0.7-3.6c3-0.2,7.8-0.9,12.4-1.5c9.3-1,19.2-1.5,29.1-2.2c5.3-0.4,10.6-1.8,16-2.2
		c6.6-0.5,13.7-0.6,20.4-1.5c3.6-0.5,7.4-1.8,10.9-2.2c10.5-1.1,22-2.1,31.3-5.1c1.6,0.7-1,3.3,0,5.8c-3,0.7-3.7,3.6-4.4,6.5
		c-4.3-1.9-7.1,2.1-8.7,5.1c-2-0.4-1.1-2.1-2.2-2.2c-2.1-0.2-2.4,4.6-4.4,2.9c-0.8,1.4-0.9,3.4-1.5,5.1c-3.5-1.1-6.3,4.2-8.7,6.5
		c-6.3-0.2-9.8,2.3-10.2,8c-1.5,0.4-2.1,1.8-4.4,1.5c0,2.2,0,4.4,0,6.5c-19.2,1.6-38.3,4.4-57.4,5.8c-13.6,1-26.8,3.5-40.7,4.4
		c-5.2,0.3-10.6,0.4-16,0.7c0.2-1.5,1.9-1.5,2.9-2.2c-1.2-3.4-1.2-5.3,0.1-8c0,0-1.4-1.1-1-1.5c1.9-1.7,2.3-0.9,3-2.2
		c0.9-1.5-0.6-2.5,0-3.6c0.1-0.2,1.9-0.5,2.2-0.7c0.6-0.6,0.6-2,1.5-2.9c1.5-1.6-0.6-1.3-0.7-2.9c-0.2-2.3,2.8-2.9,2.2-5.1"/>
	<path class="st1" d="M1134.8,262.9c0.1,1.3-0.9,1.5-0.7,2.9c-1.8,0.3-1.6-1.3-3.6-0.7c-1.7,2.2-4.2,3.5-8,3.6
		c-1.3,1.1-1.7,3.1-2.9,4.4c-0.4-0.8-0.5-2.4-2.9-2.9c3.2,6.7-6.1,8-5.8,16c-1-0.3-1.1-1.3-2.2-1.5c0,2.4,1.2,3.6,0.7,6.5
		c-3.6,1-7.8,1.4-10.9,2.9c-1.2-0.5-1.6-2-2.9-2.9c-0.9-0.6-2.7-0.8-3.6-1.5c-1-0.7-1.9-2.2-2.9-2.9c-0.6-0.4-1.6-0.3-2.2-0.7
		c-0.4-0.3-0.4-1.2-0.7-1.5c-0.7-0.5-1.5-0.2-2.2-0.7c-1-0.8-2.8-2.5-4.4-3.6c-2.3-1.6-5.2-4.1-6.5-4.4c-1.4-0.3-6.4,1-9.5,1.5
		c-3.6,0.6-7.3,1.6-11.6,2.2c-0.2-2.7-1.7-4.1-2.9-5.8c-7.5-1.8-13.4-0.1-20.4,0.7c-3.1,0.4-6.2,0-8.7,0.7c-1.1,0.3-2.7,1.6-3.6,2.2
		c-0.8,0.5-1.6,0.2-2.2,0.7c-0.9,0.9-1.6,1.3-3.6,2.2c-1.1,0.4-0.8,0.1-1.5,0.7c-2.9,2.8-12.7,2.6-18.9,3.6
		c-2.3,0.4-4.8,0.9-7.3,1.5c0-1.9,0-3.9,0-5.8c2.3,0.3,2.8-1,4.4-1.5c-0.5-2.2,1.3-2.1,0.7-4.4c1.9-2.9,6-2.3,9.5-4.4
		c1.5-0.9,2.6-2.9,4.4-4.4c0.9-0.7,1.3-1.6,3.6-1.5c1.4-2.7,3.3-4.9,5.1-7.3c1.4,0,0.9,2,2.9,1.5c2.5-1.4,3.9-6.9,8-4.4
		c2.6-1.7,2-6.7,5.8-7.3c0-2.4,1.2-3.6,0.7-6.5c8.3,0,14.8-0.8,23.3-2.2c9.5-1.5,21.2-3.6,32.7-5.8c5.2-1,12.6-3,19.6-4.4
		c4.5-0.9,9.1-1.3,13.1-2.2c3.9-0.9,6.2-2,10.9-2.9c5.8-1.1,7.6-0.3,10.2,5.1c-1-0.3-1.1-1.3-2.2-1.5c0,1.2,0.5,1.9,1.5,2.2
		c-1.8,1.9-3.3-3-5.8-0.7c0.2,1.7,3.4,0.4,2.9,2.9c-1.9,0.5-2.2,0.2-4.4,1.5c-0.3,0.9-0.8,2.1-2.2,3.6c-0.8-0.6-1.9-1-3.6-0.7
		c-0.8-1.7-0.5-4.4-1.5-5.8c-2.8,3.5,1.7,6.1,1.5,9.5c2.2,0.3,3.2-0.3,4.4-1.5c1.5-1.5,0.7,0.7,2.9,0c1.6-0.5,2.7-1.7,5.1-2.2
		c0.6,1.9,1.1,3.3-0.7,4.4c2.2,1,0,1.8,1.5,3.6c3.4-0.4,1.3-5.3,2.2-6.5c1,0.1,2.1,0.1,2.2-0.7c2,0.9,2.2,3.6,2.2,6.5
		c-0.7,0-1.5,0-2.2,0c-0.5,1-1.5,5-2.9,7.3c-2.4-0.2-6.3,1-5.8-2.2c-0.9,0.1-0.6,1.3-0.7,2.2c-2.7-0.1-1.4-2.4-2.2-2.9
		c-2.5-0.4-0.8,3.5-2.9,3.6c-3.1,0.5-5.5-2.1-7.3-0.7c2.3,2.8,7.8,2.4,11.6,3.6c0.5,2-1.5,1.4-2.2,2.2c-0.9,2.4,2.4,0.6,1.5,2.9
		c-1.3,0.7-2.3,1.6-2.9,2.9c-2-1-3.9-2-5.8-2.9c-1.2,1.3,1.5,3.8,3.6,4.4c2.8,0.7,6-2.3,8-0.7c-1.1-2.2,0.7-2.3,0.7-0.7"/>
	<line class="st0" x1="1134.1" y1="261.5" x2="1134.2" y2="262.3"/>
	<path class="st0" d="M1134.2,262.3c0.3-0.1,0.9-0.4,1.7-0.5"/>
	<line class="st0" x1="1134.2" y1="262.3" x2="1134.8" y2="262.9"/>
	<path class="st0" d="M1062.1,336.4c-0.6-0.3-1.3-0.6-1.5-1.5c-1.5,2.1,0.9,6.4,2.9,7.3c-0.3,1.1-0.7-0.2-1.5,0
		c-0.7,0.2-1.1,2.2-1.5,0.7c-1.9,0.2,1,1.3,0,2.9c-3,0.8-2.8-1.5-5.1-1.5c1.2-5.3-5.6-7-2.2-10.2c-4.3,3.3-0.6-0.8-4.4,0.7
		c-1.1-1.2-0.3-2.4-0.7-3.6c-0.5-1.5-1.6-1.7-2.2-2.9c-0.3-0.6,0.6-1.7,0.7-1.5c-0.6-0.9-2.5-1.8-3.6-2.9c-0.8-0.8-1.9-0.1-2.9-0.7
		c-1.1-0.7-0.6-3.5-2.9-2.2c1.4-1.4-1.3-2.3-1.5-2.9c-0.1-0.5,1-0.9,0.7-1.5c-0.3-0.5-1,0.7-0.7,0.7c-0.3-0.1-2.4-4.3-2.2-2.2
		c-0.1-0.6,0.9-1.3,1.5-1.5c-0.3-1-1.3-0.1-1.5,0.7c-0.8-1.4-3.1-0.5-4.4-1.5c-0.4-0.3-0.4-1.8-0.7-2.2c-0.5-0.6-2.5-2.7-3.6-3.6
		c-0.4-0.4-1.7,0.3-2.2,0c-2.3-1.3-2.8-4.3-5.1-5.1c0.8-2.3,0.2,0-1.5-2.2c-0.1-0.1-1.5-1.6-1.5-1.5c-0.2-1.2,0.9-1.3,0.7-2.2
		c-0.1-0.3-0.8,0.4-0.7,0.7c-0.1-1.7-1-1.9,0.7-2.2c-0.3-1-1.3-0.1-1.5,0.7c-1.5-2.4-7.4-0.4-7.3-4.4c-1.4,1.5-3.1,0-3.6-1.5
		c0.9-2.3,1.6-4.7,4.4-5.1c-1.9-1.9,2.2-1.5,2.2-3.6c4.4-0.8,5.7-0.3,5.8-2.9c0.8-0.6,1.3,0.7,1.5,0.7c1,0,0.2-1.2,0.7-1.5
		c0.1,0,3,0.9,2.9-1.5c3.9,0.2,8.3-0.9,13.1-1.5c5.2-0.6,11.8-2.1,13.1,1.5c0.7,0,0.6-0.9,0.7-1.5c2.5,0.9,3.1,3.7,3.6,6.5
		c1.4-0.4,3.3-1.4,5.1-1.5c0.7,0,1.5,0.7,1.5,0.7c0.8-0.1,1.7-1.3,2.2-1.5c2.2-0.6,5.5-0.3,8-0.7c1.6-0.3,3.7-0.7,5.1-0.7
		c1,0.3,0.1,1.3-0.7,1.5c0.4,1.5,1.4-1.1,2.9-0.7c0,0,0.6,2.1,0.7,2.2c0.4,0.3,1.7-0.2,2.2,0c0.3,0.1,1,1.2,1.5,1.5
		c1,0.6,1.9,0.7,0.7,2.2c2.5-0.8,1.2-0.7,4.4,1.5c0.7,0.5,2.7,1.3,2.9,1.5c0.5,0.5,0.2,1.8,0.7,2.2c1,0.7,3.5-0.2,1.5,2.2
		c0.6-0.6,1.6-0.8,2.9-0.7c0.1,2.3,5,2.1,2.9,4.4c0.6-0.4,1.2-0.8,2.2-0.7c-0.6,2.5-2.9,2.5-4.4,4.4c-0.5,0.6-0.2,0.9-0.7,1.5
		c-0.9,0.9-1.4,4.1-2.2,5.8c-0.2,0.3-1-0.4-0.7-0.7c-0.8,0.1-0.4,0.7,0,0.7c-0.9,0.2-2.9,2.8-2.9,1.5c-1,0.2,1.3,5.5-2.2,5.1
		c0.6,1.9,3.2-1.4,4.4,0.7c-0.2,1.7-1.9,1.7-2.9,0.7c0.4,1.4,1.4,2.7,0,2.2c-0.9-0.3,0.1,1.4,0,2.2c-1.9,0-4.8,0.4-2.9-1.5
		c-3.2,1,0.8,3-1.5,2.2c-0.7-0.3,0.5,2.4,0,2.9c-0.6,1.1-2.3,1.1-2.2,2.9c-2.1,0.1-1.4-2.5-4.4-1.5c0.5,1.9,1.4,3.5,2.2,5.1
		c-1.9-0.8-2.5,3.1-3.6,0.7c-0.8,0.1-0.4,0.7,0,0.7c-0.5,2.7-3-0.8-2.9,2.9c-3.7,1.4-6.9-1.1-8,2.9"/>
	<path class="st0" d="M992.6,388.5c-1.8-0.3-3.9,1.7-7.6,0.9c-0.9-2.6-2.6-5.8-4.4-8.7c-0.5-0.8-1.2-1.3-1.5-2.2c-0.5-2,0.4-5.5,0-8
		c-0.4-2-2.1-3.7-2.2-5.1c-0.4-4.1,0.5-8.8,2.9-11.6c-1.3-1.8-1.2-4.6-2.2-6.5c-0.4-0.8-1.7-0.8-2.2-1.5c-0.5-0.7-2.3-4.9-2.9-6.5
		c-2.3-6.1-3.9-14.7-5.8-21.8c-2.8-10.2-5.8-19.3-8.1-28c15.6-2.3,32-2.9,46.7-6.2c-1.1,2.1-2,4.3-3.6,5.8c0.4,4.2,6,3.2,7.3,6.5
		c2.2-0.5,1.4-0.5,3.6,0c2.1,3.3,4.9,9.1,8,11.6c0.6,0.5,1.6,0.2,2.2,0.7c1.2,1-1.1,1.5,2.2,0.7c-0.3,1.4,2.5,1.4,2.2,2.9
		c0,0-1.2,0.2-0.7,0.7c0,0,1-0.5,1.5,0c1.5,1.7,2.7,2,5.8,3.6c1.6,5.4,6.1,8,10.9,10.2c0.3,3.3,3,4.3,2.9,8c0.6,1.8,3,1.9,4.4,2.9
		c-1.4,1.3,0.4,1.2,0,0.7c2.4,2.7,2.5,5,3.6,8.7c2.4-0.4,3.4,0.5,5.1,0.7c-0.4,2.8-2.5,4.7-4.4,2.2c-0.4,2.4,0.5,3.4,0.7,5.1
		c-3.8-1.3-2.5,7.5-1.5,8.7c-1.6,0.4-1.8,1.2-2.9,1.5c-0.2,0.1-1.5-1.1-2.2,0c0.6,1.6,3.8,0.6,4.4,2.2c-0.1,2.7-1.1,1.8-2.9,1.5
		c1.1,5.8-0.6,7.4,1.5,11.6c-3.3-0.1-6.8,0-8-2.2c-1.1,1.4-2.4,2.5-3.6,3.6c1.1,1.9,2.4,6.3,0.7,8.7c-2.8,0.1-1.5-3.8-3.6-4.4
		C1023.5,386.5,1008.2,388.1,992.6,388.5z"/>
	<path class="st1" d="M932.6,398.9c-1-0.1-2.2,3-2.9,0.7c-2-0.5,0.5,3.4-1.5,2.9c-2.4-0.5-1.7-4.1-5.1-3.6c0.5-3.9-0.4-6.4-2.9-7.3
		c-1.5,1.9-1.5,5.2-1.5,8.7c-1.7,0-3.4,0-5.1,0c-1.5-5.9-1.4-12.4-2.2-18.9c-1-8.1-3.9-15.3-2.9-25.5c1.9-18.1,0.5-42.2,1.5-62.5
		c1.2-2.7-3.4-3.3-1.5-4.4c17.1-0.6,32.7-2.6,48.7-4.4c2.8,11.5,7.5,24.1,10.9,36.4c1.2,4.2,1.5,8.6,2.9,12.4
		c0.7,1.9,1.8,4.8,2.9,6.5c0.7,1.1,2.4,1.7,2.9,2.9c0.7,1.5-0.9,4.4,1.5,5.1c-1.4,2.4-1.6,3.9-2.2,7.3c-0.7,4.3-0.3,6.5,2.2,10.2
		c-0.1,2.3,0.5,5.3-0.7,6.5c0.1,3.1,2.8,3.5,2.9,6.5c-11.3,0.6-24.9,3.1-37.1,4.4c-5.8,0.6-14-0.9-16,3.6c0.5,3.4,3.3,4.4,5.1,6.5
		C931.6,395.3,933,395.7,932.6,398.9z"/>
	<path class="st1" d="M853.6,320.7c0.1-0.8-0.2-1.3-0.7-1.5c0.7-1.3,2.5-1.3,3.6-2.2c-2.8-5.8,7.7-8.2,5.1-13.8
		c1-1.6,2.1-1.6,2.2-2.9c0.2-3.3,0.7-2,2.2-4.4c0.3-0.5,1-1.1,0.7-2.2c13-1.6,27.2-1.9,40-3.6c-0.3,1.6,1,1.4,2.2,1.5
		c-0.9,18.3-0.6,36.8-1.5,55.3c-0.9,18.4,3.4,35.6,5.1,51.8v1.3c-1.6,0.4,0.9,1.1-0.7,2.2c-1.9-0.7-3.5-2.1-4.4,0
		c-2.1-0.5-2.4-1.4-4.4-1.5c-3-0.1-6.1,3.1-9.5,2.9c-1.4,0.8-1.5,2.8-2.9,3.6c-3.2,0.3-2.5-3.3-3.6-5.1c-0.6-2.1-2.7-2.7-3.6-4.4
		c-0.6-4,1.4-5.4,1.5-8.7c-11.8-1.6-24.8,1.9-37.8,1.5c-1.9-2.8-1.7-6.7,1.5-5.8c-0.9-1-0.6-3.3-0.7-3.6c-0.4-1.2,0.2-2.5,0.7-3.6
		c0,0.1,1.2-0.3,0.7-0.7c-2.1-1.7,3.6-2.9,1.5-5.8c2-1.4,3.7-3.1,5.1-5.1c-0.4-2.1,2.3-4.1-1.5-3.6c1.5-1,2.5-2.3,4.4-2.9
		c-0.3-2.1-2.5-2.4-3.6-3.6c1.6-1.5-0.6-2.4,0.7-3.6c-0.2-1-1.8-0.6-2.9-0.7c0.7-0.7,1.4-1.5,2.2-2.2c-0.1-0.9-1.3-0.6-2.2-0.7
		c-0.3-2.3,0.9-3,2.2-3.6c-0.2-1.5-2.7-0.7-2.9-2.2c-1.1-3,2.6-2.8,1.5-6.5c-0.1-0.3-1.4-1.3-1.5-1.5c-0.3-1.4,0.9-2.4,0.7-2.9
		c-0.7-2-2.7-1.8-2.2-3.6c1.1-0.9,1-2.9,2.9-2.9c-0.1-0.9-1.3-0.6-2.2-0.7c0.1-1.4,2.4-0.5,2.2-2.2"/>
	<path class="st0" d="M1077.3,425.1c1,0.3,1.1,1.3,2.2,1.5C1079.2,428.3,1076.7,426.6,1077.3,425.1z"/>
	<path class="st0" d="M1085,509.4c1.1-0.3,2.7-0.4,2.9-1.8"/>
	<line class="st0" x1="1087.9" y1="507.6" x2="1087.5" y2="508"/>
	<line class="st0" x1="1038.8" y1="447.6" x2="1038.1" y2="447.2"/>
	<line class="st0" x1="1038.1" y1="449.4" x2="1038.8" y2="449.1"/>
	<line class="st0" x1="1037.3" y1="449.1" x2="1038.1" y2="449.4"/>
	<line class="st0" x1="1038.1" y1="447.2" x2="1037.3" y2="447.6"/>
	<path class="st1" d="M1037.7,448.3c-0.6-6.2,2.4-14-0.4-21.1c-2.6-1.3-3.2-4.6-5.1-6.5c-1.8-0.9-3.5,1.6-3.6,0
		c-3.9-1.5-5.1-5.6-9.5-6.5c1.3-3.7-2.3-3.4-4.4-5.1c-1.2-1-1.1-2.8-2.2-3.6c-0.5-0.4-5.9-2.7-7.3-2.9c-1.6-0.3-4.4-0.4-5.8,0
		c-1,0.3-1.1,1-2.2,2.2c0.1-0.1-2.2,2-2.2,1.5c0,0.4,1.7,1.2,2.2,0.7c-1.1,1.1-2.3,0.8-3.6,1.5c-2.2,1.1-3.3,3-4.4,4.4
		c-1.1,0.9-1.6-1.4-1.5-1.5c-1.4,0.3-1.5,2.2-2.9,2.9c-1.9,1-4-0.5-5.1,1.5c-1.1-3-2.1-6.1-5.8-6.5c0.7-1,1.2,0.3,2.2-1.5
		c-1.7-1.4-3.8-2.5-6.5-2.9c0.9-1.3,2.3-2.1,2.9-3.6c-0.1-2.3-2.3,1.3-2.9,1.5c-1.3,0.3-3.7-2.1-3.6,1.5c-2.5-0.2-3.5-1.8-6.5-1.5
		c3.8-3.5-3.7-3.8-5.8-4.4c-1.9,2.9-6.5,3.2-10.2,4.4c0-1.2-1.2-2.4-1.5-5.1c-2.2-0.5-0.7,2.4-1.5,2.9c-0.3,0.1-0.9-1.4-1.5-1.5
		c-1.6-0.1-0.6,2.2-2.2,4.4h-1.5c-0.5-1.2-3.9-3.3-1.5-5.1c-0.9-2.7-4.9-2.3-5.1-5.8c1-4.5,5.7-2.5,8.7-2.9
		c13.3-2,29.8-3.6,43.6-5.1c1,2,2,3.9,2.9,5.8c18.9,0,38.2-3.5,55.3-2.9c-0.1,1.8,0.4,3,1.5,3.6c6.3,0.4,0.6-8.7,2.9-10.9
		c2.1-1,5.8,1.7,10.2,0.7c0.8,2.2-0.4,5.4,2.9,6.5c0,4.6,2.6,8.4,4.4,12.4c3.9,8.6,9.1,17.6,16,24c-0.3,1.1-0.9-0.3-2.2,0
		c-0.6,3.4,1.3,6.5,2.9,9.5c1.4,2.6,3.4,5.5,5.1,8c1.3,1.9,2,3.3,3.6,5.1c2.3,2.4,3.4,8.2,6.5,10.9c0.1,1,0.1,2.1-0.7,2.2
		c3.7,1.6,4.6,2.8,6.5,8.7c1.3,4.1,2.8,17.5,1.5,23.3c-0.4,1.8-2,3.4-2.2,5.1c-0.2,1.7,0.9,3.5,0.7,5.1c-0.2,1.8-2,2.6-1.5,4.4
		c-4.4-0.7-5.3,5-9.5,2.2l-0.4-0.4l-0.4,0.4c-0.1-2.3-1.6-3.2-4.4-2.9c-1.8-2.4-3.8-4.7-5.8-7.3c-1.5-2-1.6-3.5-4.4-4.4
		c-2.1-0.6-4,0.5-5.8-0.7c-1.5-2.6-3.2-5-3.6-8.7c-0.2-1.5-1.9-1.5-2.9-2.2c0.2-2.7,1.7-4.1,2.9-5.8c-3.5-0.6-3,2.8-4.4,4.4
		c-2.4-1-2.9-6.9-1.5-9.5c-0.9-1.3-3,1.9-5.1,0c-2,0.9,2.3,1.5,1.5,3.6c-5.2-1.1-6.9-5.7-8.7-10.2c-0.4-2.3-3.4-1.9-3.6-4.4
		c2.5,0.2,1.6-3.2,2.2-4.4c0.6-1.3,2.8-2,2.2-3.6c-0.9-4-3.5-1.5-6.9-3.6l-0.4,0.7c1.4,0.3,0.1,3.3,2.9,2.2
		c-0.6,0.6-0.8,1.6-0.7,2.9c-2.7,0.8-2.1-1.8-4.4-1.5c-0.6-2.1,1-1.9,0.7-3.6L1037.7,448.3z"/>
	<path class="st0" d="M852.6,348.7c1.8,0.1-0.2,1.6,0,2.9c0.1,1,1.5,2.1,1.5,2.2c0,0.9-1.7,1.3-1.5,2.2c0.2,0.8,1.3,0.9,1.5,1.5
		c0.2,0.6-0.3,1.6,0,2.2c0.7,1.4,1.9,2.3,2.9,3.6c-0.5,1.9-3.3,1.5-3.6,3.6c0.5,0.7,1.3,1.1,2.2,1.5c-0.2,0.8-4.1,2.1-0.7,2.2
		c-1.4,2-3.1,3.7-5.1,5.1c1.3,2.8-3,6-2.9,7.3c0.1,1.2,0.8,1.6,0.7,2.9c0,0.1-1.4-0.1-1.5,0c-0.7,0.7,1.3,2,0.7,2.9
		c-0.6,0.4-1.2,0.8-2.2,0.7c0.8,2.4,2.2,5.8,0,7.3c13.1-1.2,27-1.6,40-2.9c-1,1.9-1,4.8-2.2,6.5c1.4,4.8,4.3,6.9,6.5,11.6
		c-0.9,2.5-2.2-0.4-3.6-0.7c-1.1-0.3-2.6,0.4-3.6,0c-0.9-0.3-2.6-3.5-5.1-2.9c-2.7,1.5-4.5,3.7-5.1,7.3c3.5,3.8,12.1-0.4,13.8-0.7
		c2.6,1.2-1.8,1.5-1.5,2.9c1,1.7,3.2,2.1,5.1,2.9c2.1-0.6,0.5-4.9,3.6-4.4c-0.8,3,1.5,2.8,1.5,5.1c-3.4-0.3-4.9,1.2-3.6,3.6
		c-3.5-0.3-0.6,1.3-2.9,2.2c-0.8,2.7,3,1.9,4.4,2.9c0.4,0.3,0.2,1.9,0.7,2.2c0.3,0.2,1.3-1.1,2.2-0.7c0.4,0.2,1.6,2.5,4.4,1.5
		c1.4,1.7,3,3.1,1.5,5.8c-1.8-0.4-2.7-1.7-3.6-2.9c-0.7,0.5-0.8,1.7-2.2,1.5c0.1-1.3-0.9-1.5-0.7-2.9c-2.3,1.1-3.3-1-4.4-1.5
		c-0.5-0.3-1.7,0.3-2.2,0c-0.4-0.3-0.3-1.8-0.7-2.2c-1.2-1-2.2,0.2-4.4-0.7c-1.4-0.6-2.7-2.7-5.1-2.2c-0.8,3.5,2.8,2.6,3.6,4.4
		c1.2,1.7-1.4,2-1.5,2.2c-0.3,1.1,2.4,3.8-0.7,4.4c-2.4,0.7-1.1-2.3-1.5-3.6c-0.8-0.5-3,0.6-3.6,0c-0.7-0.7,0.5-1.8-2.2-0.7
		c-1.9,0.8-3.1,1.8-3.6,5.1c-2.1,0-6.4-2.7-8-1.5c-0.6-3.7-4.6-4.1-3.6-9.5c-1.6-0.3-1.4,1-1.5,2.2c-2.3,0.4-2.6-1.3-5.1-0.7
		c-0.5-3.1-2.4-4.8-6.5-4.4c0-0.7,0-1.5,0-2.2c-2.6,0.7-4.5,2.3-7.3,2.9c-2,0.9,2.3,1.5,1.5,3.6c-1.5-1.1-2.3,1.3-3.6,1.5
		c-1.2,0.1-4-1.2-5.8-1.5c-3.4-0.4-5.2-1-8.7-2.2c-2-0.7-3.2-2.2-5.8-1.5c1.5-2.8,0.1-5.5-1.5-7.3c-0.3,1.9-2.5,5.7-1.5,6.5
		c-1.5,2.4-6.7,1-9.5,2.2c-1-1.6,1.6-1.7,2.2-2.9c0.5-1-0.3-2.6,0-3.6c0.2-0.7,1.3-1.2,1.5-2.2c0.2-2-1.3-3.2-1.5-5.1
		c-0.1-1.3,0.4-4.6,0.7-5.8c0.4-1.6,2.5-3.2,2.9-5.1c0.7-3.5,0.4-8.6,0-10.2c-0.3-1.1-2.4-2-2.9-2.9c-0.8-1.4-0.3-5.5-2.9-5.8
		c0.7-6.1-2.9-7.8-5.1-10.9c0.5-8.5-0.8-15.2-0.7-23.3c13.4-0.2,28.4-1.5,42.2-2.2c4.7-0.3,9.5-0.3,13.8,0
		C850,350.7,851.3,350.2,852.6,348.7z"/>
	<path class="st0" d="M844.7,431.6c-1.5,1.6-2.1-0.9-4.4-0.7C841,429.1,844.7,428.9,844.7,431.6z"/>
	<path class="st0" d="M856.3,435.2c0.8,0.2,0.5,1.4,1.5,1.5C857.1,438.7,854.5,436.1,856.3,435.2z"/>
	<path class="st2" d="M731.9,474.5c-2.2-1-5.8-1-8,0c0.8,1.7,2,0.7,2.9,1.5c0.7,0.6,1.2,1.6,2.2,2.9c-0.2,3-2.2,4.1-2.2,7.3
		c-4.3,1-5.4-1.4-8-2.2c-0.1,2.3,1.9,2.4,1.5,5.1c2.6,0.3,3.5,1.1,5.8,0c-0.9,2-0.9,5-2.9,5.8c-1.5,3.3,1.6,4.4,2.2,6.5
		c0.6,2,0.2,4.5,0.7,6.5c0.4,1.7,1.8,2.8,2.2,4.4c0.6,2.6-0.6,5.6,1.5,7.3c0.3,1.7-3.3-0.4-2.2,2.2c-3.5,0-4.6-4.2-8-5.1
		c-3.2-0.8-6.4,0.6-10.9,0c-2.6-2-4.3-4.9-9.5-4.4c-0.9-3-4.1-3.6-8-3.6c-0.8-0.3-0.3-1.5-0.7-2.2c-0.1-0.2-1.5-0.7-1.5-0.7
		c-0.6-1.5-0.2-3.6-0.7-5.1c-1.1-3.3-3.2-5.8-5.1-8c-0.5-1.5,0.8-1.9,0.7-2.9c0-1.6-1.3-1.8-1.5-2.9c-0.2-1.8,1-3.6,0-5.8
		c-0.8-2.1-3-2.8-5.1-3.6c-1.8-4-4.8-6.9-6.5-10.9c-0.7-1.3-2.5-1.3-3.6-2.2c-0.5-1.7-1.1-2.7-1.5-5.8c0-0.1-0.4-2-1.5-3.6
		c-0.2-0.3-1.3-0.5-1.5-0.7c-0.2-0.4,0.2-1.1,0-1.5c-0.7-1.2-1-2.4-2.2-3.6c-0.6-0.6-0.7-3.3-1.5-5.1c-1.3-3.3-4.1-5.1-6.5-8
		c-1.1-1.3-3.2-3.6-5.1-5.1c-0.3-0.2-1.1-0.4-0.7,0c-2.4-2.5-2.6-3.9-4.4-5.8c-3.1,0.8-7.6,0.4-12.4-0.7c-2.6-0.6-5.5-3.3-7.3,0.7
		c-2.4-1-5.2,0.4-6.5,2.2c-1.1,1.5-2.2,4.9-3.6,8c-1.2,2.7-4.2,5.3-6.5,7.3c-4.1,0.1-7.2-3-10.2-5.1c-1-0.7-1.5-1.8-2.2-2.2
		c-1.6-0.8-3.6-0.4-5.1-1.5c-3-2.1-4.5-6.6-8.7-7.3c-0.1-4.2-4.9-6.3-3.6-11.6c0.4-1.7,0.5-3.2-0.7-5.8c-0.1-0.3-0.4-1.7-0.7-2.2
		c-0.1-0.2-1.4-0.5-1.5-0.7c-0.3-0.8,0.4-2.2,0-2.9c-0.7-1.2-1.4-2-2.2-2.9c-1.1-1.2-2.2-2.6-3.6-3.6c-1.1-0.8-3.1-1-4.4-2.2
		c-0.9-0.9-1.4-2.6-2.2-3.6c-0.9-1.2-2-1.8-2.9-2.9c-3.1-3.9-5.1-7.4-10.2-9.5c-0.1-2.1-1.3-3-1.5-5.1c-1.8-2.8-6.4-2.8-5.8-8
		c22.9,2.6,46.3,4.6,70.5,5.8c1-0.3,1.1-1.3,2.2-1.5c2-36,4.8-71.3,7.3-106.9c18.4,1.4,38.1,1.6,56.7,2.9
		c0.1,15.8-0.2,31.3-1.5,45.8c3.3,0.8,4.8,3.4,7.3,5.1c3.7,0.5,5.9-0.9,8,0c1.2,1,0.2,4.1,1.5,5.1c5.6,0.2,10.6,1,13.8,3.6
		c2.8-1.7,3-2,7.3-1.5c-0.3,2.3,0.6,3.2,2.9,2.9c-0.2,1.7,0.1,2.8,0.7,3.6c2.7,0,3.3-2.1,5.1-2.9c1.8,0.7,3,1.9,3.6,3.6
		c2.1,0.2,3.7-0.2,4.4-1.5c1.6,0.3-0.1,4,2.2,3.6c1.6,0.1,1.9-2.3,2.9-3.6c0.3-0.4,0.9-0.6,0.7-1.5c2.8,1,3.5,3,7.3,1.5
		c1,2.4,4.1,2.7,5.8,4.4c1.4-1.5,3.6-2.2,5.1-3.6c2.1-0.7,2.2-0.7,4.4,0c1.8-0.4,3-1.4,4.4-2.2c1.4,0.8,5.6,3.2,7.3,0
		c3.1-0.9,5.4,3.4,7.3,4.4c0.6,0.3,1.6-0.3,2.2,0c0.3,0.1,0.5,1.4,0.7,1.5c2.3,0.8,5.7-0.1,6.5,2.9c2.1-0.9,4.5-0.9,6.5,0
		c0.9,11.9,1,24.7,1.5,37.1c1.1,1.8,2.9,2.9,4.4,4.4c-0.4,2.3,1.6,2.8,0,4.4c0.5,0.9,0.8,1.9,1.5,2.9c0.5,0.8,1.8,1.5,2.2,2.2
		c0.3,0.6-0.3,1.6,0,2.2c1.4,2.4,3.2,2.8,2.9,7.3c0,0.1-0.9,0.1-0.7,0.7c0.1,0.5,0.7,2.7,0.7,4.4c-3.4,3.6-4.4,11.5-2.2,16.7
		c-1.6,2.5-7.5,5.9-3.6,9.5c-1.9,1.1-3.3,0.8-5.1,1.5c-2,0.7-3.5,2.5-5.1,2.9c-1.2,0.3-1.3-0.8-2.2-0.7c-0.7,0.1-3.3,1.1-5.1,0.7
		c1-0.9,0.7-3.2,0.7-5.1c-2.6-2-3.2,1.9-4.4,2.2c-1.5,0.3-1.6-2.9-2.9-0.7c0,3.9,1.6,5.5,2.9,9.5c-2.4,0.5-2.6,3.2-5.1,3.6
		c-0.2,6.4-6.5,6.6-9.5,10.2c-2.7-0.6-3.5,0.9-5.8,0.7c-1,0.2-0.6,1.8-0.7,2.9c-1.6,0.3-1-1.3-2.2-1.5c0.6,0.1-2.7,1.6-3.6,0.7
		c-0.1-0.1,0.2-1.4,0-1.5c-1.4-0.5-4,2.4-4.4-1.5c-2.1,0.6,0.4,2.3,0,3.6c-3.2,0.5-1.7-3.7-5.1-2.9c-1.8,1.7,4.1,4.6,1.5,7.3
		c0.6-0.6,1.6-0.8,2.9-0.7c-2.2,3.4-5.1,2.8-7.3,0c-1.7,2.1,1.3,5-1.5,6.5c-1-3.1-4.9,2.4-7.3,0c0.8,2.3-0.7,4,2.2,5.1
		c-0.2-1.2,0.7-1.3,0.7-2.2C735.9,470.8,731.6,472.2,731.9,474.5z"/>
</g>
<rect x="1420.6" y="153.9" class="st3" width="254.3" height="31.2"/>
<rect x="1420.6" y="231.3" class="st3" width="254.3" height="31.2"/>
<rect x="1420.6" y="309.6" class="st3" width="254.3" height="31.2"/>
<g>
	<path d="M1448.3,174.6c0.2,0,0.3,0.1,0.4,0.2l1.1,1.2c-0.8,0.9-1.7,1.6-2.8,2.1c-1.1,0.5-2.4,0.7-4,0.7c-1.4,0-2.6-0.2-3.7-0.7
		c-1.1-0.5-2-1.1-2.8-2c-0.8-0.8-1.4-1.9-1.8-3c-0.4-1.2-0.6-2.5-0.6-3.9c0-1.4,0.2-2.7,0.7-3.9c0.4-1.2,1.1-2.2,1.9-3
		c0.8-0.8,1.8-1.5,2.9-2c1.1-0.5,2.4-0.7,3.7-0.7c1.3,0,2.5,0.2,3.5,0.7c1,0.4,1.9,1,2.7,1.7l-0.9,1.3c-0.1,0.1-0.1,0.2-0.2,0.2
		c-0.1,0.1-0.2,0.1-0.4,0.1c-0.2,0-0.4-0.1-0.6-0.2c-0.2-0.2-0.5-0.3-0.9-0.6c-0.4-0.2-0.8-0.4-1.3-0.6c-0.5-0.2-1.2-0.2-2-0.2
		c-0.9,0-1.8,0.2-2.6,0.5c-0.8,0.3-1.4,0.8-2,1.4c-0.6,0.6-1,1.4-1.3,2.3c-0.3,0.9-0.5,1.9-0.5,3c0,1.1,0.2,2.2,0.5,3
		c0.3,0.9,0.8,1.6,1.3,2.3c0.6,0.6,1.2,1.1,2,1.4c0.8,0.3,1.6,0.5,2.5,0.5c0.5,0,1,0,1.5-0.1c0.4-0.1,0.8-0.2,1.2-0.3
		c0.4-0.1,0.7-0.3,1-0.5c0.3-0.2,0.6-0.4,1-0.7c0.1-0.1,0.1-0.1,0.2-0.1C1448.1,174.7,1448.2,174.6,1448.3,174.6z"/>
	<path d="M1453.3,167.3c0.7-0.7,1.5-1.2,2.4-1.6c0.9-0.3,1.8-0.5,2.8-0.5c0.8,0,1.4,0.1,2,0.4c0.6,0.2,1.1,0.6,1.5,1
		c0.4,0.4,0.7,1,0.9,1.6c0.2,0.6,0.3,1.3,0.3,2v8.4h-1.1c-0.3,0-0.4,0-0.6-0.1c-0.1-0.1-0.2-0.2-0.3-0.5l-0.3-1.2
		c-0.3,0.3-0.7,0.6-1,0.8c-0.3,0.2-0.7,0.4-1,0.6c-0.4,0.2-0.7,0.3-1.2,0.4c-0.4,0.1-0.9,0.1-1.4,0.1c-0.5,0-1-0.1-1.5-0.2
		c-0.5-0.1-0.9-0.4-1.2-0.7c-0.3-0.3-0.6-0.7-0.8-1.1c-0.2-0.4-0.3-1-0.3-1.6c0-0.5,0.1-1,0.4-1.5c0.3-0.5,0.7-0.9,1.4-1.3
		c0.6-0.4,1.5-0.7,2.5-0.9c1-0.2,2.3-0.4,3.8-0.4v-1c0-1-0.2-1.7-0.6-2.2c-0.4-0.5-1.1-0.7-1.9-0.7c-0.6,0-1,0.1-1.4,0.2
		c-0.4,0.1-0.7,0.3-1,0.5c-0.3,0.2-0.5,0.3-0.7,0.5c-0.2,0.1-0.4,0.2-0.6,0.2c-0.2,0-0.3,0-0.4-0.1c-0.1-0.1-0.2-0.2-0.3-0.3
		L1453.3,167.3z M1460.7,172.8c-1,0-1.9,0.1-2.6,0.2c-0.7,0.1-1.3,0.3-1.8,0.5c-0.5,0.2-0.8,0.5-1,0.7c-0.2,0.3-0.3,0.6-0.3,0.9
		c0,0.3,0.1,0.6,0.2,0.9c0.1,0.2,0.3,0.4,0.4,0.6c0.2,0.2,0.4,0.3,0.7,0.3c0.3,0.1,0.5,0.1,0.8,0.1c0.4,0,0.7,0,1.1-0.1
		c0.3-0.1,0.6-0.2,0.9-0.3c0.3-0.1,0.6-0.3,0.8-0.5c0.3-0.2,0.5-0.4,0.8-0.7V172.8z"/>
	<path d="M1470.8,159.4v19.2h-2.6v-19.2H1470.8z"/>
	<path d="M1479.1,161.3c0,0.2,0,0.5-0.1,0.7c-0.1,0.2-0.2,0.4-0.4,0.6c-0.2,0.2-0.3,0.3-0.6,0.4c-0.2,0.1-0.4,0.1-0.7,0.1
		s-0.5,0-0.7-0.1c-0.2-0.1-0.4-0.2-0.6-0.4c-0.2-0.2-0.3-0.3-0.4-0.6c-0.1-0.2-0.1-0.4-0.1-0.7c0-0.2,0-0.5,0.1-0.7
		c0.1-0.2,0.2-0.4,0.4-0.6c0.2-0.2,0.3-0.3,0.6-0.4c0.2-0.1,0.4-0.1,0.7-0.1s0.5,0,0.7,0.1c0.2,0.1,0.4,0.2,0.6,0.4
		c0.2,0.2,0.3,0.3,0.4,0.6C1479.1,160.9,1479.1,161.1,1479.1,161.3z M1478.6,165.4v13.2h-2.5v-13.2H1478.6z"/>
	<path d="M1484.8,178.7v-11.2l-1.4-0.2c-0.2,0-0.4-0.1-0.5-0.2c-0.1-0.1-0.2-0.2-0.2-0.4v-1.1h2.1v-1.2c0-0.8,0.1-1.4,0.3-2
		c0.2-0.6,0.5-1.1,0.9-1.5c0.4-0.4,0.9-0.7,1.5-0.9c0.6-0.2,1.2-0.3,1.9-0.3c0.6,0,1.2,0.1,1.7,0.3l-0.1,1.3c0,0.1,0,0.2-0.1,0.3
		s-0.1,0.1-0.2,0.1c-0.1,0-0.2,0-0.4,0c-0.1,0-0.3,0-0.5,0c-0.4,0-0.7,0-1.1,0.1c-0.3,0.1-0.6,0.3-0.8,0.5c-0.2,0.2-0.4,0.5-0.5,0.9
		c-0.1,0.4-0.2,0.8-0.2,1.4v1.1h3.7v1.9h-3.6v11.2H1484.8z"/>
	<path d="M1499.9,165.2c1,0,1.9,0.2,2.6,0.5c0.8,0.3,1.5,0.8,2,1.4c0.6,0.6,1,1.3,1.3,2.2c0.3,0.8,0.4,1.8,0.4,2.8
		c0,1-0.1,2-0.4,2.8c-0.3,0.8-0.7,1.6-1.3,2.2c-0.6,0.6-1.2,1-2,1.4c-0.8,0.3-1.7,0.5-2.6,0.5c-1,0-1.9-0.2-2.7-0.5
		c-0.8-0.3-1.5-0.8-2-1.4c-0.6-0.6-1-1.3-1.3-2.2c-0.3-0.8-0.4-1.8-0.4-2.8c0-1,0.1-2,0.4-2.8c0.3-0.8,0.7-1.6,1.3-2.2
		c0.6-0.6,1.2-1.1,2-1.4C1498,165.4,1498.9,165.2,1499.9,165.2z M1499.9,176.9c1.3,0,2.2-0.4,2.8-1.3c0.6-0.8,0.9-2,0.9-3.6
		c0-1.5-0.3-2.7-0.9-3.6c-0.6-0.8-1.6-1.3-2.8-1.3c-1.3,0-2.2,0.4-2.8,1.3c-0.6,0.8-0.9,2-0.9,3.6c0,1.5,0.3,2.7,0.9,3.6
		C1497.7,176.4,1498.6,176.9,1499.9,176.9z"/>
	<path d="M1513,168c0.4-0.9,0.9-1.6,1.5-2c0.6-0.5,1.3-0.7,2.2-0.7c0.3,0,0.6,0,0.8,0.1c0.3,0.1,0.5,0.2,0.7,0.3l-0.2,1.9
		c-0.1,0.2-0.2,0.4-0.4,0.4c-0.1,0-0.3,0-0.5-0.1c-0.2,0-0.5-0.1-0.8-0.1c-0.4,0-0.8,0.1-1.1,0.2c-0.3,0.1-0.6,0.3-0.8,0.5
		c-0.2,0.2-0.5,0.5-0.7,0.8s-0.4,0.7-0.5,1.1v8.3h-2.5v-13.2h1.5c0.3,0,0.5,0.1,0.6,0.1c0.1,0.1,0.2,0.3,0.2,0.5L1513,168z"/>
	<path d="M1524.1,167.3c0.3-0.3,0.6-0.6,0.9-0.8c0.3-0.3,0.6-0.5,1-0.6s0.7-0.3,1.1-0.4c0.4-0.1,0.8-0.1,1.3-0.1
		c0.7,0,1.4,0.1,1.9,0.4c0.6,0.2,1,0.6,1.4,1c0.4,0.4,0.7,1,0.8,1.6c0.2,0.6,0.3,1.3,0.3,2v8.4h-2.6v-8.4c0-0.9-0.2-1.7-0.7-2.2
		c-0.4-0.5-1.1-0.8-2-0.8c-0.7,0-1.3,0.2-1.8,0.5c-0.6,0.3-1.1,0.7-1.6,1.3v9.7h-2.5v-13.2h1.5c0.4,0,0.6,0.2,0.7,0.5L1524.1,167.3z
		"/>
	<path d="M1541,161.3c0,0.2,0,0.5-0.1,0.7c-0.1,0.2-0.2,0.4-0.4,0.6c-0.2,0.2-0.3,0.3-0.6,0.4c-0.2,0.1-0.4,0.1-0.7,0.1
		s-0.5,0-0.7-0.1c-0.2-0.1-0.4-0.2-0.6-0.4c-0.2-0.2-0.3-0.3-0.4-0.6c-0.1-0.2-0.1-0.4-0.1-0.7c0-0.2,0-0.5,0.1-0.7s0.2-0.4,0.4-0.6
		c0.2-0.2,0.3-0.3,0.6-0.4c0.2-0.1,0.4-0.1,0.7-0.1s0.5,0,0.7,0.1c0.2,0.1,0.4,0.2,0.6,0.4c0.2,0.2,0.3,0.3,0.4,0.6
		C1541,160.9,1541,161.1,1541,161.3z M1540.6,165.4v13.2h-2.5v-13.2H1540.6z"/>
	<path d="M1545.5,167.3c0.7-0.7,1.5-1.2,2.4-1.6c0.9-0.3,1.8-0.5,2.8-0.5c0.8,0,1.4,0.1,2,0.4c0.6,0.2,1.1,0.6,1.5,1
		c0.4,0.4,0.7,1,0.9,1.6c0.2,0.6,0.3,1.3,0.3,2v8.4h-1.1c-0.3,0-0.4,0-0.6-0.1c-0.1-0.1-0.2-0.2-0.3-0.5l-0.3-1.2
		c-0.3,0.3-0.7,0.6-1,0.8c-0.3,0.2-0.7,0.4-1,0.6c-0.4,0.2-0.7,0.3-1.2,0.4c-0.4,0.1-0.9,0.1-1.4,0.1c-0.5,0-1-0.1-1.5-0.2
		c-0.5-0.1-0.9-0.4-1.2-0.7c-0.3-0.3-0.6-0.7-0.8-1.1s-0.3-1-0.3-1.6c0-0.5,0.1-1,0.4-1.5c0.3-0.5,0.7-0.9,1.4-1.3
		c0.6-0.4,1.5-0.7,2.5-0.9c1-0.2,2.3-0.4,3.8-0.4v-1c0-1-0.2-1.7-0.6-2.2c-0.4-0.5-1.1-0.7-1.9-0.7c-0.6,0-1,0.1-1.4,0.2
		c-0.4,0.1-0.7,0.3-1,0.5c-0.3,0.2-0.5,0.3-0.7,0.5c-0.2,0.1-0.4,0.2-0.6,0.2c-0.2,0-0.3,0-0.4-0.1c-0.1-0.1-0.2-0.2-0.3-0.3
		L1545.5,167.3z M1552.9,172.8c-1,0-1.9,0.1-2.6,0.2c-0.7,0.1-1.3,0.3-1.8,0.5c-0.5,0.2-0.8,0.5-1,0.7c-0.2,0.3-0.3,0.6-0.3,0.9
		c0,0.3,0.1,0.6,0.2,0.9c0.1,0.2,0.3,0.4,0.4,0.6c0.2,0.2,0.4,0.3,0.7,0.3c0.3,0.1,0.5,0.1,0.8,0.1c0.4,0,0.7,0,1.1-0.1
		s0.6-0.2,0.9-0.3c0.3-0.1,0.6-0.3,0.8-0.5c0.3-0.2,0.5-0.4,0.8-0.7V172.8z"/>
	<path d="M1626.8,167c1-0.2,1.9-0.3,2.7-0.3c1,0,1.8,0.1,2.6,0.4c0.7,0.3,1.4,0.7,1.9,1.2c0.5,0.5,0.9,1.1,1.1,1.8
		c0.3,0.7,0.4,1.4,0.4,2.2c0,1-0.2,1.9-0.5,2.7c-0.3,0.8-0.8,1.5-1.4,2.1c-0.6,0.6-1.3,1-2.1,1.3c-0.8,0.3-1.7,0.5-2.6,0.5
		c-0.5,0-1.1-0.1-1.6-0.2c-0.5-0.1-1-0.3-1.4-0.4c-0.4-0.2-0.8-0.4-1.2-0.6c-0.4-0.2-0.7-0.5-1-0.7l0.7-1c0.2-0.2,0.4-0.3,0.6-0.3
		c0.2,0,0.4,0.1,0.6,0.2c0.2,0.1,0.5,0.3,0.8,0.4c0.3,0.2,0.7,0.3,1.1,0.4c0.4,0.1,0.9,0.2,1.5,0.2c0.7,0,1.2-0.1,1.8-0.3
		c0.5-0.2,1-0.5,1.3-0.9c0.4-0.4,0.7-0.8,0.9-1.4c0.2-0.5,0.3-1.1,0.3-1.8c0-0.6-0.1-1.1-0.3-1.6c-0.2-0.5-0.4-0.9-0.8-1.2
		c-0.3-0.3-0.8-0.6-1.3-0.8c-0.5-0.2-1.1-0.3-1.8-0.3c-0.5,0-1,0-1.5,0.1c-0.5,0.1-1,0.2-1.6,0.4l-1.5-0.4l1.5-8.7h8.8v1
		c0,0.3-0.1,0.6-0.3,0.8c-0.2,0.2-0.6,0.3-1,0.3h-5.9L1626.8,167z"/>
	<path d="M1651.7,176.5c0.3,0,0.5,0.1,0.6,0.2c0.1,0.1,0.2,0.3,0.2,0.6v1.4H1640v-0.8c0-0.2,0-0.3,0.1-0.5c0.1-0.2,0.2-0.3,0.3-0.5
		l6-6c0.5-0.5,0.9-1,1.4-1.5c0.4-0.5,0.8-0.9,1-1.4c0.3-0.5,0.5-0.9,0.7-1.4c0.2-0.5,0.2-1,0.2-1.5s-0.1-1-0.3-1.4
		c-0.2-0.4-0.4-0.8-0.7-1c-0.3-0.3-0.7-0.5-1.1-0.6c-0.4-0.1-0.8-0.2-1.3-0.2c-0.5,0-0.9,0.1-1.3,0.2c-0.4,0.1-0.8,0.3-1.1,0.6
		c-0.3,0.2-0.6,0.5-0.8,0.9c-0.2,0.3-0.4,0.7-0.4,1.1c-0.1,0.3-0.2,0.5-0.4,0.6c-0.2,0.1-0.4,0.1-0.7,0.1l-1.2-0.2
		c0.1-0.9,0.4-1.6,0.7-2.3c0.4-0.7,0.8-1.2,1.3-1.6s1.1-0.8,1.8-1c0.7-0.2,1.4-0.3,2.2-0.3c0.8,0,1.5,0.1,2.2,0.4
		c0.7,0.2,1.3,0.6,1.8,1c0.5,0.4,0.9,1,1.2,1.6c0.3,0.6,0.4,1.4,0.4,2.2c0,0.7-0.1,1.3-0.3,1.9c-0.2,0.6-0.5,1.2-0.8,1.7
		c-0.4,0.5-0.8,1.1-1.2,1.6c-0.5,0.5-1,1-1.5,1.6l-4.9,5c0.3-0.1,0.7-0.2,1.1-0.2c0.4-0.1,0.7-0.1,1-0.1H1651.7z"/>
	<path d="M1668.7,176.9v1.8h-10v-1.8h4v-12.7c0-0.4,0-0.8,0-1.2l-3.3,2.9c-0.1,0.1-0.2,0.2-0.3,0.2c-0.1,0-0.2,0-0.3,0
		c-0.1,0-0.2-0.1-0.3-0.1c-0.1-0.1-0.1-0.1-0.2-0.2l-0.7-1l5.6-4.8h1.9v16.9H1668.7z"/>
	<path d="M1450.6,217.6h-2.1c-0.2,0-0.4-0.1-0.6-0.2c-0.2-0.1-0.3-0.3-0.3-0.5l-1.7-4.3h-8.2l-1.7,4.3c-0.1,0.2-0.2,0.3-0.3,0.4
		c-0.2,0.1-0.4,0.2-0.6,0.2h-2.1l7.5-18.7h2.8L1450.6,217.6z M1445.1,210.6l-2.8-7.3c-0.2-0.5-0.4-1.1-0.6-1.9
		c-0.1,0.4-0.2,0.7-0.3,1c-0.1,0.3-0.2,0.6-0.3,0.9l-2.8,7.2H1445.1z"/>
	<path d="M1456.3,206.9c0.4-0.9,0.9-1.6,1.5-2c0.6-0.5,1.3-0.7,2.2-0.7c0.3,0,0.6,0,0.8,0.1c0.3,0.1,0.5,0.2,0.7,0.3l-0.2,1.9
		c-0.1,0.2-0.2,0.4-0.4,0.4c-0.1,0-0.3,0-0.5-0.1c-0.2,0-0.5-0.1-0.8-0.1c-0.4,0-0.8,0.1-1.1,0.2c-0.3,0.1-0.6,0.3-0.8,0.5
		c-0.2,0.2-0.5,0.5-0.7,0.8s-0.4,0.7-0.5,1.1v8.3h-2.5v-13.2h1.5c0.3,0,0.5,0.1,0.6,0.1c0.1,0.1,0.2,0.3,0.2,0.5L1456.3,206.9z"/>
	<path d="M1468.2,200.3c0,0.2,0,0.5-0.1,0.7c-0.1,0.2-0.2,0.4-0.4,0.6c-0.2,0.2-0.3,0.3-0.6,0.4c-0.2,0.1-0.4,0.1-0.7,0.1
		s-0.5,0-0.7-0.1c-0.2-0.1-0.4-0.2-0.6-0.4c-0.2-0.2-0.3-0.3-0.4-0.6c-0.1-0.2-0.1-0.4-0.1-0.7c0-0.2,0-0.5,0.1-0.7
		c0.1-0.2,0.2-0.4,0.4-0.6c0.2-0.2,0.3-0.3,0.6-0.4c0.2-0.1,0.4-0.1,0.7-0.1s0.5,0,0.7,0.1c0.2,0.1,0.4,0.2,0.6,0.4s0.3,0.3,0.4,0.6
		C1468.1,199.8,1468.2,200,1468.2,200.3z M1467.7,204.4v13.2h-2.5v-13.2H1467.7z"/>
	<path d="M1482.2,205.4c0,0.2,0,0.4-0.1,0.5c-0.1,0.2-0.1,0.3-0.3,0.4l-6.9,9.2h7.1v2h-10v-1.1c0-0.1,0-0.3,0.1-0.4
		c0.1-0.2,0.1-0.3,0.3-0.5l7-9.3h-6.9v-2h9.9V205.4z"/>
	<path d="M1491.8,204.2c1,0,1.9,0.2,2.6,0.5c0.8,0.3,1.5,0.8,2,1.4c0.6,0.6,1,1.3,1.3,2.2c0.3,0.8,0.4,1.8,0.4,2.8
		c0,1-0.1,2-0.4,2.8c-0.3,0.8-0.7,1.6-1.3,2.2c-0.6,0.6-1.2,1-2,1.4c-0.8,0.3-1.7,0.5-2.6,0.5c-1,0-1.9-0.2-2.7-0.5
		c-0.8-0.3-1.5-0.8-2-1.4c-0.6-0.6-1-1.3-1.3-2.2c-0.3-0.8-0.4-1.8-0.4-2.8c0-1,0.1-2,0.4-2.8c0.3-0.8,0.7-1.6,1.3-2.2
		c0.6-0.6,1.2-1.1,2-1.4C1489.9,204.3,1490.8,204.2,1491.8,204.2z M1491.8,215.8c1.3,0,2.2-0.4,2.8-1.3c0.6-0.8,0.9-2,0.9-3.6
		c0-1.5-0.3-2.7-0.9-3.6c-0.6-0.8-1.6-1.3-2.8-1.3c-1.3,0-2.2,0.4-2.8,1.3c-0.6,0.8-0.9,2-0.9,3.6c0,1.5,0.3,2.7,0.9,3.6
		C1489.5,215.4,1490.5,215.8,1491.8,215.8z"/>
	<path d="M1504.9,206.2c0.3-0.3,0.6-0.6,0.9-0.8c0.3-0.3,0.6-0.5,1-0.6c0.4-0.2,0.7-0.3,1.1-0.4c0.4-0.1,0.8-0.1,1.3-0.1
		c0.7,0,1.4,0.1,1.9,0.4c0.6,0.2,1,0.6,1.4,1c0.4,0.4,0.7,1,0.8,1.6c0.2,0.6,0.3,1.3,0.3,2v8.4h-2.6v-8.4c0-0.9-0.2-1.7-0.7-2.2
		c-0.4-0.5-1.1-0.8-2-0.8c-0.7,0-1.3,0.2-1.8,0.5c-0.6,0.3-1.1,0.7-1.6,1.3v9.7h-2.5v-13.2h1.5c0.4,0,0.6,0.2,0.7,0.5L1504.9,206.2z
		"/>
	<path d="M1518.3,206.2c0.7-0.7,1.5-1.2,2.4-1.6c0.9-0.3,1.8-0.5,2.8-0.5c0.8,0,1.4,0.1,2,0.4c0.6,0.2,1.1,0.6,1.5,1
		c0.4,0.4,0.7,1,0.9,1.6c0.2,0.6,0.3,1.3,0.3,2v8.4h-1.1c-0.3,0-0.4,0-0.6-0.1c-0.1-0.1-0.2-0.2-0.3-0.5l-0.3-1.2
		c-0.3,0.3-0.7,0.6-1,0.8c-0.3,0.2-0.7,0.4-1,0.6c-0.4,0.2-0.7,0.3-1.2,0.4c-0.4,0.1-0.9,0.1-1.4,0.1c-0.5,0-1-0.1-1.5-0.2
		c-0.5-0.1-0.9-0.4-1.2-0.7c-0.3-0.3-0.6-0.7-0.8-1.1c-0.2-0.4-0.3-1-0.3-1.6c0-0.5,0.1-1,0.4-1.5c0.3-0.5,0.7-0.9,1.4-1.3
		c0.6-0.4,1.5-0.7,2.5-0.9c1-0.2,2.3-0.4,3.8-0.4v-1c0-1-0.2-1.7-0.6-2.2s-1.1-0.7-1.9-0.7c-0.6,0-1,0.1-1.4,0.2
		c-0.4,0.1-0.7,0.3-1,0.5c-0.3,0.2-0.5,0.3-0.7,0.5c-0.2,0.1-0.4,0.2-0.6,0.2c-0.2,0-0.3,0-0.4-0.1c-0.1-0.1-0.2-0.2-0.3-0.3
		L1518.3,206.2z M1525.8,211.7c-1,0-1.9,0.1-2.6,0.2c-0.7,0.1-1.3,0.3-1.8,0.5s-0.8,0.5-1,0.7c-0.2,0.3-0.3,0.6-0.3,0.9
		c0,0.3,0.1,0.6,0.2,0.9s0.3,0.4,0.4,0.6c0.2,0.2,0.4,0.3,0.7,0.3c0.3,0.1,0.5,0.1,0.8,0.1c0.4,0,0.7,0,1.1-0.1s0.6-0.2,0.9-0.3
		c0.3-0.1,0.6-0.3,0.8-0.5c0.3-0.2,0.5-0.4,0.8-0.7V211.7z"/>
	<path d="M1626.7,205.9c-0.2,0.2-0.3,0.4-0.5,0.6s-0.3,0.4-0.4,0.6c0.4-0.3,0.9-0.5,1.5-0.7c0.5-0.2,1.1-0.2,1.7-0.2
		c0.8,0,1.5,0.1,2.1,0.4c0.7,0.2,1.3,0.6,1.8,1.1c0.5,0.5,0.9,1.1,1.2,1.7c0.3,0.7,0.4,1.5,0.4,2.4c0,0.9-0.2,1.7-0.5,2.4
		c-0.3,0.7-0.7,1.4-1.3,1.9c-0.6,0.5-1.2,1-2,1.3c-0.8,0.3-1.7,0.5-2.6,0.5c-0.9,0-1.8-0.1-2.6-0.4c-0.8-0.3-1.4-0.7-1.9-1.3
		c-0.5-0.6-0.9-1.2-1.2-2c-0.3-0.8-0.4-1.7-0.4-2.6c0-0.8,0.2-1.7,0.5-2.6c0.4-0.9,0.9-1.9,1.7-3l4.7-6.4c0.1-0.2,0.3-0.3,0.5-0.4
		c0.2-0.1,0.5-0.2,0.7-0.2h2.1L1626.7,205.9z M1628.1,215.9c0.6,0,1.2-0.1,1.7-0.3c0.5-0.2,0.9-0.5,1.3-0.8c0.4-0.4,0.6-0.8,0.8-1.3
		s0.3-1,0.3-1.6c0-0.6-0.1-1.2-0.3-1.6s-0.5-0.9-0.8-1.3c-0.4-0.3-0.8-0.6-1.3-0.8c-0.5-0.2-1-0.3-1.6-0.3c-0.6,0-1.2,0.1-1.7,0.3
		c-0.5,0.2-0.9,0.5-1.3,0.9c-0.4,0.4-0.6,0.8-0.8,1.3c-0.2,0.5-0.3,1-0.3,1.5c0,0.6,0.1,1.1,0.3,1.6c0.2,0.5,0.4,0.9,0.8,1.3
		c0.3,0.4,0.7,0.6,1.2,0.8C1626.9,215.8,1627.5,215.9,1628.1,215.9z"/>
	<path d="M1651.6,210.9v1.3c0,0.1,0,0.3-0.1,0.4c-0.1,0.1-0.2,0.1-0.4,0.1h-2.3v4.9h-2v-4.9h-8.3c-0.2,0-0.3,0-0.4-0.1
		c-0.1-0.1-0.2-0.2-0.2-0.4l-0.2-1.2l9.1-12.1h2.2v11.9H1651.6z M1646.8,210.9v-7.7c0-0.2,0-0.5,0-0.7c0-0.3,0-0.5,0.1-0.8l-6.8,9.3
		H1646.8z"/>
	<path d="M1452.6,247.2c0,1.4-0.2,2.7-0.7,3.9c-0.4,1.2-1.1,2.2-1.9,3c-0.8,0.8-1.8,1.5-2.9,2s-2.4,0.7-3.8,0.7
		c-1.4,0-2.6-0.2-3.8-0.7c-1.1-0.5-2.1-1.1-2.9-2c-0.8-0.8-1.4-1.9-1.9-3c-0.5-1.2-0.7-2.5-0.7-3.9c0-1.4,0.2-2.7,0.7-3.8
		c0.5-1.2,1.1-2.2,1.9-3c0.8-0.8,1.8-1.5,2.9-2c1.1-0.5,2.4-0.7,3.8-0.7c1.4,0,2.7,0.2,3.8,0.7c1.1,0.5,2.1,1.1,2.9,2
		c0.8,0.8,1.4,1.9,1.9,3C1452.4,244.5,1452.6,245.8,1452.6,247.2z M1449.8,247.2c0-1.1-0.2-2.1-0.5-3c-0.3-0.9-0.7-1.6-1.3-2.3
		s-1.2-1.1-2-1.4c-0.8-0.3-1.7-0.5-2.7-0.5c-1,0-1.9,0.2-2.7,0.5c-0.8,0.3-1.5,0.8-2,1.4c-0.6,0.6-1,1.4-1.3,2.3
		c-0.3,0.9-0.5,1.9-0.5,3c0,1.1,0.2,2.1,0.5,3s0.7,1.6,1.3,2.2c0.6,0.6,1.2,1.1,2,1.4c0.8,0.3,1.7,0.5,2.7,0.5c1,0,1.9-0.2,2.7-0.5
		c0.8-0.3,1.5-0.8,2-1.4c0.6-0.6,1-1.4,1.3-2.2S1449.8,248.3,1449.8,247.2z"/>
	<path d="M1459.4,237.3v11.2h0.6c0.2,0,0.3,0,0.5-0.1c0.1-0.1,0.2-0.2,0.4-0.3l4-4.4c0.1-0.2,0.3-0.3,0.4-0.4
		c0.1-0.1,0.3-0.1,0.6-0.1h2.3l-4.7,5.1c-0.3,0.3-0.5,0.6-0.8,0.7c0.2,0.1,0.3,0.2,0.4,0.4c0.1,0.1,0.3,0.3,0.4,0.5l5,6.5h-2.3
		c-0.2,0-0.4,0-0.5-0.1s-0.3-0.2-0.4-0.4l-4.1-5.3c-0.1-0.2-0.3-0.3-0.4-0.4s-0.3-0.1-0.6-0.1h-0.7v6.3h-2.5v-19.2H1459.4z"/>
	<path d="M1474.5,237.3v19.2h-2.6v-19.2H1474.5z"/>
	<path d="M1479.3,245.2c0.7-0.7,1.5-1.2,2.4-1.6c0.9-0.3,1.8-0.5,2.8-0.5c0.8,0,1.4,0.1,2,0.4c0.6,0.2,1.1,0.6,1.5,1
		c0.4,0.4,0.7,1,0.9,1.6c0.2,0.6,0.3,1.3,0.3,2v8.4h-1.1c-0.3,0-0.4,0-0.6-0.1c-0.1-0.1-0.2-0.2-0.3-0.5l-0.3-1.2
		c-0.3,0.3-0.7,0.6-1,0.8c-0.3,0.2-0.7,0.4-1,0.6c-0.4,0.2-0.7,0.3-1.2,0.4c-0.4,0.1-0.9,0.1-1.4,0.1c-0.5,0-1-0.1-1.5-0.2
		c-0.5-0.1-0.9-0.4-1.2-0.7c-0.3-0.3-0.6-0.7-0.8-1.1c-0.2-0.4-0.3-1-0.3-1.6c0-0.5,0.1-1,0.4-1.5c0.3-0.5,0.7-0.9,1.4-1.3
		c0.6-0.4,1.5-0.7,2.5-0.9c1-0.2,2.3-0.4,3.8-0.4v-1c0-1-0.2-1.7-0.6-2.2c-0.4-0.5-1.1-0.7-1.9-0.7c-0.6,0-1,0.1-1.4,0.2
		c-0.4,0.1-0.7,0.3-1,0.5c-0.3,0.2-0.5,0.3-0.7,0.5c-0.2,0.1-0.4,0.2-0.6,0.2c-0.2,0-0.3,0-0.4-0.1c-0.1-0.1-0.2-0.2-0.3-0.3
		L1479.3,245.2z M1486.8,250.7c-1,0-1.9,0.1-2.6,0.2c-0.7,0.1-1.3,0.3-1.8,0.5s-0.8,0.5-1,0.7c-0.2,0.3-0.3,0.6-0.3,0.9
		c0,0.3,0.1,0.6,0.2,0.9s0.3,0.4,0.4,0.6c0.2,0.2,0.4,0.3,0.7,0.3c0.3,0.1,0.5,0.1,0.8,0.1c0.4,0,0.7,0,1.1-0.1
		c0.3-0.1,0.6-0.2,0.9-0.3c0.3-0.1,0.6-0.3,0.8-0.5c0.3-0.2,0.5-0.4,0.8-0.7V250.7z"/>
	<path d="M1496.8,245c0.6-0.6,1.2-1,1.8-1.4c0.7-0.3,1.4-0.5,2.3-0.5c0.7,0,1.4,0.1,1.9,0.4c0.6,0.2,1,0.6,1.4,1
		c0.4,0.4,0.7,1,0.8,1.6c0.2,0.6,0.3,1.3,0.3,2v8.4h-2.6v-8.4c0-0.9-0.2-1.7-0.7-2.2c-0.4-0.5-1.1-0.8-2-0.8c-0.7,0-1.3,0.2-1.8,0.5
		c-0.6,0.3-1.1,0.7-1.6,1.3v9.7h-2.5v-19.2h2.5V245z"/>
	<path d="M1516.1,243.1c1,0,1.9,0.2,2.6,0.5c0.8,0.3,1.5,0.8,2,1.4c0.6,0.6,1,1.3,1.3,2.2c0.3,0.8,0.4,1.8,0.4,2.8
		c0,1-0.1,2-0.4,2.8c-0.3,0.8-0.7,1.6-1.3,2.2c-0.6,0.6-1.2,1-2,1.4c-0.8,0.3-1.7,0.5-2.6,0.5c-1,0-1.9-0.2-2.7-0.5
		c-0.8-0.3-1.5-0.8-2-1.4c-0.6-0.6-1-1.3-1.3-2.2c-0.3-0.8-0.4-1.8-0.4-2.8c0-1,0.1-2,0.4-2.8c0.3-0.8,0.7-1.6,1.3-2.2
		c0.6-0.6,1.2-1.1,2-1.4C1514.2,243.3,1515.1,243.1,1516.1,243.1z M1516.1,254.8c1.3,0,2.2-0.4,2.8-1.3c0.6-0.8,0.9-2,0.9-3.6
		c0-1.5-0.3-2.7-0.9-3.6c-0.6-0.8-1.6-1.3-2.8-1.3c-1.3,0-2.2,0.4-2.8,1.3c-0.6,0.8-0.9,2-0.9,3.6c0,1.5,0.3,2.7,0.9,3.6
		C1513.8,254.3,1514.8,254.8,1516.1,254.8z"/>
	<path d="M1526.8,256.6v-13.2h1.5c0.4,0,0.6,0.2,0.7,0.5l0.2,1.3c0.5-0.6,1-1.1,1.6-1.4s1.3-0.6,2.1-0.6c0.9,0,1.6,0.2,2.1,0.7
		c0.5,0.5,0.9,1.1,1.2,2c0.2-0.5,0.4-0.9,0.7-1.2c0.3-0.3,0.6-0.6,1-0.8c0.4-0.2,0.8-0.4,1.2-0.5c0.4-0.1,0.8-0.2,1.3-0.2
		c0.7,0,1.3,0.1,1.9,0.3c0.6,0.2,1,0.5,1.4,1c0.4,0.4,0.7,1,0.9,1.6c0.2,0.6,0.3,1.3,0.3,2.1v8.4h-2.6v-8.4c0-1-0.2-1.7-0.6-2.2
		c-0.4-0.5-1.1-0.8-1.9-0.8c-0.4,0-0.7,0.1-1,0.2c-0.3,0.1-0.6,0.3-0.9,0.6c-0.2,0.3-0.4,0.6-0.6,0.9c-0.1,0.4-0.2,0.8-0.2,1.3v8.4
		h-2.6v-8.4c0-1-0.2-1.8-0.6-2.3c-0.4-0.5-1-0.7-1.8-0.7c-0.5,0-1.1,0.1-1.5,0.4c-0.5,0.3-0.9,0.7-1.3,1.2v9.8H1526.8z"/>
	<path d="M1549.6,245.2c0.7-0.7,1.5-1.2,2.4-1.6c0.9-0.3,1.8-0.5,2.8-0.5c0.8,0,1.4,0.1,2,0.4c0.6,0.2,1.1,0.6,1.5,1
		c0.4,0.4,0.7,1,0.9,1.6c0.2,0.6,0.3,1.3,0.3,2v8.4h-1.1c-0.3,0-0.4,0-0.6-0.1c-0.1-0.1-0.2-0.2-0.3-0.5l-0.3-1.2
		c-0.3,0.3-0.7,0.6-1,0.8c-0.3,0.2-0.7,0.4-1,0.6c-0.4,0.2-0.7,0.3-1.2,0.4c-0.4,0.1-0.9,0.1-1.4,0.1c-0.5,0-1-0.1-1.5-0.2
		c-0.5-0.1-0.9-0.4-1.2-0.7c-0.3-0.3-0.6-0.7-0.8-1.1c-0.2-0.4-0.3-1-0.3-1.6c0-0.5,0.1-1,0.4-1.5c0.3-0.5,0.7-0.9,1.4-1.3
		c0.6-0.4,1.5-0.7,2.5-0.9c1-0.2,2.3-0.4,3.8-0.4v-1c0-1-0.2-1.7-0.6-2.2c-0.4-0.5-1.1-0.7-1.9-0.7c-0.6,0-1,0.1-1.4,0.2
		c-0.4,0.1-0.7,0.3-1,0.5c-0.3,0.2-0.5,0.3-0.7,0.5c-0.2,0.1-0.4,0.2-0.6,0.2c-0.2,0-0.3,0-0.4-0.1c-0.1-0.1-0.2-0.2-0.3-0.3
		L1549.6,245.2z M1557,250.7c-1,0-1.9,0.1-2.6,0.2c-0.7,0.1-1.3,0.3-1.8,0.5s-0.8,0.5-1,0.7c-0.2,0.3-0.3,0.6-0.3,0.9
		c0,0.3,0.1,0.6,0.2,0.9s0.3,0.4,0.4,0.6c0.2,0.2,0.4,0.3,0.7,0.3c0.3,0.1,0.5,0.1,0.8,0.1c0.4,0,0.7,0,1.1-0.1
		c0.3-0.1,0.6-0.2,0.9-0.3c0.3-0.1,0.6-0.3,0.8-0.5c0.3-0.2,0.5-0.4,0.8-0.7V250.7z"/>
	<path d="M1626.7,244.9c-0.2,0.2-0.3,0.4-0.5,0.6c-0.2,0.2-0.3,0.4-0.4,0.6c0.4-0.3,0.9-0.5,1.5-0.7c0.5-0.2,1.1-0.2,1.7-0.2
		c0.8,0,1.5,0.1,2.1,0.4c0.7,0.2,1.3,0.6,1.8,1.1s0.9,1.1,1.2,1.7c0.3,0.7,0.4,1.5,0.4,2.4c0,0.9-0.2,1.7-0.5,2.4
		c-0.3,0.7-0.7,1.4-1.3,1.9c-0.6,0.5-1.2,1-2,1.3c-0.8,0.3-1.7,0.5-2.6,0.5c-0.9,0-1.8-0.1-2.6-0.5c-0.8-0.3-1.4-0.7-1.9-1.3
		c-0.5-0.6-0.9-1.2-1.2-2c-0.3-0.8-0.4-1.7-0.4-2.6c0-0.8,0.2-1.7,0.5-2.6c0.4-0.9,0.9-1.9,1.7-3l4.7-6.4c0.1-0.2,0.3-0.3,0.5-0.4
		c0.2-0.1,0.5-0.2,0.7-0.2h2.1L1626.7,244.9z M1628.1,254.8c0.6,0,1.2-0.1,1.7-0.3c0.5-0.2,0.9-0.5,1.3-0.8c0.4-0.4,0.6-0.8,0.8-1.3
		c0.2-0.5,0.3-1,0.3-1.6c0-0.6-0.1-1.2-0.3-1.6s-0.5-0.9-0.8-1.3c-0.4-0.3-0.8-0.6-1.3-0.8c-0.5-0.2-1-0.3-1.6-0.3
		c-0.6,0-1.2,0.1-1.7,0.3c-0.5,0.2-0.9,0.5-1.3,0.9c-0.4,0.4-0.6,0.8-0.8,1.3c-0.2,0.5-0.3,1-0.3,1.5c0,0.6,0.1,1.1,0.3,1.6
		s0.4,0.9,0.8,1.3c0.3,0.4,0.7,0.6,1.2,0.8C1626.9,254.7,1627.5,254.8,1628.1,254.8z"/>
	<path d="M1647.5,246.8c1.2,0.3,2.1,0.9,2.7,1.7c0.6,0.8,0.9,1.8,0.9,3c0,0.8-0.2,1.6-0.5,2.2c-0.3,0.7-0.7,1.2-1.3,1.7
		c-0.6,0.5-1.2,0.8-2,1.1c-0.8,0.2-1.6,0.4-2.6,0.4c-0.9,0-1.8-0.1-2.6-0.4c-0.8-0.2-1.4-0.6-2-1.1c-0.6-0.5-1-1-1.3-1.7
		c-0.3-0.7-0.5-1.4-0.5-2.2c0-1.2,0.3-2.2,0.9-3c0.6-0.8,1.5-1.3,2.7-1.7c-1-0.4-1.7-0.9-2.2-1.6c-0.5-0.7-0.8-1.6-0.8-2.6
		c0-0.7,0.1-1.3,0.4-1.9c0.3-0.6,0.7-1.1,1.1-1.6c0.5-0.4,1.1-0.8,1.8-1s1.5-0.4,2.3-0.4c0.8,0,1.6,0.1,2.3,0.4
		c0.7,0.3,1.3,0.6,1.8,1s0.9,1,1.1,1.6c0.3,0.6,0.4,1.2,0.4,1.9c0,1-0.2,1.9-0.7,2.6S1648.4,246.5,1647.5,246.8z M1644.8,254.9
		c0.6,0,1.2-0.1,1.6-0.3c0.5-0.2,0.9-0.4,1.2-0.7c0.3-0.3,0.6-0.7,0.8-1.1c0.2-0.4,0.3-0.9,0.3-1.4c0-0.6-0.1-1.2-0.3-1.6
		c-0.2-0.5-0.5-0.8-0.9-1.1c-0.4-0.3-0.8-0.5-1.2-0.6c-0.5-0.1-1-0.2-1.5-0.2c-0.5,0-1,0.1-1.5,0.2c-0.5,0.1-0.9,0.3-1.2,0.6
		c-0.4,0.3-0.6,0.7-0.9,1.1c-0.2,0.5-0.3,1-0.3,1.6c0,0.5,0.1,1,0.3,1.4c0.2,0.4,0.4,0.8,0.8,1.1c0.3,0.3,0.7,0.5,1.2,0.7
		C1643.6,254.8,1644.2,254.9,1644.8,254.9z M1644.8,239.5c-0.6,0-1,0.1-1.5,0.2c-0.4,0.2-0.8,0.4-1.1,0.7c-0.3,0.3-0.5,0.6-0.6,1
		c-0.1,0.4-0.2,0.8-0.2,1.2c0,0.4,0.1,0.8,0.2,1.2c0.1,0.4,0.3,0.8,0.6,1.1c0.3,0.3,0.6,0.6,1,0.7c0.4,0.2,0.9,0.3,1.6,0.3
		c0.6,0,1.1-0.1,1.6-0.3c0.4-0.2,0.8-0.4,1-0.7c0.3-0.3,0.5-0.7,0.6-1.1c0.1-0.4,0.2-0.8,0.2-1.2c0-0.4-0.1-0.8-0.2-1.2
		c-0.1-0.4-0.4-0.7-0.6-1c-0.3-0.3-0.6-0.5-1.1-0.7C1645.8,239.6,1645.3,239.5,1644.8,239.5z"/>
	<path d="M1447.9,279.1h-5.9v16.4h-2.8v-16.4h-6v-2.3h14.7V279.1z"/>
	<path d="M1459.4,293.6c-0.3,0.4-0.7,0.7-1.1,0.9s-0.8,0.5-1.3,0.6c-0.5,0.2-0.9,0.3-1.4,0.4s-1,0.1-1.5,0.1c-0.9,0-1.8-0.2-2.5-0.5
		c-0.8-0.3-1.5-0.8-2-1.4c-0.6-0.6-1-1.3-1.3-2.2c-0.3-0.9-0.5-1.9-0.5-3c0-0.9,0.1-1.8,0.4-2.6c0.3-0.8,0.7-1.5,1.2-2.1
		c0.5-0.6,1.2-1.1,2-1.4c0.8-0.3,1.6-0.5,2.6-0.5c0.8,0,1.6,0.1,2.2,0.4c0.7,0.3,1.3,0.6,1.8,1.2c0.5,0.5,0.9,1.1,1.2,1.9
		s0.4,1.6,0.4,2.5c0,0.4,0,0.7-0.1,0.8c-0.1,0.1-0.2,0.2-0.5,0.2h-8.7c0,0.8,0.1,1.5,0.3,2.1c0.2,0.6,0.5,1.1,0.8,1.5
		s0.8,0.7,1.3,0.9c0.5,0.2,1,0.3,1.6,0.3c0.6,0,1.1-0.1,1.5-0.2c0.4-0.1,0.8-0.3,1.1-0.4s0.6-0.3,0.8-0.4c0.2-0.1,0.4-0.2,0.5-0.2
		c0.2,0,0.4,0.1,0.5,0.2L1459.4,293.6z M1457.3,287.4c0-0.5-0.1-1-0.2-1.4c-0.1-0.4-0.4-0.8-0.6-1.1c-0.3-0.3-0.6-0.6-1-0.7
		c-0.4-0.2-0.9-0.3-1.4-0.3c-1.1,0-1.9,0.3-2.5,0.9c-0.6,0.6-1,1.5-1.2,2.6H1457.3z"/>
	<path d="M1474.8,295.5h-2.5c-0.2,0-0.4-0.1-0.5-0.2c-0.1-0.1-0.2-0.2-0.3-0.3l-3.2-5c0,0.1-0.1,0.3-0.1,0.4c0,0.1-0.1,0.2-0.2,0.3
		l-2.9,4.3c-0.1,0.1-0.2,0.2-0.3,0.3s-0.3,0.2-0.4,0.2h-2.3l4.6-6.8l-4.4-6.4h2.5c0.2,0,0.3,0,0.4,0.1c0.1,0.1,0.2,0.2,0.2,0.3
		l3.1,4.8c0-0.1,0.1-0.3,0.1-0.4c0.1-0.1,0.1-0.3,0.2-0.4l2.7-4c0.2-0.3,0.4-0.4,0.6-0.4h2.3l-4.4,6.3L1474.8,295.5z"/>
	<path d="M1478.1,284.1c0.7-0.7,1.5-1.2,2.4-1.6c0.9-0.3,1.8-0.5,2.8-0.5c0.8,0,1.4,0.1,2,0.4c0.6,0.2,1.1,0.6,1.5,1
		c0.4,0.4,0.7,1,0.9,1.6c0.2,0.6,0.3,1.3,0.3,2v8.4h-1.1c-0.3,0-0.4,0-0.6-0.1c-0.1-0.1-0.2-0.2-0.3-0.5l-0.3-1.2
		c-0.3,0.3-0.7,0.6-1,0.8c-0.3,0.2-0.7,0.4-1,0.6c-0.4,0.2-0.7,0.3-1.2,0.4c-0.4,0.1-0.9,0.1-1.4,0.1c-0.5,0-1-0.1-1.5-0.2
		c-0.5-0.1-0.9-0.4-1.2-0.7c-0.3-0.3-0.6-0.7-0.8-1.1c-0.2-0.4-0.3-1-0.3-1.6c0-0.5,0.1-1,0.4-1.5c0.3-0.5,0.7-0.9,1.4-1.3
		c0.6-0.4,1.5-0.7,2.5-0.9c1-0.2,2.3-0.4,3.8-0.4v-1c0-1-0.2-1.7-0.6-2.2c-0.4-0.5-1.1-0.7-1.9-0.7c-0.6,0-1,0.1-1.4,0.2
		c-0.4,0.1-0.7,0.3-1,0.5c-0.3,0.2-0.5,0.3-0.7,0.5c-0.2,0.1-0.4,0.2-0.6,0.2c-0.2,0-0.3,0-0.4-0.1c-0.1-0.1-0.2-0.2-0.3-0.3
		L1478.1,284.1z M1485.5,289.6c-1,0-1.9,0.1-2.6,0.2c-0.7,0.1-1.3,0.3-1.8,0.5c-0.5,0.2-0.8,0.5-1,0.7c-0.2,0.3-0.3,0.6-0.3,0.9
		c0,0.3,0.1,0.6,0.2,0.9c0.1,0.2,0.3,0.4,0.4,0.6c0.2,0.2,0.4,0.3,0.7,0.3c0.3,0.1,0.5,0.1,0.8,0.1c0.4,0,0.7,0,1.1-0.1
		c0.3-0.1,0.6-0.2,0.9-0.3c0.3-0.1,0.6-0.3,0.8-0.5c0.3-0.2,0.5-0.4,0.8-0.7V289.6z"/>
	<path d="M1500.8,284.6c-0.1,0.1-0.1,0.2-0.2,0.2c-0.1,0-0.2,0.1-0.3,0.1c-0.1,0-0.3,0-0.5-0.1c-0.2-0.1-0.4-0.2-0.6-0.3
		c-0.2-0.1-0.5-0.2-0.8-0.3s-0.7-0.1-1.1-0.1c-0.4,0-0.7,0-1,0.1c-0.3,0.1-0.6,0.2-0.8,0.4c-0.2,0.2-0.4,0.4-0.5,0.6
		c-0.1,0.2-0.2,0.5-0.2,0.7c0,0.3,0.1,0.6,0.3,0.8c0.2,0.2,0.5,0.4,0.8,0.6c0.3,0.2,0.7,0.3,1.1,0.4s0.8,0.3,1.2,0.4
		c0.4,0.1,0.8,0.3,1.2,0.5c0.4,0.2,0.8,0.4,1.1,0.7c0.3,0.3,0.6,0.6,0.8,1c0.2,0.4,0.3,0.8,0.3,1.4c0,0.6-0.1,1.2-0.3,1.7
		c-0.2,0.5-0.5,1-1,1.4c-0.4,0.4-1,0.7-1.6,0.9c-0.6,0.2-1.4,0.3-2.2,0.3c-0.9,0-1.8-0.2-2.5-0.5c-0.8-0.3-1.4-0.7-1.9-1.2l0.6-1
		c0.1-0.1,0.2-0.2,0.3-0.3c0.1-0.1,0.2-0.1,0.4-0.1c0.2,0,0.3,0.1,0.5,0.2c0.2,0.1,0.4,0.3,0.6,0.4c0.2,0.1,0.5,0.3,0.9,0.4
		c0.3,0.1,0.8,0.2,1.3,0.2c0.4,0,0.8-0.1,1.1-0.2c0.3-0.1,0.6-0.3,0.8-0.4c0.2-0.2,0.4-0.4,0.5-0.6c0.1-0.2,0.2-0.5,0.2-0.8
		c0-0.3-0.1-0.6-0.3-0.9c-0.2-0.2-0.5-0.4-0.8-0.6c-0.3-0.2-0.7-0.3-1.1-0.4c-0.4-0.1-0.8-0.3-1.3-0.4c-0.4-0.1-0.8-0.3-1.3-0.5
		c-0.4-0.2-0.8-0.4-1.1-0.7c-0.3-0.3-0.6-0.6-0.8-1c-0.2-0.4-0.3-0.9-0.3-1.5c0-0.5,0.1-1,0.3-1.5c0.2-0.5,0.5-0.9,0.9-1.2
		c0.4-0.4,0.9-0.6,1.5-0.9c0.6-0.2,1.3-0.3,2-0.3c0.9,0,1.7,0.1,2.4,0.4c0.7,0.3,1.3,0.7,1.8,1.1L1500.8,284.6z"/>
	<path d="M1633.8,293.7v1.8h-10v-1.8h4V281c0-0.4,0-0.8,0-1.2l-3.3,2.9c-0.1,0.1-0.2,0.2-0.3,0.2c-0.1,0-0.2,0-0.3,0
		c-0.1,0-0.2-0.1-0.3-0.1s-0.1-0.1-0.2-0.2l-0.7-1l5.6-4.8h1.9v16.9H1633.8z"/>
	<path d="M1646.3,288.1c0.2-0.3,0.4-0.5,0.5-0.7c0.2-0.2,0.3-0.5,0.5-0.7c-0.5,0.4-1,0.7-1.6,0.9c-0.6,0.2-1.2,0.3-1.9,0.3
		c-0.7,0-1.4-0.1-2-0.4c-0.6-0.2-1.2-0.6-1.7-1c-0.5-0.5-0.9-1-1.1-1.7c-0.3-0.7-0.4-1.4-0.4-2.3c0-0.8,0.2-1.6,0.5-2.3
		c0.3-0.7,0.7-1.3,1.3-1.9c0.5-0.5,1.2-0.9,2-1.3c0.8-0.3,1.6-0.5,2.5-0.5c0.9,0,1.7,0.1,2.4,0.4c0.7,0.3,1.4,0.7,1.9,1.2
		c0.5,0.5,0.9,1.2,1.2,1.9c0.3,0.7,0.4,1.6,0.4,2.4c0,0.5-0.1,1-0.1,1.5c-0.1,0.5-0.2,1-0.4,1.4c-0.2,0.5-0.4,0.9-0.7,1.4
		c-0.3,0.5-0.6,0.9-0.9,1.4l-4.5,6.6c-0.1,0.2-0.3,0.3-0.5,0.4s-0.4,0.1-0.7,0.1h-2.1L1646.3,288.1z M1640.9,282.3
		c0,0.6,0.1,1.1,0.3,1.6c0.2,0.5,0.4,0.9,0.7,1.2c0.3,0.3,0.7,0.6,1.2,0.7c0.5,0.2,1,0.2,1.5,0.2c0.6,0,1.2-0.1,1.7-0.3
		c0.5-0.2,0.9-0.5,1.2-0.8c0.3-0.3,0.6-0.7,0.8-1.2c0.2-0.4,0.3-0.9,0.3-1.4c0-0.6-0.1-1.1-0.3-1.6c-0.2-0.5-0.4-0.9-0.8-1.2
		c-0.3-0.3-0.7-0.6-1.2-0.8c-0.5-0.2-1-0.3-1.5-0.3c-0.6,0-1.1,0.1-1.6,0.3c-0.5,0.2-0.9,0.4-1.2,0.8c-0.3,0.3-0.6,0.7-0.8,1.2
		C1641,281.3,1640.9,281.8,1640.9,282.3z"/>
	<path d="M1655.6,281.9c0.1-0.9,0.4-1.6,0.7-2.3c0.3-0.7,0.8-1.2,1.3-1.6c0.5-0.4,1.1-0.8,1.8-1c0.7-0.2,1.4-0.3,2.2-0.3
		c0.8,0,1.5,0.1,2.2,0.3c0.7,0.2,1.2,0.5,1.7,1c0.5,0.4,0.9,0.9,1.1,1.5c0.3,0.6,0.4,1.2,0.4,2c0,0.6-0.1,1.1-0.2,1.6
		c-0.2,0.5-0.4,0.9-0.7,1.2c-0.3,0.3-0.6,0.6-1,0.9c-0.4,0.2-0.8,0.4-1.3,0.6c1.2,0.3,2.1,0.8,2.7,1.6c0.6,0.8,0.9,1.7,0.9,2.8
		c0,0.9-0.2,1.6-0.5,2.3c-0.3,0.7-0.8,1.3-1.3,1.8c-0.6,0.5-1.2,0.9-2,1.1c-0.8,0.3-1.6,0.4-2.4,0.4c-1,0-1.8-0.1-2.5-0.4
		c-0.7-0.2-1.3-0.6-1.8-1c-0.5-0.4-0.9-0.9-1.2-1.5c-0.3-0.6-0.6-1.2-0.8-1.9l1-0.4c0.3-0.1,0.5-0.1,0.8-0.1
		c0.2,0.1,0.4,0.2,0.5,0.4c0.1,0.2,0.3,0.5,0.4,0.9c0.2,0.3,0.4,0.7,0.7,1c0.3,0.3,0.7,0.6,1.1,0.8c0.5,0.2,1,0.3,1.7,0.3
		c0.7,0,1.2-0.1,1.7-0.3c0.5-0.2,0.9-0.5,1.2-0.8c0.3-0.3,0.6-0.7,0.7-1.1c0.2-0.4,0.2-0.8,0.2-1.2c0-0.5-0.1-1-0.2-1.4
		s-0.4-0.8-0.7-1.1c-0.4-0.3-0.8-0.5-1.5-0.7c-0.6-0.2-1.4-0.3-2.4-0.3v-1.7c0.8,0,1.5-0.1,2-0.3c0.6-0.2,1-0.4,1.4-0.7
		c0.4-0.3,0.6-0.6,0.8-1c0.2-0.4,0.2-0.8,0.2-1.3c0-0.5-0.1-1-0.3-1.4c-0.2-0.4-0.4-0.7-0.7-1c-0.3-0.3-0.6-0.5-1-0.6
		c-0.4-0.1-0.8-0.2-1.3-0.2s-0.9,0.1-1.3,0.2c-0.4,0.1-0.8,0.3-1.1,0.6c-0.3,0.2-0.6,0.5-0.8,0.9c-0.2,0.3-0.4,0.7-0.4,1.1
		c-0.1,0.3-0.3,0.5-0.4,0.6c-0.2,0.1-0.4,0.1-0.7,0.1L1655.6,281.9z"/>
	<path d="M1450.5,325.4v7.3c-0.9,0.7-2,1.2-3,1.5c-1.1,0.3-2.2,0.5-3.5,0.5c-1.5,0-2.9-0.2-4.1-0.7s-2.3-1.1-3.1-2s-1.5-1.9-2-3
		c-0.5-1.2-0.7-2.5-0.7-3.9c0-1.4,0.2-2.7,0.7-3.9c0.4-1.2,1.1-2.2,1.9-3s1.8-1.5,3-2c1.2-0.5,2.5-0.7,4-0.7c0.7,0,1.4,0.1,2.1,0.2
		c0.6,0.1,1.2,0.3,1.8,0.5c0.5,0.2,1.1,0.5,1.5,0.7c0.5,0.3,0.9,0.6,1.3,1l-0.8,1.3c-0.1,0.2-0.3,0.3-0.5,0.4
		c-0.2,0.1-0.4,0-0.7-0.1c-0.2-0.1-0.5-0.3-0.7-0.5c-0.3-0.2-0.6-0.3-1-0.5c-0.4-0.1-0.8-0.3-1.3-0.4c-0.5-0.1-1.1-0.2-1.8-0.2
		c-1,0-2,0.2-2.8,0.5c-0.8,0.3-1.5,0.8-2.1,1.4s-1,1.4-1.3,2.3c-0.3,0.9-0.5,1.9-0.5,3c0,1.1,0.2,2.2,0.5,3.1
		c0.3,0.9,0.8,1.7,1.4,2.3c0.6,0.6,1.3,1.1,2.2,1.4c0.9,0.3,1.8,0.5,2.9,0.5c0.4,0,0.8,0,1.2-0.1c0.4,0,0.7-0.1,1-0.2
		c0.3-0.1,0.6-0.2,1-0.3c0.3-0.1,0.6-0.3,0.9-0.4v-3.9h-2.8c-0.2,0-0.3-0.1-0.4-0.2c-0.1-0.1-0.2-0.2-0.2-0.4v-1.6H1450.5z"/>
	<path d="M1466,332.6c-0.3,0.4-0.7,0.7-1.1,0.9c-0.4,0.3-0.8,0.5-1.3,0.6c-0.5,0.2-0.9,0.3-1.4,0.4c-0.5,0.1-1,0.1-1.5,0.1
		c-0.9,0-1.8-0.2-2.5-0.5c-0.8-0.3-1.5-0.8-2-1.4c-0.6-0.6-1-1.3-1.3-2.2c-0.3-0.9-0.5-1.9-0.5-3c0-0.9,0.1-1.8,0.4-2.6
		c0.3-0.8,0.7-1.5,1.2-2.1c0.5-0.6,1.2-1.1,2-1.4c0.8-0.3,1.6-0.5,2.6-0.5c0.8,0,1.6,0.1,2.2,0.4s1.3,0.6,1.8,1.2
		c0.5,0.5,0.9,1.1,1.2,1.9s0.4,1.6,0.4,2.5c0,0.4,0,0.7-0.1,0.8c-0.1,0.1-0.2,0.2-0.5,0.2h-8.7c0,0.8,0.1,1.5,0.3,2.1
		c0.2,0.6,0.5,1.1,0.8,1.5s0.8,0.7,1.3,0.9c0.5,0.2,1,0.3,1.6,0.3c0.6,0,1.1-0.1,1.5-0.2c0.4-0.1,0.8-0.3,1.1-0.4
		c0.3-0.2,0.6-0.3,0.8-0.4c0.2-0.1,0.4-0.2,0.5-0.2c0.2,0,0.4,0.1,0.5,0.2L1466,332.6z M1463.9,326.4c0-0.5-0.1-1-0.2-1.4
		c-0.1-0.4-0.4-0.8-0.6-1.1c-0.3-0.3-0.6-0.6-1-0.7c-0.4-0.2-0.9-0.3-1.4-0.3c-1.1,0-1.9,0.3-2.5,0.9c-0.6,0.6-1,1.5-1.2,2.6H1463.9
		z"/>
	<path d="M1476.1,321c1,0,1.9,0.2,2.6,0.5c0.8,0.3,1.5,0.8,2,1.4c0.6,0.6,1,1.3,1.3,2.2c0.3,0.8,0.4,1.8,0.4,2.8c0,1-0.1,2-0.4,2.8
		c-0.3,0.8-0.7,1.6-1.3,2.2c-0.6,0.6-1.2,1-2,1.4c-0.8,0.3-1.7,0.5-2.6,0.5c-1,0-1.9-0.2-2.7-0.5c-0.8-0.3-1.5-0.8-2-1.4
		c-0.6-0.6-1-1.3-1.3-2.2c-0.3-0.8-0.4-1.8-0.4-2.8c0-1,0.1-2,0.4-2.8c0.3-0.8,0.7-1.6,1.3-2.2c0.6-0.6,1.2-1.1,2-1.4
		C1474.2,321.2,1475.1,321,1476.1,321z M1476.1,332.7c1.3,0,2.2-0.4,2.8-1.3c0.6-0.8,0.9-2,0.9-3.6s-0.3-2.7-0.9-3.6
		c-0.6-0.8-1.6-1.3-2.8-1.3c-1.3,0-2.2,0.4-2.8,1.3s-0.9,2-0.9,3.6s0.3,2.7,0.9,3.6C1473.9,332.2,1474.8,332.7,1476.1,332.7z"/>
	<path d="M1489.2,323.8c0.4-0.9,0.9-1.6,1.5-2s1.3-0.7,2.2-0.7c0.3,0,0.6,0,0.8,0.1s0.5,0.2,0.7,0.3l-0.2,1.9
		c-0.1,0.2-0.2,0.4-0.4,0.4c-0.1,0-0.3,0-0.5-0.1c-0.2,0-0.5-0.1-0.8-0.1c-0.4,0-0.8,0.1-1.1,0.2c-0.3,0.1-0.6,0.3-0.8,0.5
		c-0.2,0.2-0.5,0.5-0.7,0.8c-0.2,0.3-0.4,0.7-0.5,1.1v8.3h-2.5v-13.2h1.5c0.3,0,0.5,0,0.6,0.1c0.1,0.1,0.2,0.3,0.2,0.5L1489.2,323.8
		z"/>
	<path d="M1509,321.7v1c0,0.3-0.2,0.5-0.6,0.6l-1.4,0.2c0.1,0.3,0.2,0.6,0.3,0.9c0.1,0.3,0.1,0.6,0.1,0.9c0,0.7-0.1,1.2-0.4,1.8
		c-0.3,0.5-0.6,1-1,1.3c-0.4,0.4-1,0.7-1.6,0.9c-0.6,0.2-1.3,0.3-2,0.3c-0.6,0-1.2-0.1-1.7-0.2c-0.3,0.2-0.5,0.3-0.6,0.5
		c-0.1,0.2-0.2,0.4-0.2,0.6c0,0.3,0.1,0.5,0.4,0.7c0.3,0.1,0.6,0.3,1,0.3c0.4,0.1,0.9,0.1,1.4,0.1c0.5,0,1.1,0,1.6,0.1
		c0.6,0,1.1,0.1,1.6,0.2c0.5,0.1,1,0.3,1.4,0.5c0.4,0.2,0.7,0.5,1,0.9c0.3,0.4,0.4,0.9,0.4,1.5c0,0.6-0.1,1.1-0.4,1.7
		c-0.3,0.5-0.7,1-1.2,1.4c-0.5,0.4-1.2,0.8-2,1c-0.8,0.3-1.7,0.4-2.6,0.4c-1,0-1.8-0.1-2.6-0.3c-0.7-0.2-1.3-0.4-1.8-0.8
		c-0.5-0.3-0.8-0.7-1.1-1.1c-0.2-0.4-0.4-0.9-0.4-1.3c0-0.6,0.2-1.2,0.6-1.6c0.4-0.4,1-0.8,1.7-1c-0.4-0.2-0.7-0.4-0.9-0.7
		c-0.2-0.3-0.3-0.7-0.3-1.2c0-0.2,0-0.4,0.1-0.6c0.1-0.2,0.2-0.4,0.3-0.6c0.1-0.2,0.3-0.4,0.5-0.6c0.2-0.2,0.5-0.3,0.7-0.5
		c-0.7-0.4-1.2-0.8-1.5-1.5c-0.4-0.6-0.6-1.3-0.6-2.1c0-0.7,0.1-1.2,0.4-1.8c0.3-0.5,0.6-1,1-1.3c0.4-0.4,1-0.7,1.6-0.9
		c0.6-0.2,1.3-0.3,2-0.3c1.1,0,2.1,0.2,3,0.7H1509z M1506.4,335.2c0-0.3-0.1-0.6-0.3-0.7c-0.2-0.2-0.4-0.3-0.7-0.4
		c-0.3-0.1-0.6-0.2-1-0.2c-0.4,0-0.8-0.1-1.3-0.1c-0.4,0-0.9,0-1.3-0.1c-0.5,0-0.9-0.1-1.3-0.1c-0.5,0.2-0.8,0.5-1.1,0.8
		c-0.3,0.3-0.4,0.7-0.4,1.1c0,0.3,0.1,0.5,0.2,0.8c0.1,0.2,0.4,0.5,0.7,0.6c0.3,0.2,0.7,0.3,1.1,0.4c0.5,0.1,1,0.1,1.6,0.1
		c0.6,0,1.2-0.1,1.7-0.2c0.5-0.1,0.9-0.3,1.2-0.5c0.3-0.2,0.6-0.4,0.7-0.7C1506.3,335.8,1506.4,335.5,1506.4,335.2z M1502.4,327.9
		c0.5,0,0.8-0.1,1.2-0.2c0.3-0.1,0.6-0.3,0.9-0.5c0.2-0.2,0.4-0.5,0.5-0.8c0.1-0.3,0.2-0.7,0.2-1c0-0.8-0.2-1.4-0.7-1.8
		c-0.5-0.5-1.1-0.7-2.1-0.7c-0.9,0-1.6,0.2-2,0.7s-0.7,1.1-0.7,1.8c0,0.4,0.1,0.7,0.2,1c0.1,0.3,0.3,0.6,0.5,0.8
		c0.2,0.2,0.5,0.4,0.9,0.5C1501.5,327.8,1501.9,327.9,1502.4,327.9z"/>
	<path d="M1516,317.1c0,0.2,0,0.5-0.1,0.7c-0.1,0.2-0.2,0.4-0.4,0.6c-0.2,0.2-0.3,0.3-0.6,0.4c-0.2,0.1-0.4,0.1-0.7,0.1
		s-0.5,0-0.7-0.1c-0.2-0.1-0.4-0.2-0.6-0.4c-0.2-0.2-0.3-0.3-0.4-0.6c-0.1-0.2-0.1-0.4-0.1-0.7c0-0.2,0-0.5,0.1-0.7
		c0.1-0.2,0.2-0.4,0.4-0.6c0.2-0.2,0.3-0.3,0.6-0.4c0.2-0.1,0.4-0.1,0.7-0.1s0.5,0,0.7,0.1c0.2,0.1,0.4,0.2,0.6,0.4
		c0.2,0.2,0.3,0.3,0.4,0.6C1516,316.7,1516,316.9,1516,317.1z M1515.5,321.2v13.2h-2.5v-13.2H1515.5z"/>
	<path d="M1520.4,323.1c0.7-0.7,1.5-1.2,2.4-1.6c0.9-0.3,1.8-0.5,2.8-0.5c0.8,0,1.4,0.1,2,0.4c0.6,0.2,1.1,0.6,1.5,1
		c0.4,0.4,0.7,1,0.9,1.6c0.2,0.6,0.3,1.3,0.3,2v8.4h-1.1c-0.3,0-0.4,0-0.6-0.1c-0.1-0.1-0.2-0.2-0.3-0.5l-0.3-1.2
		c-0.3,0.3-0.7,0.6-1,0.8c-0.3,0.2-0.7,0.4-1,0.6c-0.4,0.2-0.7,0.3-1.2,0.4c-0.4,0.1-0.9,0.1-1.4,0.1c-0.5,0-1-0.1-1.5-0.2
		c-0.5-0.1-0.9-0.4-1.2-0.7c-0.3-0.3-0.6-0.7-0.8-1.1c-0.2-0.4-0.3-1-0.3-1.6c0-0.5,0.1-1,0.4-1.5c0.3-0.5,0.7-0.9,1.4-1.3
		c0.6-0.4,1.5-0.7,2.5-0.9c1-0.2,2.3-0.4,3.8-0.4v-1c0-1-0.2-1.7-0.6-2.2c-0.4-0.5-1.1-0.7-1.9-0.7c-0.6,0-1,0.1-1.4,0.2
		c-0.4,0.1-0.7,0.3-1,0.5c-0.3,0.2-0.5,0.3-0.7,0.5c-0.2,0.1-0.4,0.2-0.6,0.2c-0.2,0-0.3,0-0.4-0.1c-0.1-0.1-0.2-0.2-0.3-0.3
		L1520.4,323.1z M1527.9,328.6c-1,0-1.9,0.1-2.6,0.2c-0.7,0.1-1.3,0.3-1.8,0.5c-0.5,0.2-0.8,0.5-1,0.7s-0.3,0.6-0.3,0.9
		c0,0.3,0.1,0.6,0.2,0.9c0.1,0.2,0.3,0.4,0.4,0.6c0.2,0.2,0.4,0.3,0.7,0.3c0.3,0.1,0.5,0.1,0.8,0.1c0.4,0,0.7,0,1.1-0.1
		c0.3-0.1,0.6-0.2,0.9-0.3c0.3-0.1,0.6-0.3,0.8-0.5c0.3-0.2,0.5-0.4,0.8-0.7V328.6z"/>
	<path d="M1626.7,322.8c-0.2,0.2-0.3,0.4-0.5,0.6c-0.2,0.2-0.3,0.4-0.4,0.6c0.4-0.3,0.9-0.5,1.5-0.7c0.5-0.2,1.1-0.2,1.7-0.2
		c0.8,0,1.5,0.1,2.1,0.4c0.7,0.2,1.3,0.6,1.8,1.1c0.5,0.5,0.9,1.1,1.2,1.7c0.3,0.7,0.4,1.5,0.4,2.4c0,0.9-0.2,1.7-0.5,2.4
		c-0.3,0.7-0.7,1.4-1.3,1.9c-0.6,0.5-1.2,1-2,1.3c-0.8,0.3-1.7,0.5-2.6,0.5c-0.9,0-1.8-0.1-2.6-0.4c-0.8-0.3-1.4-0.7-1.9-1.3
		c-0.5-0.6-0.9-1.2-1.2-2c-0.3-0.8-0.4-1.7-0.4-2.6c0-0.8,0.2-1.7,0.5-2.6c0.4-0.9,0.9-1.9,1.7-3l4.7-6.4c0.1-0.2,0.3-0.3,0.5-0.4
		c0.2-0.1,0.5-0.2,0.7-0.2h2.1L1626.7,322.8z M1628.1,332.7c0.6,0,1.2-0.1,1.7-0.3c0.5-0.2,0.9-0.5,1.3-0.8c0.4-0.4,0.6-0.8,0.8-1.3
		c0.2-0.5,0.3-1,0.3-1.6c0-0.6-0.1-1.2-0.3-1.6s-0.5-0.9-0.8-1.3c-0.4-0.3-0.8-0.6-1.3-0.8c-0.5-0.2-1-0.3-1.6-0.3
		c-0.6,0-1.2,0.1-1.7,0.3c-0.5,0.2-0.9,0.5-1.3,0.9c-0.4,0.4-0.6,0.8-0.8,1.3c-0.2,0.5-0.3,1-0.3,1.5c0,0.6,0.1,1.1,0.3,1.6
		c0.2,0.5,0.4,0.9,0.8,1.3c0.3,0.4,0.7,0.6,1.2,0.8C1626.9,332.7,1627.5,332.7,1628.1,332.7z"/>
	<path d="M1651.3,315.8v1c0,0.3,0,0.5-0.1,0.7c-0.1,0.2-0.1,0.4-0.2,0.5l-7.7,15.6c-0.1,0.2-0.3,0.4-0.5,0.6
		c-0.2,0.2-0.5,0.2-0.8,0.2h-1.7l7.8-15.4c0.1-0.2,0.2-0.4,0.4-0.6c0.1-0.2,0.3-0.4,0.4-0.5h-9.7c-0.1,0-0.3-0.1-0.4-0.2
		c-0.1-0.1-0.2-0.2-0.2-0.4v-1.6H1651.3z"/>
</g>
</svg>
